<?xml version="1.0" encoding="UTF-8"?>
<svg width="180px" height="120px" viewBox="0 0 180 120" version="1.1" xmlns="http://www.w3.org/2000/svg" xmlns:xlink="http://www.w3.org/1999/xlink">
    <title>installing-hook</title>
    <defs>
        <linearGradient x1="99.3131251%" y1="48.4889696%" x2="3.42756503%" y2="51.5999513%" id="linearGradient-1">
            <stop stop-color="#262A33" offset="0%"></stop>
            <stop stop-color="#0A3866" offset="100%"></stop>
        </linearGradient>
        <linearGradient x1="0%" y1="48.5449827%" x2="100%" y2="51.4550173%" id="linearGradient-2">
            <stop stop-color="#FFF1E5" offset="0%"></stop>
            <stop stop-color="#FCD0B1" offset="100%"></stop>
        </linearGradient>
    </defs>
    <g id="installing-hook" stroke="none" stroke-width="1" fill="none" fill-rule="evenodd">
        <path d="M12.3527668,43 L148.647233,43 C152.544836,43 154.254599,43.4641281 155.884229,44.3356635 C157.513858,45.207199 158.792801,46.4861419 159.664336,48.1157715 C160.535872,49.7454011 161,51.4551641 161,55.3527668 L161,59.6472332 C161,63.5448359 160.535872,65.2545989 159.664336,66.8842285 C158.792801,68.5138581 157.513858,69.792801 155.884229,70.6643365 C154.254599,71.5358719 152.544836,72 148.647233,72 L12.3527668,72 C8.45516415,72 6.74540111,71.5358719 5.11577148,70.6643365 C3.48614185,69.792801 2.20719898,68.5138581 1.33566352,66.8842285 C0.464128056,65.2545989 9.4593914e-17,63.5448359 -1.44065414e-16,59.6472332 L2.88130828e-16,55.3527668 C-1.89187828e-16,51.4551641 0.464128056,49.7454011 1.33566352,48.1157715 C2.20719898,46.4861419 3.48614185,45.207199 5.11577148,44.3356635 C6.74540111,43.4641281 8.45516415,43 12.3527668,43 Z" id="Rectangle" fill="url(#linearGradient-1)"></path>
        <path d="M76.5419778,54.6855608 L75.4892455,60.6259792 C75.0380745,63.1894509 73.9306547,65.076166 70.5605439,65.2265563 L69.3300775,65.2812437 L69.289062,64.440425 L70.6972624,64.3652299 C73.3017496,64.2353473 74.2314354,62.5537099 74.5253801,60.8447288 L74.6552627,60.099613 L74.5458879,60.099613 C74.0195217,61.4052746 73.0078049,62.1435544 71.5927685,62.1435544 C70.3076147,62.1435544 69.6171864,61.4326183 69.6171864,60.1064489 C69.6171864,56.8183693 72.5361261,54.6855608 76.4120953,54.6855608 L76.5419778,54.6855608 Z M43.4902205,54.6855608 L42.5331911,60.099613 C42.4033085,60.8515647 42.6699095,61.2480483 43.3671738,61.2480483 L43.7773293,61.2480483 L43.6406108,62.0683592 L43.264635,62.0683592 C41.9726452,62.0683592 41.5488179,61.4941416 41.7538957,60.1337926 L41.630849,60.1337926 C41.0292877,61.4257823 39.9765553,62.1435544 38.6914015,62.1435544 C37.3925759,62.1435544 36.654296,61.3984386 36.654296,60.1064489 C36.654296,56.8183693 39.5253843,54.6855608 43.3603379,54.6855608 L43.4902205,54.6855608 Z M68.0995955,54.6855608 L67.1425661,60.099613 C67.0126835,60.8515647 67.2792845,61.2480483 67.9765488,61.2480483 L68.3867043,61.2480483 L68.2499858,62.0683592 L67.87401,62.0683592 C66.5820202,62.0683592 66.1581929,61.4941416 66.3632707,60.1337926 L66.240224,60.1337926 C65.6386627,61.4257823 64.5859303,62.1435544 63.3007765,62.1435544 C62.0019509,62.1435544 61.263671,61.3984386 61.263671,60.1064489 C61.263671,56.8183693 64.1347593,54.6855608 67.9697129,54.6855608 L68.0995955,54.6855608 Z M138.604375,55.602 C140.424375,55.602 141.670375,56.946 141.670375,58.878 C141.670375,60.796 140.424375,62.14 138.604375,62.14 C136.784375,62.14 135.538375,60.796 135.538375,58.878 C135.538375,56.946 136.784375,55.602 138.604375,55.602 Z M131.702375,55.602 C133.522375,55.602 134.768375,56.946 134.768375,58.878 C134.768375,60.796 133.522375,62.14 131.702375,62.14 C129.882375,62.14 128.636375,60.796 128.636375,58.878 C128.636375,56.946 129.882375,55.602 131.702375,55.602 Z M54.0722628,51.6025589 C55.3915963,51.6025589 55.8359313,52.2519717 55.5830021,53.6601722 L55.0224563,56.8593848 L55.1318311,56.8593848 C55.6445255,55.6015747 56.7587811,54.6172016 58.3173719,54.6172016 C59.3701043,54.6172016 59.9716656,55.1845833 59.9716656,56.1894642 C59.9716656,57.5429773 58.9052614,58.6572329 57.1621007,59.4912157 C57.5449125,60.8037132 58.1874894,61.2822279 59.397448,61.2822279 C59.6435413,61.2822279 59.7529161,61.275392 59.9101423,61.2617202 L59.9921734,62.0683592 C59.7665879,62.1093748 59.5478383,62.1367185 59.2333858,62.1367185 C57.5038969,62.1367185 56.4443286,61.0566424 56.1572198,59.0947321 C58.1396379,58.2128978 59.0488158,57.2421966 59.0488158,56.2920031 C59.0488158,55.751965 58.7275274,55.4716921 58.132802,55.4716921 C56.7040938,55.4716921 55.1249952,56.9140722 54.6464805,58.9648495 L54.1132784,62 L53.1835927,62 L54.6601523,53.6328285 C54.8037068,52.8056816 54.6328086,52.4228698 53.9970677,52.4228698 C53.7578103,52.4228698 53.511717,52.4433776 53.2724597,52.498065 L53.1699208,51.7119337 C53.4638656,51.6299026 53.7714822,51.6025589 54.0722628,51.6025589 Z M106.585928,54.6172016 C108.151355,54.6172016 109.081041,55.6494262 109.081041,57.3994228 C109.081041,60.3798859 107.659169,62.1367185 105.259759,62.1367185 C103.694332,62.1367185 102.764647,61.1250017 102.764647,59.4228565 C102.764647,56.4013779 104.186519,54.6172016 106.585928,54.6172016 Z M82.3662011,54.6172016 C83.7675656,54.6172016 84.5947125,55.3281377 84.5947125,56.5312604 C84.5947125,58.3086008 82.5986226,59.2519584 79.2148399,59.3271535 C79.2763633,60.5576199 80.0556587,61.2822279 81.3066328,61.2822279 C82.0517486,61.2822279 82.9472547,61.0292987 83.7402219,60.5986355 L84.0546745,61.3369153 C83.1865121,61.8427737 82.1474515,62.1367185 81.2451095,62.1367185 C79.4062458,62.1367185 78.3261698,61.0498065 78.3261698,59.2041069 C78.3261698,56.3671982 79.8642528,54.6172016 82.3662011,54.6172016 Z M99.1142473,54.6172016 C99.7294805,54.6172016 100.447253,54.671889 101.096665,54.7744278 L100.857408,55.5879029 C100.09862,55.5127077 99.4013562,55.4716921 98.9433492,55.4716921 C97.1455011,55.4716921 96.1132765,55.9638787 96.1132765,56.8252052 C96.1132765,57.1943451 96.4003853,57.474618 96.8994078,57.6113365 L98.9091696,58.1718823 C99.8456913,58.4248115 100.372057,59.0400447 100.372057,59.8603556 C100.372057,61.3095716 99.0185444,62.1367185 96.6601505,62.1367185 C95.6415977,62.1367185 94.7392557,62.0341796 94.1923817,61.8632815 L94.4589828,60.9951191 C95.3544889,61.1796891 96.2089794,61.2822279 96.8105408,61.2822279 C98.4853423,61.2822279 99.4492076,60.7832054 99.4492076,59.915043 C99.4492076,59.4707079 99.1005755,59.1152399 98.4990141,58.9443418 L96.4755805,58.3564523 C95.6552696,58.1171949 95.1835908,57.5908287 95.1835908,56.9140722 C95.1835908,55.4580203 96.612299,54.6172016 99.1142473,54.6172016 Z M49.3212797,54.6172016 C50.7021364,54.6172016 51.5771348,55.1093881 52.0009621,56.121105 L51.2968619,56.6679789 C50.8935423,55.8134884 50.2167858,55.4716921 49.2187408,55.4716921 C47.3867131,55.4716921 46.1767544,56.9824314 46.1699185,59.2793021 C46.1835904,60.5439481 46.9013624,61.2822279 48.1318288,61.2822279 C49.0820223,61.2822279 50.0869032,60.9267599 50.8798705,60.3798859 L51.2216667,61.1181657 C50.3329965,61.7333989 49.1572175,62.1367185 47.9746026,62.1367185 C46.2519496,62.1367185 45.2470687,61.1181657 45.2470687,59.3886769 C45.2470687,56.5107527 46.8603469,54.6172016 49.3212797,54.6172016 Z M93.6386562,52.2929873 L92.5038927,58.7461 C92.1005732,61.0361347 90.9042864,62.1367185 88.7919858,62.1367185 C86.5908181,62.1367185 85.6474605,60.9814473 86.0507801,58.7461 L86.9667939,58.7461 C86.6660133,60.4277374 87.322262,61.3095716 88.9013606,61.3095716 C90.4120999,61.3095716 91.2939341,60.4687529 91.5947148,58.7461 L92.5790879,53.133806 L89.7011637,53.133806 L89.8515541,52.2929873 L93.6386562,52.2929873 Z M144.512375,52.9 L144.512375,58.22 L146.654375,55.742 L148.740375,55.742 L146.136375,58.612 L148.796375,62 L146.766375,62 L144.512375,59.116 L144.512375,62 L142.776375,62 L142.776375,52.9 L144.512375,52.9 Z M115.274404,54.6172016 C116.846667,54.6172016 117.475572,55.5127077 117.174791,57.2353607 L116.333972,62 L115.404287,62 L116.251941,57.1806733 C116.450183,56.0459098 116.067371,55.4716921 115.000967,55.4716921 C113.702141,55.4716921 112.622065,56.4492293 112.054684,59.3134817 L111.583005,62 L110.653319,62 L111.931637,54.7539201 L112.690425,54.7539201 L112.505855,56.7226663 L112.615229,56.7226663 C112.977533,55.3828251 113.920891,54.6172016 115.274404,54.6172016 Z M123.694375,52.9 L123.694375,56.316 C124.030375,55.924 124.646375,55.602 125.374375,55.602 C126.788375,55.602 127.586375,56.526 127.586375,57.912 L127.586375,62 L125.850375,62 L125.850375,58.276 C125.850375,57.618 125.514375,57.17 124.828375,57.17 C124.296375,57.17 123.834375,57.492 123.694375,58.038 L123.694375,62 L121.958375,62 L121.958375,52.9 L123.694375,52.9 Z M32.3613198,52.1562688 C34.7949089,52.1562688 36.0663909,53.1611497 36.0663909,55.0888804 C36.0663909,57.8232502 33.974598,59.2724661 29.9482385,59.3134817 L29.4765597,62 L28.5673817,62 L30.2763628,52.2929873 C30.802729,52.2041202 31.527337,52.1562688 32.3613198,52.1562688 Z M67.0126835,55.5879029 C64.1210874,55.9023554 62.1933567,57.6660239 62.1933567,60.0244178 C62.1933567,60.8310569 62.6855433,61.2890639 63.5126902,61.2890639 C65.0234295,61.2890639 66.240224,59.9628945 66.6503795,57.6250083 Z M75.4550658,55.5810669 C72.6591727,55.9023554 70.5400362,57.6865317 70.5400362,59.9834023 C70.5400362,60.8378928 70.9775353,61.2890639 71.8046822,61.2890639 C73.4931555,61.2890639 74.7031142,59.6142624 75.1816289,57.1191499 L75.2294803,56.8525489 Z M42.4033085,55.5879029 C39.5117124,55.9023554 37.5839817,57.6660239 37.5839817,60.0244178 C37.5839817,60.8310569 38.0761683,61.2890639 38.9033152,61.2890639 C40.4140545,61.2890639 41.630849,59.9628945 42.0410045,57.6250083 Z M106.462882,55.4716921 C104.726557,55.4716921 103.694332,56.8730567 103.694332,59.2382865 C103.694332,60.5234403 104.336909,61.2890639 105.437493,61.2890639 C107.146474,61.2890639 108.158191,59.8876993 108.158191,57.5156336 C108.158191,56.2304798 107.536122,55.4716921 106.462882,55.4716921 Z M131.702375,57.072 C130.834375,57.072 130.358375,57.828 130.358375,58.878 C130.358375,59.914 130.834375,60.67 131.702375,60.67 C132.570375,60.67 133.046375,59.914 133.046375,58.878 C133.046375,57.828 132.570375,57.072 131.702375,57.072 Z M138.604375,57.072 C137.736375,57.072 137.260375,57.828 137.260375,58.878 C137.260375,59.914 137.736375,60.67 138.604375,60.67 C139.472375,60.67 139.948375,59.914 139.948375,58.878 C139.948375,57.828 139.472375,57.072 138.604375,57.072 Z M82.2636623,55.4716921 C80.5615171,55.4716921 79.4404254,56.6269634 79.2421836,58.5478581 C82.0790923,58.472663 83.6718627,57.8164142 83.6718627,56.572276 C83.6718627,55.8886835 83.1591684,55.4716921 82.2636623,55.4716921 Z M32.1835858,52.9970875 C31.7734303,52.9970875 31.3906185,53.0107593 31.0556582,53.038103 L30.0986288,58.4658271 C33.4140522,58.4453193 35.1435411,57.3037199 35.1435411,55.1298959 C35.1435411,53.7353673 34.1249883,52.9970875 32.1835858,52.9970875 Z" id="Combined-Shape" fill="#FFFFFF"></path>
        <path d="M16.3651267,51.2139704 L15.5305514,51.4279408 L15.3070045,51.4996393 L15.0834575,51.5713065 L14.7909091,51.704327 L14.4983607,51.8373162 L14.2842027,51.9700553 L14.0700447,52.1027632 L13.8464978,52.2736332 L13.6229508,52.4445344 L13.3085246,52.7762104 L12.9940686,53.1078551 L12.7943666,53.4018065 L12.5946647,53.6957579 L12.4163636,54.0624705 L12.2380626,54.4292144 L12.1471535,54.7137268 L12.0562444,54.9982393 L11.9988077,55.2875963 L11.9413413,55.5769845 L11.910313,55.9800152 L11.8792846,56.3830458 L11.8792846,57.0464603 L11.8792846,57.7098747 L11.6942772,57.7318156 L11.5092697,57.7537564 L11.4185693,57.7936376 L11.3278689,57.8334874 L11.229687,57.920282 L11.1315052,58.0071079 L11.0657526,58.1360027 L11,58.2648975 L11,60.3277144 L11,62.3905314 L11.0661997,62.5203326 L11.1323994,62.650165 L11.2407452,62.7438044 L11.3491207,62.837475 L11.472608,62.8736681 L11.5961252,62.9098924 L12.4754098,62.9002347 L13.3546945,62.8906082 L13.4739195,62.8231603 L13.5931446,62.7556812 L13.673532,62.6668863 L13.7539195,62.5780602 L13.8002086,62.4618548 L13.8464978,62.3456495 L13.8464978,60.3023668 L13.8464978,58.2591153 L13.7771684,58.1213442 L13.707839,57.9836043 L13.5847094,57.8849016 L13.4615797,57.7861989 L13.3098063,57.7520687 L13.1580328,57.7179384 L13.051386,57.7179384 L12.9447392,57.7179384 L12.9601192,56.8193629 L12.9755291,55.9207873 L13.0249478,55.6396191 L13.0743964,55.3584822 L13.1613413,55.0863153 L13.2482861,54.8141798 L13.3652757,54.5704861 L13.4822653,54.3267924 L13.6528763,54.076754 L13.8234873,53.8267156 L13.9914754,53.6394993 L14.1594635,53.452283 L14.3233979,53.3089798 L14.4873323,53.1656452 L14.6319225,53.0627544 L14.7765425,52.9598324 L15.034307,52.8268432 L15.2921013,52.6938227 L15.485842,52.6243433 L15.6795827,52.5548326 L16.4992548,52.3361115 L17.318927,52.1174217 L17.4852161,52.132549 L17.6514754,52.1476763 L17.8173174,52.2299702 L17.9831893,52.3122329 L18.1036066,52.4492227 L18.2240238,52.5862125 L18.2707303,52.7511441 L18.3174367,52.9160444 L18.3174367,53.8324039 L18.3174367,54.7487322 L18.8560954,54.7487322 L19.3947541,54.7487322 L19.3825931,53.7095101 L19.3704322,52.6702879 L19.3185991,52.4827591 L19.266766,52.2952303 L19.1607154,52.0624445 L19.0546647,51.8296587 L18.9021461,51.6698217 L18.7496274,51.5099846 L18.5707899,51.3898099 L18.3919523,51.2696039 L18.2280179,51.1929359 L18.0640835,51.1162366 L17.9299553,51.0711984 L17.7958271,51.0261603 L17.4977645,51.0130958 L17.1997019,51 L16.3651267,51.2139704 M18.6394039,55.6919396 L18.4515648,55.8538083 L18.1707601,56.1216932 L17.8899553,56.3896093 L17.6393443,56.7021574 L17.3887332,57.0147054 L17.2243517,57.27262 L17.06,57.5305034 L16.9635768,57.7726968 L16.8671833,58.0148591 L16.8185693,58.2023879 L16.7699553,58.3899167 L16.7410432,58.6399551 L16.7121311,58.8899935 L16.7378838,59.1277175 L16.7636662,59.3654416 L16.8129061,59.5652848 L16.8621759,59.765128 L16.9486736,59.9786608 L17.0351714,60.1921623 L17.1944262,60.4474828 L17.3536513,60.702772 L17.5369598,60.9438091 L17.7202385,61.1848461 L17.918152,61.4048487 L18.1160656,61.62482 L18.0752906,61.6795159 L18.0345455,61.7341805 L17.758003,62.0857033 L17.4814605,62.4371948 L17.4511177,62.5208639 L17.420775,62.604533 L17.4402385,62.700704 L17.4597019,62.7968438 L17.5085246,62.8558529 L17.557377,62.9148619 L17.6532936,62.957431 L17.7492101,63 L18.8842921,63 L20.0193443,63 L20.1032787,62.954493 L20.1871833,62.908986 L20.2359165,62.8013132 L20.2846498,62.6936404 L20.2846498,62.6037204 L20.2846498,62.5138316 L20.2334426,62.4365697 L20.1822355,62.3592766 L19.8906706,61.9859692 L19.5991058,61.6126618 L19.8206557,61.3765006 L20.0421759,61.1403393 L20.1777049,60.9635309 L20.3132042,60.7867224 L20.501848,60.4947088 L20.690462,60.2026952 L20.7893592,59.9532194 L20.8882563,59.7037123 L20.9437258,59.4218877 L20.999225,59.1400319 L20.9996125,58.8964945 L21,58.6529571 L20.952608,58.4120451 L20.9052161,58.1711331 L20.8447988,57.9836043 L20.7843815,57.7960754 L20.6653651,57.5587265 L20.5463785,57.3214088 L20.3046498,56.9805126 L20.062921,56.6396478 L19.7937705,56.346634 L19.5245902,56.053589 L19.2135618,55.7918612 L18.9025633,55.5301023 L18.8648882,55.5301023 L18.8272429,55.5301023 L18.6394039,55.6919396 M18.5669449,57.8896523 L18.4439046,57.967008 L18.3928465,58.0798378 L18.3417586,58.1926676 L18.339851,58.3268445 L18.3379136,58.4609901 L18.3962742,58.5817274 L18.4546349,58.7024647 L18.6149329,58.7884154 L18.775231,58.8743661 L18.8667362,58.8736785 L18.9582712,58.8729909 L19.0774963,58.8152945 L19.1967213,58.7575982 L19.2617884,58.6831492 L19.3268852,58.6087003 L19.3586587,58.520718 L19.390462,58.4327358 L19.3899851,58.3175618 L19.3894784,58.2023879 L19.3222951,58.0779938 L19.2551118,57.9536309 L19.1365127,57.8831826 L19.0178838,57.8127342 L18.8539493,57.8125155 L18.6900149,57.8122967 L18.5669449,57.8896523" id="Shape" fill="#FFFFFF"></path>
        <path d="M12.3527668,1 L157.647233,1 C161.544836,1 163.254599,1.46412806 164.884229,2.33566352 C166.513858,3.20719898 167.792801,4.48614185 168.664336,6.11577148 C169.535872,7.74540111 170,9.45516415 170,13.3527668 L170,17.6472332 C170,21.5448359 169.535872,23.2545989 168.664336,24.8842285 C167.792801,26.5138581 166.513858,27.792801 164.884229,28.6643365 C163.254599,29.5358719 161.544836,30 157.647233,30 L12.3527668,30 C8.45516415,30 6.74540111,29.5358719 5.11577148,28.6643365 C3.48614185,27.792801 2.20719898,26.5138581 1.33566352,24.8842285 C0.464128056,23.2545989 9.4593914e-17,21.5448359 -1.44065414e-16,17.6472332 L2.88130828e-16,13.3527668 C-1.89187828e-16,9.45516415 0.464128056,7.74540111 1.33566352,6.11577148 C2.20719898,4.48614185 3.48614185,3.20719898 5.11577148,2.33566352 C6.74540111,1.46412806 8.45516415,1 12.3527668,1 Z" id="Rectangle" fill="#262A33"></path>
        <path d="M160.378843,10.9433747 L160.378843,17.0126991 C160.378843,17.9794941 160.765561,18.4360362 161.748469,18.4360362 C162.059992,18.4360362 162.392999,18.3823254 162.849541,18.2641616 L162.930108,18.9194337 C162.462823,19.0537108 162.059992,19.1074217 161.571224,19.1074217 C160.271421,19.1074217 159.659118,18.4414073 159.659118,17.0288124 L159.659118,11.5986469 L157.859805,11.5986469 L157.859805,10.9433747 L160.378843,10.9433747 Z M154.99353,10.9433747 L154.99353,17.0126991 C154.99353,17.9794941 155.380249,18.4360362 156.363157,18.4360362 C156.67468,18.4360362 157.007687,18.3823254 157.464229,18.2641616 L157.544795,18.9194337 C157.077511,19.0537108 156.67468,19.1074217 156.185911,19.1074217 C154.886109,19.1074217 154.273805,18.4414073 154.273805,17.0288124 L154.273805,11.5986469 L152.474492,11.5986469 L152.474492,10.9433747 L154.99353,10.9433747 Z M33.4570208,10.9433747 L33.4570208,19.0161133 L32.8554595,19.0537108 L32.7480378,17.7592797 L32.6889559,17.7592797 C32.5439366,18.5971687 31.9477464,19.1074217 30.8735297,19.1074217 C29.3803685,19.1074217 28.6015614,18.1137712 28.6015614,16.2070366 C28.6015614,14.2304778 29.3857395,13.1992298 30.895014,13.1992298 C31.8994066,13.1992298 32.5278234,13.6557719 32.6782137,14.5044031 L32.7426667,14.5044031 L32.7426667,10.9433747 L33.4570208,10.9433747 Z M147.8841,13.2529406 L148.947575,13.2690539 C150.80597,13.2959093 151.633116,14.0639743 151.633116,15.7290101 L151.633116,18.3823254 L152.610654,18.4682627 L152.610654,19 L151.085266,19.0537108 L151.031555,17.7968773 L150.945618,17.7968773 C150.816712,18.5917977 149.989565,19.1074217 148.877751,19.1074217 C147.73371,19.1074217 147.078438,18.548829 147.078438,17.5766629 C147.078438,16.3842823 147.93244,15.7666077 149.575991,15.7666077 C150.086244,15.7666077 150.5589,15.7988342 150.929504,15.8632872 L150.929504,15.6215885 C150.929504,14.4614344 150.327943,13.9672948 148.985172,13.9404393 L147.776678,13.918955 L147.8841,13.2529406 Z M36.6079627,13.1992298 C38.1279793,13.1992298 39.0142081,14.2734465 39.0142081,16.1533257 C39.0142081,18.033205 38.1279793,19.1074217 36.6079627,19.1074217 C35.087946,19.1074217 34.2017173,18.033205 34.2017173,16.1533257 C34.2017173,14.2734465 35.087946,13.1992298 36.6079627,13.1992298 Z M143.911383,11.5879048 L143.911383,13.3066515 L146.537842,13.3066515 L146.537842,13.9619237 L143.911383,13.9619237 L143.911383,16.7978558 C143.911383,17.90967 144.400151,18.4360362 145.452884,18.4360362 C145.866457,18.4360362 146.242433,18.3930676 146.672119,18.3286146 L146.752686,18.9785157 C146.274659,19.064453 145.850344,19.1074217 145.345462,19.1074217 C143.879156,19.1074217 143.191657,18.3715832 143.191657,16.813969 L143.191657,13.9619237 L141.553477,13.9619237 L141.553477,13.3066515 L143.191657,13.3066515 L143.191657,11.5879048 L143.911383,11.5879048 Z M139.659369,13.1992298 C140.158879,13.1992298 140.550968,13.2314563 141.077335,13.3066515 L140.996768,13.9458104 C140.416691,13.8920996 140.008489,13.8706153 139.627142,13.8706153 C138.096383,13.8706153 137.451853,14.1499116 137.451853,14.8105549 C137.451853,15.208015 137.779489,15.4711981 138.547554,15.653815 L139.56806,15.9008848 C140.738956,16.1855522 141.227725,16.6635787 141.227725,17.5014677 C141.227725,18.6293952 140.41132,19.1074217 138.488472,19.1074217 C137.655954,19.1074217 137.097362,19.0590819 136.630078,18.9462892 L136.716015,18.2641616 C137.451853,18.3823254 137.978219,18.4360362 138.488472,18.4360362 C139.890325,18.4360362 140.491887,18.1567399 140.491887,17.5068388 C140.491887,17.0556678 140.21259,16.7817425 139.56806,16.62061 L138.289742,16.298345 C137.183299,16.0190487 136.716015,15.5786198 136.716015,14.8266681 C136.716015,13.6772562 137.591501,13.1992298 139.659369,13.1992298 Z M41.590444,11.5879048 L41.590444,13.3066515 L44.2169038,13.3066515 L44.2169038,13.9619237 L41.590444,13.9619237 L41.590444,16.7978558 C41.590444,17.90967 42.0792126,18.4360362 43.1319449,18.4360362 C43.5455184,18.4360362 43.9214942,18.3930676 44.3511809,18.3286146 L44.4317471,18.9785157 C43.9537207,19.064453 43.5294051,19.1074217 43.0245233,19.1074217 C41.5582175,19.1074217 40.8707188,18.3715832 40.8707188,16.813969 L40.8707188,13.9619237 L39.2325383,13.9619237 L39.2325383,13.3066515 L40.8707188,13.3066515 L40.8707188,11.5879048 L41.590444,11.5879048 Z M106.214195,11.5879048 L106.214195,13.3066515 L108.840654,13.3066515 L108.840654,13.9619237 L106.214195,13.9619237 L106.214195,16.7978558 C106.214195,17.90967 106.702963,18.4360362 107.755696,18.4360362 C108.169269,18.4360362 108.545245,18.3930676 108.974932,18.3286146 L109.055498,18.9785157 C108.577471,19.064453 108.153156,19.1074217 107.648274,19.1074217 C106.181968,19.1074217 105.494469,18.3715832 105.494469,16.813969 L105.494469,13.9619237 L103.856289,13.9619237 L103.856289,13.3066515 L105.494469,13.3066515 L105.494469,11.5879048 L106.214195,11.5879048 Z M84.9844673,10.9433747 L84.9844673,17.0126991 C84.9844673,17.9794941 85.3711853,18.4360362 86.3540935,18.4360362 C86.6656164,18.4360362 86.9986236,18.3823254 87.4551657,18.2641616 L87.5357319,18.9194337 C87.0684477,19.0537108 86.6656164,19.1074217 86.1768478,19.1074217 C84.8770456,19.1074217 84.2647421,18.4414073 84.2647421,17.0288124 L84.2647421,11.5986469 L82.4654291,11.5986469 L82.4654291,10.9433747 L84.9844673,10.9433747 Z M47.776048,13.1992298 C48.8395225,13.1992298 49.6398139,13.6289165 49.9620789,14.3808682 L49.3712598,14.7890705 C49.0060261,14.1337983 48.4098358,13.8706153 47.7330793,13.8706153 C46.4493903,13.8706153 45.6974386,14.6709067 45.6974386,16.0888727 C45.6974386,17.6303737 46.492359,18.4360362 47.9855202,18.4360362 C48.549484,18.4360362 49.1134477,18.3715832 49.6505561,18.2695326 L49.7364934,18.9301759 C49.1510453,19.0698241 48.5172575,19.1074217 47.9264383,19.1074217 C46.0035904,19.1074217 44.9723424,18.0815447 44.9723424,16.1425836 C44.9723424,14.2841887 45.976735,13.1992298 47.776048,13.1992298 Z M52.7639003,13.1992298 C54.283917,13.1992298 55.1701457,14.2734465 55.1701457,16.1533257 C55.1701457,18.033205 54.283917,19.1074217 52.7639003,19.1074217 C51.2438837,19.1074217 50.3576549,18.033205 50.3576549,16.1533257 C50.3576549,14.2734465 51.2438837,13.1992298 52.7639003,13.1992298 Z M79.6904631,13.1992298 C81.2104798,13.1992298 82.0967085,14.2734465 82.0967085,16.1533257 C82.0967085,18.033205 81.2104798,19.1074217 79.6904631,19.1074217 C78.1704465,19.1074217 77.2842177,18.033205 77.2842177,16.1533257 C77.2842177,14.2734465 78.1704465,13.1992298 79.6904631,13.1992298 Z M74.3051506,13.1992298 C75.8251672,13.1992298 76.711396,14.2734465 76.711396,16.1533257 C76.711396,18.033205 75.8251672,19.1074217 74.3051506,19.1074217 C72.7851339,19.1074217 71.8989052,18.033205 71.8989052,16.1533257 C71.8989052,14.2734465 72.7851339,13.1992298 74.3051506,13.1992298 Z M68.5170067,11.5879048 L68.5170067,13.3066515 L71.1434666,13.3066515 L71.1434666,13.9619237 L68.5170067,13.9619237 L68.5170067,16.7978558 C68.5170067,17.90967 69.0057753,18.4360362 70.0585077,18.4360362 C70.4720811,18.4360362 70.848057,18.3930676 71.2777437,18.3286146 L71.3583099,18.9785157 C70.8802835,19.064453 70.4559679,19.1074217 69.951086,19.1074217 C68.4847802,19.1074217 67.7972816,18.3715832 67.7972816,16.813969 L67.7972816,13.9619237 L66.1591011,13.9619237 L66.1591011,13.3066515 L67.7972816,13.3066515 L67.7972816,11.5879048 L68.5170067,11.5879048 Z M133.763803,13.1992298 C135.042121,13.1992298 135.777959,13.9619237 135.777959,15.2939524 L135.777959,19 L135.063605,19 L135.063605,15.2778391 C135.063605,14.3754971 134.558723,13.8706153 133.704721,13.8706153 C132.592907,13.8706153 132.023572,14.499032 132.023572,15.782721 L132.023572,19 L131.309218,19 L131.309218,13.3066515 L131.959119,13.3066515 L132.01283,14.3378995 L132.088025,14.3378995 C132.249158,13.5752057 132.797008,13.1992298 133.763803,13.1992298 Z M128.894115,13.3066515 L128.894115,18.3447278 L130.768623,18.3447278 L130.768623,19 L125.880937,19 L125.880937,18.3447278 L128.174389,18.3447278 L128.174389,13.9619237 L126.203202,13.9619237 L126.203202,13.3066515 L128.894115,13.3066515 Z M101.967552,13.3066515 L101.967552,18.3447278 L103.84206,18.3447278 L103.84206,19 L98.9543739,19 L98.9543739,18.3447278 L101.247827,18.3447278 L101.247827,13.9619237 L99.276639,13.9619237 L99.276639,13.3066515 L101.967552,13.3066515 Z M94.2834155,10.9433747 L94.2834155,16.0727595 L94.6486492,16.0727595 C96.4640754,16.0727595 97.2267693,15.33155 97.5436632,13.3066515 L98.2956149,13.3066515 C98.1022559,14.6386802 97.6779403,15.5571355 96.9743283,16.104986 L98.6608485,19 L97.7799909,19 L96.3459116,16.4702197 C95.9108538,16.6474654 95.4006009,16.7334028 94.8097817,16.7334028 L94.2834155,16.7334028 L94.2834155,19 L93.5690614,19 L93.5690614,10.9433747 L94.2834155,10.9433747 Z M59.5349524,13.1992298 C60.3137595,13.1992298 60.6843643,13.6289165 60.6843643,14.5420007 L60.6843643,19 L59.9700102,19 L59.9700102,14.6494224 C59.9700102,14.0854586 59.7551669,13.8169044 59.2986248,13.8169044 C58.7454032,13.8169044 58.476849,14.1552827 58.476849,14.8320392 L58.476849,19 L57.8215768,19 L57.8215768,14.5420007 C57.8215768,14.0586032 57.5959913,13.8169044 57.1448203,13.8169044 C56.6023408,13.8169044 56.3284156,14.1552827 56.3284156,14.8320392 L56.3284156,19 L55.6140615,19 L55.6140615,13.3066515 L56.2371072,13.3066515 L56.290818,14.0156345 L56.3445288,14.0156345 C56.4465794,13.467784 56.8010709,13.1992298 57.4241166,13.1992298 C57.9827093,13.1992298 58.3318297,13.467784 58.4392514,14.0156345 L58.4875912,14.0156345 C58.5735285,13.5053816 58.9226489,13.1992298 59.5349524,13.1992298 Z M149.554507,16.3842823 C148.372869,16.3842823 147.78205,16.7656293 147.78205,17.5336942 C147.78205,18.1352556 148.200994,18.4736338 148.936833,18.4736338 C150.123842,18.4736338 150.929504,17.8022484 150.929504,16.9912148 L150.929504,16.4541064 C150.51056,16.3842823 150.000307,16.3842823 149.554507,16.3842823 Z M31.02392,13.8491309 C29.9013636,13.8491309 29.3212865,14.6547934 29.3212865,16.2070366 C29.3212865,17.6840845 29.9067346,18.4575206 31.0292911,18.4575206 C32.1572186,18.4575206 32.7426667,17.6948267 32.7426667,16.2392631 L32.7426667,16.0727595 C32.7426667,14.6118248 32.1518475,13.8491309 31.02392,13.8491309 Z M74.3051506,13.8706153 C73.241676,13.8706153 72.6347436,14.6977621 72.6347436,16.1533257 C72.6347436,17.6088894 73.241676,18.4360362 74.3051506,18.4360362 C75.3686251,18.4360362 75.9755575,17.6088894 75.9755575,16.1533257 C75.9755575,14.6977621 75.3686251,13.8706153 74.3051506,13.8706153 Z M52.7639003,13.8706153 C51.7004258,13.8706153 51.0934934,14.6977621 51.0934934,16.1533257 C51.0934934,17.6088894 51.7004258,18.4360362 52.7639003,18.4360362 C53.8273749,18.4360362 54.4343073,17.6088894 54.4343073,16.1533257 C54.4343073,14.6977621 53.8273749,13.8706153 52.7639003,13.8706153 Z M79.6904631,13.8706153 C78.6269886,13.8706153 78.0200561,14.6977621 78.0200561,16.1533257 C78.0200561,17.6088894 78.6269886,18.4360362 79.6904631,18.4360362 C80.7539377,18.4360362 81.3608701,17.6088894 81.3608701,16.1533257 C81.3608701,14.6977621 80.7539377,13.8706153 79.6904631,13.8706153 Z M36.6079627,13.8706153 C35.5444881,13.8706153 34.9375557,14.6977621 34.9375557,16.1533257 C34.9375557,17.6088894 35.5444881,18.4360362 36.6079627,18.4360362 C37.6714372,18.4360362 38.2783696,17.6088894 38.2783696,16.1533257 C38.2783696,14.6977621 37.6714372,13.8706153 36.6079627,13.8706153 Z M93.0606926,14.8642657 L93.0606926,15.5195379 L87.8614838,15.5195379 L87.8614838,14.8642657 L93.0606926,14.8642657 Z M125.551698,14.8642657 L125.551698,15.5195379 L121.308542,15.5195379 L121.308542,14.8642657 L125.551698,14.8642657 Z M66.1341299,14.8642657 L66.1341299,15.5195379 L60.934921,15.5195379 L60.934921,14.8642657 L66.1341299,14.8642657 Z M119.91206,14.8642657 L119.91206,15.5195379 L115.668904,15.5195379 L115.668904,14.8642657 L119.91206,14.8642657 Z M128.480541,10.8198398 C128.82429,10.8198398 129.103587,11.0991362 129.103587,11.4428855 C129.103587,11.7866349 128.82429,12.0659312 128.480541,12.0659312 C128.136792,12.0659312 127.857495,11.7866349 127.857495,11.4428855 C127.857495,11.0991362 128.136792,10.8198398 128.480541,10.8198398 Z M101.553978,10.8198398 C101.897728,10.8198398 102.177024,11.0991362 102.177024,11.4428855 C102.177024,11.7866349 101.897728,12.0659312 101.553978,12.0659312 C101.210229,12.0659312 100.930933,11.7866349 100.930933,11.4428855 C100.930933,11.0991362 101.210229,10.8198398 101.553978,10.8198398 Z" id="Combined-Shape" fill="#FFFFFF"></path>
        <path d="M18.285298,10 C19.229259,10 19.5715621,10.1021082 19.9166602,10.293846 C20.2617582,10.4855838 20.5325932,10.7669512 20.7171536,11.1254697 C20.9017141,11.4839882 21,11.8396031 21,12.8202737 L21,18.1797263 C21,19.1603969 20.9017141,19.5160118 20.7171536,19.8745303 C20.5325932,20.2330488 20.2617582,20.5144162 19.9166602,20.706154 C19.5715621,20.8978918 19.229259,21 18.285298,21 L11.714702,21 C10.770741,21 10.4284379,20.8978918 10.0833398,20.706154 C9.7382418,20.5144162 9.46740684,20.2330488 9.28284639,19.8745303 C9.09828594,19.5160118 9,19.1603969 9,18.1797263 L9,12.8202737 C9,11.8396031 9.09828594,11.4839882 9.28284639,11.1254697 C9.46740684,10.7669512 9.7382418,10.4855838 10.0833398,10.293846 C10.4284379,10.1021082 10.770741,10 11.714702,10 L18.285298,10 Z M18.285298,11.1 L11.714702,11.1 C11.0139176,11.1 10.800509,11.1428138 10.5826798,11.2638405 C10.4221013,11.3530585 10.3024093,11.4774053 10.216531,11.6442285 C10.1000346,11.8705288 10.0588235,12.0922366 10.0588235,12.8202737 L10.0588235,18.1797263 C10.0588235,18.9077634 10.1000346,19.1294712 10.216531,19.3557715 C10.3024093,19.5225947 10.4221013,19.6469415 10.5826798,19.7361595 C10.7823566,19.8471007 10.9783188,19.8923212 11.5493749,19.8990876 L18.285298,19.9 C18.9860824,19.9 19.199491,19.8571862 19.4173202,19.7361595 C19.5778987,19.6469415 19.6975907,19.5225947 19.783469,19.3557715 C19.8999654,19.1294712 19.9411765,18.9077634 19.9411765,18.1797263 L19.9411765,12.8202737 C19.9411765,12.0922366 19.8999654,11.8705288 19.783469,11.6442285 C19.6975907,11.4774053 19.5778987,11.3530585 19.4173202,11.2638405 C19.199491,11.1428138 18.9860824,11.1 18.285298,11.1 Z M11.8708916,12.3380118 L14.5177953,15.1671989 C14.6901467,15.351362 14.6901467,15.6489695 14.5177953,15.8331326 L11.8708916,18.6618777 C11.6985402,18.8460408 11.4191931,18.8460408 11.2468692,18.6618777 C11.074573,18.4777146 11.074573,18.180107 11.2468692,17.9959439 L13.5815825,15.5001657 L11.2468692,13.0048295 C11.074573,12.8206664 11.074573,12.5221749 11.2468692,12.3380118 C11.4191931,12.1539961 11.6985402,12.1539961 11.8708916,12.3380118 Z M18.7860963,17.7 C19.0345588,17.7 19.2352941,17.9457812 19.2352941,18.25 C19.2352941,18.5542187 19.0345588,18.8 18.7860963,18.8 L14.7433155,18.8 C14.4948529,18.8 14.2941176,18.5542187 14.2941176,18.25 C14.2941176,17.9457812 14.4948529,17.7 14.7433155,17.7 L18.7860963,17.7 Z" id="Combined-Shape" fill="#FFFFFF" fill-rule="nonzero"></path>
        <path d="M12.3527668,84 L157.647233,84 C161.544836,84 163.254599,84.4641281 164.884229,85.3356635 C166.513858,86.207199 167.792801,87.4861419 168.664336,89.1157715 C169.535872,90.7454011 170,92.4551641 170,96.3527668 L170,100.647233 C170,104.544836 169.535872,106.254599 168.664336,107.884229 C167.792801,109.513858 166.513858,110.792801 164.884229,111.664336 C163.254599,112.535872 161.544836,113 157.647233,113 L12.3527668,113 C8.45516415,113 6.74540111,112.535872 5.11577148,111.664336 C3.48614185,110.792801 2.20719898,109.513858 1.33566352,107.884229 C0.464128056,106.254599 9.4593914e-17,104.544836 -1.44065414e-16,100.647233 L2.88130828e-16,96.3527668 C-1.89187828e-16,92.4551641 0.464128056,90.7454011 1.33566352,89.1157715 C2.20719898,87.4861419 3.48614185,86.207199 5.11577148,85.3356635 C6.74540111,84.4641281 8.45516415,84 12.3527668,84 Z" id="Rectangle" fill="url(#linearGradient-2)"></path>
        <path d="M9,98.987081 L9,104.974162 L14.9866643,104.960823 L20.9733286,104.947484 L20.9866381,98.9737418 L21,93 L14.9999738,93 L9,93 L9,98.987081 M9.03642372,99.0131291 L9.03642372,105 L9.06312372,102.023737 L9.08972372,99.0474748 L9.06312372,96.0368665 L9.03642372,93.0262582 L9.03642372,99.0131291 M11.0435878,98.9868709 L11.0435878,102.925602 L13.0085761,102.925602 L14.9735644,102.925602 L14.9735644,99.9846827 L14.9735644,97.0437637 L15.9429586,97.0437637 L16.9123528,97.0437637 L16.9123528,99.9846827 L16.9123528,102.925602 L17.9079468,102.925602 L18.9035409,102.925602 L18.9035409,98.9868709 L18.9035409,95.04814 L14.9735644,95.04814 L11.0435878,95.04814 L11.0435878,98.9868709" id="Shape" fill="#262A33"></path>
        <path d="M29.1249979,103.236337 C29.7607388,103.236337 30.2441363,103.617196 30.1269491,104.267585 C30.0683554,104.604499 29.8867152,104.894537 29.8867152,105.251958 C29.8867152,105.539067 30.4843703,105.7002 30.7949165,105.7002 L30.7949165,106.163089 C30.4726515,106.163089 29.8867152,106.25098 29.8867152,106.558596 C29.8867152,106.901369 30.0683554,107.206056 30.1269491,107.54297 C30.247066,108.219726 29.7607388,108.626952 29.1249979,108.626952 C28.8964827,108.626952 28.7558579,108.603514 28.6269519,108.568358 L28.6972643,108.058594 C28.8349593,108.076172 28.9638653,108.08789 29.0722636,108.08789 C29.3505834,108.08789 29.5615205,107.888672 29.4999971,107.54297 C29.4414035,107.211916 29.2480445,106.924807 29.2480445,106.570315 C29.2480445,106.212894 29.5761689,105.990238 30.1328084,105.981449 L30.1328084,105.88184 C29.5761689,105.873051 29.2480445,105.644536 29.2480445,105.24024 C29.2480445,104.900397 29.4414035,104.613288 29.4999971,104.267585 C29.5527314,103.957039 29.3505834,103.775399 29.0722636,103.775399 C28.9638653,103.775399 28.8349593,103.787117 28.6972643,103.804696 L28.6269519,103.294931 C28.7558579,103.259775 28.8964827,103.236337 29.1249979,103.236337 Z M43.6679657,96.957039 L43.6679657,97.8945372 L45.0800724,97.8945372 L45.0800724,98.439458 L43.6679657,98.439458 L43.6679657,99.7988304 C43.6679657,100.291017 43.8906215,100.501954 44.4414017,100.501954 C44.6347607,100.501954 44.8456978,100.478517 45.1269473,100.44336 L45.1972596,100.988281 C44.9218695,101.035156 44.6757763,101.058594 44.3828081,101.058594 C43.4394505,101.058594 43.0468731,100.689454 43.0468731,99.8281272 L43.0468731,98.439458 L42.2675777,98.439458 L42.2675777,97.8945372 L43.0468731,97.8945372 L43.0468731,96.957039 L43.6679657,96.957039 Z M159.900387,96.6054771 L159.900387,99.7988304 C159.900387,100.291017 159.999996,100.501954 160.533198,100.501954 C160.708979,100.501954 160.896479,100.466798 161.154291,100.390626 L161.224603,100.935547 C160.908198,101.023437 160.632808,101.058594 160.298824,101.058594 C159.578122,101.058594 159.279295,100.689454 159.279295,99.8281272 L159.279295,97.150398 L158.365234,97.150398 L158.365234,96.6054771 L159.900387,96.6054771 Z M155.283202,97.8652404 L155.910154,97.8740294 C156.935542,97.8886778 157.427729,98.3222707 157.427729,99.1425817 L157.427729,100.437501 L157.955072,100.501954 L157.955072,101 L156.95898,101.029297 L156.929683,100.343751 L156.86816,100.343751 C156.824214,100.821289 156.440426,101.058594 155.863279,101.058594 C155.215819,101.058594 154.843749,100.733399 154.843749,100.162111 C154.843749,99.5058622 155.353514,99.1425817 156.249997,99.1425817 C156.472653,99.1425817 156.666012,99.1572301 156.835933,99.1923863 L156.835933,99.0488318 C156.835933,98.6357467 156.542965,98.4511767 155.968747,98.4365283 L155.224608,98.4160206 L155.283202,97.8652404 Z M47.3476529,97.8359435 C48.1855419,97.8359435 48.6660097,98.3574269 48.6660097,99.3242219 C48.6660097,99.470706 48.6601504,99.599612 48.6484316,99.7226587 L46.5507794,99.7226587 C46.6591776,100.241212 47.051755,100.513673 47.6757772,100.513673 C47.9335893,100.513673 48.1796825,100.484376 48.4374945,100.431642 L48.5136663,100.976563 C48.1445264,101.046875 47.8398394,101.058594 47.6054649,101.058594 C46.54492,101.058594 45.9472649,100.484376 45.9472649,99.4414092 C45.9472649,98.4277393 46.4570296,97.8359435 47.3476529,97.8359435 Z M121.011716,96.957039 L121.011716,97.8945372 L122.423822,97.8945372 L122.423822,98.439458 L121.011716,98.439458 L121.011716,99.7988304 C121.011716,100.291017 121.234372,100.501954 121.785152,100.501954 C121.978511,100.501954 122.189448,100.478517 122.470697,100.44336 L122.54101,100.988281 C122.26562,101.035156 122.019526,101.058594 121.726558,101.058594 C120.7832,101.058594 120.390623,100.689454 120.390623,99.8281272 L120.390623,98.439458 L119.611328,98.439458 L119.611328,97.8945372 L120.390623,97.8945372 L120.390623,96.957039 L121.011716,96.957039 Z M51.2499959,97.8359435 C51.5488234,97.8359435 51.7949167,97.8535216 52.0703068,97.8945372 L52.0058538,98.4335986 C51.6894482,98.4043018 51.460933,98.3925831 51.2324178,98.3925831 C50.5351535,98.3925831 50.2421853,98.503911 50.2421853,98.7734417 C50.2421853,98.955082 50.3681616,99.0136757 50.6347627,99.0781287 L51.2089803,99.2187534 C51.8593697,99.3769562 52.1523379,99.6054714 52.1523379,100.103517 C52.1523379,100.771485 51.6894482,101.058594 50.6113252,101.058594 C50.1425761,101.058594 49.8261705,101.035156 49.5507804,100.970703 L49.6210927,100.408204 C50.0312482,100.472657 50.3300758,100.501954 50.6113252,100.501954 C51.2382772,100.501954 51.5078079,100.384767 51.5078079,100.115236 C51.5078079,99.9277364 51.4081987,99.8515647 51.203121,99.7988304 L50.4882786,99.6171901 C49.8759751,99.461917 49.5976553,99.2714877 49.5976553,98.8027386 C49.5976553,98.1230524 50.0898419,97.8359435 51.2499959,97.8359435 Z M153.021481,97.8359435 C153.624995,97.8359435 154.076166,98.0703181 154.260736,98.4804736 L153.783198,98.8408244 C153.607417,98.5566453 153.323238,98.3925831 152.998043,98.3925831 C152.412107,98.3925831 152.072264,98.761723 152.072264,99.4121124 C152.072264,100.121095 152.467771,100.501954 153.173824,100.501954 C153.463863,100.501954 153.753901,100.472657 154.029291,100.425782 L154.099604,100.970703 C153.777339,101.041016 153.428706,101.058594 153.103512,101.058594 C152.045897,101.058594 151.445312,100.484376 151.445312,99.4414092 C151.445312,98.4277393 152.01074,97.8359435 153.021481,97.8359435 Z M149.289059,97.8359435 C150.150386,97.8359435 150.648432,98.4218799 150.648432,99.4472686 C150.648432,100.472657 150.150386,101.058594 149.289059,101.058594 C148.427733,101.058594 147.929687,100.472657 147.929687,99.4472686 C147.929687,98.4218799 148.427733,97.8359435 149.289059,97.8359435 Z M128.042966,96.957039 L128.042966,97.8945372 L129.455072,97.8945372 L129.455072,98.439458 L128.042966,98.439458 L128.042966,99.7988304 C128.042966,100.291017 128.265622,100.501954 128.816402,100.501954 C129.009761,100.501954 129.220698,100.478517 129.501947,100.44336 L129.57226,100.988281 C129.29687,101.035156 129.050776,101.058594 128.757808,101.058594 C127.81445,101.058594 127.421873,100.689454 127.421873,99.8281272 L127.421873,98.439458 L126.642578,98.439458 L126.642578,97.8945372 L127.421873,97.8945372 L127.421873,96.957039 L128.042966,96.957039 Z M145.837887,96.6054771 L145.837887,99.7988304 C145.837887,100.291017 145.937496,100.501954 146.470698,100.501954 C146.646479,100.501954 146.833979,100.466798 147.091791,100.390626 L147.162103,100.935547 C146.845698,101.023437 146.570308,101.058594 146.236324,101.058594 C145.515622,101.058594 145.216795,100.689454 145.216795,99.8281272 L145.216795,97.150398 L144.302734,97.150398 L144.302734,96.6054771 L145.837887,96.6054771 Z M142.257809,100.191408 C142.498043,100.191408 142.691402,100.384767 142.691402,100.625001 C142.691402,100.865235 142.498043,101.058594 142.257809,101.058594 C142.017575,101.058594 141.824216,100.865235 141.824216,100.625001 C141.824216,100.384767 142.017575,100.191408 142.257809,100.191408 Z M86.0078091,97.8359435 C86.8691356,97.8359435 87.3671816,98.4218799 87.3671816,99.4472686 C87.3671816,100.472657 86.8691356,101.058594 86.0078091,101.058594 C85.1464827,101.058594 84.6484367,100.472657 84.6484367,99.4472686 C84.6484367,98.4218799 85.1464827,97.8359435 86.0078091,97.8359435 Z M54.2148407,96.957039 L54.2148407,97.8945372 L55.6269474,97.8945372 L55.6269474,98.439458 L54.2148407,98.439458 L54.2148407,99.7988304 C54.2148407,100.291017 54.4374965,100.501954 54.9882767,100.501954 C55.1816357,100.501954 55.3925728,100.478517 55.6738223,100.44336 L55.7441346,100.988281 C55.4687445,101.035156 55.2226513,101.058594 54.9296831,101.058594 C53.9863255,101.058594 53.5937481,100.689454 53.5937481,99.8281272 L53.5937481,98.439458 L52.8144527,98.439458 L52.8144527,97.8945372 L53.5937481,97.8945372 L53.5937481,96.957039 L54.2148407,96.957039 Z M131.722653,97.8359435 C132.560542,97.8359435 133.04101,98.3574269 133.04101,99.3242219 C133.04101,99.470706 133.03515,99.599612 133.023432,99.7226587 L130.925779,99.7226587 C131.034178,100.241212 131.426755,100.513673 132.050777,100.513673 C132.308589,100.513673 132.554683,100.484376 132.812495,100.431642 L132.888666,100.976563 C132.519526,101.046875 132.214839,101.058594 131.980465,101.058594 C130.91992,101.058594 130.322265,100.484376 130.322265,99.4414092 C130.322265,98.4277393 130.83203,97.8359435 131.722653,97.8359435 Z M82.7089806,97.8359435 C83.3124951,97.8359435 83.7636661,98.0703181 83.9482361,98.4804736 L83.4706979,98.8408244 C83.294917,98.5566453 83.0107378,98.3925831 82.6855432,98.3925831 C82.0996068,98.3925831 81.7597637,98.761723 81.7597637,99.4121124 C81.7597637,100.121095 82.1552707,100.501954 82.8613241,100.501954 C83.1513626,100.501954 83.4414011,100.472657 83.7167912,100.425782 L83.7871036,100.970703 C83.4648385,101.041016 83.1162064,101.058594 82.7910117,101.058594 C81.7333965,101.058594 81.1328117,100.484376 81.1328117,99.4414092 C81.1328117,98.4277393 81.6982403,97.8359435 82.7089806,97.8359435 Z M107.166012,96.6054771 L107.166012,99.7988304 C107.166012,100.291017 107.265621,100.501954 107.798823,100.501954 C107.974604,100.501954 108.162104,100.466798 108.419916,100.390626 L108.490228,100.935547 C108.173823,101.023437 107.898433,101.058594 107.564449,101.058594 C106.843747,101.058594 106.54492,100.689454 106.54492,99.8281272 L106.54492,97.150398 L105.630859,97.150398 L105.630859,96.6054771 L107.166012,96.6054771 Z M96.4023407,96.957039 L96.4023407,97.8945372 L97.8144474,97.8945372 L97.8144474,98.439458 L96.4023407,98.439458 L96.4023407,99.7988304 C96.4023407,100.291017 96.6249965,100.501954 97.1757767,100.501954 C97.3691357,100.501954 97.5800728,100.478517 97.8613223,100.44336 L97.9316346,100.988281 C97.6562445,101.035156 97.4101513,101.058594 97.1171831,101.058594 C96.1738255,101.058594 95.7812481,100.689454 95.7812481,99.8281272 L95.7812481,98.439458 L95.0019527,98.439458 L95.0019527,97.8945372 L95.7812481,97.8945372 L95.7812481,96.957039 L96.4023407,96.957039 Z M61.3984341,100.191408 C61.6386681,100.191408 61.8320271,100.384767 61.8320271,100.625001 C61.8320271,100.865235 61.6386681,101.058594 61.3984341,101.058594 C61.1582002,101.058594 60.9648412,100.865235 60.9648412,100.625001 C60.9648412,100.384767 61.1582002,100.191408 61.3984341,100.191408 Z M78.8242157,96.957039 L78.8242157,97.8945372 L80.2363224,97.8945372 L80.2363224,98.439458 L78.8242157,98.439458 L78.8242157,99.7988304 C78.8242157,100.291017 79.0468715,100.501954 79.5976517,100.501954 C79.7910107,100.501954 80.0019478,100.478517 80.2831973,100.44336 L80.3535096,100.988281 C80.0781195,101.035156 79.8320263,101.058594 79.5390581,101.058594 C78.5957005,101.058594 78.2031231,100.689454 78.2031231,99.8281272 L78.2031231,98.439458 L77.4238277,98.439458 L77.4238277,97.8945372 L78.2031231,97.8945372 L78.2031231,96.957039 L78.8242157,96.957039 Z M75.4609341,97.8359435 C76.3222606,97.8359435 76.8203066,98.4218799 76.8203066,99.4472686 C76.8203066,100.472657 76.3222606,101.058594 75.4609341,101.058594 C74.5996077,101.058594 74.1015617,100.472657 74.1015617,99.4472686 C74.1015617,98.4218799 74.5996077,97.8359435 75.4609341,97.8359435 Z M73.2109317,96.6054771 L73.2109317,101 L72.6542922,101.029297 L72.5927688,100.437501 L72.5312455,100.437501 C72.4931597,100.827149 72.1855431,101.058594 71.7080049,101.058594 C70.8935533,101.058594 70.4687495,100.516602 70.4687495,99.4765654 C70.4687495,98.3984425 70.8935533,97.8359435 71.7080049,97.8359435 C72.1738243,97.8359435 72.4814409,98.0673884 72.5312455,98.4570361 L72.5898392,98.4570361 L72.5898392,96.6054771 L73.2109317,96.6054771 Z M135.624996,97.8359435 C135.923823,97.8359435 136.169917,97.8535216 136.445307,97.8945372 L136.380854,98.4335986 C136.064448,98.4043018 135.835933,98.3925831 135.607418,98.3925831 C134.910154,98.3925831 134.617185,98.503911 134.617185,98.7734417 C134.617185,98.955082 134.743162,99.0136757 135.009763,99.0781287 L135.58398,99.2187534 C136.23437,99.3769562 136.527338,99.6054714 136.527338,100.103517 C136.527338,100.771485 136.064448,101.058594 134.986325,101.058594 C134.517576,101.058594 134.20117,101.035156 133.92578,100.970703 L133.996093,100.408204 C134.406248,100.472657 134.705076,100.501954 134.986325,100.501954 C135.613277,100.501954 135.882808,100.384767 135.882808,100.115236 C135.882808,99.9277364 135.783199,99.8515647 135.578121,99.7988304 L134.863279,99.6171901 C134.250975,99.461917 133.972655,99.2714877 133.972655,98.8027386 C133.972655,98.1230524 134.464842,97.8359435 135.624996,97.8359435 Z M100.070309,97.8359435 C100.931636,97.8359435 101.429682,98.4218799 101.429682,99.4472686 C101.429682,100.472657 100.931636,101.058594 100.070309,101.058594 C99.2089827,101.058594 98.7109367,100.472657 98.7109367,99.4472686 C98.7109367,98.4218799 99.2089827,97.8359435 100.070309,97.8359435 Z M103.585934,97.8359435 C104.447261,97.8359435 104.945307,98.4218799 104.945307,99.4472686 C104.945307,100.472657 104.447261,101.058594 103.585934,101.058594 C102.724608,101.058594 102.226562,100.472657 102.226562,99.4472686 C102.226562,98.4218799 102.724608,97.8359435 103.585934,97.8359435 Z M138.589841,96.957039 L138.589841,97.8945372 L140.001947,97.8945372 L140.001947,98.439458 L138.589841,98.439458 L138.589841,99.7988304 C138.589841,100.291017 138.812497,100.501954 139.363277,100.501954 C139.556636,100.501954 139.767573,100.478517 140.048822,100.44336 L140.119135,100.988281 C139.843745,101.035156 139.597651,101.058594 139.304683,101.058594 C138.361325,101.058594 137.968748,100.689454 137.968748,99.8281272 L137.968748,98.439458 L137.189453,98.439458 L137.189453,97.8945372 L137.968748,97.8945372 L137.968748,96.957039 L138.589841,96.957039 Z M90.3378857,97.8359435 C90.7656193,97.8359435 90.9531189,98.05274 90.9531189,98.568364 L90.9531189,101 L90.3320264,101 L90.3320264,98.6269577 C90.3320264,98.4101612 90.2558546,98.3046926 90.0917924,98.3046926 C89.8867147,98.3046926 89.7871055,98.4453174 89.7871055,98.7265668 L89.7871055,101 L89.2597628,101 L89.2597628,98.568364 C89.2597628,98.3925831 89.1777317,98.3046926 89.0136695,98.3046926 C88.8144511,98.3046926 88.7148419,98.4453174 88.7148419,98.7265668 L88.7148419,101 L88.0937494,101 L88.0937494,97.8945372 L88.6445296,97.8945372 L88.6855451,98.2812552 L88.73242,98.2812552 C88.7558575,97.9824276 88.925779,97.8359435 89.2656221,97.8359435 C89.5263638,97.8359435 89.7080041,97.9824276 89.7665977,98.2812552 L89.8164023,98.2812552 C89.8339804,98.0410213 90.0097613,97.8359435 90.3378857,97.8359435 Z M113.464842,96.6054771 L113.464842,99.2656283 L113.634763,99.2656283 C114.408199,99.2656283 114.736324,98.8994181 114.871089,97.8945372 L115.515619,97.8945372 C115.41894,98.6562545 115.181635,99.1894566 114.800777,99.4970732 L115.714837,101 L114.947261,101 L114.229489,99.7724633 C114.091794,99.8046898 113.94238,99.8222679 113.781247,99.8222679 L113.464842,99.8222679 L113.464842,101 L112.843749,101 L112.843749,96.6054771 L113.464842,96.6054771 Z M118.164058,97.8945372 L118.164058,100.455079 L119.119134,100.455079 L119.119134,101 L116.359374,101 L116.359374,100.455079 L117.542966,100.455079 L117.542966,98.439458 L116.535155,98.439458 L116.535155,97.8945372 L118.164058,97.8945372 Z M156.238278,99.6406276 C155.708006,99.6406276 155.429686,99.8076195 155.429686,100.132814 C155.429686,100.405275 155.623045,100.560548 155.962888,100.560548 C156.542965,100.560548 156.835933,100.214845 156.835933,99.8867209 L156.835933,99.6699244 C156.636715,99.6406276 156.440426,99.6406276 156.238278,99.6406276 Z M71.8457,98.3632863 C71.3447244,98.3632863 71.0839827,98.7441449 71.0839827,99.4765654 C71.0839827,100.1709 71.3447244,100.531251 71.8457,100.531251 C72.3349568,100.531251 72.5898392,100.194337 72.5898392,99.5527371 L72.5898392,99.3418 C72.5898392,98.7001997 72.3349568,98.3632863 71.8457,98.3632863 Z M86.0078091,98.3925831 C85.5507788,98.3925831 85.2929668,98.7734417 85.2929668,99.4472686 C85.2929668,100.121095 85.5507788,100.501954 86.0078091,100.501954 C86.4648395,100.501954 86.7226515,100.121095 86.7226515,99.4472686 C86.7226515,98.7734417 86.4648395,98.3925831 86.0078091,98.3925831 Z M75.4609341,98.3925831 C75.0039038,98.3925831 74.7460918,98.7734417 74.7460918,99.4472686 C74.7460918,100.121095 75.0039038,100.501954 75.4609341,100.501954 C75.9179645,100.501954 76.1757765,100.121095 76.1757765,99.4472686 C76.1757765,98.7734417 75.9179645,98.3925831 75.4609341,98.3925831 Z M149.289059,98.3925831 C148.832029,98.3925831 148.574217,98.7734417 148.574217,99.4472686 C148.574217,100.121095 148.832029,100.501954 149.289059,100.501954 C149.74609,100.501954 150.003902,100.121095 150.003902,99.4472686 C150.003902,98.7734417 149.74609,98.3925831 149.289059,98.3925831 Z M100.070309,98.3925831 C99.6132788,98.3925831 99.3554668,98.7734417 99.3554668,99.4472686 C99.3554668,100.121095 99.6132788,100.501954 100.070309,100.501954 C100.52734,100.501954 100.785152,100.121095 100.785152,99.4472686 C100.785152,98.7734417 100.52734,98.3925831 100.070309,98.3925831 Z M103.585934,98.3925831 C103.128904,98.3925831 102.871092,98.7734417 102.871092,99.4472686 C102.871092,100.121095 103.128904,100.501954 103.585934,100.501954 C104.042965,100.501954 104.300777,100.121095 104.300777,99.4472686 C104.300777,98.7734417 104.042965,98.3925831 103.585934,98.3925831 Z M131.728512,98.3808644 C131.248044,98.3808644 130.952147,98.6943403 130.902342,99.2480502 L132.478511,99.2480502 C132.478511,98.6914107 132.197261,98.3808644 131.728512,98.3808644 Z M47.3535122,98.3808644 C46.8730444,98.3808644 46.5771465,98.6943403 46.5273419,99.2480502 L48.1035108,99.2480502 C48.1035108,98.6914107 47.8222613,98.3808644 47.3535122,98.3808644 Z M94.5039001,98.6503951 L94.5039001,99.1953159 L91.5742182,99.1953159 L91.5742182,98.6503951 L94.5039001,98.6503951 Z M112.082025,98.6503951 L112.082025,99.1953159 L109.152343,99.1953159 L109.152343,98.6503951 L112.082025,98.6503951 Z M163.105466,96.8398517 L163.046872,98.7148481 L162.484373,98.7148481 L162.42578,96.8398517 L163.105466,96.8398517 Z M164.289057,96.8398517 L164.230464,98.7148481 L163.667965,98.7148481 L163.609371,96.8398517 L164.289057,96.8398517 Z M69.3671824,96.8398517 L69.3085887,98.7148481 L68.7460898,98.7148481 L68.6874962,96.8398517 L69.3671824,96.8398517 Z M68.1835909,96.8398517 L68.1249972,98.7148481 L67.5624983,98.7148481 L67.5039047,96.8398517 L68.1835909,96.8398517 Z M58.8203074,96.8398517 L58.7617137,98.7148481 L58.1992148,98.7148481 L58.1406212,96.8398517 L58.8203074,96.8398517 Z M57.6367159,96.8398517 L57.5781222,98.7148481 L57.0156233,98.7148481 L56.9570297,96.8398517 L57.6367159,96.8398517 Z M41.2421824,96.8398517 L41.1835887,98.7148481 L40.6210898,98.7148481 L40.5624962,96.8398517 L41.2421824,96.8398517 Z M40.0585909,96.8398517 L39.9999972,98.7148481 L39.4374983,98.7148481 L39.3789047,96.8398517 L40.0585909,96.8398517 Z M61.3984341,97.8359435 C61.6386681,97.8359435 61.8320271,98.0293025 61.8320271,98.2695365 C61.8320271,98.5097704 61.6386681,98.7031294 61.3984341,98.7031294 C61.1582002,98.7031294 60.9648412,98.5097704 60.9648412,98.2695365 C60.9648412,98.0293025 61.1582002,97.8359435 61.3984341,97.8359435 Z M142.257809,97.8359435 C142.498043,97.8359435 142.691402,98.0293025 142.691402,98.2695365 C142.691402,98.5097704 142.498043,98.7031294 142.257809,98.7031294 C142.017575,98.7031294 141.824216,98.5097704 141.824216,98.2695365 C141.824216,98.0293025 142.017575,97.8359435 142.257809,97.8359435 Z M117.833004,96.5351648 C118.073238,96.5351648 118.266597,96.7285238 118.266597,96.9687577 C118.266597,97.2089916 118.073238,97.4023506 117.833004,97.4023506 C117.59277,97.4023506 117.399411,97.2089916 117.399411,96.9687577 C117.399411,96.7285238 117.59277,96.5351648 117.833004,96.5351648 Z M47.5732384,90.8359435 C48.38769,90.8359435 48.8124938,91.3984425 48.8124938,92.4765654 C48.8124938,93.5166025 48.38769,94.0585936 47.5732384,94.0585936 C47.0957002,94.0585936 46.7880836,93.8271488 46.7499978,93.4375011 L46.6914041,93.4375011 L46.6914041,95.3476537 L46.0703116,95.3476537 L46.0703116,90.8945372 L46.6328105,90.8945372 L46.6826151,91.4570361 L46.7207009,91.4570361 C46.7734352,91.0673884 47.0898409,90.8359435 47.5732384,90.8359435 Z M69.0624954,89.2363372 C69.2910106,89.2363372 69.4316354,89.2597747 69.5605414,89.2949308 L69.490229,89.8046955 C69.3525339,89.7871174 69.2236279,89.7753987 69.1152297,89.7753987 C68.8369099,89.7753987 68.6347619,89.957039 68.6874962,90.2675852 C68.7460898,90.6132877 68.9394488,90.9003965 68.9394488,91.2402396 C68.9394488,91.6445357 68.6113244,91.8730509 68.0546849,91.88184 L68.0546849,91.9814492 C68.6113244,91.9902382 68.9394488,92.212894 68.9394488,92.5703152 C68.9394488,92.9248067 68.7460898,93.2119156 68.6874962,93.5429696 C68.6259728,93.8886721 68.8369099,94.0878905 69.1152297,94.0878905 C69.2236279,94.0878905 69.3525339,94.0761717 69.490229,94.0585936 L69.5605414,94.5683583 C69.4316354,94.6035145 69.2910106,94.6269519 69.0624954,94.6269519 C68.4267545,94.6269519 67.9404273,94.2197261 68.0605442,93.5429696 C68.1191379,93.2060562 68.3007781,92.9013693 68.3007781,92.5585965 C68.3007781,92.2509799 67.7148418,92.1630894 67.3925768,92.1630894 L67.3925768,91.7001997 C67.703123,91.7001997 68.3007781,91.5390672 68.3007781,91.2519584 C68.3007781,90.8945372 68.1191379,90.6044987 68.0605442,90.2675852 C67.9433569,89.6171959 68.4267545,89.2363372 69.0624954,89.2363372 Z M50.6992157,89.957039 L50.6992157,90.8945372 L52.1113224,90.8945372 L52.1113224,91.439458 L50.6992157,91.439458 L50.6992157,92.7988304 C50.6992157,93.291017 50.9218715,93.5019541 51.4726517,93.5019541 C51.6660107,93.5019541 51.8769478,93.4785166 52.1581973,93.4433604 L52.2285096,93.9882813 C51.9531195,94.0351562 51.7070263,94.0585936 51.4140581,94.0585936 C50.4707005,94.0585936 50.0781231,93.6894537 50.0781231,92.8281272 L50.0781231,91.439458 L49.2988277,91.439458 L49.2988277,90.8945372 L50.0781231,90.8945372 L50.0781231,89.957039 L50.6992157,89.957039 Z M61.3984341,93.1914078 C61.6386681,93.1914078 61.8320271,93.3847668 61.8320271,93.6250007 C61.8320271,93.8652346 61.6386681,94.0585936 61.3984341,94.0585936 C61.1582002,94.0585936 60.9648412,93.8652346 60.9648412,93.6250007 C60.9648412,93.3847668 61.1582002,93.1914078 61.3984341,93.1914078 Z M54.7656209,90.8359435 C55.0644484,90.8359435 55.3105417,90.8535216 55.5859318,90.8945372 L55.5214788,91.4335986 C55.2050732,91.4043018 54.976558,91.3925831 54.7480428,91.3925831 C54.0507785,91.3925831 53.7578103,91.503911 53.7578103,91.7734417 C53.7578103,91.955082 53.8837866,92.0136757 54.1503877,92.0781287 L54.7246053,92.2187534 C55.3749947,92.3769562 55.6679629,92.6054714 55.6679629,93.1035173 C55.6679629,93.7714848 55.2050732,94.0585936 54.1269502,94.0585936 C53.6582011,94.0585936 53.3417955,94.0351562 53.0664054,93.9707032 L53.1367177,93.4082043 C53.5468732,93.4726573 53.8457008,93.5019541 54.1269502,93.5019541 C54.7539022,93.5019541 55.0234329,93.3847668 55.0234329,93.1152361 C55.0234329,92.9277364 54.9238237,92.8515647 54.718746,92.7988304 L54.0039036,92.6171901 C53.3916001,92.461917 53.1132803,92.2714877 53.1132803,91.8027386 C53.1132803,91.1230524 53.6054669,90.8359435 54.7656209,90.8359435 Z M33.6718709,90.8359435 C33.9706984,90.8359435 34.2167917,90.8535216 34.4921818,90.8945372 L34.4277288,91.4335986 C34.1113232,91.4043018 33.882808,91.3925831 33.6542928,91.3925831 C32.9570285,91.3925831 32.6640603,91.503911 32.6640603,91.7734417 C32.6640603,91.955082 32.7900366,92.0136757 33.0566377,92.0781287 L33.6308553,92.2187534 C34.2812447,92.3769562 34.5742129,92.6054714 34.5742129,93.1035173 C34.5742129,93.7714848 34.1113232,94.0585936 33.0332002,94.0585936 C32.5644511,94.0585936 32.2480455,94.0351562 31.9726554,93.9707032 L32.0429677,93.4082043 C32.4531232,93.4726573 32.7519508,93.5019541 33.0332002,93.5019541 C33.6601522,93.5019541 33.9296829,93.3847668 33.9296829,93.1152361 C33.9296829,92.9277364 33.8300737,92.8515647 33.624996,92.7988304 L32.9101536,92.6171901 C32.2978501,92.461917 32.0195303,92.2714877 32.0195303,91.8027386 C32.0195303,91.1230524 32.5117169,90.8359435 33.6718709,90.8359435 Z M37.0058556,90.8359435 C37.6093701,90.8359435 38.0605411,91.0703181 38.2451111,91.4804736 L37.7675729,91.8408244 C37.591792,91.5566453 37.3076128,91.3925831 36.9824182,91.3925831 C36.3964818,91.3925831 36.0566387,91.761723 36.0566387,92.4121124 C36.0566387,93.1210954 36.4521457,93.5019541 37.1581991,93.5019541 C37.4482376,93.5019541 37.7382761,93.4726573 38.0136662,93.4257823 L38.0839786,93.9707032 C37.7617135,94.0410155 37.4130814,94.0585936 37.0878867,94.0585936 C36.0302715,94.0585936 35.4296867,93.484376 35.4296867,92.4414092 C35.4296867,91.4277393 35.9951153,90.8359435 37.0058556,90.8359435 Z M41.0078078,90.8359435 C41.6464785,90.8359435 41.9218686,91.181646 41.9218686,92.0019569 L41.3066354,92.0019569 C41.3066354,91.5507859 41.1777294,91.3632863 40.8789018,91.3632863 C40.3515591,91.3632863 40.093747,91.8320354 40.093747,92.664065 L40.093747,93.4550792 L40.8554643,93.4550792 L40.8554643,94 L38.7812496,94 L38.7812496,93.4550792 L39.4726545,93.4550792 L39.4726545,91.439458 L38.8984368,91.439458 L38.8984368,90.8945372 L39.9765598,90.8945372 L40.0820283,91.6914107 L40.1523407,91.6914107 C40.1874969,91.117193 40.4687463,90.8359435 41.0078078,90.8359435 Z M44.3359332,90.8945372 L44.3359332,93.4550792 L45.2910095,93.4550792 L45.2910095,94 L42.5312491,94 L42.5312491,93.4550792 L43.7148406,93.4550792 L43.7148406,91.439458 L42.70703,91.439458 L42.70703,90.8945372 L44.3359332,90.8945372 Z M47.4355433,91.3632863 C46.9462865,91.3632863 46.6914041,91.7001997 46.6914041,92.3418 L46.6914041,92.5527371 C46.6914041,93.1943375 46.9462865,93.5312509 47.4355433,93.5312509 C47.9365189,93.5312509 48.1972606,93.1709 48.1972606,92.4765654 C48.1972606,91.7441449 47.9365189,91.3632863 47.4355433,91.3632863 Z M57.6367159,89.8398517 L57.5781222,91.7148481 L57.0156233,91.7148481 L56.9570297,89.8398517 L57.6367159,89.8398517 Z M58.8203074,89.8398517 L58.7617137,91.7148481 L58.1992148,91.7148481 L58.1406212,89.8398517 L58.8203074,89.8398517 Z M30.6953074,89.8398517 L30.6367137,91.7148481 L30.0742148,91.7148481 L30.0156212,89.8398517 L30.6953074,89.8398517 Z M29.5117159,89.8398517 L29.4531222,91.7148481 L28.8906233,91.7148481 L28.8320297,89.8398517 L29.5117159,89.8398517 Z M61.3984341,90.8359435 C61.6386681,90.8359435 61.8320271,91.0293025 61.8320271,91.2695365 C61.8320271,91.5097704 61.6386681,91.7031294 61.3984341,91.7031294 C61.1582002,91.7031294 60.9648412,91.5097704 60.9648412,91.2695365 C60.9648412,91.0293025 61.1582002,90.8359435 61.3984341,90.8359435 Z M44.0048791,89.5351648 C44.245113,89.5351648 44.438472,89.7285238 44.438472,89.9687577 C44.438472,90.2089916 44.245113,90.4023506 44.0048791,90.4023506 C43.7646452,90.4023506 43.5712862,90.2089916 43.5712862,89.9687577 C43.5712862,89.7285238 43.7646452,89.5351648 44.0048791,89.5351648 Z" id="Combined-Shape" fill="#262A33"></path>
        <path d="M85.4293789,39.9445305 L87.04102,37.0974885 L87.2515278,36.7256163 L88,37.1439726 L87.7894922,37.5158448 L85.3742361,41.7825115 C85.2100828,42.0724962 84.7899172,42.0724962 84.6257639,41.7825115 L82.2105078,37.5158448 L82,37.1439726 L82.7484722,36.7256163 L82.95898,37.0974885 L84.5706211,39.9445305 L84.5706211,37.3066667 L84.5706211,30.4266667 L84.5706211,30 L85.4293789,30 L85.4293789,30.4266667 L85.4293789,37.3066667 L85.4293789,39.9445305 L85.4293789,39.9445305 Z" id="Line" fill="#262A33" fill-rule="nonzero"></path>
        <path d="M85.4293789,81.9445305 L87.04102,79.0974885 L87.2515278,78.7256163 L88,79.1439726 L87.7894922,79.5158448 L85.3742361,83.7825115 C85.2100828,84.0724962 84.7899172,84.0724962 84.6257639,83.7825115 L82.2105078,79.5158448 L82,79.1439726 L82.7484722,78.7256163 L82.95898,79.0974885 L84.5706211,81.9445305 L84.5706211,79.3066667 L84.5706211,72.4266667 L84.5706211,72 L85.4293789,72 L85.4293789,72.4266667 L85.4293789,79.3066667 L85.4293789,81.9445305 L85.4293789,81.9445305 Z" id="Line" fill="#262A33" fill-rule="nonzero"></path>
    </g>
</svg>