<?xml version="1.0" encoding="UTF-8"?>
<svg width="170px" height="113px" viewBox="0 0 170 113" version="1.1" xmlns="http://www.w3.org/2000/svg" xmlns:xlink="http://www.w3.org/1999/xlink">
    <!-- Generator: Sketch 52.6 (67491) - http://www.bohemiancoding.com/sketch -->
    <title>installing-hook</title>
    <desc>Created with Sketch.</desc>
    <defs>
        <linearGradient x1="99.3131251%" y1="3.42756503%" x2="3.42756503%" y2="99.3131251%" id="linearGradient-1">
            <stop stop-color="#262A33" offset="0%"></stop>
            <stop stop-color="#0A3866" offset="100%"></stop>
        </linearGradient>
        <linearGradient x1="0%" y1="0%" x2="100%" y2="100%" id="linearGradient-2">
            <stop stop-color="#FFF1E5" offset="0%"></stop>
            <stop stop-color="#FCD0B1" offset="100%"></stop>
        </linearGradient>
    </defs>
    <g id="installing-hook" stroke="none" stroke-width="1" fill="none" fill-rule="evenodd">
        <path d="M12.3527668,43 L142.647233,43 C146.544836,43 148.254599,43.4641281 149.884229,44.3356635 C151.513858,45.207199 152.792801,46.4861419 153.664336,48.1157715 C154.535872,49.7454011 155,51.4551641 155,55.3527668 L155,59.6472332 C155,63.5448359 154.535872,65.2545989 153.664336,66.8842285 C152.792801,68.5138581 151.513858,69.792801 149.884229,70.6643365 C148.254599,71.5358719 146.544836,72 142.647233,72 L12.3527668,72 C8.45516415,72 6.74540111,71.5358719 5.11577148,70.6643365 C3.48614185,69.792801 2.20719898,68.5138581 1.33566352,66.8842285 C0.464128056,65.2545989 1.89187828e-16,63.5448359 -2.88130828e-16,59.6472332 L2.88130828e-16,55.3527668 C-1.89187828e-16,51.4551641 0.464128056,49.7454011 1.33566352,48.1157715 C2.20719898,46.4861419 3.48614185,45.207199 5.11577148,44.3356635 C6.74540111,43.4641281 8.45516415,43 12.3527668,43 Z" id="Rectangle" fill="url(#linearGradient-1)"></path>
        <path d="M32.6347656,62.1367188 C31.176425,62.1367188 30.4472656,61.4303456 30.4472656,60.0175781 C30.4472656,59.7213527 30.4677732,59.4319676 30.5087891,59.1494141 C30.5498049,58.8668606 30.6136063,58.477216 30.7001953,57.9804688 L31.1171875,55.5878906 L29.0800781,55.5878906 L29.2236328,54.7539062 L31.2675781,54.7539062 L31.6503906,52.5595703 L32.5732422,52.5595703 L32.1904297,54.7539062 L35.4990234,54.7539062 L35.3554688,55.5878906 L32.0400391,55.5878906 L31.6230469,57.9804688 C31.5364579,58.4681014 31.4726565,58.8440742 31.4316406,59.1083984 C31.3906248,59.3727227 31.3701172,59.6461574 31.3701172,59.9287109 C31.3701172,60.8310592 31.8349563,61.2822266 32.7646484,61.2822266 C33.120119,61.2822266 33.4334296,61.2503258 33.7045898,61.1865234 C33.9757501,61.122721 34.2958966,61.0110685 34.6650391,60.8515625 L34.8427734,61.6308594 C34.5283187,61.7721361 34.1956398,61.8917638 33.8447266,61.9897461 C33.4938133,62.0877284 33.0904971,62.1367188 32.6347656,62.1367188 Z M40.2910156,61.2822266 C40.6647154,61.2822266 41.0646138,61.2218431 41.4907227,61.1010742 C41.9168316,60.9803054 42.328123,60.8128266 42.7246094,60.5986328 L43.0390625,61.3369141 C42.6061176,61.5875664 42.1424178,61.7835279 41.6479492,61.9248047 C41.1534806,62.0660814 40.6806663,62.1367188 40.2294922,62.1367188 C39.3089147,62.1367188 38.5922877,61.878095 38.0795898,61.3608398 C37.566892,60.8435847 37.3105469,60.1246791 37.3105469,59.2041016 C37.3105469,58.2561802 37.4734684,57.4404331 37.7993164,56.7568359 C38.1251644,56.0732388 38.5900035,55.5457375 39.1938477,55.1743164 C39.7976918,54.8028953 40.5165974,54.6171875 41.3505859,54.6171875 C42.0524124,54.6171875 42.5992819,54.7858056 42.9912109,55.1230469 C43.38314,55.4602881 43.5791016,55.9296845 43.5791016,56.53125 C43.5791016,57.4199263 43.105148,58.098956 42.1572266,58.5683594 C41.2093052,59.0377628 39.8899824,59.2906899 38.1992188,59.3271484 C38.23112,59.9423859 38.4304995,60.422036 38.7973633,60.7661133 C39.1642271,61.1101905 39.6621062,61.2822266 40.2910156,61.2822266 Z M38.2265625,58.5478516 C39.6438873,58.511393 40.736487,58.3279639 41.5043945,57.9975586 C42.272302,57.6671533 42.65625,57.1920604 42.65625,56.5722656 C42.65625,56.230467 42.5332044,55.9615895 42.2871094,55.765625 C42.0410144,55.5696605 41.6946637,55.4716797 41.2480469,55.4716797 C40.3958291,55.4716797 39.704267,55.7439751 39.1733398,56.2885742 C38.6424127,56.8331733 38.3268234,57.5862582 38.2265625,58.5478516 Z M47.4414062,62.1367188 C46.379552,62.1367188 45.5569691,62.0455738 44.9736328,61.8632812 L45.2402344,60.9951172 C46.1699265,61.1865244 46.9537729,61.2822266 47.5917969,61.2822266 C48.4303427,61.2822266 49.0797503,61.1625989 49.5400391,60.9233398 C50.0003278,60.6840808 50.2304688,60.3479839 50.2304688,59.9150391 C50.2304688,59.6917307 50.147299,59.4957691 49.980957,59.3271484 C49.8146151,59.1585278 49.5810562,59.0309249 49.2802734,58.9443359 L47.2568359,58.3564453 C46.8466776,58.2379551 46.5288097,58.0522474 46.3032227,57.7993164 C46.0776356,57.5463855 45.9648438,57.2513038 45.9648438,56.9140625 C45.9648438,56.1848922 46.3077765,55.6197937 46.9936523,55.21875 C47.6795282,54.8177063 48.6468037,54.6171875 49.8955078,54.6171875 C50.2054052,54.6171875 50.5323876,54.6308592 50.8764648,54.6582031 C51.2205421,54.685547 51.5543604,54.7242836 51.8779297,54.7744141 L51.6386719,55.5878906 C50.8548138,55.5104163 50.2167993,55.4716797 49.7246094,55.4716797 C48.8268184,55.4716797 48.1306991,55.5890288 47.6362305,55.8237305 C47.1417619,56.0584322 46.8945312,56.3922504 46.8945312,56.8251953 C46.8945312,57.2034524 47.1565729,57.4654941 47.6806641,57.6113281 L49.6904297,58.171875 C50.1598331,58.2994798 50.5209948,58.5102524 50.7739258,58.8041992 C51.0268567,59.098146 51.1533203,59.4501933 51.1533203,59.8603516 C51.1533203,60.5849646 50.8297558,61.1455058 50.1826172,61.5419922 C49.5354785,61.9384785 48.6217507,62.1367188 47.4414062,62.1367188 Z M57.2441406,62.1367188 C55.7858,62.1367188 55.0566406,61.4303456 55.0566406,60.0175781 C55.0566406,59.7213527 55.0771482,59.4319676 55.1181641,59.1494141 C55.1591799,58.8668606 55.2229813,58.477216 55.3095703,57.9804688 L55.7265625,55.5878906 L53.6894531,55.5878906 L53.8330078,54.7539062 L55.8769531,54.7539062 L56.2597656,52.5595703 L57.1826172,52.5595703 L56.7998047,54.7539062 L60.1083984,54.7539062 L59.9648438,55.5878906 L56.6494141,55.5878906 L56.2324219,57.9804688 C56.1458329,58.4681014 56.0820315,58.8440742 56.0410156,59.1083984 C55.9999998,59.3727227 55.9794922,59.6461574 55.9794922,59.9287109 C55.9794922,60.8310592 56.4443313,61.2822266 57.3740234,61.2822266 C57.729494,61.2822266 58.0428046,61.2503258 58.3139648,61.1865234 C58.5851251,61.122721 58.9052716,61.0110685 59.2744141,60.8515625 L59.4521484,61.6308594 C59.1376937,61.7721361 58.8050148,61.8917638 58.4541016,61.9897461 C58.1031883,62.0877284 57.6998721,62.1367188 57.2441406,62.1367188 Z M65.4404297,56.1962891 C65.2216786,56.1962891 65.0348315,56.1199552 64.8798828,55.9672852 C64.7249341,55.8146151 64.6474609,55.6289073 64.6474609,55.4101562 C64.6474609,55.1914052 64.7249341,55.0045581 64.8798828,54.8496094 C65.0348315,54.6946607 65.2216786,54.6171875 65.4404297,54.6171875 C65.6591808,54.6171875 65.8460279,54.6946607 66.0009766,54.8496094 C66.1559253,55.0045581 66.2333984,55.1914052 66.2333984,55.4101562 C66.2333984,55.6289073 66.1559253,55.8146151 66.0009766,55.9672852 C65.8460279,56.1199552 65.6591808,56.1962891 65.4404297,56.1962891 Z M64.3876953,62.1367188 C64.1689442,62.1367188 63.9820971,62.0603849 63.8271484,61.9077148 C63.6721997,61.7550448 63.5947266,61.569337 63.5947266,61.3505859 C63.5947266,61.1318348 63.6721997,60.9449878 63.8271484,60.7900391 C63.9820971,60.6350904 64.1689442,60.5576172 64.3876953,60.5576172 C64.6064464,60.5576172 64.7932935,60.6350904 64.9482422,60.7900391 C65.1031909,60.9449878 65.1806641,61.1318348 65.1806641,61.3505859 C65.1806641,61.569337 65.1031909,61.7550448 64.9482422,61.9077148 C64.7932935,62.0603849 64.6064464,62.1367188 64.3876953,62.1367188 Z M73.9785156,62.1367188 C72.5429616,62.1367188 71.8251953,61.446296 71.8251953,60.0654297 C71.8251953,59.8785798 71.842285,59.6313492 71.8764648,59.3237305 C71.9106447,59.0161117 71.9938144,58.6139348 72.1259766,58.1171875 L73.1445312,54.2275391 C73.3040373,53.6214162 73.2823903,53.1748061 73.0795898,52.8876953 C72.8767894,52.6005845 72.4609406,52.4570312 71.8320312,52.4570312 C71.6679679,52.4570312 71.5016284,52.4672851 71.3330078,52.487793 C71.1643872,52.5083009 70.9957691,52.5436195 70.8271484,52.59375 L70.6630859,51.7871094 C70.8909517,51.723307 71.1210926,51.6777345 71.3535156,51.6503906 C71.5859387,51.6230467 71.8183582,51.609375 72.0507812,51.609375 C72.9212283,51.609375 73.5318993,51.8406552 73.8828125,52.3032227 C74.2337257,52.7657901 74.2884127,53.4459591 74.046875,54.34375 L73.0556641,58.1171875 C72.9143873,58.6412787 72.8277996,59.0525701 72.7958984,59.3510742 C72.7639972,59.6495783 72.7480469,59.8717441 72.7480469,60.0175781 C72.7434896,60.8606813 73.1969355,61.2822266 74.1083984,61.2822266 C74.5686872,61.2822266 75.0677056,61.1181657 75.6054688,60.7900391 L75.9267578,61.5419922 C75.6214177,61.7288421 75.3103857,61.874674 74.9936523,61.9794922 C74.676919,62.0843104 74.3385435,62.1367188 73.9785156,62.1367188 Z M80.6503906,62.1367188 C79.8665325,62.1367188 79.2547223,61.8974633 78.8149414,61.4189453 C78.3751606,60.9404273 78.1552734,60.2750694 78.1552734,59.4228516 C78.1552734,57.9098232 78.4925096,56.7306357 79.1669922,55.8852539 C79.8414747,55.0398721 80.7779888,54.6171875 81.9765625,54.6171875 C82.7604206,54.6171875 83.3722309,54.8621395 83.8120117,55.3520508 C84.2517926,55.8419621 84.4716797,56.5244097 84.4716797,57.3994141 C84.4716797,58.8896559 84.1344435,60.0517536 83.4599609,60.8857422 C82.7854784,61.7197307 81.8489643,62.1367188 80.6503906,62.1367188 Z M80.828125,61.2890625 C81.6849001,61.2890625 82.3525367,60.9563835 82.8310547,60.2910156 C83.3095727,59.6256477 83.5488281,58.7005268 83.5488281,57.515625 C83.5488281,56.8730437 83.4007176,56.3717466 83.1044922,56.0117188 C82.8082667,55.6516909 82.3912787,55.4716797 81.8535156,55.4716797 C80.9876259,55.4716797 80.3097355,55.8032193 79.8198242,56.4663086 C79.3299129,57.1293978 79.0849609,58.0533795 79.0849609,59.2382812 C79.0849609,59.8808626 79.2376287,60.383299 79.5429688,60.7456055 C79.8483088,61.107912 80.27669,61.2890625 80.828125,61.2890625 Z M89.1474609,61.2822266 C89.6214216,61.2822266 90.0987932,61.2001961 90.5795898,61.0361328 C91.0603865,60.8720695 91.4990215,60.6533217 91.8955078,60.3798828 L92.2373047,61.1181641 C91.7952452,61.4235041 91.2916695,61.6695954 90.7265625,61.8564453 C90.1614555,62.0432952 89.5826853,62.1367188 88.9902344,62.1367188 C88.1289019,62.1367188 87.4589868,61.8951847 86.9804688,61.4121094 C86.5019507,60.929034 86.2626953,60.2545616 86.2626953,59.3886719 C86.2626953,58.4270785 86.4313134,57.5896846 86.7685547,56.8764648 C87.105796,56.1632451 87.5797496,55.6084004 88.1904297,55.2119141 C88.8011098,54.8154277 89.5165975,54.6171875 90.3369141,54.6171875 C91.7041084,54.6171875 92.5973286,55.1184846 93.0166016,56.1210938 L92.3125,56.6679688 C92.1119782,56.2395812 91.840822,55.9331064 91.4990234,55.7485352 C91.1572249,55.5639639 90.7356796,55.4716797 90.234375,55.4716797 C89.6236949,55.4716797 89.0904971,55.630044 88.6347656,55.9467773 C88.1790342,56.2635107 87.8247083,56.7067029 87.5717773,57.2763672 C87.3188464,57.8460315 87.1901042,58.513668 87.1855469,59.2792969 C87.1946615,59.9127636 87.3701155,60.4049462 87.7119141,60.7558594 C88.0537126,61.1067726 88.5322235,61.2822266 89.1474609,61.2822266 Z M96.1132812,62.1435547 C95.4661426,62.1435547 94.9648455,61.9658221 94.609375,61.6103516 C94.2539045,61.254881 94.0761719,60.753584 94.0761719,60.1064453 C94.0761719,59.2861287 94.2436507,58.5421583 94.5786133,57.8745117 C94.9135759,57.2068652 95.3841116,56.6360701 95.9902344,56.1621094 C96.5963572,55.6881487 97.3072876,55.323569 98.1230469,55.0683594 C98.9388062,54.8131498 99.8251905,54.6855469 100.782227,54.6855469 L100.912109,54.6855469 L99.9550781,60.0996094 C99.822916,60.8652382 100.100908,61.2480469 100.789062,61.2480469 L101.199219,61.2480469 L101.0625,62.0683594 L100.686523,62.0683594 C100.039385,62.0683594 99.6007498,61.9168309 99.3706055,61.6137695 C99.1404611,61.3107081 99.0755203,60.8173862 99.1757812,60.1337891 L99.0527344,60.1337891 C98.7519516,60.7809277 98.347496,61.2776675 97.8393555,61.6240234 C97.3312149,61.9703793 96.7558626,62.1435547 96.1132812,62.1435547 Z M96.3251953,61.2890625 C97.0817095,61.2890625 97.7425102,60.9700553 98.3076172,60.3320312 C98.8727242,59.6940072 99.2578115,58.7916725 99.4628906,57.625 L99.8251953,55.5878906 C98.863602,55.6927089 98.0205114,55.9467753 97.2958984,56.3500977 C96.5712854,56.75342 96.0084655,57.2695281 95.6074219,57.8984375 C95.2063782,58.5273469 95.0058594,59.2359987 95.0058594,60.0244141 C95.0058594,60.4254577 95.1220692,60.7364898 95.3544922,60.9575195 C95.5869152,61.1785493 95.9104797,61.2890625 96.3251953,61.2890625 Z M106.791016,62.1367188 C105.355462,62.1367188 104.637695,61.446296 104.637695,60.0654297 C104.637695,59.8785798 104.654785,59.6313492 104.688965,59.3237305 C104.723145,59.0161117 104.806314,58.6139348 104.938477,58.1171875 L105.957031,54.2275391 C106.116537,53.6214162 106.09489,53.1748061 105.89209,52.8876953 C105.689289,52.6005845 105.273441,52.4570312 104.644531,52.4570312 C104.480468,52.4570312 104.314128,52.4672851 104.145508,52.487793 C103.976887,52.5083009 103.808269,52.5436195 103.639648,52.59375 L103.475586,51.7871094 C103.703452,51.723307 103.933593,51.6777345 104.166016,51.6503906 C104.398439,51.6230467 104.630858,51.609375 104.863281,51.609375 C105.733728,51.609375 106.344399,51.8406552 106.695312,52.3032227 C107.046226,52.7657901 107.100913,53.4459591 106.859375,54.34375 L105.868164,58.1171875 C105.726887,58.6412787 105.6403,59.0525701 105.608398,59.3510742 C105.576497,59.6495783 105.560547,59.8717441 105.560547,60.0175781 C105.55599,60.8606813 106.009436,61.2822266 106.920898,61.2822266 C107.381187,61.2822266 107.880206,61.1181657 108.417969,60.7900391 L108.739258,61.5419922 C108.433918,61.7288421 108.122886,61.874674 107.806152,61.9794922 C107.489419,62.0843104 107.151043,62.1367188 106.791016,62.1367188 Z M113.54525,62 L113.54525,51.948 L115.78525,51.948 L115.78525,55.364 C116.19125,54.888 116.87725,54.468 117.81525,54.468 C119.32725,54.468 120.27925,55.518 120.27925,57.128 L120.27925,62 L118.03925,62 L118.03925,57.772 C118.03925,57.03 117.73125,56.484 117.00325,56.484 C116.38725,56.484 115.78525,56.918 115.78525,57.786 L115.78525,62 L113.54525,62 Z M128.69325,58.318 C128.69325,60.614 127.16725,62.154 124.99725,62.154 C122.81325,62.154 121.30125,60.614 121.30125,58.318 C121.30125,56.022 122.81325,54.468 124.99725,54.468 C127.16725,54.468 128.69325,56.022 128.69325,58.318 Z M123.52725,58.318 C123.52725,59.606 124.10125,60.334 124.99725,60.334 C125.89325,60.334 126.46725,59.606 126.46725,58.318 C126.46725,57.03 125.89325,56.302 124.99725,56.302 C124.10125,56.302 123.52725,57.03 123.52725,58.318 Z M136.75725,58.318 C136.75725,60.614 135.23125,62.154 133.06125,62.154 C130.87725,62.154 129.36525,60.614 129.36525,58.318 C129.36525,56.022 130.87725,54.468 133.06125,54.468 C135.23125,54.468 136.75725,56.022 136.75725,58.318 Z M131.59125,58.318 C131.59125,59.606 132.16525,60.334 133.06125,60.334 C133.95725,60.334 134.53125,59.606 134.53125,58.318 C134.53125,57.03 133.95725,56.302 133.06125,56.302 C132.16525,56.302 131.59125,57.03 131.59125,58.318 Z M140.04725,51.948 L140.04725,57.268 L142.39925,54.622 L145.03125,54.622 L142.38525,57.394 L145.24125,62 L142.67925,62 L140.83125,59.032 L140.04725,59.858 L140.04725,62 L137.80725,62 L137.80725,51.948 L140.04725,51.948 Z" id="Combined-Shape" fill="#FFFFFF"></path>
        <path d="M16.3651267,51.2139704 L15.5305514,51.4279408 L15.3070045,51.4996393 L15.0834575,51.5713065 L14.7909091,51.704327 L14.4983607,51.8373162 L14.2842027,51.9700553 L14.0700447,52.1027632 L13.8464978,52.2736332 L13.6229508,52.4445344 L13.3085246,52.7762104 L12.9940686,53.1078551 L12.7943666,53.4018065 L12.5946647,53.6957579 L12.4163636,54.0624705 L12.2380626,54.4292144 L12.1471535,54.7137268 L12.0562444,54.9982393 L11.9988077,55.2875963 L11.9413413,55.5769845 L11.910313,55.9800152 L11.8792846,56.3830458 L11.8792846,57.0464603 L11.8792846,57.7098747 L11.6942772,57.7318156 L11.5092697,57.7537564 L11.4185693,57.7936376 L11.3278689,57.8334874 L11.229687,57.920282 L11.1315052,58.0071079 L11.0657526,58.1360027 L11,58.2648975 L11,60.3277144 L11,62.3905314 L11.0661997,62.5203326 L11.1323994,62.650165 L11.2407452,62.7438044 L11.3491207,62.837475 L11.472608,62.8736681 L11.5961252,62.9098924 L12.4754098,62.9002347 L13.3546945,62.8906082 L13.4739195,62.8231603 L13.5931446,62.7556812 L13.673532,62.6668863 L13.7539195,62.5780602 L13.8002086,62.4618548 L13.8464978,62.3456495 L13.8464978,60.3023668 L13.8464978,58.2591153 L13.7771684,58.1213442 L13.707839,57.9836043 L13.5847094,57.8849016 L13.4615797,57.7861989 L13.3098063,57.7520687 L13.1580328,57.7179384 L13.051386,57.7179384 L12.9447392,57.7179384 L12.9601192,56.8193629 L12.9755291,55.9207873 L13.0249478,55.6396191 L13.0743964,55.3584822 L13.1613413,55.0863153 L13.2482861,54.8141798 L13.3652757,54.5704861 L13.4822653,54.3267924 L13.6528763,54.076754 L13.8234873,53.8267156 L13.9914754,53.6394993 L14.1594635,53.452283 L14.3233979,53.3089798 L14.4873323,53.1656452 L14.6319225,53.0627544 L14.7765425,52.9598324 L15.034307,52.8268432 L15.2921013,52.6938227 L15.485842,52.6243433 L15.6795827,52.5548326 L16.4992548,52.3361115 L17.318927,52.1174217 L17.4852161,52.132549 L17.6514754,52.1476763 L17.8173174,52.2299702 L17.9831893,52.3122329 L18.1036066,52.4492227 L18.2240238,52.5862125 L18.2707303,52.7511441 L18.3174367,52.9160444 L18.3174367,53.8324039 L18.3174367,54.7487322 L18.8560954,54.7487322 L19.3947541,54.7487322 L19.3825931,53.7095101 L19.3704322,52.6702879 L19.3185991,52.4827591 L19.266766,52.2952303 L19.1607154,52.0624445 L19.0546647,51.8296587 L18.9021461,51.6698217 L18.7496274,51.5099846 L18.5707899,51.3898099 L18.3919523,51.2696039 L18.2280179,51.1929359 L18.0640835,51.1162366 L17.9299553,51.0711984 L17.7958271,51.0261603 L17.4977645,51.0130958 L17.1997019,51 L16.3651267,51.2139704 M18.6394039,55.6919396 L18.4515648,55.8538083 L18.1707601,56.1216932 L17.8899553,56.3896093 L17.6393443,56.7021574 L17.3887332,57.0147054 L17.2243517,57.27262 L17.06,57.5305034 L16.9635768,57.7726968 L16.8671833,58.0148591 L16.8185693,58.2023879 L16.7699553,58.3899167 L16.7410432,58.6399551 L16.7121311,58.8899935 L16.7378838,59.1277175 L16.7636662,59.3654416 L16.8129061,59.5652848 L16.8621759,59.765128 L16.9486736,59.9786608 L17.0351714,60.1921623 L17.1944262,60.4474828 L17.3536513,60.702772 L17.5369598,60.9438091 L17.7202385,61.1848461 L17.918152,61.4048487 L18.1160656,61.62482 L18.0752906,61.6795159 L18.0345455,61.7341805 L17.758003,62.0857033 L17.4814605,62.4371948 L17.4511177,62.5208639 L17.420775,62.604533 L17.4402385,62.700704 L17.4597019,62.7968438 L17.5085246,62.8558529 L17.557377,62.9148619 L17.6532936,62.957431 L17.7492101,63 L18.8842921,63 L20.0193443,63 L20.1032787,62.954493 L20.1871833,62.908986 L20.2359165,62.8013132 L20.2846498,62.6936404 L20.2846498,62.6037204 L20.2846498,62.5138316 L20.2334426,62.4365697 L20.1822355,62.3592766 L19.8906706,61.9859692 L19.5991058,61.6126618 L19.8206557,61.3765006 L20.0421759,61.1403393 L20.1777049,60.9635309 L20.3132042,60.7867224 L20.501848,60.4947088 L20.690462,60.2026952 L20.7893592,59.9532194 L20.8882563,59.7037123 L20.9437258,59.4218877 L20.999225,59.1400319 L20.9996125,58.8964945 L21,58.6529571 L20.952608,58.4120451 L20.9052161,58.1711331 L20.8447988,57.9836043 L20.7843815,57.7960754 L20.6653651,57.5587265 L20.5463785,57.3214088 L20.3046498,56.9805126 L20.062921,56.6396478 L19.7937705,56.346634 L19.5245902,56.053589 L19.2135618,55.7918612 L18.9025633,55.5301023 L18.8648882,55.5301023 L18.8272429,55.5301023 L18.6394039,55.6919396 M18.5669449,57.8896523 L18.4439046,57.967008 L18.3928465,58.0798378 L18.3417586,58.1926676 L18.339851,58.3268445 L18.3379136,58.4609901 L18.3962742,58.5817274 L18.4546349,58.7024647 L18.6149329,58.7884154 L18.775231,58.8743661 L18.8667362,58.8736785 L18.9582712,58.8729909 L19.0774963,58.8152945 L19.1967213,58.7575982 L19.2617884,58.6831492 L19.3268852,58.6087003 L19.3586587,58.520718 L19.390462,58.4327358 L19.3899851,58.3175618 L19.3894784,58.2023879 L19.3222951,58.0779938 L19.2551118,57.9536309 L19.1365127,57.8831826 L19.0178838,57.8127342 L18.8539493,57.8125155 L18.6900149,57.8122967 L18.5669449,57.8896523" id="Shape" fill="#FFFFFF"></path>
        <path d="M12.3527668,1 L157.647233,1 C161.544836,1 163.254599,1.46412806 164.884229,2.33566352 C166.513858,3.20719898 167.792801,4.48614185 168.664336,6.11577148 C169.535872,7.74540111 170,9.45516415 170,13.3527668 L170,17.6472332 C170,21.5448359 169.535872,23.2545989 168.664336,24.8842285 C167.792801,26.5138581 166.513858,27.792801 164.884229,28.6643365 C163.254599,29.5358719 161.544836,30 157.647233,30 L12.3527668,30 C8.45516415,30 6.74540111,29.5358719 5.11577148,28.6643365 C3.48614185,27.792801 2.20719898,26.5138581 1.33566352,24.8842285 C0.464128056,23.2545989 1.89187828e-16,21.5448359 -2.88130828e-16,17.6472332 L2.88130828e-16,13.3527668 C-1.89187828e-16,9.45516415 0.464128056,7.74540111 1.33566352,6.11577148 C2.20719898,4.48614185 3.48614185,3.20719898 5.11577148,2.33566352 C6.74540111,1.46412806 8.45516415,1 12.3527668,1 Z" id="Rectangle" fill="#262A33"></path>
        <path d="M30.8735352,19.1074219 C30.1287398,19.1074219 29.5638854,18.8621444 29.1789551,18.371582 C28.7940248,17.8810197 28.6015625,17.15951 28.6015625,16.2070312 C28.6015625,15.2187451 28.7949199,14.4703801 29.1816406,13.9619141 C29.5683613,13.453448 30.1394819,13.1992188 30.8950195,13.1992188 C31.3963241,13.1992188 31.8000473,13.3102202 32.1062012,13.5322266 C32.412355,13.7542329 32.603027,14.0782856 32.6782227,14.5043945 L32.7426758,14.5043945 L32.7426758,10.9433594 L33.4570312,10.9433594 L33.4570312,19.0161133 L32.8554688,19.0537109 L32.7480469,17.7592773 L32.6889648,17.7592773 C32.6173499,18.1782248 32.4311538,18.5076485 32.1303711,18.7475586 C31.8295883,18.9874686 31.4106472,19.1074219 30.8735352,19.1074219 Z M32.7426758,16.2392578 L32.7426758,16.0727539 C32.7426758,14.5903246 32.1697648,13.8491211 31.0239258,13.8491211 C29.888829,13.8491211 29.3212891,14.6350833 29.3212891,16.2070312 C29.3212891,16.9446651 29.465412,17.5041485 29.7536621,17.885498 C30.0419122,18.2668476 30.4671196,18.4575195 31.0292969,18.4575195 C32.1715552,18.4575195 32.7426758,17.7181064 32.7426758,16.2392578 Z M36.6079688,19.1074219 C35.8488504,19.1074219 35.258036,18.849612 34.8355079,18.3339844 C34.4129797,17.8183568 34.2017188,17.091476 34.2017188,16.1533203 C34.2017188,15.2115838 34.4129797,14.4838079 34.8355079,13.9699707 C35.258036,13.4561335 35.8488504,13.1992188 36.6079688,13.1992188 C37.3670872,13.1992188 37.9579016,13.4561335 38.3804297,13.9699707 C38.8029579,14.4838079 39.0142188,15.2115838 39.0142188,16.1533203 C39.0142188,17.091476 38.8029579,17.8183568 38.3804297,18.3339844 C37.9579016,18.849612 37.3670872,19.1074219 36.6079688,19.1074219 Z M36.6079688,18.4360352 C37.1415001,18.4360352 37.5532799,18.2373067 37.8433204,17.8398438 C38.1333609,17.4423808 38.278379,16.880212 38.278379,16.1533203 C38.278379,15.4264287 38.1333609,14.8642598 37.8433204,14.4667969 C37.5532799,14.069334 37.1415001,13.8706055 36.6079688,13.8706055 C36.0780182,13.8706055 35.6671337,14.069334 35.3753028,14.4667969 C35.0834719,14.8642598 34.9375587,15.4264287 34.9375587,16.1533203 C34.9375587,16.880212 35.0834719,17.4423808 35.3753028,17.8398438 C35.6671337,18.2373067 36.0780182,18.4360352 36.6079688,18.4360352 Z M43.0245314,19.1074219 C42.2904782,19.1074219 41.7480032,18.9194355 41.39709,18.543457 C41.0461767,18.1674786 40.8707228,17.590987 40.8707228,16.8139648 L40.8707228,13.9619141 L39.2325392,13.9619141 L39.2325392,13.3066406 L40.8707228,13.3066406 L40.8707228,11.5878906 L41.5904493,11.5878906 L41.5904493,13.3066406 L44.2169142,13.3066406 L44.2169142,13.9619141 L41.5904493,13.9619141 L41.5904493,16.7978516 C41.5904493,17.3528674 41.7157736,17.7646471 41.9664259,18.0332031 C42.2170782,18.3017592 42.6055834,18.4360352 43.1319532,18.4360352 C43.3396366,18.4360352 43.5410506,18.4261882 43.7362013,18.4064941 C43.931352,18.3868 44.1363467,18.36084 44.3511915,18.3286133 L44.4317579,18.9785156 C44.1918479,19.0214846 43.9608932,19.0537108 43.7388868,19.0751953 C43.5168805,19.0966798 43.2787644,19.1074219 43.0245314,19.1074219 Z M47.9264455,19.1074219 C46.9668053,19.1074219 46.2345535,18.8558782 45.7296681,18.3527832 C45.2247828,17.8496882 44.9723439,17.1129606 44.9723439,16.1425781 C44.9723439,15.2115839 45.2149359,14.4882838 45.7001271,13.9726562 C46.1853184,13.4570287 46.8772873,13.1992188 47.7760549,13.1992188 C48.3095862,13.1992188 48.7670197,13.3021637 49.1483693,13.5080566 C49.5297189,13.7139496 49.8009564,14.0048809 49.96209,14.3808594 L49.3712697,14.7890625 C49.1886516,14.4596338 48.9550114,14.2242032 48.670342,14.0827637 C48.3856726,13.9413242 48.0732571,13.8706055 47.7330861,13.8706055 C47.0921324,13.8706055 46.5926257,14.0630677 46.234551,14.447998 C45.8764762,14.8329284 45.6974416,15.3798793 45.6974416,16.0888672 C45.6974416,16.8587278 45.8925894,17.4423808 46.2828908,17.8398438 C46.6731922,18.2373067 47.2407321,18.4360352 47.9855275,18.4360352 C48.2684065,18.4360352 48.549491,18.4208172 48.8287892,18.3903809 C49.1080875,18.3599445 49.3820105,18.3196617 49.6505666,18.2695312 L49.7365041,18.9301758 C49.4428828,18.99821 49.1421046,19.044759 48.8341603,19.0698242 C48.5262161,19.0948894 48.2236475,19.1074219 47.9264455,19.1074219 Z M52.7639065,19.1074219 C52.0047881,19.1074219 51.4139737,18.849612 50.9914455,18.3339844 C50.5689174,17.8183568 50.3576565,17.091476 50.3576565,16.1533203 C50.3576565,15.2115838 50.5689174,14.4838079 50.9914455,13.9699707 C51.4139737,13.4561335 52.0047881,13.1992188 52.7639065,13.1992188 C53.5230249,13.1992188 54.1138393,13.4561335 54.5363674,13.9699707 C54.9588956,14.4838079 55.1701565,15.2115838 55.1701565,16.1533203 C55.1701565,17.091476 54.9588956,17.8183568 54.5363674,18.3339844 C54.1138393,18.849612 53.5230249,19.1074219 52.7639065,19.1074219 Z M52.7639065,18.4360352 C53.2974378,18.4360352 53.7092175,18.2373067 53.999258,17.8398438 C54.2892986,17.4423808 54.4343166,16.880212 54.4343166,16.1533203 C54.4343166,15.4264287 54.2892986,14.8642598 53.999258,14.4667969 C53.7092175,14.069334 53.2974378,13.8706055 52.7639065,13.8706055 C52.2339559,13.8706055 51.8230713,14.069334 51.5312405,14.4667969 C51.2394096,14.8642598 51.0934963,15.4264287 51.0934963,16.1533203 C51.0934963,16.880212 51.2394096,17.4423808 51.5312405,17.8398438 C51.8230713,18.2373067 52.2339559,18.4360352 52.7639065,18.4360352 Z M59.9700198,19 L59.9700198,14.6494141 C59.9700198,14.0943983 59.7462265,13.8168945 59.2986331,13.8168945 C58.7507788,13.8168945 58.4768558,14.1552701 58.4768558,14.8320312 L58.4768558,19 L57.8215823,19 L57.8215823,14.5419922 C57.8215823,14.0585913 57.5959986,13.8168945 57.1448245,13.8168945 C56.600551,13.8168945 56.3284183,14.1552701 56.3284183,14.8320312 L56.3284183,19 L55.6140628,19 L55.6140628,13.3066406 L56.2371097,13.3066406 L56.2908206,14.015625 L56.3445315,14.015625 C56.4447925,13.4713514 56.8046521,13.1992188 57.4241214,13.1992188 C57.9898794,13.1992188 58.3282549,13.4713514 58.4392581,14.015625 L58.4875979,14.015625 C58.5305669,13.761392 58.6397781,13.5617683 58.8152347,13.416748 C58.9906913,13.2717278 59.2305977,13.1992188 59.5349612,13.1992188 C60.3012411,13.1992188 60.6843753,13.6468054 60.6843753,14.5419922 L60.6843753,19 L59.9700198,19 Z M60.9349222,15.5195312 L60.9349222,14.8642578 L66.134141,14.8642578 L66.134141,15.5195312 L60.9349222,15.5195312 Z M69.9510942,19.1074219 C69.217041,19.1074219 68.674566,18.9194355 68.3236527,18.543457 C67.9727395,18.1674786 67.7972856,17.590987 67.7972856,16.8139648 L67.7972856,13.9619141 L66.159102,13.9619141 L66.159102,13.3066406 L67.7972856,13.3066406 L67.7972856,11.5878906 L68.5170121,11.5878906 L68.5170121,13.3066406 L71.143477,13.3066406 L71.143477,13.9619141 L68.5170121,13.9619141 L68.5170121,16.7978516 C68.5170121,17.3528674 68.6423364,17.7646471 68.8929887,18.0332031 C69.143641,18.3017592 69.5321462,18.4360352 70.058516,18.4360352 C70.2661994,18.4360352 70.4676134,18.4261882 70.6627641,18.4064941 C70.8579148,18.3868 71.0629095,18.36084 71.2777543,18.3286133 L71.3583207,18.9785156 C71.1184107,19.0214846 70.8874559,19.0537108 70.6654496,19.0751953 C70.4434433,19.0966798 70.2053272,19.1074219 69.9510942,19.1074219 Z M74.3051567,19.1074219 C73.5460383,19.1074219 72.9552239,18.849612 72.5326958,18.3339844 C72.1101676,17.8183568 71.8989067,17.091476 71.8989067,16.1533203 C71.8989067,15.2115838 72.1101676,14.4838079 72.5326958,13.9699707 C72.9552239,13.4561335 73.5460383,13.1992188 74.3051567,13.1992188 C75.0642751,13.1992188 75.6550895,13.4561335 76.0776176,13.9699707 C76.5001458,14.4838079 76.7114067,15.2115838 76.7114067,16.1533203 C76.7114067,17.091476 76.5001458,17.8183568 76.0776176,18.3339844 C75.6550895,18.849612 75.0642751,19.1074219 74.3051567,19.1074219 Z M74.3051567,18.4360352 C74.838688,18.4360352 75.2504678,18.2373067 75.5405083,17.8398438 C75.8305488,17.4423808 75.9755669,16.880212 75.9755669,16.1533203 C75.9755669,15.4264287 75.8305488,14.8642598 75.5405083,14.4667969 C75.2504678,14.069334 74.838688,13.8706055 74.3051567,13.8706055 C73.7752061,13.8706055 73.3643216,14.069334 73.0724907,14.4667969 C72.7806598,14.8642598 72.6347466,15.4264287 72.6347466,16.1533203 C72.6347466,16.880212 72.7806598,17.4423808 73.0724907,17.8398438 C73.3643216,18.2373067 73.7752061,18.4360352 74.3051567,18.4360352 Z M79.6904693,19.1074219 C78.9313509,19.1074219 78.3405365,18.849612 77.9180083,18.3339844 C77.4954802,17.8183568 77.2842193,17.091476 77.2842193,16.1533203 C77.2842193,15.2115838 77.4954802,14.4838079 77.9180083,13.9699707 C78.3405365,13.4561335 78.9313509,13.1992188 79.6904693,13.1992188 C80.4495876,13.1992188 81.040402,13.4561335 81.4629302,13.9699707 C81.8854584,14.4838079 82.0967193,15.2115838 82.0967193,16.1533203 C82.0967193,17.091476 81.8854584,17.8183568 81.4629302,18.3339844 C81.040402,18.849612 80.4495876,19.1074219 79.6904693,19.1074219 Z M79.6904693,18.4360352 C80.2240006,18.4360352 80.6357803,18.2373067 80.9258208,17.8398438 C81.2158613,17.4423808 81.3608794,16.880212 81.3608794,16.1533203 C81.3608794,15.4264287 81.2158613,14.8642598 80.9258208,14.4667969 C80.6357803,14.069334 80.2240006,13.8706055 79.6904693,13.8706055 C79.1605187,13.8706055 78.7496341,14.069334 78.4578032,14.4667969 C78.1659724,14.8642598 78.0200591,15.4264287 78.0200591,16.1533203 C78.0200591,16.880212 78.1659724,17.4423808 78.4578032,17.8398438 C78.7496341,18.2373067 79.1605187,18.4360352 79.6904693,18.4360352 Z M86.176856,19.1074219 C85.5287408,19.1074219 85.0480327,18.9373389 84.7347174,18.597168 C84.421402,18.256997 84.2647467,17.7342158 84.2647467,17.0288086 L84.2647467,11.5986328 L82.4654303,11.5986328 L82.4654303,10.9433594 L84.9844732,10.9433594 L84.9844732,17.0126953 C84.9844732,17.4960962 85.0901037,17.8541655 85.3013678,18.0869141 C85.5126318,18.3196626 85.8635398,18.4360352 86.3541021,18.4360352 C86.6441426,18.4360352 87.0111637,18.3787441 87.4551764,18.2641602 L87.5357428,18.9194336 C87.3029942,18.9874678 87.0792009,19.0358071 86.864356,19.0644531 C86.6495112,19.0930991 86.4203468,19.1074219 86.176856,19.1074219 Z M87.861485,15.5195312 L87.861485,14.8642578 L93.0607038,14.8642578 L93.0607038,15.5195312 L87.861485,15.5195312 Z M93.5690632,19 L93.5690632,10.9433594 L94.2834187,10.9433594 L94.2834187,16.0727539 L94.648653,16.0727539 C95.2537993,16.0727539 95.7506205,15.9832366 96.1391315,15.8041992 C96.5276426,15.6251619 96.8328967,15.3324402 97.054903,14.9260254 C97.2769093,14.5196106 97.4398309,13.9798211 97.5436726,13.3066406 L98.2956257,13.3066406 C98.1022653,14.6386785 97.6618401,15.5714492 96.9743366,16.1049805 L98.6608601,19 L97.7800007,19 L96.3459187,16.4702148 C95.916229,16.6456715 95.4041899,16.7333984 94.8097858,16.7333984 L94.2834187,16.7333984 L94.2834187,19 L93.5690632,19 Z M98.9543757,19 L98.9543757,18.3447266 L101.247833,18.3447266 L101.247833,13.9619141 L99.2766414,13.9619141 L99.2766414,13.3066406 L101.967559,13.3066406 L101.967559,18.3447266 L103.842071,18.3447266 L103.842071,19 L98.9543757,19 Z M101.553985,12.065918 C101.382109,12.065918 101.235301,12.0050462 101.113555,11.8833008 C100.99181,11.7615554 100.930938,11.614747 100.930938,11.4428711 C100.930938,11.2709952 100.99181,11.1241868 101.113555,11.0024414 C101.235301,10.880696 101.382109,10.8198242 101.553985,10.8198242 C101.725861,10.8198242 101.872669,10.880696 101.994415,11.0024414 C102.11616,11.1241868 102.177032,11.2709952 102.177032,11.4428711 C102.177032,11.614747 102.11616,11.7615554 101.994415,11.8833008 C101.872669,12.0050462 101.725861,12.065918 101.553985,12.065918 Z M107.648282,19.1074219 C106.914229,19.1074219 106.371754,18.9194355 106.020841,18.543457 C105.669927,18.1674786 105.494473,17.590987 105.494473,16.8139648 L105.494473,13.9619141 L103.85629,13.9619141 L103.85629,13.3066406 L105.494473,13.3066406 L105.494473,11.5878906 L106.2142,11.5878906 L106.2142,13.3066406 L108.840665,13.3066406 L108.840665,13.9619141 L106.2142,13.9619141 L106.2142,16.7978516 C106.2142,17.3528674 106.339524,17.7646471 106.590177,18.0332031 C106.840829,18.3017592 107.229334,18.4360352 107.755704,18.4360352 C107.963387,18.4360352 108.164801,18.4261882 108.359952,18.4064941 C108.555103,18.3868 108.760097,18.36084 108.974942,18.3286133 L109.055509,18.9785156 C108.815599,19.0214846 108.584644,19.0537108 108.362638,19.0751953 C108.140631,19.0966798 107.902515,19.1074219 107.648282,19.1074219 Z M115.668907,15.5195312 L115.668907,14.8642578 L119.912071,14.8642578 L119.912071,15.5195312 L115.668907,15.5195312 Z M121.308556,15.5195312 L121.308556,14.8642578 L125.55172,14.8642578 L125.55172,15.5195312 L121.308556,15.5195312 Z M125.880939,19 L125.880939,18.3447266 L128.174396,18.3447266 L128.174396,13.9619141 L126.203204,13.9619141 L126.203204,13.3066406 L128.894122,13.3066406 L128.894122,18.3447266 L130.768634,18.3447266 L130.768634,19 L125.880939,19 Z M128.480548,12.065918 C128.308672,12.065918 128.161864,12.0050462 128.040118,11.8833008 C127.918373,11.7615554 127.857501,11.614747 127.857501,11.4428711 C127.857501,11.2709952 127.918373,11.1241868 128.040118,11.0024414 C128.161864,10.880696 128.308672,10.8198242 128.480548,10.8198242 C128.652424,10.8198242 128.799232,10.880696 128.920978,11.0024414 C129.042723,11.1241868 129.103595,11.2709952 129.103595,11.4428711 C129.103595,11.614747 129.042723,11.7615554 128.920978,11.8833008 C128.799232,12.0050462 128.652424,12.065918 128.480548,12.065918 Z M135.063614,19 L135.063614,15.277832 C135.063614,14.8266579 134.943661,14.4793306 134.703751,14.2358398 C134.463841,13.992349 134.130837,13.8706055 133.704728,13.8706055 C132.583954,13.8706055 132.023575,14.5079689 132.023575,15.7827148 L132.023575,19 L131.30922,19 L131.30922,13.3066406 L131.959122,13.3066406 L132.012833,14.3378906 L132.088028,14.3378906 C132.249162,13.5787722 132.80775,13.1992188 133.76381,13.1992188 C134.404763,13.1992188 134.900689,13.3818341 135.251603,13.7470703 C135.602516,14.1123065 135.77797,14.6279264 135.77797,15.2939453 L135.77797,19 L135.063614,19 Z M138.488478,19.1074219 C138.073111,19.1074219 137.717727,19.0948894 137.422316,19.0698242 C137.126904,19.044759 136.862828,19.003581 136.630079,18.9462891 L136.716017,18.2641602 C137.084834,18.3214521 137.408886,18.3644204 137.688185,18.3930664 C137.967483,18.4217124 138.234245,18.4360352 138.488478,18.4360352 C139.190304,18.4360352 139.699658,18.3626309 140.016554,18.2158203 C140.33345,18.0690097 140.491896,17.8326839 140.491896,17.5068359 C140.491896,17.2812489 140.418491,17.0968432 140.271681,16.9536133 C140.12487,16.8103834 139.890335,16.6993819 139.568068,16.6206055 L138.289747,16.2983398 C137.738312,16.1586907 137.33817,15.9724947 137.089308,15.7397461 C136.840446,15.5069975 136.716017,15.2026386 136.716017,14.8266602 C136.716017,14.2501599 136.947867,13.8347994 137.411573,13.5805664 C137.87528,13.3263334 138.62454,13.1992188 139.659376,13.1992188 C139.910028,13.1992188 140.143669,13.2072753 140.360304,13.2233887 C140.576939,13.239502 140.81595,13.2672524 141.077345,13.3066406 L140.996778,13.9458008 C140.706738,13.9171548 140.453404,13.897461 140.236769,13.8867188 C140.020134,13.8759765 139.816929,13.8706055 139.62715,13.8706055 C138.86087,13.8706055 138.306757,13.9449049 137.964796,14.0935059 C137.622835,14.2421069 137.451857,14.4811181 137.451857,14.8105469 C137.451857,15.007488 137.538688,15.1739902 137.712355,15.3100586 C137.886021,15.446127 138.16442,15.5607092 138.54756,15.6538086 L139.568068,15.9008789 C140.15531,16.0441088 140.578727,16.2419421 140.838331,16.4943848 C141.097935,16.7468274 141.227736,17.0825174 141.227736,17.5014648 C141.227736,18.0636421 141.011999,18.4718412 140.580519,18.7260742 C140.149039,18.9803073 139.451699,19.1074219 138.488478,19.1074219 Z M145.34547,19.1074219 C144.611417,19.1074219 144.068942,18.9194355 143.718029,18.543457 C143.367115,18.1674786 143.191661,17.590987 143.191661,16.8139648 L143.191661,13.9619141 L141.553478,13.9619141 L141.553478,13.3066406 L143.191661,13.3066406 L143.191661,11.5878906 L143.911388,11.5878906 L143.911388,13.3066406 L146.537853,13.3066406 L146.537853,13.9619141 L143.911388,13.9619141 L143.911388,16.7978516 C143.911388,17.3528674 144.036712,17.7646471 144.287364,18.0332031 C144.538017,18.3017592 144.926522,18.4360352 145.452892,18.4360352 C145.660575,18.4360352 145.861989,18.4261882 146.05714,18.4064941 C146.252291,18.3868 146.457285,18.36084 146.67213,18.3286133 L146.752697,18.9785156 C146.512786,19.0214846 146.281832,19.0537108 146.059825,19.0751953 C145.837819,19.0966798 145.599703,19.1074219 145.34547,19.1074219 Z M151.085275,19.0537109 L151.031564,17.796875 L150.945626,17.796875 C150.881173,18.1943379 150.65917,18.5121245 150.279611,18.7502441 C149.900051,18.9883638 149.432771,19.1074219 148.877755,19.1074219 C148.304836,19.1074219 147.861725,18.974041 147.548409,18.7072754 C147.235094,18.4405097 147.078439,18.0636418 147.078439,17.5766602 C147.078439,16.3699484 147.91095,15.7666016 149.575997,15.7666016 C149.83023,15.7666016 150.072822,15.7746581 150.303781,15.7907715 C150.534739,15.8068848 150.743314,15.8310545 150.929513,15.8632812 L150.929513,15.621582 C150.929513,15.041501 150.773753,14.6198744 150.462228,14.3566895 C150.150703,14.0935045 149.658357,13.9547527 148.985177,13.9404297 L147.776681,13.9189453 L147.884103,13.2529297 L148.947579,13.269043 C149.878574,13.283366 150.558905,13.4883607 150.988595,13.8840332 C151.418285,14.2797058 151.633126,14.8946898 151.633126,15.7290039 L151.633126,18.3823242 L152.610665,18.4682617 L152.610665,19 L151.085275,19.0537109 Z M150.929513,16.4541016 C150.718249,16.4182941 150.49177,16.3977051 150.25007,16.392334 C150.008369,16.3869629 149.776519,16.3842773 149.554513,16.3842773 C148.372866,16.3842773 147.782052,16.7674115 147.782052,17.5336914 C147.782052,17.8344742 147.882311,18.0663241 148.082833,18.229248 C148.283355,18.392172 148.56802,18.4736328 148.936837,18.4736328 C149.3343,18.4736328 149.682523,18.4064948 149.981515,18.2722168 C150.280507,18.1379388 150.513252,17.9580089 150.679757,17.7324219 C150.846262,17.5068348 150.929513,17.259767 150.929513,16.9912109 L150.929513,16.4541016 Z M156.185919,19.1074219 C155.537804,19.1074219 155.057096,18.9373389 154.743781,18.597168 C154.430465,18.256997 154.27381,17.7342158 154.27381,17.0288086 L154.27381,11.5986328 L152.474494,11.5986328 L152.474494,10.9433594 L154.993536,10.9433594 L154.993536,17.0126953 C154.993536,17.4960962 155.099167,17.8541655 155.310431,18.0869141 C155.521695,18.3196626 155.872603,18.4360352 156.363165,18.4360352 C156.653206,18.4360352 157.020227,18.3787441 157.46424,18.2641602 L157.544806,18.9194336 C157.312057,18.9874678 157.088264,19.0358071 156.873419,19.0644531 C156.658574,19.0930991 156.42941,19.1074219 156.185919,19.1074219 Z M161.571232,19.1074219 C160.923117,19.1074219 160.442409,18.9373389 160.129093,18.597168 C159.815778,18.256997 159.659122,17.7342158 159.659122,17.0288086 L159.659122,11.5986328 L157.859806,11.5986328 L157.859806,10.9433594 L160.378849,10.9433594 L160.378849,17.0126953 C160.378849,17.4960962 160.484479,17.8541655 160.695744,18.0869141 C160.907008,18.3196626 161.257916,18.4360352 161.748478,18.4360352 C162.038518,18.4360352 162.40554,18.3787441 162.849552,18.2641602 L162.930119,18.9194336 C162.69737,18.9874678 162.473577,19.0358071 162.258732,19.0644531 C162.043887,19.0930991 161.814723,19.1074219 161.571232,19.1074219 Z" id="Combined-Shape" fill="#FFFFFF"></path>
        <path d="M11.2468692,13.0048295 C11.074573,12.8206664 11.074573,12.5221749 11.2468692,12.3380118 C11.4191931,12.1539961 11.6985402,12.1539961 11.8708916,12.3380118 L14.5177953,15.1671989 C14.6901467,15.351362 14.6901467,15.6489695 14.5177953,15.8331326 L11.8708916,18.6618777 C11.6985402,18.8460408 11.4191931,18.8460408 11.2468692,18.6618777 C11.074573,18.4777146 11.074573,18.180107 11.2468692,17.9959439 L13.5815825,15.5001657 L11.2468692,13.0048295 Z M18.7860963,17.7 C19.0345588,17.7 19.2352941,17.9457812 19.2352941,18.25 C19.2352941,18.5542187 19.0345588,18.8 18.7860963,18.8 L14.7433155,18.8 C14.4948529,18.8 14.2941176,18.5542187 14.2941176,18.25 C14.2941176,17.9457812 14.4948529,17.7 14.7433155,17.7 L18.7860963,17.7 Z M11.714702,11.1 C11.0139176,11.1 10.800509,11.1428138 10.5826798,11.2638405 C10.4221013,11.3530585 10.3024093,11.4774053 10.216531,11.6442285 C10.1000346,11.8705288 10.0588235,12.0922366 10.0588235,12.8202737 L10.0588235,18.1797263 C10.0588235,18.9077634 10.1000346,19.1294712 10.216531,19.3557715 C10.3024093,19.5225947 10.4221013,19.6469415 10.5826798,19.7361595 C10.800509,19.8571862 11.0139176,19.9 11.714702,19.9 L18.285298,19.9 C18.9860824,19.9 19.199491,19.8571862 19.4173202,19.7361595 C19.5778987,19.6469415 19.6975907,19.5225947 19.783469,19.3557715 C19.8999654,19.1294712 19.9411765,18.9077634 19.9411765,18.1797263 L19.9411765,12.8202737 C19.9411765,12.0922366 19.8999654,11.8705288 19.783469,11.6442285 C19.6975907,11.4774053 19.5778987,11.3530585 19.4173202,11.2638405 C19.199491,11.1428138 18.9860824,11.1 18.285298,11.1 L11.714702,11.1 Z M11.714702,10 L18.285298,10 C19.229259,10 19.5715621,10.1021082 19.9166602,10.293846 C20.2617582,10.4855838 20.5325932,10.7669512 20.7171536,11.1254697 C20.9017141,11.4839882 21,11.8396031 21,12.8202737 L21,18.1797263 C21,19.1603969 20.9017141,19.5160118 20.7171536,19.8745303 C20.5325932,20.2330488 20.2617582,20.5144162 19.9166602,20.706154 C19.5715621,20.8978918 19.229259,21 18.285298,21 L11.714702,21 C10.770741,21 10.4284379,20.8978918 10.0833398,20.706154 C9.7382418,20.5144162 9.46740684,20.2330488 9.28284639,19.8745303 C9.09828594,19.5160118 9,19.1603969 9,18.1797263 L9,12.8202737 C9,11.8396031 9.09828594,11.4839882 9.28284639,11.1254697 C9.46740684,10.7669512 9.7382418,10.4855838 10.0833398,10.293846 C10.4284379,10.1021082 10.770741,10 11.714702,10 Z" id="Combined-Shape" fill="#FFFFFF" fill-rule="nonzero"></path>
        <path d="M12.3527668,84 L157.647233,84 C161.544836,84 163.254599,84.4641281 164.884229,85.3356635 C166.513858,86.207199 167.792801,87.4861419 168.664336,89.1157715 C169.535872,90.7454011 170,92.4551641 170,96.3527668 L170,100.647233 C170,104.544836 169.535872,106.254599 168.664336,107.884229 C167.792801,109.513858 166.513858,110.792801 164.884229,111.664336 C163.254599,112.535872 161.544836,113 157.647233,113 L12.3527668,113 C8.45516415,113 6.74540111,112.535872 5.11577148,111.664336 C3.48614185,110.792801 2.20719898,109.513858 1.33566352,107.884229 C0.464128056,106.254599 1.89187828e-16,104.544836 -2.88130828e-16,100.647233 L2.88130828e-16,96.3527668 C-1.89187828e-16,92.4551641 0.464128056,90.7454011 1.33566352,89.1157715 C2.20719898,87.4861419 3.48614185,86.207199 5.11577148,85.3356635 C6.74540111,84.4641281 8.45516415,84 12.3527668,84 Z" id="Rectangle" fill="url(#linearGradient-2)"></path>
        <path d="M9,98.987081 L9,104.974162 L14.9866643,104.960823 L20.9733286,104.947484 L20.9866381,98.9737418 L21,93 L14.9999738,93 L9,93 L9,98.987081 M9.03642372,99.0131291 L9.03642372,105 L9.06312372,102.023737 L9.08972372,99.0474748 L9.06312372,96.0368665 L9.03642372,93.0262582 L9.03642372,99.0131291 M11.0435878,98.9868709 L11.0435878,102.925602 L13.0085761,102.925602 L14.9735644,102.925602 L14.9735644,99.9846827 L14.9735644,97.0437637 L15.9429586,97.0437637 L16.9123528,97.0437637 L16.9123528,99.9846827 L16.9123528,102.925602 L17.9079468,102.925602 L18.9035409,102.925602 L18.9035409,98.9868709 L18.9035409,95.04814 L14.9735644,95.04814 L11.0435878,95.04814 L11.0435878,98.9868709" id="Shape" fill="#262A33"></path>
        <path d="M28.890625,91.7148438 L28.8320312,89.8398438 L29.5117188,89.8398438 L29.453125,91.7148438 L28.890625,91.7148438 Z M30.0742188,91.7148438 L30.015625,89.8398438 L30.6953125,89.8398438 L30.6367188,91.7148438 L30.0742188,91.7148438 Z M33.0332031,94.0585938 C32.798827,94.0585938 32.5981454,94.0517579 32.4311523,94.0380859 C32.2641593,94.024414 32.1113288,94.0019533 31.9726562,93.9707031 L32.0429688,93.4082031 C32.2480479,93.4394533 32.4291984,93.4628905 32.5864258,93.4785156 C32.7436531,93.4941407 32.8925774,93.5019531 33.0332031,93.5019531 C33.3476578,93.5019531 33.5756829,93.4711917 33.7172852,93.409668 C33.8588874,93.3481442 33.9296875,93.2500007 33.9296875,93.1152344 C33.9296875,93.0214839 33.9047854,92.9516604 33.8549805,92.9057617 C33.8051755,92.8598631 33.7285161,92.8242189 33.625,92.7988281 L32.9101562,92.6171875 C32.6035141,92.5390621 32.3784187,92.4423834 32.2348633,92.3271484 C32.0913079,92.2119135 32.0195312,92.0371105 32.0195312,91.8027344 C32.0195312,91.4628889 32.149901,91.2167976 32.4106445,91.0644531 C32.671388,90.9121086 33.091794,90.8359375 33.671875,90.8359375 C33.9570327,90.8359375 34.2304674,90.8554686 34.4921875,90.8945312 L34.4277344,91.4335938 C34.2695305,91.4179687 34.1298834,91.4072266 34.0087891,91.4013672 C33.8876947,91.3955078 33.7695318,91.3925781 33.6542969,91.3925781 C33.3066389,91.3925781 33.0546883,91.422363 32.8984375,91.4819336 C32.7421867,91.5415042 32.6640625,91.6386712 32.6640625,91.7734375 C32.6640625,91.8632817 32.6962887,91.9282225 32.7607422,91.9682617 C32.8251956,92.008301 32.9238275,92.0449217 33.0566406,92.078125 L33.6308594,92.21875 C33.9570329,92.2968754 34.1958,92.4013665 34.347168,92.5322266 C34.4985359,92.6630866 34.5742188,92.8535144 34.5742188,93.1035156 C34.5742188,93.4375017 34.4521497,93.680175 34.2080078,93.831543 C33.963866,93.9829109 33.5722683,94.0585938 33.0332031,94.0585938 Z M37.0878906,94.0585938 C36.5585911,94.0585938 36.1499038,93.919435 35.8618164,93.6411133 C35.573729,93.3627916 35.4296875,92.9628932 35.4296875,92.4414062 C35.4296875,91.9335912 35.5659166,91.5390639 35.8383789,91.2578125 C36.1108412,90.9765611 36.4999975,90.8359375 37.0058594,90.8359375 C37.3085953,90.8359375 37.56787,90.8920893 37.7836914,91.0043945 C37.9995128,91.1166998 38.1533199,91.2753896 38.2451172,91.4804688 L37.7675781,91.8408203 C37.6796871,91.6982415 37.5673835,91.587891 37.4306641,91.5097656 C37.2939446,91.4316402 37.1445321,91.3925781 36.9824219,91.3925781 C36.6894517,91.3925781 36.4619149,91.4809561 36.2998047,91.6577148 C36.1376945,91.8344735 36.0566406,92.0859359 36.0566406,92.4121094 C36.0566406,92.7656268 36.1518545,93.0356436 36.3422852,93.222168 C36.5327158,93.4086923 36.8046857,93.5019531 37.1582031,93.5019531 C37.3027351,93.5019531 37.4472649,93.4951173 37.5917969,93.4814453 C37.7363288,93.4677734 37.8769524,93.4492189 38.0136719,93.4257812 L38.0839844,93.9707031 C37.9238273,94.0058596 37.7583016,94.0292968 37.5874023,94.0410156 C37.4165031,94.0527344 37.2500008,94.0585938 37.0878906,94.0585938 Z M40.09375,92.6640625 L40.09375,93.4550781 L40.8554688,93.4550781 L40.8554688,94 L38.78125,94 L38.78125,93.4550781 L39.4726562,93.4550781 L39.4726562,91.4394531 L38.8984375,91.4394531 L38.8984375,90.8945312 L39.9765625,90.8945312 L40.0820312,91.6914062 L40.1523438,91.6914062 C40.1875002,91.1210909 40.4726536,90.8359375 41.0078125,90.8359375 C41.3281266,90.8359375 41.5605462,90.9277335 41.7050781,91.1113281 C41.8496101,91.2949228 41.921875,91.5917948 41.921875,92.0019531 L41.3066406,92.0019531 C41.3066406,91.7753895 41.2729496,91.6123052 41.2055664,91.5126953 C41.1381833,91.4130854 41.0292976,91.3632812 40.8789062,91.3632812 C40.6152331,91.3632812 40.4184577,91.4760731 40.2885742,91.7016602 C40.1586908,91.9272472 40.09375,92.2480448 40.09375,92.6640625 Z M42.53125,94 L42.53125,93.4550781 L43.7148438,93.4550781 L43.7148438,91.4394531 L42.7070312,91.4394531 L42.7070312,90.8945312 L44.3359375,90.8945312 L44.3359375,93.4550781 L45.2910156,93.4550781 L45.2910156,94 L42.53125,94 Z M44.0048828,90.4023438 C43.8857416,90.4023438 43.7836918,90.3598637 43.6987305,90.2749023 C43.6137691,90.189941 43.5712891,90.0878912 43.5712891,89.96875 C43.5712891,89.8476556 43.6137691,89.7451176 43.6987305,89.6611328 C43.7836918,89.577148 43.8857416,89.5351562 44.0048828,89.5351562 C44.1259772,89.5351562 44.2285152,89.577148 44.3125,89.6611328 C44.3964848,89.7451176 44.4384766,89.8476556 44.4384766,89.96875 C44.4384766,90.0878912 44.3964848,90.189941 44.3125,90.2749023 C44.2285152,90.3598637 44.1259772,90.4023438 44.0048828,90.4023438 Z M46.0703125,95.3476562 L46.0703125,90.8945312 L46.6328125,90.8945312 L46.6826172,91.4570312 L46.7207031,91.4570312 C46.748047,91.2617178 46.836425,91.1093755 46.9858398,91 C47.1352547,90.8906245 47.3310535,90.8359375 47.5732422,90.8359375 C47.9814474,90.8359375 48.290038,90.974608 48.4990234,91.2519531 C48.7080089,91.5292983 48.8125,91.9374973 48.8125,92.4765625 C48.8125,92.9960963 48.7080089,93.3896471 48.4990234,93.6572266 C48.290038,93.924806 47.9814474,94.0585938 47.5732422,94.0585938 C47.3349597,94.0585938 47.1430671,94.0039068 46.9975586,93.8945312 C46.8520501,93.7851557 46.7695313,93.6328135 46.75,93.4375 L46.6914062,93.4375 L46.6914062,95.3476562 L46.0703125,95.3476562 Z M46.6914062,92.5527344 C46.6914062,93.2050814 46.9394506,93.53125 47.4355469,93.53125 C47.9433619,93.53125 48.1972656,93.179691 48.1972656,92.4765625 C48.1972656,91.7343713 47.9433619,91.3632812 47.4355469,91.3632812 C46.9394506,91.3632812 46.6914062,91.6894499 46.6914062,92.3417969 L46.6914062,92.5527344 Z M51.4140625,94.0585938 C50.943357,94.0585938 50.6030284,93.9609385 50.3930664,93.765625 C50.1831044,93.5703115 50.078125,93.2578146 50.078125,92.828125 L50.078125,91.4394531 L49.2988281,91.4394531 L49.2988281,90.8945312 L50.078125,90.8945312 L50.078125,89.9570312 L50.6992188,89.9570312 L50.6992188,90.8945312 L52.1113281,90.8945312 L52.1113281,91.4394531 L50.6992188,91.4394531 L50.6992188,92.7988281 C50.6992188,93.0449231 50.7592767,93.2236323 50.8793945,93.3349609 C50.9995123,93.4462896 51.1972642,93.5019531 51.4726562,93.5019531 C51.570313,93.5019531 51.6738276,93.4965821 51.7832031,93.4858398 C51.8925787,93.4750976 52.0175774,93.4609376 52.1582031,93.4433594 L52.2285156,93.9882812 C52.0917962,94.0117189 51.9584967,94.0292968 51.8286133,94.0410156 C51.6987298,94.0527344 51.5605476,94.0585938 51.4140625,94.0585938 Z M54.1269531,94.0585938 C53.892577,94.0585938 53.6918954,94.0517579 53.5249023,94.0380859 C53.3579093,94.024414 53.2050788,94.0019533 53.0664062,93.9707031 L53.1367188,93.4082031 C53.3417979,93.4394533 53.5229484,93.4628905 53.6801758,93.4785156 C53.8374031,93.4941407 53.9863274,93.5019531 54.1269531,93.5019531 C54.4414078,93.5019531 54.6694329,93.4711917 54.8110352,93.409668 C54.9526374,93.3481442 55.0234375,93.2500007 55.0234375,93.1152344 C55.0234375,93.0214839 54.9985354,92.9516604 54.9487305,92.9057617 C54.8989255,92.8598631 54.8222661,92.8242189 54.71875,92.7988281 L54.0039062,92.6171875 C53.6972641,92.5390621 53.4721687,92.4423834 53.3286133,92.3271484 C53.1850579,92.2119135 53.1132812,92.0371105 53.1132812,91.8027344 C53.1132812,91.4628889 53.243651,91.2167976 53.5043945,91.0644531 C53.765138,90.9121086 54.185544,90.8359375 54.765625,90.8359375 C55.0507827,90.8359375 55.3242174,90.8554686 55.5859375,90.8945312 L55.5214844,91.4335938 C55.3632805,91.4179687 55.2236334,91.4072266 55.1025391,91.4013672 C54.9814447,91.3955078 54.8632818,91.3925781 54.7480469,91.3925781 C54.4003889,91.3925781 54.1484383,91.422363 53.9921875,91.4819336 C53.8359367,91.5415042 53.7578125,91.6386712 53.7578125,91.7734375 C53.7578125,91.8632817 53.7900387,91.9282225 53.8544922,91.9682617 C53.9189456,92.008301 54.0175775,92.0449217 54.1503906,92.078125 L54.7246094,92.21875 C55.0507829,92.2968754 55.28955,92.4013665 55.440918,92.5322266 C55.5922859,92.6630866 55.6679688,92.8535144 55.6679688,93.1035156 C55.6679688,93.4375017 55.5458997,93.680175 55.3017578,93.831543 C55.057616,93.9829109 54.6660183,94.0585938 54.1269531,94.0585938 Z M57.015625,91.7148438 L56.9570312,89.8398438 L57.6367188,89.8398438 L57.578125,91.7148438 L57.015625,91.7148438 Z M58.1992188,91.7148438 L58.140625,89.8398438 L58.8203125,89.8398438 L58.7617188,91.7148438 L58.1992188,91.7148438 Z M61.3984375,94.0585938 C61.2792963,94.0585938 61.1772465,94.0161137 61.0922852,93.9311523 C61.0073238,93.846191 60.9648438,93.7441412 60.9648438,93.625 C60.9648438,93.5039056 61.0073238,93.4013676 61.0922852,93.3173828 C61.1772465,93.233398 61.2792963,93.1914062 61.3984375,93.1914062 C61.5195319,93.1914062 61.6220699,93.233398 61.7060547,93.3173828 C61.7900395,93.4013676 61.8320312,93.5039056 61.8320312,93.625 C61.8320312,93.7441412 61.7900395,93.846191 61.7060547,93.9311523 C61.6220699,94.0161137 61.5195319,94.0585938 61.3984375,94.0585938 Z M61.3984375,91.703125 C61.2792963,91.703125 61.1772465,91.660645 61.0922852,91.5756836 C61.0073238,91.4907222 60.9648438,91.3886725 60.9648438,91.2695312 C60.9648438,91.1484369 61.0073238,91.0458989 61.0922852,90.9619141 C61.1772465,90.8779293 61.2792963,90.8359375 61.3984375,90.8359375 C61.5195319,90.8359375 61.6220699,90.8779293 61.7060547,90.9619141 C61.7900395,91.0458989 61.8320312,91.1484369 61.8320312,91.2695312 C61.8320312,91.3886725 61.7900395,91.4907222 61.7060547,91.5756836 C61.6220699,91.660645 61.5195319,91.703125 61.3984375,91.703125 Z M69.0625,94.6269531 C68.8515614,94.6269531 68.6630868,94.5834965 68.4970703,94.496582 C68.3310539,94.4096675 68.2070317,94.2851571 68.125,94.1230469 C68.0429683,93.9609367 68.0214842,93.7675792 68.0605469,93.5429688 C68.0898439,93.3749992 68.1372067,93.2119149 68.2026367,93.0537109 C68.2680667,92.895507 68.3007812,92.7304696 68.3007812,92.5585938 C68.3007812,92.4824215 68.2695316,92.4184573 68.2070312,92.3666992 C68.1445309,92.3149411 68.0649419,92.2744142 67.9682617,92.2451172 C67.8715815,92.2158202 67.7714849,92.1948243 67.6679688,92.1821289 C67.5644526,92.1694335 67.4726567,92.1630859 67.3925781,92.1630859 L67.3925781,91.7001953 C67.4707035,91.7001953 67.5610346,91.6904298 67.6635742,91.6708984 C67.7661138,91.6513671 67.8662104,91.6225588 67.9638672,91.5844727 C68.0615239,91.5463865 68.1420895,91.499512 68.2055664,91.4438477 C68.2690433,91.3881833 68.3007812,91.3242191 68.3007812,91.2519531 C68.3007812,91.1328119 68.2846681,91.0195318 68.2524414,90.9121094 C68.2202147,90.804687 68.1850588,90.6982427 68.1469727,90.5927734 C68.1088865,90.4873042 68.0800782,90.3789068 68.0605469,90.2675781 C68.0214842,90.0507802 68.0429683,89.8657234 68.125,89.7124023 C68.2070317,89.5590813 68.3310539,89.4414067 68.4970703,89.359375 C68.6630868,89.2773433 68.8515614,89.2363281 69.0625,89.2363281 C69.177735,89.2363281 69.2734371,89.2416992 69.3496094,89.2524414 C69.4257816,89.2631836 69.4960934,89.2773437 69.5605469,89.2949219 L69.4902344,89.8046875 C69.4218747,89.7949218 69.3559573,89.7875977 69.2924805,89.7827148 C69.2290036,89.777832 69.1699221,89.7753906 69.1152344,89.7753906 C68.9765618,89.7753906 68.8642582,89.8183589 68.7783203,89.9042969 C68.6923824,89.9902348 68.6621092,90.1113273 68.6875,90.2675781 C68.7070313,90.3828131 68.7368162,90.4931635 68.7768555,90.5986328 C68.8168947,90.7041021 68.8540037,90.8090815 68.8881836,90.9135742 C68.9223635,91.0180669 68.9394531,91.1269526 68.9394531,91.2402344 C68.9394531,91.4414073 68.8618172,91.5976557 68.706543,91.7089844 C68.5512688,91.8203131 68.3339858,91.8779297 68.0546875,91.8818359 L68.0546875,91.9814453 C68.3339858,91.9853516 68.5512688,92.0395503 68.706543,92.144043 C68.8618172,92.2485357 68.9394531,92.3906241 68.9394531,92.5703125 C68.9394531,92.6875006 68.9223635,92.7993159 68.8881836,92.9057617 C68.8540037,93.0122076 68.8168947,93.117187 68.7768555,93.2207031 C68.7368162,93.3242193 68.7070313,93.4316401 68.6875,93.5429688 C68.6562498,93.7148446 68.6850581,93.8486323 68.7739258,93.9443359 C68.8627934,94.0400395 68.9765618,94.0878906 69.1152344,94.0878906 C69.1699221,94.0878906 69.2290036,94.084961 69.2924805,94.0791016 C69.3559573,94.0732422 69.4218747,94.0664063 69.4902344,94.0585938 L69.5605469,94.5683594 C69.4960934,94.5859376 69.4257816,94.6000976 69.3496094,94.6108398 C69.2734371,94.6215821 69.177735,94.6269531 69.0625,94.6269531 Z M39.4375,98.7148438 L39.3789062,96.8398438 L40.0585938,96.8398438 L40,98.7148438 L39.4375,98.7148438 Z M40.6210938,98.7148438 L40.5625,96.8398438 L41.2421875,96.8398438 L41.1835938,98.7148438 L40.6210938,98.7148438 Z M44.3828125,101.058594 C43.912107,101.058594 43.5717784,100.960938 43.3618164,100.765625 C43.1518544,100.570312 43.046875,100.257815 43.046875,99.828125 L43.046875,98.4394531 L42.2675781,98.4394531 L42.2675781,97.8945312 L43.046875,97.8945312 L43.046875,96.9570312 L43.6679688,96.9570312 L43.6679688,97.8945312 L45.0800781,97.8945312 L45.0800781,98.4394531 L43.6679688,98.4394531 L43.6679688,99.7988281 C43.6679688,100.044923 43.7280267,100.223632 43.8481445,100.334961 C43.9682623,100.44629 44.1660142,100.501953 44.4414062,100.501953 C44.539063,100.501953 44.6425776,100.496582 44.7519531,100.48584 C44.8613287,100.475098 44.9863274,100.460938 45.1269531,100.443359 L45.1972656,100.988281 C45.0605462,101.011719 44.9272467,101.029297 44.7973633,101.041016 C44.6674798,101.052734 44.5292976,101.058594 44.3828125,101.058594 Z M47.6054688,101.058594 C47.0761692,101.058594 46.6674819,100.919435 46.3793945,100.641113 C46.0913072,100.362792 45.9472656,99.9628932 45.9472656,99.4414062 C45.9472656,98.9335912 46.0693347,98.5390639 46.3134766,98.2578125 C46.5576184,97.9765611 46.9023415,97.8359375 47.3476562,97.8359375 C47.7675802,97.8359375 48.092284,97.9628894 48.3217773,98.2167969 C48.5512707,98.4707044 48.6660156,98.8398413 48.6660156,99.3242188 C48.6660156,99.4667976 48.6601563,99.5996088 48.6484375,99.7226562 L46.5507812,99.7226562 C46.605469,99.9824232 46.7285147,100.179199 46.9199219,100.312988 C47.1113291,100.446778 47.3632797,100.513672 47.6757812,100.513672 C47.8046881,100.513672 47.93164,100.506348 48.0566406,100.491699 C48.1816412,100.477051 48.3085931,100.457031 48.4375,100.431641 L48.5136719,100.976562 C48.3300772,101.011719 48.1621101,101.03418 48.0097656,101.043945 C47.8574211,101.053711 47.7226568,101.058594 47.6054688,101.058594 Z M46.5273438,99.2480469 L48.1035156,99.2480469 C48.1035156,98.9687486 48.03711,98.7543953 47.9042969,98.6049805 C47.7714837,98.4555657 47.5878918,98.3808594 47.3535156,98.3808594 C47.11328,98.3808594 46.9218757,98.4560539 46.7792969,98.6064453 C46.636718,98.7568367 46.5527345,98.9707017 46.5273438,99.2480469 Z M50.6113281,101.058594 C50.376952,101.058594 50.1762704,101.051758 50.0092773,101.038086 C49.8422843,101.024414 49.6894538,101.001953 49.5507812,100.970703 L49.6210938,100.408203 C49.8261729,100.439453 50.0073234,100.462891 50.1645508,100.478516 C50.3217781,100.494141 50.4707024,100.501953 50.6113281,100.501953 C50.9257828,100.501953 51.1538079,100.471192 51.2954102,100.409668 C51.4370124,100.348144 51.5078125,100.250001 51.5078125,100.115234 C51.5078125,100.021484 51.4829104,99.9516604 51.4331055,99.9057617 C51.3833005,99.8598631 51.3066411,99.8242189 51.203125,99.7988281 L50.4882812,99.6171875 C50.1816391,99.5390621 49.9565437,99.4423834 49.8129883,99.3271484 C49.6694329,99.2119135 49.5976562,99.0371105 49.5976562,98.8027344 C49.5976562,98.4628889 49.728026,98.2167976 49.9887695,98.0644531 C50.249513,97.9121086 50.669919,97.8359375 51.25,97.8359375 C51.5351577,97.8359375 51.8085924,97.8554686 52.0703125,97.8945312 L52.0058594,98.4335938 C51.8476555,98.4179687 51.7080084,98.4072266 51.5869141,98.4013672 C51.4658197,98.3955078 51.3476568,98.3925781 51.2324219,98.3925781 C50.8847639,98.3925781 50.6328133,98.422363 50.4765625,98.4819336 C50.3203117,98.5415042 50.2421875,98.6386712 50.2421875,98.7734375 C50.2421875,98.8632817 50.2744137,98.9282225 50.3388672,98.9682617 C50.4033206,99.008301 50.5019525,99.0449217 50.6347656,99.078125 L51.2089844,99.21875 C51.5351579,99.2968754 51.773925,99.4013665 51.925293,99.5322266 C52.0766609,99.6630866 52.1523438,99.8535144 52.1523438,100.103516 C52.1523438,100.437502 52.0302747,100.680175 51.7861328,100.831543 C51.541991,100.982911 51.1503933,101.058594 50.6113281,101.058594 Z M54.9296875,101.058594 C54.458982,101.058594 54.1186534,100.960938 53.9086914,100.765625 C53.6987294,100.570312 53.59375,100.257815 53.59375,99.828125 L53.59375,98.4394531 L52.8144531,98.4394531 L52.8144531,97.8945312 L53.59375,97.8945312 L53.59375,96.9570312 L54.2148438,96.9570312 L54.2148438,97.8945312 L55.6269531,97.8945312 L55.6269531,98.4394531 L54.2148438,98.4394531 L54.2148438,99.7988281 C54.2148438,100.044923 54.2749017,100.223632 54.3950195,100.334961 C54.5151373,100.44629 54.7128892,100.501953 54.9882812,100.501953 C55.085938,100.501953 55.1894526,100.496582 55.2988281,100.48584 C55.4082037,100.475098 55.5332024,100.460938 55.6738281,100.443359 L55.7441406,100.988281 C55.6074212,101.011719 55.4741217,101.029297 55.3442383,101.041016 C55.2143548,101.052734 55.0761726,101.058594 54.9296875,101.058594 Z M57.015625,98.7148438 L56.9570312,96.8398438 L57.6367188,96.8398438 L57.578125,98.7148438 L57.015625,98.7148438 Z M58.1992188,98.7148438 L58.140625,96.8398438 L58.8203125,96.8398438 L58.7617188,98.7148438 L58.1992188,98.7148438 Z M61.3984375,101.058594 C61.2792963,101.058594 61.1772465,101.016114 61.0922852,100.931152 C61.0073238,100.846191 60.9648438,100.744141 60.9648438,100.625 C60.9648438,100.503906 61.0073238,100.401368 61.0922852,100.317383 C61.1772465,100.233398 61.2792963,100.191406 61.3984375,100.191406 C61.5195319,100.191406 61.6220699,100.233398 61.7060547,100.317383 C61.7900395,100.401368 61.8320312,100.503906 61.8320312,100.625 C61.8320312,100.744141 61.7900395,100.846191 61.7060547,100.931152 C61.6220699,101.016114 61.5195319,101.058594 61.3984375,101.058594 Z M61.3984375,98.703125 C61.2792963,98.703125 61.1772465,98.660645 61.0922852,98.5756836 C61.0073238,98.4907222 60.9648438,98.3886725 60.9648438,98.2695312 C60.9648438,98.1484369 61.0073238,98.0458989 61.0922852,97.9619141 C61.1772465,97.8779293 61.2792963,97.8359375 61.3984375,97.8359375 C61.5195319,97.8359375 61.6220699,97.8779293 61.7060547,97.9619141 C61.7900395,98.0458989 61.8320312,98.1484369 61.8320312,98.2695312 C61.8320312,98.3886725 61.7900395,98.4907222 61.7060547,98.5756836 C61.6220699,98.660645 61.5195319,98.703125 61.3984375,98.703125 Z M67.5625,98.7148438 L67.5039062,96.8398438 L68.1835938,96.8398438 L68.125,98.7148438 L67.5625,98.7148438 Z M68.7460938,98.7148438 L68.6875,96.8398438 L69.3671875,96.8398438 L69.3085938,98.7148438 L68.7460938,98.7148438 Z M71.7080078,101.058594 C71.3017558,101.058594 70.9936534,100.924806 70.7836914,100.657227 C70.5737294,100.389647 70.46875,99.9960963 70.46875,99.4765625 C70.46875,98.9374973 70.5737294,98.5292983 70.7836914,98.2519531 C70.9936534,97.974608 71.3017558,97.8359375 71.7080078,97.8359375 C71.9404308,97.8359375 72.1293938,97.8906245 72.2749023,98 C72.4204109,98.1093755 72.5058592,98.2617178 72.53125,98.4570312 L72.5898438,98.4570312 L72.5898438,96.6054688 L73.2109375,96.6054688 L73.2109375,101 L72.6542969,101.029297 L72.5927734,100.4375 L72.53125,100.4375 C72.5117187,100.632813 72.4291999,100.785156 72.2836914,100.894531 C72.1381829,101.003907 71.9462903,101.058594 71.7080078,101.058594 Z M72.5898438,99.5527344 L72.5898438,99.3417969 C72.5898438,98.6894499 72.3417994,98.3632812 71.8457031,98.3632812 C71.3378881,98.3632812 71.0839844,98.7343713 71.0839844,99.4765625 C71.0839844,100.179691 71.3378881,100.53125 71.8457031,100.53125 C72.3417994,100.53125 72.5898438,100.205081 72.5898438,99.5527344 Z M75.4609375,101.058594 C75.0312479,101.058594 74.6972668,100.91797 74.4589844,100.636719 C74.2207019,100.355467 74.1015625,99.9589869 74.1015625,99.4472656 C74.1015625,98.9335912 74.2207019,98.5366225 74.4589844,98.2563477 C74.6972668,97.9760728 75.0312479,97.8359375 75.4609375,97.8359375 C75.8925803,97.8359375 76.2270496,97.9760728 76.4643555,98.2563477 C76.7016613,98.5366225 76.8203125,98.9335912 76.8203125,99.4472656 C76.8203125,99.9589869 76.7016613,100.355467 76.4643555,100.636719 C76.2270496,100.91797 75.8925803,101.058594 75.4609375,101.058594 Z M75.4609375,100.501953 C75.6894543,100.501953 75.865722,100.410157 75.9897461,100.226562 C76.1137702,100.042968 76.1757812,99.7832048 76.1757812,99.4472656 C76.1757812,99.1093733 76.1137702,98.849122 75.9897461,98.6665039 C75.865722,98.4838858 75.6894543,98.3925781 75.4609375,98.3925781 C75.2324207,98.3925781 75.056153,98.4838858 74.9321289,98.6665039 C74.8081048,98.849122 74.7460938,99.1093733 74.7460938,99.4472656 C74.7460938,99.7832048 74.8081048,100.042968 74.9321289,100.226562 C75.056153,100.410157 75.2324207,100.501953 75.4609375,100.501953 Z M79.5390625,101.058594 C79.068357,101.058594 78.7280284,100.960938 78.5180664,100.765625 C78.3081044,100.570312 78.203125,100.257815 78.203125,99.828125 L78.203125,98.4394531 L77.4238281,98.4394531 L77.4238281,97.8945312 L78.203125,97.8945312 L78.203125,96.9570312 L78.8242188,96.9570312 L78.8242188,97.8945312 L80.2363281,97.8945312 L80.2363281,98.4394531 L78.8242188,98.4394531 L78.8242188,99.7988281 C78.8242188,100.044923 78.8842767,100.223632 79.0043945,100.334961 C79.1245123,100.44629 79.3222642,100.501953 79.5976562,100.501953 C79.695313,100.501953 79.7988276,100.496582 79.9082031,100.48584 C80.0175787,100.475098 80.1425774,100.460938 80.2832031,100.443359 L80.3535156,100.988281 C80.2167962,101.011719 80.0834967,101.029297 79.9536133,101.041016 C79.8237298,101.052734 79.6855476,101.058594 79.5390625,101.058594 Z M82.7910156,101.058594 C82.2617161,101.058594 81.8530288,100.919435 81.5649414,100.641113 C81.276854,100.362792 81.1328125,99.9628932 81.1328125,99.4414062 C81.1328125,98.9335912 81.2690416,98.5390639 81.5415039,98.2578125 C81.8139662,97.9765611 82.2031225,97.8359375 82.7089844,97.8359375 C83.0117203,97.8359375 83.270995,97.8920893 83.4868164,98.0043945 C83.7026378,98.1166998 83.8564449,98.2753896 83.9482422,98.4804688 L83.4707031,98.8408203 C83.3828121,98.6982415 83.2705085,98.587891 83.1337891,98.5097656 C82.9970696,98.4316402 82.8476571,98.3925781 82.6855469,98.3925781 C82.3925767,98.3925781 82.1650399,98.4809561 82.0029297,98.6577148 C81.8408195,98.8344735 81.7597656,99.0859359 81.7597656,99.4121094 C81.7597656,99.7656268 81.8549795,100.035644 82.0454102,100.222168 C82.2358408,100.408692 82.5078107,100.501953 82.8613281,100.501953 C83.0058601,100.501953 83.1503899,100.495117 83.2949219,100.481445 C83.4394538,100.467773 83.5800774,100.449219 83.7167969,100.425781 L83.7871094,100.970703 C83.6269523,101.00586 83.4614266,101.029297 83.2905273,101.041016 C83.1196281,101.052734 82.9531258,101.058594 82.7910156,101.058594 Z M86.0078125,101.058594 C85.5781229,101.058594 85.2441418,100.91797 85.0058594,100.636719 C84.7675769,100.355467 84.6484375,99.9589869 84.6484375,99.4472656 C84.6484375,98.9335912 84.7675769,98.5366225 85.0058594,98.2563477 C85.2441418,97.9760728 85.5781229,97.8359375 86.0078125,97.8359375 C86.4394553,97.8359375 86.7739246,97.9760728 87.0112305,98.2563477 C87.2485363,98.5366225 87.3671875,98.9335912 87.3671875,99.4472656 C87.3671875,99.9589869 87.2485363,100.355467 87.0112305,100.636719 C86.7739246,100.91797 86.4394553,101.058594 86.0078125,101.058594 Z M86.0078125,100.501953 C86.2363293,100.501953 86.412597,100.410157 86.5366211,100.226562 C86.6606452,100.042968 86.7226562,99.7832048 86.7226562,99.4472656 C86.7226562,99.1093733 86.6606452,98.849122 86.5366211,98.6665039 C86.412597,98.4838858 86.2363293,98.3925781 86.0078125,98.3925781 C85.7792957,98.3925781 85.603028,98.4838858 85.4790039,98.6665039 C85.3549798,98.849122 85.2929688,99.1093733 85.2929688,99.4472656 C85.2929688,99.7832048 85.3549798,100.042968 85.4790039,100.226562 C85.603028,100.410157 85.7792957,100.501953 86.0078125,100.501953 Z M90.3320312,101 L90.3320312,98.6269531 C90.3320312,98.4121083 90.2519539,98.3046875 90.0917969,98.3046875 C89.8886709,98.3046875 89.7871094,98.4453111 89.7871094,98.7265625 L89.7871094,101 L89.2597656,101 L89.2597656,98.5683594 C89.2597656,98.3925772 89.1777352,98.3046875 89.0136719,98.3046875 C88.8144521,98.3046875 88.7148438,98.4453111 88.7148438,98.7265625 L88.7148438,101 L88.09375,101 L88.09375,97.8945312 L88.6445312,97.8945312 L88.6855469,98.28125 L88.7324219,98.28125 C88.7558595,97.9843735 88.9335921,97.8359375 89.265625,97.8359375 C89.396485,97.8359375 89.5053707,97.8730465 89.5922852,97.9472656 C89.6791997,98.0214847 89.7373045,98.1328118 89.7666016,98.28125 L89.8164062,98.28125 C89.8261719,98.1601556 89.8745113,98.0556645 89.9614258,97.9677734 C90.0483403,97.8798824 90.1738273,97.8359375 90.3378906,97.8359375 C90.5527354,97.8359375 90.7089839,97.8935541 90.8066406,98.0087891 C90.9042974,98.124024 90.953125,98.3105456 90.953125,98.5683594 L90.953125,101 L90.3320312,101 Z M91.5742188,99.1953125 L91.5742188,98.6503906 L94.5039062,98.6503906 L94.5039062,99.1953125 L91.5742188,99.1953125 Z M97.1171875,101.058594 C96.646482,101.058594 96.3061534,100.960938 96.0961914,100.765625 C95.8862294,100.570312 95.78125,100.257815 95.78125,99.828125 L95.78125,98.4394531 L95.0019531,98.4394531 L95.0019531,97.8945312 L95.78125,97.8945312 L95.78125,96.9570312 L96.4023438,96.9570312 L96.4023438,97.8945312 L97.8144531,97.8945312 L97.8144531,98.4394531 L96.4023438,98.4394531 L96.4023438,99.7988281 C96.4023438,100.044923 96.4624017,100.223632 96.5825195,100.334961 C96.7026373,100.44629 96.9003892,100.501953 97.1757812,100.501953 C97.273438,100.501953 97.3769526,100.496582 97.4863281,100.48584 C97.5957037,100.475098 97.7207024,100.460938 97.8613281,100.443359 L97.9316406,100.988281 C97.7949212,101.011719 97.6616217,101.029297 97.5317383,101.041016 C97.4018548,101.052734 97.2636726,101.058594 97.1171875,101.058594 Z M100.070312,101.058594 C99.6406229,101.058594 99.3066418,100.91797 99.0683594,100.636719 C98.8300769,100.355467 98.7109375,99.9589869 98.7109375,99.4472656 C98.7109375,98.9335912 98.8300769,98.5366225 99.0683594,98.2563477 C99.3066418,97.9760728 99.6406229,97.8359375 100.070312,97.8359375 C100.501955,97.8359375 100.836425,97.9760728 101.07373,98.2563477 C101.311036,98.5366225 101.429688,98.9335912 101.429688,99.4472656 C101.429688,99.9589869 101.311036,100.355467 101.07373,100.636719 C100.836425,100.91797 100.501955,101.058594 100.070312,101.058594 Z M100.070312,100.501953 C100.298829,100.501953 100.475097,100.410157 100.599121,100.226562 C100.723145,100.042968 100.785156,99.7832048 100.785156,99.4472656 C100.785156,99.1093733 100.723145,98.849122 100.599121,98.6665039 C100.475097,98.4838858 100.298829,98.3925781 100.070312,98.3925781 C99.8417957,98.3925781 99.665528,98.4838858 99.5415039,98.6665039 C99.4174798,98.849122 99.3554688,99.1093733 99.3554688,99.4472656 C99.3554688,99.7832048 99.4174798,100.042968 99.5415039,100.226562 C99.665528,100.410157 99.8417957,100.501953 100.070312,100.501953 Z M103.585938,101.058594 C103.156248,101.058594 102.822267,100.91797 102.583984,100.636719 C102.345702,100.355467 102.226562,99.9589869 102.226562,99.4472656 C102.226562,98.9335912 102.345702,98.5366225 102.583984,98.2563477 C102.822267,97.9760728 103.156248,97.8359375 103.585938,97.8359375 C104.01758,97.8359375 104.35205,97.9760728 104.589355,98.2563477 C104.826661,98.5366225 104.945312,98.9335912 104.945312,99.4472656 C104.945312,99.9589869 104.826661,100.355467 104.589355,100.636719 C104.35205,100.91797 104.01758,101.058594 103.585938,101.058594 Z M103.585938,100.501953 C103.814454,100.501953 103.990722,100.410157 104.114746,100.226562 C104.23877,100.042968 104.300781,99.7832048 104.300781,99.4472656 C104.300781,99.1093733 104.23877,98.849122 104.114746,98.6665039 C103.990722,98.4838858 103.814454,98.3925781 103.585938,98.3925781 C103.357421,98.3925781 103.181153,98.4838858 103.057129,98.6665039 C102.933105,98.849122 102.871094,99.1093733 102.871094,99.4472656 C102.871094,99.7832048 102.933105,100.042968 103.057129,100.226562 C103.181153,100.410157 103.357421,100.501953 103.585938,100.501953 Z M107.564453,101.058594 C107.205076,101.058594 106.945313,100.960938 106.785156,100.765625 C106.624999,100.570312 106.544922,100.257815 106.544922,99.828125 L106.544922,97.1503906 L105.630859,97.1503906 L105.630859,96.6054688 L107.166016,96.6054688 L107.166016,99.7988281 C107.166016,99.9628914 107.18164,100.096679 107.212891,100.200195 C107.244141,100.303711 107.305175,100.379883 107.395996,100.428711 C107.486817,100.477539 107.621093,100.501953 107.798828,100.501953 C107.960938,100.501953 108.167967,100.464844 108.419922,100.390625 L108.490234,100.935547 C108.33203,100.978516 108.180177,101.009766 108.034668,101.029297 C107.889159,101.048828 107.732423,101.058594 107.564453,101.058594 Z M109.152344,99.1953125 L109.152344,98.6503906 L112.082031,98.6503906 L112.082031,99.1953125 L109.152344,99.1953125 Z M112.84375,101 L112.84375,96.6054688 L113.464844,96.6054688 L113.464844,99.265625 L113.634766,99.265625 C113.892579,99.265625 114.104491,99.2211919 114.270508,99.1323242 C114.436524,99.0434566 114.566894,98.8984385 114.661621,98.6972656 C114.756348,98.4960927 114.826172,98.2285173 114.871094,97.8945312 L115.515625,97.8945312 C115.419921,98.6562538 115.181643,99.1904282 114.800781,99.4970703 L115.714844,101 L114.947266,101 L114.229492,99.7724609 C114.09082,99.8056642 113.941407,99.8222656 113.78125,99.8222656 L113.464844,99.8222656 L113.464844,101 L112.84375,101 Z M116.359375,101 L116.359375,100.455078 L117.542969,100.455078 L117.542969,98.4394531 L116.535156,98.4394531 L116.535156,97.8945312 L118.164062,97.8945312 L118.164062,100.455078 L119.119141,100.455078 L119.119141,101 L116.359375,101 Z M117.833008,97.4023438 C117.713867,97.4023438 117.611817,97.3598637 117.526855,97.2749023 C117.441894,97.189941 117.399414,97.0878912 117.399414,96.96875 C117.399414,96.8476556 117.441894,96.7451176 117.526855,96.6611328 C117.611817,96.577148 117.713867,96.5351562 117.833008,96.5351562 C117.954102,96.5351562 118.05664,96.577148 118.140625,96.6611328 C118.22461,96.7451176 118.266602,96.8476556 118.266602,96.96875 C118.266602,97.0878912 118.22461,97.189941 118.140625,97.2749023 C118.05664,97.3598637 117.954102,97.4023438 117.833008,97.4023438 Z M121.726562,101.058594 C121.255857,101.058594 120.915528,100.960938 120.705566,100.765625 C120.495604,100.570312 120.390625,100.257815 120.390625,99.828125 L120.390625,98.4394531 L119.611328,98.4394531 L119.611328,97.8945312 L120.390625,97.8945312 L120.390625,96.9570312 L121.011719,96.9570312 L121.011719,97.8945312 L122.423828,97.8945312 L122.423828,98.4394531 L121.011719,98.4394531 L121.011719,99.7988281 C121.011719,100.044923 121.071777,100.223632 121.191895,100.334961 C121.312012,100.44629 121.509764,100.501953 121.785156,100.501953 C121.882813,100.501953 121.986328,100.496582 122.095703,100.48584 C122.205079,100.475098 122.330077,100.460938 122.470703,100.443359 L122.541016,100.988281 C122.404296,101.011719 122.270997,101.029297 122.141113,101.041016 C122.01123,101.052734 121.873048,101.058594 121.726562,101.058594 Z M128.757812,101.058594 C128.287107,101.058594 127.946778,100.960938 127.736816,100.765625 C127.526854,100.570312 127.421875,100.257815 127.421875,99.828125 L127.421875,98.4394531 L126.642578,98.4394531 L126.642578,97.8945312 L127.421875,97.8945312 L127.421875,96.9570312 L128.042969,96.9570312 L128.042969,97.8945312 L129.455078,97.8945312 L129.455078,98.4394531 L128.042969,98.4394531 L128.042969,99.7988281 C128.042969,100.044923 128.103027,100.223632 128.223145,100.334961 C128.343262,100.44629 128.541014,100.501953 128.816406,100.501953 C128.914063,100.501953 129.017578,100.496582 129.126953,100.48584 C129.236329,100.475098 129.361327,100.460938 129.501953,100.443359 L129.572266,100.988281 C129.435546,101.011719 129.302247,101.029297 129.172363,101.041016 C129.04248,101.052734 128.904298,101.058594 128.757812,101.058594 Z M131.980469,101.058594 C131.451169,101.058594 131.042482,100.919435 130.754395,100.641113 C130.466307,100.362792 130.322266,99.9628932 130.322266,99.4414062 C130.322266,98.9335912 130.444335,98.5390639 130.688477,98.2578125 C130.932618,97.9765611 131.277342,97.8359375 131.722656,97.8359375 C132.14258,97.8359375 132.467284,97.9628894 132.696777,98.2167969 C132.926271,98.4707044 133.041016,98.8398413 133.041016,99.3242188 C133.041016,99.4667976 133.035156,99.5996088 133.023438,99.7226562 L130.925781,99.7226562 C130.980469,99.9824232 131.103515,100.179199 131.294922,100.312988 C131.486329,100.446778 131.73828,100.513672 132.050781,100.513672 C132.179688,100.513672 132.30664,100.506348 132.431641,100.491699 C132.556641,100.477051 132.683593,100.457031 132.8125,100.431641 L132.888672,100.976562 C132.705077,101.011719 132.53711,101.03418 132.384766,101.043945 C132.232421,101.053711 132.097657,101.058594 131.980469,101.058594 Z M130.902344,99.2480469 L132.478516,99.2480469 C132.478516,98.9687486 132.41211,98.7543953 132.279297,98.6049805 C132.146484,98.4555657 131.962892,98.3808594 131.728516,98.3808594 C131.48828,98.3808594 131.296876,98.4560539 131.154297,98.6064453 C131.011718,98.7568367 130.927735,98.9707017 130.902344,99.2480469 Z M134.986328,101.058594 C134.751952,101.058594 134.55127,101.051758 134.384277,101.038086 C134.217284,101.024414 134.064454,101.001953 133.925781,100.970703 L133.996094,100.408203 C134.201173,100.439453 134.382323,100.462891 134.539551,100.478516 C134.696778,100.494141 134.845702,100.501953 134.986328,100.501953 C135.300783,100.501953 135.528808,100.471192 135.67041,100.409668 C135.812012,100.348144 135.882812,100.250001 135.882812,100.115234 C135.882812,100.021484 135.85791,99.9516604 135.808105,99.9057617 C135.758301,99.8598631 135.681641,99.8242189 135.578125,99.7988281 L134.863281,99.6171875 C134.556639,99.5390621 134.331544,99.4423834 134.187988,99.3271484 C134.044433,99.2119135 133.972656,99.0371105 133.972656,98.8027344 C133.972656,98.4628889 134.103026,98.2167976 134.36377,98.0644531 C134.624513,97.9121086 135.044919,97.8359375 135.625,97.8359375 C135.910158,97.8359375 136.183592,97.8554686 136.445312,97.8945312 L136.380859,98.4335938 C136.222655,98.4179687 136.083008,98.4072266 135.961914,98.4013672 C135.84082,98.3955078 135.722657,98.3925781 135.607422,98.3925781 C135.259764,98.3925781 135.007813,98.422363 134.851562,98.4819336 C134.695312,98.5415042 134.617188,98.6386712 134.617188,98.7734375 C134.617188,98.8632817 134.649414,98.9282225 134.713867,98.9682617 C134.778321,99.008301 134.876952,99.0449217 135.009766,99.078125 L135.583984,99.21875 C135.910158,99.2968754 136.148925,99.4013665 136.300293,99.5322266 C136.451661,99.6630866 136.527344,99.8535144 136.527344,100.103516 C136.527344,100.437502 136.405275,100.680175 136.161133,100.831543 C135.916991,100.982911 135.525393,101.058594 134.986328,101.058594 Z M139.304688,101.058594 C138.833982,101.058594 138.493653,100.960938 138.283691,100.765625 C138.073729,100.570312 137.96875,100.257815 137.96875,99.828125 L137.96875,98.4394531 L137.189453,98.4394531 L137.189453,97.8945312 L137.96875,97.8945312 L137.96875,96.9570312 L138.589844,96.9570312 L138.589844,97.8945312 L140.001953,97.8945312 L140.001953,98.4394531 L138.589844,98.4394531 L138.589844,99.7988281 C138.589844,100.044923 138.649902,100.223632 138.77002,100.334961 C138.890137,100.44629 139.087889,100.501953 139.363281,100.501953 C139.460938,100.501953 139.564453,100.496582 139.673828,100.48584 C139.783204,100.475098 139.908202,100.460938 140.048828,100.443359 L140.119141,100.988281 C139.982421,101.011719 139.849122,101.029297 139.719238,101.041016 C139.589355,101.052734 139.451173,101.058594 139.304688,101.058594 Z M142.257812,101.058594 C142.138671,101.058594 142.036622,101.016114 141.95166,100.931152 C141.866699,100.846191 141.824219,100.744141 141.824219,100.625 C141.824219,100.503906 141.866699,100.401368 141.95166,100.317383 C142.036622,100.233398 142.138671,100.191406 142.257812,100.191406 C142.378907,100.191406 142.481445,100.233398 142.56543,100.317383 C142.649414,100.401368 142.691406,100.503906 142.691406,100.625 C142.691406,100.744141 142.649414,100.846191 142.56543,100.931152 C142.481445,101.016114 142.378907,101.058594 142.257812,101.058594 Z M142.257812,98.703125 C142.138671,98.703125 142.036622,98.660645 141.95166,98.5756836 C141.866699,98.4907222 141.824219,98.3886725 141.824219,98.2695312 C141.824219,98.1484369 141.866699,98.0458989 141.95166,97.9619141 C142.036622,97.8779293 142.138671,97.8359375 142.257812,97.8359375 C142.378907,97.8359375 142.481445,97.8779293 142.56543,97.9619141 C142.649414,98.0458989 142.691406,98.1484369 142.691406,98.2695312 C142.691406,98.3886725 142.649414,98.4907222 142.56543,98.5756836 C142.481445,98.660645 142.378907,98.703125 142.257812,98.703125 Z M146.236328,101.058594 C145.876951,101.058594 145.617188,100.960938 145.457031,100.765625 C145.296874,100.570312 145.216797,100.257815 145.216797,99.828125 L145.216797,97.1503906 L144.302734,97.1503906 L144.302734,96.6054688 L145.837891,96.6054688 L145.837891,99.7988281 C145.837891,99.9628914 145.853515,100.096679 145.884766,100.200195 C145.916016,100.303711 145.97705,100.379883 146.067871,100.428711 C146.158692,100.477539 146.292968,100.501953 146.470703,100.501953 C146.632813,100.501953 146.839842,100.464844 147.091797,100.390625 L147.162109,100.935547 C147.003905,100.978516 146.852052,101.009766 146.706543,101.029297 C146.561034,101.048828 146.404298,101.058594 146.236328,101.058594 Z M149.289062,101.058594 C148.859373,101.058594 148.525392,100.91797 148.287109,100.636719 C148.048827,100.355467 147.929688,99.9589869 147.929688,99.4472656 C147.929688,98.9335912 148.048827,98.5366225 148.287109,98.2563477 C148.525392,97.9760728 148.859373,97.8359375 149.289062,97.8359375 C149.720705,97.8359375 150.055175,97.9760728 150.29248,98.2563477 C150.529786,98.5366225 150.648438,98.9335912 150.648438,99.4472656 C150.648438,99.9589869 150.529786,100.355467 150.29248,100.636719 C150.055175,100.91797 149.720705,101.058594 149.289062,101.058594 Z M149.289062,100.501953 C149.517579,100.501953 149.693847,100.410157 149.817871,100.226562 C149.941895,100.042968 150.003906,99.7832048 150.003906,99.4472656 C150.003906,99.1093733 149.941895,98.849122 149.817871,98.6665039 C149.693847,98.4838858 149.517579,98.3925781 149.289062,98.3925781 C149.060546,98.3925781 148.884278,98.4838858 148.760254,98.6665039 C148.63623,98.849122 148.574219,99.1093733 148.574219,99.4472656 C148.574219,99.7832048 148.63623,100.042968 148.760254,100.226562 C148.884278,100.410157 149.060546,100.501953 149.289062,100.501953 Z M153.103516,101.058594 C152.574216,101.058594 152.165529,100.919435 151.877441,100.641113 C151.589354,100.362792 151.445312,99.9628932 151.445312,99.4414062 C151.445312,98.9335912 151.581542,98.5390639 151.854004,98.2578125 C152.126466,97.9765611 152.515622,97.8359375 153.021484,97.8359375 C153.32422,97.8359375 153.583495,97.8920893 153.799316,98.0043945 C154.015138,98.1166998 154.168945,98.2753896 154.260742,98.4804688 L153.783203,98.8408203 C153.695312,98.6982415 153.583008,98.587891 153.446289,98.5097656 C153.30957,98.4316402 153.160157,98.3925781 152.998047,98.3925781 C152.705077,98.3925781 152.47754,98.4809561 152.31543,98.6577148 C152.15332,98.8344735 152.072266,99.0859359 152.072266,99.4121094 C152.072266,99.7656268 152.16748,100.035644 152.35791,100.222168 C152.548341,100.408692 152.820311,100.501953 153.173828,100.501953 C153.31836,100.501953 153.46289,100.495117 153.607422,100.481445 C153.751954,100.467773 153.892577,100.449219 154.029297,100.425781 L154.099609,100.970703 C153.939452,101.00586 153.773927,101.029297 153.603027,101.041016 C153.432128,101.052734 153.265626,101.058594 153.103516,101.058594 Z M156.958984,101.029297 L156.929688,100.34375 L156.868164,100.34375 C156.844726,100.582032 156.743653,100.760742 156.564941,100.879883 C156.38623,100.999024 156.152345,101.058594 155.863281,101.058594 C155.539061,101.058594 155.288087,100.98047 155.110352,100.824219 C154.932616,100.667968 154.84375,100.447267 154.84375,100.162109 C154.84375,99.8339827 154.966307,99.5820321 155.211426,99.40625 C155.456544,99.2304679 155.802732,99.1425781 156.25,99.1425781 C156.472657,99.1425781 156.667968,99.1591795 156.835938,99.1923828 L156.835938,99.0488281 C156.835938,98.8417958 156.763184,98.6899419 156.617676,98.5932617 C156.472167,98.4965815 156.255861,98.444336 155.96875,98.4365234 L155.224609,98.4160156 L155.283203,97.8652344 L155.910156,97.8740234 C156.423831,97.881836 156.805175,97.9926747 157.054199,98.206543 C157.303224,98.4204112 157.427734,98.7324198 157.427734,99.1425781 L157.427734,100.4375 L157.955078,100.501953 L157.955078,101 L156.958984,101.029297 Z M156.835938,99.6699219 C156.736328,99.6542968 156.637208,99.6455078 156.538574,99.6435547 C156.439941,99.6416016 156.339844,99.640625 156.238281,99.640625 C155.699216,99.640625 155.429688,99.8046859 155.429688,100.132812 C155.429688,100.269532 155.476074,100.375 155.568848,100.449219 C155.661622,100.523438 155.792968,100.560547 155.962891,100.560547 C156.156251,100.560547 156.31787,100.527344 156.447754,100.460938 C156.577637,100.394531 156.674804,100.309571 156.739258,100.206055 C156.803711,100.102539 156.835938,99.9960943 156.835938,99.8867188 L156.835938,99.6699219 Z M160.298828,101.058594 C159.939451,101.058594 159.679688,100.960938 159.519531,100.765625 C159.359374,100.570312 159.279297,100.257815 159.279297,99.828125 L159.279297,97.1503906 L158.365234,97.1503906 L158.365234,96.6054688 L159.900391,96.6054688 L159.900391,99.7988281 C159.900391,99.9628914 159.916015,100.096679 159.947266,100.200195 C159.978516,100.303711 160.03955,100.379883 160.130371,100.428711 C160.221192,100.477539 160.355468,100.501953 160.533203,100.501953 C160.695313,100.501953 160.902342,100.464844 161.154297,100.390625 L161.224609,100.935547 C161.066405,100.978516 160.914552,101.009766 160.769043,101.029297 C160.623534,101.048828 160.466798,101.058594 160.298828,101.058594 Z M162.484375,98.7148438 L162.425781,96.8398438 L163.105469,96.8398438 L163.046875,98.7148438 L162.484375,98.7148438 Z M163.667969,98.7148438 L163.609375,96.8398438 L164.289062,96.8398438 L164.230469,98.7148438 L163.667969,98.7148438 Z M29.125,108.626953 C29.0117182,108.626953 28.9165043,108.621582 28.8393555,108.61084 C28.7622066,108.600098 28.6914066,108.585938 28.6269531,108.568359 L28.6972656,108.058594 C28.7656253,108.066406 28.8315427,108.073242 28.8950195,108.079102 C28.9584964,108.084961 29.0175779,108.087891 29.0722656,108.087891 C29.2109382,108.087891 29.3247066,108.04004 29.4135742,107.944336 C29.5024419,107.848632 29.5312502,107.714845 29.5,107.542969 C29.4804687,107.43164 29.4506838,107.324219 29.4106445,107.220703 C29.3706053,107.117187 29.3334963,107.012208 29.2993164,106.905762 C29.2651365,106.799316 29.2480469,106.687501 29.2480469,106.570312 C29.2480469,106.390624 29.3261711,106.248536 29.4824219,106.144043 C29.6386727,106.03955 29.8554674,105.985352 30.1328125,105.981445 L30.1328125,105.881836 C29.8554674,105.87793 29.6386727,105.820313 29.4824219,105.708984 C29.3261711,105.597656 29.2480469,105.441407 29.2480469,105.240234 C29.2480469,105.126953 29.2651365,105.018067 29.2993164,104.913574 C29.3334963,104.809082 29.3706053,104.704102 29.4106445,104.598633 C29.4506838,104.493164 29.4804687,104.382813 29.5,104.267578 C29.5273439,104.111327 29.497559,103.990235 29.4106445,103.904297 C29.32373,103.818359 29.2109382,103.775391 29.0722656,103.775391 C29.0175779,103.775391 28.9584964,103.777832 28.8950195,103.782715 C28.8315427,103.787598 28.7656253,103.794922 28.6972656,103.804688 L28.6269531,103.294922 C28.6914066,103.277344 28.7622066,103.263184 28.8393555,103.252441 C28.9165043,103.241699 29.0117182,103.236328 29.125,103.236328 C29.3378917,103.236328 29.5268546,103.277343 29.6918945,103.359375 C29.8569344,103.441407 29.9804683,103.559081 30.0625,103.712402 C30.1445317,103.865723 30.1660158,104.05078 30.1269531,104.267578 C30.1074218,104.378907 30.0786135,104.487304 30.0405273,104.592773 C30.0024412,104.698243 29.9672853,104.804687 29.9350586,104.912109 C29.9028319,105.019532 29.8867188,105.132812 29.8867188,105.251953 C29.8867188,105.324219 29.9184567,105.388183 29.9819336,105.443848 C30.0454105,105.499512 30.1259761,105.546387 30.2236328,105.584473 C30.3212896,105.622559 30.4213862,105.651367 30.5239258,105.670898 C30.6264654,105.69043 30.7167965,105.700195 30.7949219,105.700195 L30.7949219,106.163086 C30.7148433,106.163086 30.6230474,106.169434 30.5195312,106.182129 C30.4160151,106.194824 30.3159185,106.21582 30.2192383,106.245117 C30.1225581,106.274414 30.0429691,106.314941 29.9804688,106.366699 C29.9179684,106.418457 29.8867188,106.482421 29.8867188,106.558594 C29.8867188,106.73047 29.9194333,106.895507 29.9848633,107.053711 C30.0502933,107.211915 30.0976561,107.374999 30.1269531,107.542969 C30.167969,107.767579 30.1469731,107.960937 30.0639648,108.123047 C29.9809566,108.285157 29.8569344,108.409668 29.6918945,108.496582 C29.5268546,108.583497 29.3378917,108.626953 29.125,108.626953 Z" id="Combined-Shape" fill="#262A33"></path>
        <path d="M85.4293789,39.9445305 L87.04102,37.0974885 L87.2515278,36.7256163 L88,37.1439726 L87.7894922,37.5158448 L85.3742361,41.7825115 C85.2100828,42.0724962 84.7899172,42.0724962 84.6257639,41.7825115 L82.2105078,37.5158448 L82,37.1439726 L82.7484722,36.7256163 L82.95898,37.0974885 L84.5706211,39.9445305 L84.5706211,37.3066667 L84.5706211,30.4266667 L84.5706211,30 L85.4293789,30 L85.4293789,30.4266667 L85.4293789,37.3066667 L85.4293789,39.9445305 Z" id="Line" fill="#262A33" fill-rule="nonzero"></path>
        <path d="M85.4293789,81.9445305 L87.04102,79.0974885 L87.2515278,78.7256163 L88,79.1439726 L87.7894922,79.5158448 L85.3742361,83.7825115 C85.2100828,84.0724962 84.7899172,84.0724962 84.6257639,83.7825115 L82.2105078,79.5158448 L82,79.1439726 L82.7484722,78.7256163 L82.95898,79.0974885 L84.5706211,81.9445305 L84.5706211,79.3066667 L84.5706211,72.4266667 L84.5706211,72 L85.4293789,72 L85.4293789,72.4266667 L85.4293789,79.3066667 L85.4293789,81.9445305 Z" id="Line" fill="#262A33" fill-rule="nonzero"></path>
    </g>
</svg>
