<?xml version="1.0" encoding="UTF-8"?>
<svg width="117px" height="32px" viewBox="0 0 117 32" version="1.1" xmlns="http://www.w3.org/2000/svg" xmlns:xlink="http://www.w3.org/1999/xlink">
    <!-- Generator: Sketch 52.4 (67378) - http://www.bohemiancoding.com/sketch -->
    <title>logo</title>
    <desc>Created with Sketch.</desc>
    <defs>
        <linearGradient x1="1.07435987%" y1="-58.9569379%" x2="97.1105322%" y2="95.3571091%" id="linearGradient-1">
            <stop stop-color="#082A4D" offset="0%"></stop>
            <stop stop-color="#262A33" offset="100%"></stop>
        </linearGradient>
        <linearGradient x1="6.76974283%" y1="9.21325768%" x2="285.932761%" y2="389.139185%" id="linearGradient-2">
            <stop stop-color="#082A4D" offset="0%"></stop>
            <stop stop-color="#262A33" offset="100%"></stop>
        </linearGradient>
    </defs>
    <g id="Page-1" stroke="none" stroke-width="1" fill="none" fill-rule="evenodd">
        <path d="M38.48,17.576 L38.48,14.264 L51.44,14.264 L51.44,17.576 L46.88,17.576 L46.88,29 L43.016,29 L43.016,17.576 L38.48,17.576 Z M60.368,19.544 C61.3920051,20.5840052 61.904,21.9359917 61.904,23.6 C61.904,25.2640083 61.3960051,26.6199948 60.38,27.668 C59.3639949,28.7160052 58.0320082,29.24 56.384,29.24 C54.7519918,29.24 53.4240051,28.7160052 52.4,27.668 C51.3759949,26.6199948 50.864,25.2640083 50.864,23.6 C50.864,21.9359917 51.3759949,20.5800052 52.4,19.532 C53.4240051,18.4839948 54.7519918,17.96 56.384,17.96 C58.0320082,17.96 59.359995,18.4879947 60.368,19.544 Z M57.728,25.448 C58.0480016,24.9839977 58.208,24.3680038 58.208,23.6 C58.208,22.8319962 58.0480016,22.2160023 57.728,21.752 C57.4079984,21.2879977 56.9600029,21.056 56.384,21.056 C55.8239972,21.056 55.3840016,21.2879977 55.064,21.752 C54.7439984,22.2160023 54.584,22.8319962 54.584,23.6 C54.584,24.3520038 54.7439984,24.9599977 55.064,25.424 C55.3840016,25.8880023 55.8239972,26.12 56.384,26.12 C56.9600029,26.12 57.4079984,25.8960022 57.728,25.448 Z M72.44,19.544 C73.4640051,20.5840052 73.976,21.9359917 73.976,23.6 C73.976,25.2640083 73.4680051,26.6199948 72.452,27.668 C71.4359949,28.7160052 70.1040082,29.24 68.456,29.24 C66.8239918,29.24 65.4960051,28.7160052 64.472,27.668 C63.4479949,26.6199948 62.936,25.2640083 62.936,23.6 C62.936,21.9359917 63.4479949,20.5800052 64.472,19.532 C65.4960051,18.4839948 66.8239918,17.96 68.456,17.96 C70.1040082,17.96 71.431995,18.4879947 72.44,19.544 Z M69.8,25.448 C70.1200016,24.9839977 70.28,24.3680038 70.28,23.6 C70.28,22.8319962 70.1200016,22.2160023 69.8,21.752 C69.4799984,21.2879977 69.0320029,21.056 68.456,21.056 C67.8959972,21.056 67.4560016,21.2879977 67.136,21.752 C66.8159984,22.2160023 66.656,22.8319962 66.656,23.6 C66.656,24.3520038 66.8159984,24.9599977 67.136,25.424 C67.4560016,25.8880023 67.8959972,26.12 68.456,26.12 C69.0320029,26.12 69.4799984,25.8960022 69.8,25.448 Z M79.208,13.4 L79.208,29 L75.44,29 L75.44,13.4 L79.208,13.4 Z M90.008,14.264 L90.008,20.312 L94.76,14.264 L99.272,14.264 L94.112,20.744 L99.488,29 L94.952,29 L91.232,23.336 L90.008,24.896 L90.008,29 L86.144,29 L86.144,14.264 L90.008,14.264 Z M104.408,18.2 L104.408,29 L100.64,29 L100.64,18.2 L104.408,18.2 Z M104.672,15.272 C104.672,15.864003 104.464002,16.3479981 104.048,16.724 C103.631998,17.1000019 103.128003,17.288 102.536,17.288 C101.943997,17.288 101.440002,17.1000019 101.024,16.724 C100.607998,16.3479981 100.4,15.864003 100.4,15.272 C100.4,14.663997 100.607998,14.1720019 101.024,13.796 C101.440002,13.4199981 101.943997,13.232 102.536,13.232 C103.128003,13.232 103.631998,13.4199981 104.048,13.796 C104.464002,14.1720019 104.672,14.663997 104.672,15.272 Z M107.24,25.28 L107.24,21.128 L105.656,21.128 L105.656,18.2 L107.24,18.2 L107.24,15.224 L110.96,15.224 L110.96,18.2 L113.216,18.2 L113.216,21.128 L110.96,21.128 L110.96,24.728 C110.96,25.528004 111.343996,25.928 112.112,25.928 C112.544002,25.928 112.943998,25.8480008 113.312,25.688 L113.312,28.88 C112.815998,29.1040011 112.120004,29.216 111.224,29.216 C108.567987,29.216 107.24,27.9040131 107.24,25.28 Z" id="Tool-Kit" fill="url(#linearGradient-1)"></path>
        <path d="M38.96,11 L38.45,11 L39.53,4.86 L43.08,4.86 L43,5.33 L39.95,5.33 L39.54,7.67 L42.43,7.67 L42.34,8.13 L39.46,8.13 L38.96,11 Z M43.65,5.33 L43.73,4.86 L48.74,4.86 L48.65,5.33 L46.4,5.33 L45.41,11 L44.9,11 L45.89,5.33 L43.65,5.33 Z M48.02,10.92 C47.9466663,10.8466663 47.91,10.7566672 47.91,10.65 C47.91,10.5433328 47.9466663,10.451667 48.02,10.375 C48.0933337,10.298333 48.1799995,10.26 48.28,10.26 C48.3866672,10.26 48.4766663,10.298333 48.55,10.375 C48.6233337,10.451667 48.66,10.5433328 48.66,10.65 C48.66,10.7566672 48.6233337,10.8466663 48.55,10.92 C48.4766663,10.9933337 48.3866672,11.03 48.28,11.03 C48.1799995,11.03 48.0933337,10.9933337 48.02,10.92 Z M52.44,9.71 L52.94,9.71 C52.7999993,10.1366688 52.5716683,10.4733321 52.255,10.72 C51.9383318,10.9666679 51.5566689,11.09 51.11,11.09 C50.5833307,11.09 50.1683349,10.9150017 49.865,10.565 C49.5616652,10.2149983 49.41,9.7500029 49.41,9.17 C49.41,8.436663 49.614998,7.803336 50.025,7.27 C50.4350021,6.736664 50.9799966,6.47 51.66,6.47 C52.1200023,6.47 52.483332,6.59499875 52.75,6.845 C53.016668,7.09500125 53.1666665,7.4299979 53.2,7.85 L52.7,7.85 C52.6666665,7.5633319 52.5600009,7.3366675 52.38,7.17 C52.1999991,7.0033325 51.9600015,6.92 51.66,6.92 C51.1333307,6.92 50.7100016,7.1366645 50.39,7.57 C50.0699984,8.0033355 49.91,8.5366635 49.91,9.17 C49.91,9.6233356 50.0199989,9.98166535 50.24,10.245 C50.4600011,10.5083346 50.7599981,10.64 51.14,10.64 C51.7800032,10.64 52.2133322,10.3300031 52.44,9.71 Z M55.56,10.65 C56.0533358,10.65 56.4633317,10.4383355 56.79,10.015 C57.1166683,9.59166455 57.28,9.0433367 57.28,8.37 C57.28,7.9299978 57.1700011,7.576668 56.95,7.31 C56.7299989,7.043332 56.4300019,6.91 56.05,6.91 C55.5566642,6.91 55.1466683,7.12166455 54.82,7.545 C54.4933317,7.96833545 54.33,8.5166633 54.33,9.19 C54.33,9.6300022 54.4399989,9.983332 54.66,10.25 C54.8800011,10.516668 55.1799981,10.65 55.56,10.65 Z M55.56,11.09 C55.026664,11.09 54.6050015,10.9166684 54.295,10.57 C53.9849985,10.2233316 53.83,9.7633362 53.83,9.19 C53.83,8.4033294 54.0433312,7.7533359 54.47,7.24 C54.8966688,6.7266641 55.4233302,6.47 56.05,6.47 C56.583336,6.47 57.0049985,6.6433316 57.315,6.99 C57.6250016,7.3366684 57.78,7.7966638 57.78,8.37 C57.78,9.1566706 57.5666688,9.8066641 57.14,10.32 C56.7133312,10.8333359 56.1866698,11.09 55.56,11.09 Z M62.13,7.31 C62.5833356,6.7499972 63.0833306,6.47 63.63,6.47 C64.0100019,6.47 64.2983324,6.57833225 64.495,6.795 C64.6916676,7.01166775 64.79,7.2999982 64.79,7.66 C64.79,7.7466671 64.7766668,7.8766658 64.75,8.05 L64.24,11 L63.75,11 L64.24,8.14 C64.2666668,8.0133327 64.28,7.8866673 64.28,7.76 C64.28,7.2066639 64.0266692,6.93 63.52,6.93 C62.9599972,6.93 62.5066684,7.2499968 62.16,7.89 L61.61,11 L61.12,11 L61.61,8.14 C61.6366668,8.0133327 61.65,7.8866673 61.65,7.76 C61.65,7.2066639 61.3966692,6.93 60.89,6.93 C60.3433306,6.93 59.8900018,7.2499968 59.53,7.89 L58.98,11 L58.49,11 L59.27,6.56 L59.76,6.56 L59.64,7.26 C60.0266686,6.7333307 60.4933306,6.47 61.04,6.47 C61.3400015,6.47 61.5833324,6.5466659 61.77,6.7 C61.9566676,6.8533341 62.0766664,7.0566654 62.13,7.31 Z" id="FT.com" fill="url(#linearGradient-2)"></path>
        <g id="Group-2" transform="translate(3.000000, 3.000000)">
            <polygon id="Path" fill="#CC1452" points="28.2175 5.5725 1.7825 5.5725 8.8817842e-15 9.99 30 9.99"></polygon>
            <path d="M23.975,4.1525 L6.025,4.1525 C5.69,4.1525 5.355,4.2125 5.0425,4.3325 L1.78,5.5725 L28.2175,5.5725 L24.955,4.3325 C24.6425,4.2125 24.31,4.1525 23.975,4.1525 Z" id="Path" fill="#FF1A66"></path>
            <path d="M28.9925,26.9025 L1.0075,26.9025 C0.45,26.9025 8.8817842e-15,26.4525 8.8817842e-15,25.895 L8.8817842e-15,9.99 L30,9.99 L30,25.895 C30,26.4525 29.55,26.9025 28.9925,26.9025 Z" id="Path" fill="#B31247"></path>
            <path d="M8.8817842e-15,15.025 L30,15.025" id="Path" stroke="#800D33" stroke-width="2.1329"></path>
            <g id="Group" transform="translate(4.500000, 12.500000)">
                <g id="Path">
                    <path d="M4.7625,1.32 L0.6325,1.32 C0.3975,1.32 0.205,1.485 0.205,1.6875 L0.205,4.115 C0.205,4.3175 0.395,4.4825 0.6325,4.4825 L1.245,4.4825 L1.245,5.7475 C1.245,6.2875 1.7525,6.725 2.38,6.725 L3.0175,6.725 C3.6425,6.725 4.1525,6.2875 4.1525,5.7475 L4.1525,4.4825 L4.765,4.4825 C5,4.4825 5.1925,4.3175 5.1925,4.115 L5.1925,1.6875 C5.1875,1.485 4.9975,1.32 4.7625,1.32 Z" fill="#800D33"></path>
                    <path d="M4.47,3.98 L0.9225,3.98 C0.7725,3.98 0.6525,3.86 0.6525,3.71 L0.6525,1.145 C0.6525,0.995 0.7725,0.875 0.9225,0.875 L4.4675,0.875 C4.6175,0.875 4.7375,0.995 4.7375,1.145 L4.7375,3.71 C4.74,3.86 4.6175,3.98 4.47,3.98 Z" fill="#558EA0"></path>
                    <path d="M1.505,2.5075 L3.8875,2.5075" stroke="#332424" stroke-width="2.8301"></path>
                    <path d="M3.8875,2.155 L1.505,2.155 L1.505,0.8275 C1.505,0.4325 1.825,0.11 2.2225,0.11 L3.1725,0.11 C3.5675,0.11 3.89,0.43 3.89,0.8275 L3.89,2.155 L3.8875,2.155 Z" fill="#82AEC0"></path>
                    <path d="M1.505,2.82 L3.8875,2.82 L3.8875,5.465 C3.8875,5.86 3.5675,6.1825 3.17,6.1825 L2.22,6.1825 C1.825,6.1825 1.5025,5.8625 1.5025,5.465 L1.5025,2.82 L1.505,2.82 Z" fill="#82AEC0"></path>
                    <path d="M3.4575,4.8975 C3.565,4.8975 3.6925,4.9875 3.7225,5.1475 C3.7375,5.2375 3.6875,5.4225 3.6175,5.4825 C3.49,5.59 3.32,5.66 3.1425,5.7025 C2.8675,5.77 2.5675,5.7825 2.295,5.71 C2.0225,5.64 1.7375,5.5025 1.655,5.275 C1.53,4.9275 1.9975,4.9025 3.4575,4.8975 Z" fill="#A1D5E5"></path>
                </g>
                <g transform="translate(15.750000, 0.000000)" id="Path">
                    <path d="M4.6175,1.32 L0.4875,1.32 C0.2525,1.32 0.06,1.485 0.06,1.6875 L0.06,4.115 C0.06,4.3175 0.25,4.4825 0.4875,4.4825 L1.1,4.4825 L1.1,5.7475 C1.1,6.2875 1.6075,6.725 2.235,6.725 L2.8725,6.725 C3.4975,6.725 4.0075,6.2875 4.0075,5.7475 L4.0075,4.4825 L4.62,4.4825 C4.855,4.4825 5.0475,4.3175 5.0475,4.115 L5.0475,1.6875 C5.045,1.485 4.855,1.32 4.6175,1.32 Z" fill="#800D33"></path>
                    <path d="M4.3275,3.98 L0.78,3.98 C0.63,3.98 0.51,3.86 0.51,3.71 L0.51,1.145 C0.51,0.995 0.63,0.875 0.78,0.875 L4.325,0.875 C4.475,0.875 4.595,0.995 4.595,1.145 L4.595,3.71 C4.595,3.86 4.475,3.98 4.3275,3.98 Z" fill="#558EA0"></path>
                    <path d="M1.3625,2.5075 L3.745,2.5075" stroke="#332424" stroke-width="2.8301"></path>
                    <path d="M3.745,2.155 L1.3625,2.155 L1.3625,0.8275 C1.3625,0.4325 1.6825,0.11 2.08,0.11 L3.03,0.11 C3.425,0.11 3.7475,0.43 3.7475,0.8275 L3.7475,2.155 L3.745,2.155 Z" fill="#82AEC0"></path>
                    <path d="M1.3625,2.82 L3.745,2.82 L3.745,5.465 C3.745,5.86 3.425,6.1825 3.0275,6.1825 L2.0775,6.1825 C1.6825,6.1825 1.36,5.8625 1.36,5.465 L1.36,2.82 L1.3625,2.82 Z" fill="#82AEC0"></path>
                    <path d="M3.3875,4.8975 C3.4625,4.9 3.6,4.9225 3.65,5.07 C3.7,5.2175 3.6,5.3725 3.4725,5.48 C3.345,5.5875 3.175,5.6575 2.9975,5.7 C2.7225,5.7675 2.4225,5.78 2.15,5.7075 C1.8775,5.6375 1.6325,5.4825 1.51,5.2725 C1.315,4.94 1.9675,4.8375 3.3875,4.8975 Z" fill="#A1D5E5"></path>
                </g>
            </g>
            <path d="M21.6325,4.2625 C21.515,4.105 21.13,3.945 21.0175,3.88 C20.265,3.4325 20.3425,2.2 19.8375,1.4 C19.3875,0.685 18.585,0.1 17.74,0.1 C17.74,0.1 16.5825,0.1 15.41,0.1 C15.39,0.1 15.3725,0.1 15.3525,0.1 C14.1775,0.1 13.0225,0.1 13.0225,0.1 C12.1775,0.1 11.375,0.6875 10.925,1.4 C10.42,2.2 10.4975,3.4325 9.745,3.88 C9.635,3.945 9.2475,4.1075 9.13,4.2625 C8.985,4.4575 9.13,4.6625 9.13,4.6625 C9.13,4.6625 10.2475,4.6625 10.495,4.6625 C11.1625,4.6625 11.5375,3.54 11.595,3.3875 C11.8225,2.7625 12.2375,1.84 13.0225,1.84 C13.0225,1.84 14.18,1.84 15.3525,1.84 C15.3725,1.84 15.39,1.84 15.41,1.84 C16.585,1.84 17.74,1.84 17.74,1.84 C18.525,1.84 18.94,2.765 19.1675,3.3875 C19.2225,3.54 19.5975,4.6625 20.2675,4.6625 C20.515,4.6625 21.6325,4.6625 21.6325,4.6625 C21.6325,4.6625 21.7775,4.4575 21.6325,4.2625 Z" id="Path" fill="#262A33"></path>
            <path d="M11.805,0.8475 C12.1625,0.55 12.625,0.3725 13.09,0.3775 C13.2175,0.38 13.35,0.395 13.4575,0.465 C13.565,0.535 13.64,0.6675 13.6075,0.7925 C13.5725,0.925 13.435,1.0025 13.3075,1.0525 C12.845,1.2325 12.31,1.2725 11.9425,1.6025 C11.69,1.83 11.5575,2.1575 11.3775,2.445 C11.29,2.585 11.1725,2.7275 11.0075,2.745 C10.95,2.75 10.8875,2.7375 10.85,2.695 C10.785,2.62 10.825,2.505 10.8675,2.4175 C11.005,2.1325 11.085,1.8325 11.2325,1.555 C11.3875,1.27 11.59,1.075 11.805,0.8475 Z" id="Path" fill="#616161"></path>
            <path d="M7.30904712,14.054728 C6.92119747,14.0764262 6.54546812,14.3671814 6.35154329,14.8011444 C6.30609216,14.9009559 6.24246058,15.0224655 6.15761847,14.9964277 C6.09095681,14.9747296 6.06368613,14.8749181 6.04853575,14.7881255 C5.98490417,14.4235966 5.96369364,14.0026524 6.11216734,13.6685009 C6.26670118,13.3169909 6.56667865,13.1130283 6.85756589,13.0609527 C7.44540051,12.9611412 7.88173137,12.9220846 7.98172386,13.4471798 C8.0998968,14.0677469 7.61811481,14.0373695 7.30904712,14.054728 Z" id="Path" fill="#A1D5E5"></path>
            <path d="M23.3085412,14.054728 C22.9208415,14.0764262 22.5452573,14.3671814 22.3514074,14.8011444 C22.3059739,14.9009559 22.2423669,15.0224655 22.1575576,14.9964277 C22.0909217,14.9747296 22.0636615,14.8749181 22.048517,14.7881255 C21.98491,14.4235966 21.9637077,14.0026524 22.112124,13.6685009 C22.2665981,13.3169909 22.5664596,13.1130283 22.8572345,13.0609527 C23.4448419,12.9611412 23.8810041,12.9220846 23.980958,13.4471798 C24.1021142,14.0677469 23.6174895,14.0373695 23.3085412,14.054728 Z" id="Path" fill="#A1D5E5"></path>
        </g>
    </g>
</svg>