<?xml version="1.0" encoding="UTF-8"?>
<svg width="183px" height="161px" viewBox="0 0 183 161" version="1.1" xmlns="http://www.w3.org/2000/svg" xmlns:xlink="http://www.w3.org/1999/xlink">
    <!-- Generator: Sketch 52.6 (67491) - http://www.bohemiancoding.com/sketch -->
    <title>plugin</title>
    <desc>Created with Sketch.</desc>
    <defs>
        <linearGradient x1="3.42756503%" y1="3.42756503%" x2="99.3131251%" y2="99.3131251%" id="linearGradient-1">
            <stop stop-color="#990F3D" offset="0%"></stop>
            <stop stop-color="#9A004F" offset="100%"></stop>
        </linearGradient>
        <linearGradient x1="6.14253279%" y1="6.14253279%" x2="6.14253279%" y2="100%" id="linearGradient-2">
            <stop stop-color="#17454E" offset="0%"></stop>
            <stop stop-color="#17454E" stop-opacity="0" offset="100%"></stop>
        </linearGradient>
        <linearGradient x1="99.3131251%" y1="3.42756503%" x2="3.42756503%" y2="99.3131251%" id="linearGradient-3">
            <stop stop-color="#262A33" offset="0%"></stop>
            <stop stop-color="#0A3866" offset="100%"></stop>
        </linearGradient>
        <linearGradient x1="50%" y1="0%" x2="50%" y2="100%" id="linearGradient-4">
            <stop stop-color="#FFFFFF" stop-opacity="0.70983356" offset="0%"></stop>
            <stop stop-color="#FFFFFF" stop-opacity="0.306499094" offset="100%"></stop>
        </linearGradient>
        <linearGradient x1="98.0530683%" y1="3.42756503%" x2="3.42756503%" y2="98.0530683%" id="linearGradient-5">
            <stop stop-color="#262A33" offset="0%"></stop>
            <stop stop-color="#0A5E66" offset="100%"></stop>
        </linearGradient>
    </defs>
    <g id="plugin" stroke="none" stroke-width="1" fill="none" fill-rule="evenodd">
        <path d="M25.638852,-1.03584031e-15 L157.361148,1.03584031e-15 C166.276335,-6.01853049e-16 169.509198,0.928256111 172.768457,2.67132704 C176.027716,4.41439796 178.585602,6.97228371 180.328673,10.231543 C182.071744,13.4908022 183,16.7236646 183,25.638852 L183,135.361148 C183,144.276335 182.071744,147.509198 180.328673,150.768457 C178.585602,154.027716 176.027716,156.585602 172.768457,158.328673 C169.509198,160.071744 166.276335,161 157.361148,161 L25.638852,161 C16.7236646,161 13.4908022,160.071744 10.231543,158.328673 C6.97228371,156.585602 4.41439796,154.027716 2.67132704,150.768457 C0.928256111,147.509198 4.01235366e-16,144.276335 -6.90560205e-16,135.361148 L6.90560205e-16,25.638852 C-4.01235366e-16,16.7236646 0.928256111,13.4908022 2.67132704,10.231543 C4.41439796,6.97228371 6.97228371,4.41439796 10.231543,2.67132704 C13.4908022,0.928256111 16.7236646,6.01853049e-16 25.638852,-1.03584031e-15 Z" id="Rectangle" fill="url(#linearGradient-1)"></path>
        <path d="M155.684068,161 L25.638852,161 C16.7236646,161 13.4908022,160.071744 10.231543,158.328673 C9.81179128,158.104187 9.40367273,157.866187 9.00742962,157.614914 C9.00248394,157.366563 9,157.108655 9,156.840486 L9,153.159514 C9,149.493815 9.46412806,147.745401 10.3356635,146.115771 C11.207199,144.486142 12.4861419,143.207199 14.1157715,142.335664 C15.7454011,141.464128 17.4938146,141 21.1595144,141 L143.840486,141 C147.506185,141 149.254599,141.464128 150.884229,142.335664 C152.513858,143.207199 153.792801,144.486142 154.664336,146.115771 C155.535872,147.745401 156,149.493815 156,153.159514 L156,156.840486 C156,158.603971 155.892584,159.923728 155.684068,161 Z" id="Combined-Shape" fill="url(#linearGradient-2)"></path>
        <path d="M21.3527668,34 L161.647233,34 C165.544836,34 167.254599,34.4641281 168.884229,35.3356635 C170.513858,36.207199 171.792801,37.4861419 172.664336,39.1157715 C173.535872,40.7454011 174,42.4551641 174,46.3527668 L174,50.6472332 C174,54.5448359 173.535872,56.2545989 172.664336,57.8842285 C171.792801,59.5138581 170.513858,60.792801 168.884229,61.6643365 C167.254599,62.5358719 165.544836,63 161.647233,63 L21.3527668,63 C17.4551641,63 15.7454011,62.5358719 14.1157715,61.6643365 C12.4861419,60.792801 11.207199,59.5138581 10.3356635,57.8842285 C9.46412806,56.2545989 9,54.5448359 9,50.6472332 L9,46.3527668 C9,42.4551641 9.46412806,40.7454011 10.3356635,39.1157715 C11.207199,37.4861419 12.4861419,36.207199 14.1157715,35.3356635 C15.7454011,34.4641281 17.4551641,34 21.3527668,34 Z" id="Rectangle" fill="url(#linearGradient-3)"></path>
        <path d="M39.2421875,53.1367188 C38.9687486,53.1367188 38.6953139,53.1241863 38.421875,53.0991211 C38.1484361,53.0740559 37.8727227,53.0387372 37.5947266,52.9931641 L39.0644531,44.6601562 C39.1419275,44.2454406 39.1305344,43.9401051 39.0302734,43.7441406 C38.9300125,43.5481761 38.7203792,43.4501953 38.4013672,43.4501953 C38.282877,43.4501953 38.1632493,43.4558919 38.0424805,43.4672852 C37.9217116,43.4786784 37.8020839,43.4980467 37.6835938,43.5253906 L37.5810547,42.7119141 C37.7314461,42.6708982 37.8818352,42.6424154 38.0322266,42.6264648 C38.1826179,42.6105142 38.3330071,42.6025391 38.4833984,42.6025391 C39.144209,42.6025391 39.5942371,42.7688785 39.8334961,43.1015625 C40.0727551,43.4342465 40.1285814,43.9537725 40.0009766,44.6601562 L39.4609375,47.7226562 L39.5771484,47.7226562 C39.8232434,47.0481737 40.2014948,46.5286477 40.7119141,46.1640625 C41.2223333,45.7994773 41.8238898,45.6171875 42.5166016,45.6171875 C43.1682975,45.6171875 43.6741518,45.8154277 44.0341797,46.2119141 C44.3942075,46.6084004 44.5742188,47.1689417 44.5742188,47.8935547 C44.5742188,48.6409543 44.4409193,49.3325164 44.1743164,49.9682617 C43.9077135,50.6040071 43.53288,51.1588518 43.0498047,51.6328125 C42.5667294,52.1067732 42.0016308,52.4759101 41.3544922,52.7402344 C40.7073535,53.0045586 40.003259,53.1367188 39.2421875,53.1367188 Z M38.9960938,50.3544922 L38.6611328,52.234375 C38.8798839,52.2662762 39.1236966,52.2822266 39.3925781,52.2822266 C40.2037801,52.2822266 40.9295215,52.0965188 41.5698242,51.7250977 C42.2101269,51.3536765 42.7171205,50.8466829 43.0908203,50.2041016 C43.4645201,49.5615202 43.6513672,48.8369181 43.6513672,48.0302734 C43.6513672,47.5335262 43.5237643,47.1495782 43.2685547,46.878418 C43.0133451,46.6072578 42.6556013,46.4716797 42.1953125,46.4716797 C41.7760396,46.4716797 41.3556336,46.6061184 40.934082,46.875 C40.5125304,47.1438816 40.1297218,47.5642875 39.7856445,48.1362305 C39.4415673,48.7081734 39.1783863,49.4475866 38.9960938,50.3544922 Z M47.9785156,53.1435547 C47.3040331,53.1435547 46.7890643,52.9578469 46.4335938,52.5864258 C46.0781232,52.2150047 45.9003906,51.6761103 45.9003906,50.9697266 C45.9003906,50.2268843 46.0245756,49.4327842 46.2729492,48.5874023 C46.5213229,47.7420205 46.8756487,46.7519588 47.3359375,45.6171875 L48.2314453,45.7949219 C47.7620419,47.0026102 47.4099947,48.0097616 47.175293,48.8164062 C46.9405913,49.6230509 46.8232422,50.3134737 46.8232422,50.8876953 C46.8232422,51.8219448 47.2721309,52.2890625 48.1699219,52.2890625 C48.9309934,52.2890625 49.5633113,51.9563835 50.0668945,51.2910156 C50.5704778,50.6256477 50.9544258,49.602546 51.21875,48.2216797 L51.6630859,45.7539062 L52.5859375,45.7539062 L51.6152344,51.2294922 C51.5559893,51.5849627 51.5935866,51.8390292 51.7280273,51.9916992 C51.8624681,52.1443693 52.1302063,52.2298176 52.53125,52.2480469 L52.7158203,52.2480469 L52.5654297,53.0683594 L52.4082031,53.0683594 C51.6790328,53.0683594 51.2073578,52.8940447 50.9931641,52.5454102 C50.7789703,52.1967756 50.7402337,51.7011751 50.8769531,51.0585938 L50.7402344,51.0585938 C50.5716137,51.4550801 50.3722342,51.8105453 50.1420898,52.125 C49.9119455,52.4394547 49.6236996,52.6878246 49.2773438,52.8701172 C48.9309879,53.0524098 48.4980495,53.1435547 47.9785156,53.1435547 Z M60.2285156,51.8652344 L60.5292969,52.5625 C60.26953,52.722006 59.9960952,52.8575841 59.7089844,52.9692383 C59.4218736,53.0808925 59.0914732,53.1367188 58.7177734,53.1367188 C57.929358,53.1367188 57.3414733,52.9430358 56.9541016,52.5556641 C56.5667298,52.1682923 56.3958331,51.6009152 56.4414062,50.8535156 C56.4641928,50.511717 56.5302729,50.1790381 56.6396484,49.8554688 C56.749024,49.5318994 56.8686517,49.2174494 56.9985352,48.9121094 C57.1284186,48.6067693 57.2275387,48.3128269 57.2958984,48.0302734 C57.4280606,47.5152969 57.3802095,47.1256524 57.1523438,46.8613281 C56.924478,46.5970039 56.5371121,46.4648438 55.9902344,46.4648438 C55.5572895,46.4648438 55.1403015,46.5172521 54.7392578,46.6220703 L54.5957031,45.8085938 C54.8645847,45.7311194 55.1334622,45.6798504 55.4023438,45.6547852 C55.6712253,45.6297199 55.9401028,45.6171875 56.2089844,45.6171875 C57.0384156,45.6171875 57.6274397,45.834796 57.9760742,46.2700195 C58.3247088,46.7052431 58.3964854,47.337561 58.1914062,48.1669922 C58.1139319,48.4905615 58.0148118,48.7924791 57.894043,49.0727539 C57.7732741,49.3530287 57.6616216,49.6298814 57.559082,49.9033203 C57.4565425,50.1767592 57.3938803,50.4729802 57.3710938,50.7919922 C57.302734,51.7854867 57.7789662,52.2822266 58.7998047,52.2822266 C59.0686862,52.2822266 59.3045237,52.2503258 59.5073242,52.1865234 C59.7101247,52.122721 59.9505194,52.0156258 60.2285156,51.8652344 Z M58.5947266,44.1748047 C58.3759755,44.1748047 58.1891284,44.0973315 58.0341797,43.9423828 C57.879231,43.7874341 57.8017578,43.600587 57.8017578,43.3818359 C57.8017578,43.1630848 57.879231,42.9762378 58.0341797,42.8212891 C58.1891284,42.6663404 58.3759755,42.5888672 58.5947266,42.5888672 C58.8134777,42.5888672 59.0003247,42.6663404 59.1552734,42.8212891 C59.3102221,42.9762378 59.3876953,43.1630848 59.3876953,43.3818359 C59.3876953,43.600587 59.3102221,43.7874341 59.1552734,43.9423828 C59.0003247,44.0973315 58.8134777,44.1748047 58.5947266,44.1748047 Z M66.5722656,53.1367188 C65.1367116,53.1367188 64.4189453,52.446296 64.4189453,51.0654297 C64.4189453,50.8785798 64.436035,50.6313492 64.4702148,50.3237305 C64.5043947,50.0161117 64.5875644,49.6139348 64.7197266,49.1171875 L65.7382812,45.2275391 C65.8977873,44.6214162 65.8761403,44.1748061 65.6733398,43.8876953 C65.4705394,43.6005845 65.0546906,43.4570312 64.4257812,43.4570312 C64.2617179,43.4570312 64.0953784,43.4672851 63.9267578,43.487793 C63.7581372,43.5083009 63.5895191,43.5436195 63.4208984,43.59375 L63.2568359,42.7871094 C63.4847017,42.723307 63.7148426,42.6777345 63.9472656,42.6503906 C64.1796887,42.6230467 64.4121082,42.609375 64.6445312,42.609375 C65.5149783,42.609375 66.1256493,42.8406552 66.4765625,43.3032227 C66.8274757,43.7657901 66.8821627,44.4459591 66.640625,45.34375 L65.6494141,49.1171875 C65.5081373,49.6412787 65.4215496,50.0525701 65.3896484,50.3510742 C65.3577472,50.6495783 65.3417969,50.8717441 65.3417969,51.0175781 C65.3372396,51.8606813 65.7906855,52.2822266 66.7021484,52.2822266 C67.1624372,52.2822266 67.6614556,52.1181657 68.1992188,51.7900391 L68.5205078,52.5419922 C68.2151677,52.7288421 67.9041357,52.874674 67.5874023,52.9794922 C67.270669,53.0843104 66.9322935,53.1367188 66.5722656,53.1367188 Z M72.3623047,53.1435547 C71.7014941,53.1435547 71.1888039,52.9658221 70.8242188,52.6103516 C70.4596336,52.254881 70.2773438,51.753584 70.2773438,51.1064453 C70.2773438,50.0856069 70.5371068,49.1855508 71.0566406,48.40625 C71.5761745,47.6269492 72.2882442,47.0037458 73.1928711,46.5366211 C74.097498,46.0694964 75.1285749,45.790365 76.2861328,45.6992188 L76.4707031,44.6328125 C76.5436202,44.2226542 76.5310877,43.918458 76.4331055,43.7202148 C76.3351232,43.5219717 76.1266292,43.4228516 75.8076172,43.4228516 C75.689127,43.4228516 75.56836,43.4285481 75.4453125,43.4399414 C75.322265,43.4513347 75.201498,43.470703 75.0830078,43.4980469 L74.9804688,42.7119141 C75.1308601,42.6708982 75.2812492,42.6424154 75.4316406,42.6264648 C75.582032,42.6105142 75.7324211,42.6025391 75.8828125,42.6025391 C76.5436231,42.6025391 76.9925118,42.7688785 77.2294922,43.1015625 C77.4664725,43.4342465 77.5234381,43.9537725 77.4003906,44.6601562 L76.2724609,51.0517578 C76.1266269,51.8492878 76.397783,52.2480469 77.0859375,52.2480469 L77.5097656,52.2480469 L77.3662109,53.0683594 L76.9628906,53.0683594 C76.2929654,53.0683594 75.8566091,52.8974626 75.6538086,52.5556641 C75.4510081,52.2138655 75.3951818,51.7399119 75.4863281,51.1337891 L75.3632812,51.1337891 C75.0716131,51.7672558 74.6671575,52.2605777 74.1499023,52.6137695 C73.6326472,52.9669614 73.0367872,53.1435547 72.3623047,53.1435547 Z M75.8007812,48.4609375 L75.8007812,48.4472656 L76.1357422,46.5605469 C75.1513623,46.6699224 74.2889034,46.9274068 73.5483398,47.3330078 C72.8077762,47.7386088 72.2312846,48.2581349 71.8188477,48.8916016 C71.4064107,49.5250683 71.2001953,50.2359987 71.2001953,51.0244141 C71.2001953,51.4254577 71.3209623,51.7364898 71.5625,51.9575195 C71.8040377,52.1785493 72.1435525,52.2890625 72.5810547,52.2890625 C73.4013713,52.2890625 74.076983,51.9643587 74.6079102,51.3149414 C75.1388373,50.6655241 75.536457,49.714199 75.8007812,48.4609375 Z M82.6435547,47.1962891 C82.4248036,47.1962891 82.2379565,47.1199552 82.0830078,46.9672852 C81.9280591,46.8146151 81.8505859,46.6289073 81.8505859,46.4101562 C81.8505859,46.1914052 81.9280591,46.0045581 82.0830078,45.8496094 C82.2379565,45.6946607 82.4248036,45.6171875 82.6435547,45.6171875 C82.8623058,45.6171875 83.0491529,45.6946607 83.2041016,45.8496094 C83.3590503,46.0045581 83.4365234,46.1914052 83.4365234,46.4101562 C83.4365234,46.6289073 83.3590503,46.8146151 83.2041016,46.9672852 C83.0491529,47.1199552 82.8623058,47.1962891 82.6435547,47.1962891 Z M81.5908203,53.1367188 C81.3720692,53.1367188 81.1852221,53.0603849 81.0302734,52.9077148 C80.8753247,52.7550448 80.7978516,52.569337 80.7978516,52.3505859 C80.7978516,52.1318348 80.8753247,51.9449878 81.0302734,51.7900391 C81.1852221,51.6350904 81.3720692,51.5576172 81.5908203,51.5576172 C81.8095714,51.5576172 81.9964185,51.6350904 82.1513672,51.7900391 C82.3063159,51.9449878 82.3837891,52.1318348 82.3837891,52.3505859 C82.3837891,52.569337 82.3063159,52.7550448 82.1513672,52.9077148 C81.9964185,53.0603849 81.8095714,53.1367188 81.5908203,53.1367188 Z M91.1816406,53.1367188 C89.7460866,53.1367188 89.0283203,52.446296 89.0283203,51.0654297 C89.0283203,50.8785798 89.04541,50.6313492 89.0795898,50.3237305 C89.1137697,50.0161117 89.1969394,49.6139348 89.3291016,49.1171875 L90.3476562,45.2275391 C90.5071623,44.6214162 90.4855153,44.1748061 90.2827148,43.8876953 C90.0799144,43.6005845 89.6640656,43.4570312 89.0351562,43.4570312 C88.8710929,43.4570312 88.7047534,43.4672851 88.5361328,43.487793 C88.3675122,43.5083009 88.1988941,43.5436195 88.0302734,43.59375 L87.8662109,42.7871094 C88.0940767,42.723307 88.3242176,42.6777345 88.5566406,42.6503906 C88.7890637,42.6230467 89.0214832,42.609375 89.2539062,42.609375 C90.1243533,42.609375 90.7350243,42.8406552 91.0859375,43.3032227 C91.4368507,43.7657901 91.4915377,44.4459591 91.25,45.34375 L90.2587891,49.1171875 C90.1175123,49.6412787 90.0309246,50.0525701 89.9990234,50.3510742 C89.9671222,50.6495783 89.9511719,50.8717441 89.9511719,51.0175781 C89.9466146,51.8606813 90.4000605,52.2822266 91.3115234,52.2822266 C91.7718122,52.2822266 92.2708306,52.1181657 92.8085938,51.7900391 L93.1298828,52.5419922 C92.8245427,52.7288421 92.5135107,52.874674 92.1967773,52.9794922 C91.880044,53.0843104 91.5416685,53.1367188 91.1816406,53.1367188 Z M97.8535156,53.1367188 C97.0696575,53.1367188 96.4578473,52.8974633 96.0180664,52.4189453 C95.5782856,51.9404273 95.3583984,51.2750694 95.3583984,50.4228516 C95.3583984,48.9098232 95.6956346,47.7306357 96.3701172,46.8852539 C97.0445997,46.0398721 97.9811138,45.6171875 99.1796875,45.6171875 C99.9635456,45.6171875 100.575356,45.8621395 101.015137,46.3520508 C101.454918,46.8419621 101.674805,47.5244097 101.674805,48.3994141 C101.674805,49.8896559 101.337568,51.0517536 100.663086,51.8857422 C99.9886034,52.7197307 99.0520893,53.1367188 97.8535156,53.1367188 Z M98.03125,52.2890625 C98.8880251,52.2890625 99.5556617,51.9563835 100.03418,51.2910156 C100.512698,50.6256477 100.751953,49.7005268 100.751953,48.515625 C100.751953,47.8730437 100.603843,47.3717466 100.307617,47.0117188 C100.011392,46.6516909 99.5944037,46.4716797 99.0566406,46.4716797 C98.1907509,46.4716797 97.5128605,46.8032193 97.0229492,47.4663086 C96.5330379,48.1293978 96.2880859,49.0533795 96.2880859,50.2382812 C96.2880859,50.8808626 96.4407537,51.383299 96.7460938,51.7456055 C97.0514338,52.107912 97.479815,52.2890625 98.03125,52.2890625 Z M106.350586,52.2822266 C106.824547,52.2822266 107.301918,52.2001961 107.782715,52.0361328 C108.263512,51.8720695 108.702146,51.6533217 109.098633,51.3798828 L109.44043,52.1181641 C108.99837,52.4235041 108.494794,52.6695954 107.929688,52.8564453 C107.364581,53.0432952 106.78581,53.1367188 106.193359,53.1367188 C105.332027,53.1367188 104.662112,52.8951847 104.183594,52.4121094 C103.705076,51.929034 103.46582,51.2545616 103.46582,50.3886719 C103.46582,49.4270785 103.634438,48.5896846 103.97168,47.8764648 C104.308921,47.1632451 104.782875,46.6084004 105.393555,46.2119141 C106.004235,45.8154277 106.719722,45.6171875 107.540039,45.6171875 C108.907233,45.6171875 109.800454,46.1184846 110.219727,47.1210938 L109.515625,47.6679688 C109.315103,47.2395812 109.043947,46.9331064 108.702148,46.7485352 C108.36035,46.5639639 107.938805,46.4716797 107.4375,46.4716797 C106.82682,46.4716797 106.293622,46.630044 105.837891,46.9467773 C105.382159,47.2635107 105.027833,47.7067029 104.774902,48.2763672 C104.521971,48.8460315 104.393229,49.513668 104.388672,50.2792969 C104.397787,50.9127636 104.57324,51.4049462 104.915039,51.7558594 C105.256838,52.1067726 105.735348,52.2822266 106.350586,52.2822266 Z M113.316406,53.1435547 C112.669268,53.1435547 112.167971,52.9658221 111.8125,52.6103516 C111.457029,52.254881 111.279297,51.753584 111.279297,51.1064453 C111.279297,50.2861287 111.446776,49.5421583 111.781738,48.8745117 C112.116701,48.2068652 112.587237,47.6360701 113.193359,47.1621094 C113.799482,46.6881487 114.510413,46.323569 115.326172,46.0683594 C116.141931,45.8131498 117.028316,45.6855469 117.985352,45.6855469 L118.115234,45.6855469 L117.158203,51.0996094 C117.026041,51.8652382 117.304033,52.2480469 117.992188,52.2480469 L118.402344,52.2480469 L118.265625,53.0683594 L117.889648,53.0683594 C117.24251,53.0683594 116.803875,52.9168309 116.57373,52.6137695 C116.343586,52.3107081 116.278645,51.8173862 116.378906,51.1337891 L116.255859,51.1337891 C115.955077,51.7809277 115.550621,52.2776675 115.04248,52.6240234 C114.53434,52.9703793 113.958988,53.1435547 113.316406,53.1435547 Z M113.52832,52.2890625 C114.284835,52.2890625 114.945635,51.9700553 115.510742,51.3320312 C116.075849,50.6940072 116.460936,49.7916725 116.666016,48.625 L117.02832,46.5878906 C116.066727,46.6927089 115.223636,46.9467753 114.499023,47.3500977 C113.77441,47.75342 113.211591,48.2695281 112.810547,48.8984375 C112.409503,49.5273469 112.208984,50.2359987 112.208984,51.0244141 C112.208984,51.4254577 112.325194,51.7364898 112.557617,51.9575195 C112.79004,52.1785493 113.113605,52.2890625 113.52832,52.2890625 Z M123.994141,53.1367188 C122.558587,53.1367188 121.84082,52.446296 121.84082,51.0654297 C121.84082,50.8785798 121.85791,50.6313492 121.89209,50.3237305 C121.92627,50.0161117 122.009439,49.6139348 122.141602,49.1171875 L123.160156,45.2275391 C123.319662,44.6214162 123.298015,44.1748061 123.095215,43.8876953 C122.892414,43.6005845 122.476566,43.4570312 121.847656,43.4570312 C121.683593,43.4570312 121.517253,43.4672851 121.348633,43.487793 C121.180012,43.5083009 121.011394,43.5436195 120.842773,43.59375 L120.678711,42.7871094 C120.906577,42.723307 121.136718,42.6777345 121.369141,42.6503906 C121.601564,42.6230467 121.833983,42.609375 122.066406,42.609375 C122.936853,42.609375 123.547524,42.8406552 123.898438,43.3032227 C124.249351,43.7657901 124.304038,44.4459591 124.0625,45.34375 L123.071289,49.1171875 C122.930012,49.6412787 122.843425,50.0525701 122.811523,50.3510742 C122.779622,50.6495783 122.763672,50.8717441 122.763672,51.0175781 C122.759115,51.8606813 123.212561,52.2822266 124.124023,52.2822266 C124.584312,52.2822266 125.083331,52.1181657 125.621094,51.7900391 L125.942383,52.5419922 C125.637043,52.7288421 125.326011,52.874674 125.009277,52.9794922 C124.692544,53.0843104 124.354168,53.1367188 123.994141,53.1367188 Z M130.748375,53 L130.748375,42.948 L132.988375,42.948 L132.988375,46.364 C133.394375,45.888 134.080375,45.468 135.018375,45.468 C136.530375,45.468 137.482375,46.518 137.482375,48.128 L137.482375,53 L135.242375,53 L135.242375,48.772 C135.242375,48.03 134.934375,47.484 134.206375,47.484 C133.590375,47.484 132.988375,47.918 132.988375,48.786 L132.988375,53 L130.748375,53 Z M145.896375,49.318 C145.896375,51.614 144.370375,53.154 142.200375,53.154 C140.016375,53.154 138.504375,51.614 138.504375,49.318 C138.504375,47.022 140.016375,45.468 142.200375,45.468 C144.370375,45.468 145.896375,47.022 145.896375,49.318 Z M140.730375,49.318 C140.730375,50.606 141.304375,51.334 142.200375,51.334 C143.096375,51.334 143.670375,50.606 143.670375,49.318 C143.670375,48.03 143.096375,47.302 142.200375,47.302 C141.304375,47.302 140.730375,48.03 140.730375,49.318 Z M153.960375,49.318 C153.960375,51.614 152.434375,53.154 150.264375,53.154 C148.080375,53.154 146.568375,51.614 146.568375,49.318 C146.568375,47.022 148.080375,45.468 150.264375,45.468 C152.434375,45.468 153.960375,47.022 153.960375,49.318 Z M148.794375,49.318 C148.794375,50.606 149.368375,51.334 150.264375,51.334 C151.160375,51.334 151.734375,50.606 151.734375,49.318 C151.734375,48.03 151.160375,47.302 150.264375,47.302 C149.368375,47.302 148.794375,48.03 148.794375,49.318 Z M157.250375,42.948 L157.250375,48.268 L159.602375,45.622 L162.234375,45.622 L159.588375,48.394 L162.444375,53 L159.882375,53 L158.034375,50.032 L157.250375,50.858 L157.250375,53 L155.010375,53 L155.010375,42.948 L157.250375,42.948 Z" id="Combined-Shape" fill="#FFFFFF"></path>
        <path d="M25.3651267,42.2139704 L24.5305514,42.4279408 L24.3070045,42.4996393 L24.0834575,42.5713065 L23.7909091,42.704327 L23.4983607,42.8373162 L23.2842027,42.9700553 L23.0700447,43.1027632 L22.8464978,43.2736332 L22.6229508,43.4445344 L22.3085246,43.7762104 L21.9940686,44.1078551 L21.7943666,44.4018065 L21.5946647,44.6957579 L21.4163636,45.0624705 L21.2380626,45.4292144 L21.1471535,45.7137268 L21.0562444,45.9982393 L20.9988077,46.2875963 L20.9413413,46.5769845 L20.910313,46.9800152 L20.8792846,47.3830458 L20.8792846,48.0464603 L20.8792846,48.7098747 L20.6942772,48.7318156 L20.5092697,48.7537564 L20.4185693,48.7936376 L20.3278689,48.8334874 L20.229687,48.920282 L20.1315052,49.0071079 L20.0657526,49.1360027 L20,49.2648975 L20,51.3277144 L20,53.3905314 L20.0661997,53.5203326 L20.1323994,53.650165 L20.2407452,53.7438044 L20.3491207,53.837475 L20.472608,53.8736681 L20.5961252,53.9098924 L21.4754098,53.9002347 L22.3546945,53.8906082 L22.4739195,53.8231603 L22.5931446,53.7556812 L22.673532,53.6668863 L22.7539195,53.5780602 L22.8002086,53.4618548 L22.8464978,53.3456495 L22.8464978,51.3023668 L22.8464978,49.2591153 L22.7771684,49.1213442 L22.707839,48.9836043 L22.5847094,48.8849016 L22.4615797,48.7861989 L22.3098063,48.7520687 L22.1580328,48.7179384 L22.051386,48.7179384 L21.9447392,48.7179384 L21.9601192,47.8193629 L21.9755291,46.9207873 L22.0249478,46.6396191 L22.0743964,46.3584822 L22.1613413,46.0863153 L22.2482861,45.8141798 L22.3652757,45.5704861 L22.4822653,45.3267924 L22.6528763,45.076754 L22.8234873,44.8267156 L22.9914754,44.6394993 L23.1594635,44.452283 L23.3233979,44.3089798 L23.4873323,44.1656452 L23.6319225,44.0627544 L23.7765425,43.9598324 L24.034307,43.8268432 L24.2921013,43.6938227 L24.485842,43.6243433 L24.6795827,43.5548326 L25.4992548,43.3361115 L26.318927,43.1174217 L26.4852161,43.132549 L26.6514754,43.1476763 L26.8173174,43.2299702 L26.9831893,43.3122329 L27.1036066,43.4492227 L27.2240238,43.5862125 L27.2707303,43.7511441 L27.3174367,43.9160444 L27.3174367,44.8324039 L27.3174367,45.7487322 L27.8560954,45.7487322 L28.3947541,45.7487322 L28.3825931,44.7095101 L28.3704322,43.6702879 L28.3185991,43.4827591 L28.266766,43.2952303 L28.1607154,43.0624445 L28.0546647,42.8296587 L27.9021461,42.6698217 L27.7496274,42.5099846 L27.5707899,42.3898099 L27.3919523,42.2696039 L27.2280179,42.1929359 L27.0640835,42.1162366 L26.9299553,42.0711984 L26.7958271,42.0261603 L26.4977645,42.0130958 L26.1997019,42 L25.3651267,42.2139704 M27.6394039,46.6919396 L27.4515648,46.8538083 L27.1707601,47.1216932 L26.8899553,47.3896093 L26.6393443,47.7021574 L26.3887332,48.0147054 L26.2243517,48.27262 L26.06,48.5305034 L25.9635768,48.7726968 L25.8671833,49.0148591 L25.8185693,49.2023879 L25.7699553,49.3899167 L25.7410432,49.6399551 L25.7121311,49.8899935 L25.7378838,50.1277175 L25.7636662,50.3654416 L25.8129061,50.5652848 L25.8621759,50.765128 L25.9486736,50.9786608 L26.0351714,51.1921623 L26.1944262,51.4474828 L26.3536513,51.702772 L26.5369598,51.9438091 L26.7202385,52.1848461 L26.918152,52.4048487 L27.1160656,52.62482 L27.0752906,52.6795159 L27.0345455,52.7341805 L26.758003,53.0857033 L26.4814605,53.4371948 L26.4511177,53.5208639 L26.420775,53.604533 L26.4402385,53.700704 L26.4597019,53.7968438 L26.5085246,53.8558529 L26.557377,53.9148619 L26.6532936,53.957431 L26.7492101,54 L27.8842921,54 L29.0193443,54 L29.1032787,53.954493 L29.1871833,53.908986 L29.2359165,53.8013132 L29.2846498,53.6936404 L29.2846498,53.6037204 L29.2846498,53.5138316 L29.2334426,53.4365697 L29.1822355,53.3592766 L28.8906706,52.9859692 L28.5991058,52.6126618 L28.8206557,52.3765006 L29.0421759,52.1403393 L29.1777049,51.9635309 L29.3132042,51.7867224 L29.501848,51.4947088 L29.690462,51.2026952 L29.7893592,50.9532194 L29.8882563,50.7037123 L29.9437258,50.4218877 L29.999225,50.1400319 L29.9996125,49.8964945 L30,49.6529571 L29.952608,49.4120451 L29.9052161,49.1711331 L29.8447988,48.9836043 L29.7843815,48.7960754 L29.6653651,48.5587265 L29.5463785,48.3214088 L29.3046498,47.9805126 L29.062921,47.6396478 L28.7937705,47.346634 L28.5245902,47.053589 L28.2135618,46.7918612 L27.9025633,46.5301023 L27.8648882,46.5301023 L27.8272429,46.5301023 L27.6394039,46.6919396 M27.5669449,48.8896523 L27.4439046,48.967008 L27.3928465,49.0798378 L27.3417586,49.1926676 L27.339851,49.3268445 L27.3379136,49.4609901 L27.3962742,49.5817274 L27.4546349,49.7024647 L27.6149329,49.7884154 L27.775231,49.8743661 L27.8667362,49.8736785 L27.9582712,49.8729909 L28.0774963,49.8152945 L28.1967213,49.7575982 L28.2617884,49.6831492 L28.3268852,49.6087003 L28.3586587,49.520718 L28.390462,49.4327358 L28.3899851,49.3175618 L28.3894784,49.2023879 L28.3222951,49.0779938 L28.2551118,48.9536309 L28.1365127,48.8831826 L28.0178838,48.8127342 L27.8539493,48.8125155 L27.6900149,48.8122967 L27.5669449,48.8896523" id="Shape" fill="#FFFFFF"></path>
        <path d="M21.3527668,71 L151.647233,71 C155.544836,71 157.254599,71.4641281 158.884229,72.3356635 C160.513858,73.207199 161.792801,74.4861419 162.664336,76.1157715 C163.535872,77.7454011 164,79.4551641 164,83.3527668 L164,87.6472332 C164,91.5448359 163.535872,93.2545989 162.664336,94.8842285 C161.792801,96.5138581 160.513858,97.792801 158.884229,98.6643365 C157.254599,99.5358719 155.544836,100 151.647233,100 L21.3527668,100 C17.4551641,100 15.7454011,99.5358719 14.1157715,98.6643365 C12.4861419,97.792801 11.207199,96.5138581 10.3356635,94.8842285 C9.46412806,93.2545989 9,91.5448359 9,87.6472332 L9,83.3527668 C9,79.4551641 9.46412806,77.7454011 10.3356635,76.1157715 C11.207199,74.4861419 12.4861419,73.207199 14.1157715,72.3356635 C15.7454011,71.4641281 17.4551641,71 21.3527668,71 Z" id="Rectangle" fill="url(#linearGradient-3)"></path>
        <path d="M41.6347656,90.1367188 C40.176425,90.1367188 39.4472656,89.4303456 39.4472656,88.0175781 C39.4472656,87.7213527 39.4677732,87.4319676 39.5087891,87.1494141 C39.5498049,86.8668606 39.6136063,86.477216 39.7001953,85.9804688 L40.1171875,83.5878906 L38.0800781,83.5878906 L38.2236328,82.7539062 L40.2675781,82.7539062 L40.6503906,80.5595703 L41.5732422,80.5595703 L41.1904297,82.7539062 L44.4990234,82.7539062 L44.3554688,83.5878906 L41.0400391,83.5878906 L40.6230469,85.9804688 C40.5364579,86.4681014 40.4726565,86.8440742 40.4316406,87.1083984 C40.3906248,87.3727227 40.3701172,87.6461574 40.3701172,87.9287109 C40.3701172,88.8310592 40.8349563,89.2822266 41.7646484,89.2822266 C42.120119,89.2822266 42.4334296,89.2503258 42.7045898,89.1865234 C42.9757501,89.122721 43.2958966,89.0110685 43.6650391,88.8515625 L43.8427734,89.6308594 C43.5283187,89.7721361 43.1956398,89.8917638 42.8447266,89.9897461 C42.4938133,90.0877284 42.0904971,90.1367188 41.6347656,90.1367188 Z M49.2910156,89.2822266 C49.6647154,89.2822266 50.0646138,89.2218431 50.4907227,89.1010742 C50.9168316,88.9803054 51.328123,88.8128266 51.7246094,88.5986328 L52.0390625,89.3369141 C51.6061176,89.5875664 51.1424178,89.7835279 50.6479492,89.9248047 C50.1534806,90.0660814 49.6806663,90.1367188 49.2294922,90.1367188 C48.3089147,90.1367188 47.5922877,89.878095 47.0795898,89.3608398 C46.566892,88.8435847 46.3105469,88.1246791 46.3105469,87.2041016 C46.3105469,86.2561802 46.4734684,85.4404331 46.7993164,84.7568359 C47.1251644,84.0732388 47.5900035,83.5457375 48.1938477,83.1743164 C48.7976918,82.8028953 49.5165974,82.6171875 50.3505859,82.6171875 C51.0524124,82.6171875 51.5992819,82.7858056 51.9912109,83.1230469 C52.38314,83.4602881 52.5791016,83.9296845 52.5791016,84.53125 C52.5791016,85.4199263 52.105148,86.098956 51.1572266,86.5683594 C50.2093052,87.0377628 48.8899824,87.2906899 47.1992188,87.3271484 C47.23112,87.9423859 47.4304995,88.422036 47.7973633,88.7661133 C48.1642271,89.1101905 48.6621062,89.2822266 49.2910156,89.2822266 Z M47.2265625,86.5478516 C48.6438873,86.511393 49.736487,86.3279639 50.5043945,85.9975586 C51.272302,85.6671533 51.65625,85.1920604 51.65625,84.5722656 C51.65625,84.230467 51.5332044,83.9615895 51.2871094,83.765625 C51.0410144,83.5696605 50.6946637,83.4716797 50.2480469,83.4716797 C49.3958291,83.4716797 48.704267,83.7439751 48.1733398,84.2885742 C47.6424127,84.8331733 47.3268234,85.5862582 47.2265625,86.5478516 Z M56.4414062,90.1367188 C55.379552,90.1367188 54.5569691,90.0455738 53.9736328,89.8632812 L54.2402344,88.9951172 C55.1699265,89.1865244 55.9537729,89.2822266 56.5917969,89.2822266 C57.4303427,89.2822266 58.0797503,89.1625989 58.5400391,88.9233398 C59.0003278,88.6840808 59.2304688,88.3479839 59.2304688,87.9150391 C59.2304688,87.6917307 59.147299,87.4957691 58.980957,87.3271484 C58.8146151,87.1585278 58.5810562,87.0309249 58.2802734,86.9443359 L56.2568359,86.3564453 C55.8466776,86.2379551 55.5288097,86.0522474 55.3032227,85.7993164 C55.0776356,85.5463855 54.9648438,85.2513038 54.9648438,84.9140625 C54.9648438,84.1848922 55.3077765,83.6197937 55.9936523,83.21875 C56.6795282,82.8177063 57.6468037,82.6171875 58.8955078,82.6171875 C59.2054052,82.6171875 59.5323876,82.6308592 59.8764648,82.6582031 C60.2205421,82.685547 60.5543604,82.7242836 60.8779297,82.7744141 L60.6386719,83.5878906 C59.8548138,83.5104163 59.2167993,83.4716797 58.7246094,83.4716797 C57.8268184,83.4716797 57.1306991,83.5890288 56.6362305,83.8237305 C56.1417619,84.0584322 55.8945312,84.3922504 55.8945312,84.8251953 C55.8945312,85.2034524 56.1565729,85.4654941 56.6806641,85.6113281 L58.6904297,86.171875 C59.1598331,86.2994798 59.5209948,86.5102524 59.7739258,86.8041992 C60.0268567,87.098146 60.1533203,87.4501933 60.1533203,87.8603516 C60.1533203,88.5849646 59.8297558,89.1455058 59.1826172,89.5419922 C58.5354785,89.9384785 57.6217507,90.1367188 56.4414062,90.1367188 Z M66.2441406,90.1367188 C64.7858,90.1367188 64.0566406,89.4303456 64.0566406,88.0175781 C64.0566406,87.7213527 64.0771482,87.4319676 64.1181641,87.1494141 C64.1591799,86.8668606 64.2229813,86.477216 64.3095703,85.9804688 L64.7265625,83.5878906 L62.6894531,83.5878906 L62.8330078,82.7539062 L64.8769531,82.7539062 L65.2597656,80.5595703 L66.1826172,80.5595703 L65.7998047,82.7539062 L69.1083984,82.7539062 L68.9648438,83.5878906 L65.6494141,83.5878906 L65.2324219,85.9804688 C65.1458329,86.4681014 65.0820315,86.8440742 65.0410156,87.1083984 C64.9999998,87.3727227 64.9794922,87.6461574 64.9794922,87.9287109 C64.9794922,88.8310592 65.4443313,89.2822266 66.3740234,89.2822266 C66.729494,89.2822266 67.0428046,89.2503258 67.3139648,89.1865234 C67.5851251,89.122721 67.9052716,89.0110685 68.2744141,88.8515625 L68.4521484,89.6308594 C68.1376937,89.7721361 67.8050148,89.8917638 67.4541016,89.9897461 C67.1031883,90.0877284 66.6998721,90.1367188 66.2441406,90.1367188 Z M74.4404297,84.1962891 C74.2216786,84.1962891 74.0348315,84.1199552 73.8798828,83.9672852 C73.7249341,83.8146151 73.6474609,83.6289073 73.6474609,83.4101562 C73.6474609,83.1914052 73.7249341,83.0045581 73.8798828,82.8496094 C74.0348315,82.6946607 74.2216786,82.6171875 74.4404297,82.6171875 C74.6591808,82.6171875 74.8460279,82.6946607 75.0009766,82.8496094 C75.1559253,83.0045581 75.2333984,83.1914052 75.2333984,83.4101562 C75.2333984,83.6289073 75.1559253,83.8146151 75.0009766,83.9672852 C74.8460279,84.1199552 74.6591808,84.1962891 74.4404297,84.1962891 Z M73.3876953,90.1367188 C73.1689442,90.1367188 72.9820971,90.0603849 72.8271484,89.9077148 C72.6721997,89.7550448 72.5947266,89.569337 72.5947266,89.3505859 C72.5947266,89.1318348 72.6721997,88.9449878 72.8271484,88.7900391 C72.9820971,88.6350904 73.1689442,88.5576172 73.3876953,88.5576172 C73.6064464,88.5576172 73.7932935,88.6350904 73.9482422,88.7900391 C74.1031909,88.9449878 74.1806641,89.1318348 74.1806641,89.3505859 C74.1806641,89.569337 74.1031909,89.7550448 73.9482422,89.9077148 C73.7932935,90.0603849 73.6064464,90.1367188 73.3876953,90.1367188 Z M82.9785156,90.1367188 C81.5429616,90.1367188 80.8251953,89.446296 80.8251953,88.0654297 C80.8251953,87.8785798 80.842285,87.6313492 80.8764648,87.3237305 C80.9106447,87.0161117 80.9938144,86.6139348 81.1259766,86.1171875 L82.1445312,82.2275391 C82.3040373,81.6214162 82.2823903,81.1748061 82.0795898,80.8876953 C81.8767894,80.6005845 81.4609406,80.4570312 80.8320312,80.4570312 C80.6679679,80.4570312 80.5016284,80.4672851 80.3330078,80.487793 C80.1643872,80.5083009 79.9957691,80.5436195 79.8271484,80.59375 L79.6630859,79.7871094 C79.8909517,79.723307 80.1210926,79.6777345 80.3535156,79.6503906 C80.5859387,79.6230467 80.8183582,79.609375 81.0507812,79.609375 C81.9212283,79.609375 82.5318993,79.8406552 82.8828125,80.3032227 C83.2337257,80.7657901 83.2884127,81.4459591 83.046875,82.34375 L82.0556641,86.1171875 C81.9143873,86.6412787 81.8277996,87.0525701 81.7958984,87.3510742 C81.7639972,87.6495783 81.7480469,87.8717441 81.7480469,88.0175781 C81.7434896,88.8606813 82.1969355,89.2822266 83.1083984,89.2822266 C83.5686872,89.2822266 84.0677056,89.1181657 84.6054688,88.7900391 L84.9267578,89.5419922 C84.6214177,89.7288421 84.3103857,89.874674 83.9936523,89.9794922 C83.676919,90.0843104 83.3385435,90.1367188 82.9785156,90.1367188 Z M89.6503906,90.1367188 C88.8665325,90.1367188 88.2547223,89.8974633 87.8149414,89.4189453 C87.3751606,88.9404273 87.1552734,88.2750694 87.1552734,87.4228516 C87.1552734,85.9098232 87.4925096,84.7306357 88.1669922,83.8852539 C88.8414747,83.0398721 89.7779888,82.6171875 90.9765625,82.6171875 C91.7604206,82.6171875 92.3722309,82.8621395 92.8120117,83.3520508 C93.2517926,83.8419621 93.4716797,84.5244097 93.4716797,85.3994141 C93.4716797,86.8896559 93.1344435,88.0517536 92.4599609,88.8857422 C91.7854784,89.7197307 90.8489643,90.1367188 89.6503906,90.1367188 Z M89.828125,89.2890625 C90.6849001,89.2890625 91.3525367,88.9563835 91.8310547,88.2910156 C92.3095727,87.6256477 92.5488281,86.7005268 92.5488281,85.515625 C92.5488281,84.8730437 92.4007176,84.3717466 92.1044922,84.0117188 C91.8082667,83.6516909 91.3912787,83.4716797 90.8535156,83.4716797 C89.9876259,83.4716797 89.3097355,83.8032193 88.8198242,84.4663086 C88.3299129,85.1293978 88.0849609,86.0533795 88.0849609,87.2382812 C88.0849609,87.8808626 88.2376287,88.383299 88.5429688,88.7456055 C88.8483088,89.107912 89.27669,89.2890625 89.828125,89.2890625 Z M98.1474609,89.2822266 C98.6214216,89.2822266 99.0987932,89.2001961 99.5795898,89.0361328 C100.060387,88.8720695 100.499021,88.6533217 100.895508,88.3798828 L101.237305,89.1181641 C100.795245,89.4235041 100.291669,89.6695954 99.7265625,89.8564453 C99.1614555,90.0432952 98.5826853,90.1367188 97.9902344,90.1367188 C97.1289019,90.1367188 96.4589868,89.8951847 95.9804688,89.4121094 C95.5019507,88.929034 95.2626953,88.2545616 95.2626953,87.3886719 C95.2626953,86.4270785 95.4313134,85.5896846 95.7685547,84.8764648 C96.105796,84.1632451 96.5797496,83.6084004 97.1904297,83.2119141 C97.8011098,82.8154277 98.5165975,82.6171875 99.3369141,82.6171875 C100.704108,82.6171875 101.597329,83.1184846 102.016602,84.1210938 L101.3125,84.6679688 C101.111978,84.2395812 100.840822,83.9331064 100.499023,83.7485352 C100.157225,83.5639639 99.7356796,83.4716797 99.234375,83.4716797 C98.6236949,83.4716797 98.0904971,83.630044 97.6347656,83.9467773 C97.1790342,84.2635107 96.8247083,84.7067029 96.5717773,85.2763672 C96.3188464,85.8460315 96.1901042,86.513668 96.1855469,87.2792969 C96.1946615,87.9127636 96.3701155,88.4049462 96.7119141,88.7558594 C97.0537126,89.1067726 97.5322235,89.2822266 98.1474609,89.2822266 Z M105.113281,90.1435547 C104.466143,90.1435547 103.964846,89.9658221 103.609375,89.6103516 C103.253904,89.254881 103.076172,88.753584 103.076172,88.1064453 C103.076172,87.2861287 103.243651,86.5421583 103.578613,85.8745117 C103.913576,85.2068652 104.384112,84.6360701 104.990234,84.1621094 C105.596357,83.6881487 106.307288,83.323569 107.123047,83.0683594 C107.938806,82.8131498 108.825191,82.6855469 109.782227,82.6855469 L109.912109,82.6855469 L108.955078,88.0996094 C108.822916,88.8652382 109.100908,89.2480469 109.789062,89.2480469 L110.199219,89.2480469 L110.0625,90.0683594 L109.686523,90.0683594 C109.039385,90.0683594 108.60075,89.9168309 108.370605,89.6137695 C108.140461,89.3107081 108.07552,88.8173862 108.175781,88.1337891 L108.052734,88.1337891 C107.751952,88.7809277 107.347496,89.2776675 106.839355,89.6240234 C106.331215,89.9703793 105.755863,90.1435547 105.113281,90.1435547 Z M105.325195,89.2890625 C106.08171,89.2890625 106.74251,88.9700553 107.307617,88.3320312 C107.872724,87.6940072 108.257811,86.7916725 108.462891,85.625 L108.825195,83.5878906 C107.863602,83.6927089 107.020511,83.9467753 106.295898,84.3500977 C105.571285,84.75342 105.008466,85.2695281 104.607422,85.8984375 C104.206378,86.5273469 104.005859,87.2359987 104.005859,88.0244141 C104.005859,88.4254577 104.122069,88.7364898 104.354492,88.9575195 C104.586915,89.1785493 104.91048,89.2890625 105.325195,89.2890625 Z M115.791016,90.1367188 C114.355462,90.1367188 113.637695,89.446296 113.637695,88.0654297 C113.637695,87.8785798 113.654785,87.6313492 113.688965,87.3237305 C113.723145,87.0161117 113.806314,86.6139348 113.938477,86.1171875 L114.957031,82.2275391 C115.116537,81.6214162 115.09489,81.1748061 114.89209,80.8876953 C114.689289,80.6005845 114.273441,80.4570312 113.644531,80.4570312 C113.480468,80.4570312 113.314128,80.4672851 113.145508,80.487793 C112.976887,80.5083009 112.808269,80.5436195 112.639648,80.59375 L112.475586,79.7871094 C112.703452,79.723307 112.933593,79.6777345 113.166016,79.6503906 C113.398439,79.6230467 113.630858,79.609375 113.863281,79.609375 C114.733728,79.609375 115.344399,79.8406552 115.695312,80.3032227 C116.046226,80.7657901 116.100913,81.4459591 115.859375,82.34375 L114.868164,86.1171875 C114.726887,86.6412787 114.6403,87.0525701 114.608398,87.3510742 C114.576497,87.6495783 114.560547,87.8717441 114.560547,88.0175781 C114.55599,88.8606813 115.009436,89.2822266 115.920898,89.2822266 C116.381187,89.2822266 116.880206,89.1181657 117.417969,88.7900391 L117.739258,89.5419922 C117.433918,89.7288421 117.122886,89.874674 116.806152,89.9794922 C116.489419,90.0843104 116.151043,90.1367188 115.791016,90.1367188 Z M122.54525,90 L122.54525,79.948 L124.78525,79.948 L124.78525,83.364 C125.19125,82.888 125.87725,82.468 126.81525,82.468 C128.32725,82.468 129.27925,83.518 129.27925,85.128 L129.27925,90 L127.03925,90 L127.03925,85.772 C127.03925,85.03 126.73125,84.484 126.00325,84.484 C125.38725,84.484 124.78525,84.918 124.78525,85.786 L124.78525,90 L122.54525,90 Z M137.69325,86.318 C137.69325,88.614 136.16725,90.154 133.99725,90.154 C131.81325,90.154 130.30125,88.614 130.30125,86.318 C130.30125,84.022 131.81325,82.468 133.99725,82.468 C136.16725,82.468 137.69325,84.022 137.69325,86.318 Z M132.52725,86.318 C132.52725,87.606 133.10125,88.334 133.99725,88.334 C134.89325,88.334 135.46725,87.606 135.46725,86.318 C135.46725,85.03 134.89325,84.302 133.99725,84.302 C133.10125,84.302 132.52725,85.03 132.52725,86.318 Z M145.75725,86.318 C145.75725,88.614 144.23125,90.154 142.06125,90.154 C139.87725,90.154 138.36525,88.614 138.36525,86.318 C138.36525,84.022 139.87725,82.468 142.06125,82.468 C144.23125,82.468 145.75725,84.022 145.75725,86.318 Z M140.59125,86.318 C140.59125,87.606 141.16525,88.334 142.06125,88.334 C142.95725,88.334 143.53125,87.606 143.53125,86.318 C143.53125,85.03 142.95725,84.302 142.06125,84.302 C141.16525,84.302 140.59125,85.03 140.59125,86.318 Z M149.04725,79.948 L149.04725,85.268 L151.39925,82.622 L154.03125,82.622 L151.38525,85.394 L154.24125,90 L151.67925,90 L149.83125,87.032 L149.04725,87.858 L149.04725,90 L146.80725,90 L146.80725,79.948 L149.04725,79.948 Z" id="Combined-Shape" fill="#FFFFFF"></path>
        <path d="M25.3651267,79.2139704 L24.5305514,79.4279408 L24.3070045,79.4996393 L24.0834575,79.5713065 L23.7909091,79.704327 L23.4983607,79.8373162 L23.2842027,79.9700553 L23.0700447,80.1027632 L22.8464978,80.2736332 L22.6229508,80.4445344 L22.3085246,80.7762104 L21.9940686,81.1078551 L21.7943666,81.4018065 L21.5946647,81.6957579 L21.4163636,82.0624705 L21.2380626,82.4292144 L21.1471535,82.7137268 L21.0562444,82.9982393 L20.9988077,83.2875963 L20.9413413,83.5769845 L20.910313,83.9800152 L20.8792846,84.3830458 L20.8792846,85.0464603 L20.8792846,85.7098747 L20.6942772,85.7318156 L20.5092697,85.7537564 L20.4185693,85.7936376 L20.3278689,85.8334874 L20.229687,85.920282 L20.1315052,86.0071079 L20.0657526,86.1360027 L20,86.2648975 L20,88.3277144 L20,90.3905314 L20.0661997,90.5203326 L20.1323994,90.650165 L20.2407452,90.7438044 L20.3491207,90.837475 L20.472608,90.8736681 L20.5961252,90.9098924 L21.4754098,90.9002347 L22.3546945,90.8906082 L22.4739195,90.8231603 L22.5931446,90.7556812 L22.673532,90.6668863 L22.7539195,90.5780602 L22.8002086,90.4618548 L22.8464978,90.3456495 L22.8464978,88.3023668 L22.8464978,86.2591153 L22.7771684,86.1213442 L22.707839,85.9836043 L22.5847094,85.8849016 L22.4615797,85.7861989 L22.3098063,85.7520687 L22.1580328,85.7179384 L22.051386,85.7179384 L21.9447392,85.7179384 L21.9601192,84.8193629 L21.9755291,83.9207873 L22.0249478,83.6396191 L22.0743964,83.3584822 L22.1613413,83.0863153 L22.2482861,82.8141798 L22.3652757,82.5704861 L22.4822653,82.3267924 L22.6528763,82.076754 L22.8234873,81.8267156 L22.9914754,81.6394993 L23.1594635,81.452283 L23.3233979,81.3089798 L23.4873323,81.1656452 L23.6319225,81.0627544 L23.7765425,80.9598324 L24.034307,80.8268432 L24.2921013,80.6938227 L24.485842,80.6243433 L24.6795827,80.5548326 L25.4992548,80.3361115 L26.318927,80.1174217 L26.4852161,80.132549 L26.6514754,80.1476763 L26.8173174,80.2299702 L26.9831893,80.3122329 L27.1036066,80.4492227 L27.2240238,80.5862125 L27.2707303,80.7511441 L27.3174367,80.9160444 L27.3174367,81.8324039 L27.3174367,82.7487322 L27.8560954,82.7487322 L28.3947541,82.7487322 L28.3825931,81.7095101 L28.3704322,80.6702879 L28.3185991,80.4827591 L28.266766,80.2952303 L28.1607154,80.0624445 L28.0546647,79.8296587 L27.9021461,79.6698217 L27.7496274,79.5099846 L27.5707899,79.3898099 L27.3919523,79.2696039 L27.2280179,79.1929359 L27.0640835,79.1162366 L26.9299553,79.0711984 L26.7958271,79.0261603 L26.4977645,79.0130958 L26.1997019,79 L25.3651267,79.2139704 M27.6394039,83.6919396 L27.4515648,83.8538083 L27.1707601,84.1216932 L26.8899553,84.3896093 L26.6393443,84.7021574 L26.3887332,85.0147054 L26.2243517,85.27262 L26.06,85.5305034 L25.9635768,85.7726968 L25.8671833,86.0148591 L25.8185693,86.2023879 L25.7699553,86.3899167 L25.7410432,86.6399551 L25.7121311,86.8899935 L25.7378838,87.1277175 L25.7636662,87.3654416 L25.8129061,87.5652848 L25.8621759,87.765128 L25.9486736,87.9786608 L26.0351714,88.1921623 L26.1944262,88.4474828 L26.3536513,88.702772 L26.5369598,88.9438091 L26.7202385,89.1848461 L26.918152,89.4048487 L27.1160656,89.62482 L27.0752906,89.6795159 L27.0345455,89.7341805 L26.758003,90.0857033 L26.4814605,90.4371948 L26.4511177,90.5208639 L26.420775,90.604533 L26.4402385,90.700704 L26.4597019,90.7968438 L26.5085246,90.8558529 L26.557377,90.9148619 L26.6532936,90.957431 L26.7492101,91 L27.8842921,91 L29.0193443,91 L29.1032787,90.954493 L29.1871833,90.908986 L29.2359165,90.8013132 L29.2846498,90.6936404 L29.2846498,90.6037204 L29.2846498,90.5138316 L29.2334426,90.4365697 L29.1822355,90.3592766 L28.8906706,89.9859692 L28.5991058,89.6126618 L28.8206557,89.3765006 L29.0421759,89.1403393 L29.1777049,88.9635309 L29.3132042,88.7867224 L29.501848,88.4947088 L29.690462,88.2026952 L29.7893592,87.9532194 L29.8882563,87.7037123 L29.9437258,87.4218877 L29.999225,87.1400319 L29.9996125,86.8964945 L30,86.6529571 L29.952608,86.4120451 L29.9052161,86.1711331 L29.8447988,85.9836043 L29.7843815,85.7960754 L29.6653651,85.5587265 L29.5463785,85.3214088 L29.3046498,84.9805126 L29.062921,84.6396478 L28.7937705,84.346634 L28.5245902,84.053589 L28.2135618,83.7918612 L27.9025633,83.5301023 L27.8648882,83.5301023 L27.8272429,83.5301023 L27.6394039,83.6919396 M27.5669449,85.8896523 L27.4439046,85.967008 L27.3928465,86.0798378 L27.3417586,86.1926676 L27.339851,86.3268445 L27.3379136,86.4609901 L27.3962742,86.5817274 L27.4546349,86.7024647 L27.6149329,86.7884154 L27.775231,86.8743661 L27.8667362,86.8736785 L27.9582712,86.8729909 L28.0774963,86.8152945 L28.1967213,86.7575982 L28.2617884,86.6831492 L28.3268852,86.6087003 L28.3586587,86.520718 L28.390462,86.4327358 L28.3899851,86.3175618 L28.3894784,86.2023879 L28.3222951,86.0779938 L28.2551118,85.9536309 L28.1365127,85.8831826 L28.0178838,85.8127342 L27.8539493,85.8125155 L27.6900149,85.8122967 L27.5669449,85.8896523" id="Shape" fill="#FFFFFF"></path>
        <path d="M45.3037152,163 L45.8320312,159.993164 C45.8320312,159.993164 45.8297526,159.993164 45.8251953,159.993164 L45.8388672,159.972656 L47.1103516,152.753906 L47.8896484,152.753906 L47.7050781,154.654297 L47.6914062,154.722656 L47.7939453,154.722656 C48.0309257,154.080075 48.3955054,153.568524 48.8876953,153.187988 C49.3798853,152.807453 50.0019494,152.617188 50.7539062,152.617188 C51.3919303,152.617188 51.8886701,152.815428 52.2441406,153.211914 C52.5996112,153.6084 52.7773438,154.168942 52.7773438,154.893555 C52.7773438,155.640954 52.6497409,156.332516 52.3945312,156.968262 C52.1393216,157.604007 51.7827171,158.158852 51.324707,158.632812 C50.8666969,159.106773 50.3300812,159.47591 49.7148438,159.740234 C49.0996063,160.004559 48.4319697,160.136719 47.7119141,160.136719 C47.4020167,160.136719 47.0784522,160.123047 46.7412109,160.095703 L46.2267727,163 L45.3037152,163 Z M126.145,150 L128.385,150 L128.385,155.268 L130.737,152.622 L133.369,152.622 L130.723,155.394 L133.579,160 L131.017,160 L129.169,157.032 L128.385,157.858 L128.385,160 L126.145,160 L126.145,150 Z M42.1748047,160 L39.9804688,151.46875 L39.8984375,151.46875 L38.3945312,160 L37.4853516,160 L39.1943359,150.292969 L40.4658203,150.292969 L42.6669922,158.824219 L42.7421875,158.824219 L44.2460938,150.292969 L45.1552734,150.292969 L43.4462891,160 L42.1748047,160 Z M46.8984375,159.220703 C47.180991,159.261719 47.5022768,159.282227 47.8623047,159.282227 C48.6188189,159.282227 49.2978486,159.096519 49.8994141,158.725098 C50.5009796,158.353677 50.9760725,157.846683 51.324707,157.204102 C51.6733416,156.56152 51.8476562,155.836918 51.8476562,155.030273 C51.8476562,154.533526 51.7234713,154.149578 51.4750977,153.878418 C51.226724,153.607258 50.879234,153.47168 50.4326172,153.47168 C50.0270162,153.47168 49.6168641,153.597004 49.2021484,153.847656 C48.7874328,154.098309 48.4091814,154.489092 48.0673828,155.02002 C47.7255842,155.550947 47.461264,156.24023 47.2744141,157.087891 L46.8984375,159.220703 Z M55.6962891,152.753906 L55.5732422,154.080078 L55.6689453,154.080078 C55.9378269,153.104813 56.4482384,152.617188 57.2001953,152.617188 C57.9749388,152.617188 58.3509116,153.05924 58.328125,153.943359 L58.4238281,153.943359 C58.7109389,153.05924 59.2350222,152.617188 59.9960938,152.617188 C60.9303432,152.617188 61.2858084,153.255202 61.0625,154.53125 L60.0986328,160 L59.1757812,160 L60.1464844,154.476562 C60.2695319,153.774736 60.0963565,153.423828 59.6269531,153.423828 C59.2714826,153.423828 58.9558933,153.647133 58.6801758,154.09375 C58.4044583,154.540367 58.1777353,155.189774 58,156.041992 L57.2958984,160 L56.4482422,160 L57.4257812,154.476562 C57.5488287,153.774736 57.3733748,153.423828 56.8994141,153.423828 C56.5165996,153.423828 56.1805027,153.694984 55.8911133,154.237305 C55.6017238,154.779625 55.3636077,155.568029 55.1767578,156.602539 L55.1767578,156.582031 L54.5751953,160 L53.6455078,160 L54.9238281,152.753906 L55.6962891,152.753906 Z M62.1767578,160 L63.8857422,150.292969 C64.4235053,150.201822 65.1184853,150.15625 65.9707031,150.15625 C67.1875061,150.15625 68.1092091,150.403481 68.7358398,150.897949 C69.3624706,151.392418 69.6757812,152.122717 69.6757812,153.088867 C69.6757812,154.456062 69.1596731,155.496253 68.1274414,156.209473 C67.0952097,156.922692 65.5719502,157.29069 63.5576172,157.313477 L63.0859375,160 L62.1767578,160 Z M63.7080078,156.46582 C65.3668703,156.456706 66.6223916,156.169599 67.4746094,155.604492 C68.3268272,155.039385 68.7529297,154.214524 68.7529297,153.129883 C68.7529297,152.432614 68.5022812,151.902834 68.0009766,151.540527 C67.499672,151.178221 66.7636767,150.99707 65.7929688,150.99707 C65.3828104,150.99707 65.0068376,151.010742 64.6650391,151.038086 L63.7080078,156.46582 Z M69.8261719,160 L69.9765625,159.166016 L71.7470703,159.166016 L72.5195312,154.770508 C72.6699226,153.900061 72.3873734,153.464844 71.671875,153.464844 C71.4986971,153.464844 71.3278003,153.476237 71.1591797,153.499023 C70.9905591,153.52181 70.8219409,153.558268 70.6533203,153.608398 L70.5371094,152.78125 C70.7330739,152.717448 70.9370107,152.674154 71.1489258,152.651367 C71.3608409,152.628581 71.5784494,152.617188 71.8017578,152.617188 C72.4625684,152.617188 72.9274075,152.789224 73.1962891,153.133301 C73.4651706,153.477378 73.5517583,154.007158 73.4560547,154.722656 L73.5585938,154.722656 C73.7317717,154.052731 74.029132,153.534344 74.4506836,153.16748 C74.8722352,152.800617 75.3997364,152.617188 76.0332031,152.617188 C76.7395869,152.617188 77.2420232,152.847328 77.5405273,153.307617 C77.8390314,153.767906 77.9244798,154.433264 77.796875,155.303711 L76.8740234,155.303711 C76.9514978,154.683916 76.904786,154.223634 76.7338867,153.922852 C76.5629874,153.622069 76.254234,153.47168 75.8076172,153.47168 C75.3974589,153.47168 75.0135109,153.591307 74.6557617,153.830566 C74.2980125,154.069825 73.9790053,154.465167 73.6987305,155.016602 C73.4184556,155.568037 73.189454,156.313146 73.0117188,157.251953 L72.6699219,159.166016 L74.7070312,159.166016 L74.5566406,160 L69.8261719,160 Z M80.7910156,160.143555 C80.1165331,160.143555 79.6015643,159.957847 79.2460938,159.586426 C78.8906232,159.215005 78.7128906,158.67611 78.7128906,157.969727 C78.7128906,157.226884 78.8370756,156.432784 79.0854492,155.587402 C79.3338229,154.742021 79.6881487,153.751959 80.1484375,152.617188 L81.0439453,152.794922 C80.5745419,154.00261 80.2224947,155.009762 79.987793,155.816406 C79.7530913,156.623051 79.6357422,157.313474 79.6357422,157.887695 C79.6357422,158.821945 80.0846309,159.289062 80.9824219,159.289062 C81.7434934,159.289062 82.3758113,158.956384 82.8793945,158.291016 C83.3829778,157.625648 83.7669258,156.602546 84.03125,155.22168 L84.4755859,152.753906 L85.3984375,152.753906 L84.4277344,158.229492 C84.3684893,158.584963 84.4060866,158.839029 84.5405273,158.991699 C84.6749681,159.144369 84.9427063,159.229818 85.34375,159.248047 L85.5283203,159.248047 L85.3779297,160.068359 L85.2207031,160.068359 C84.4915328,160.068359 84.0198578,159.894045 83.8056641,159.54541 C83.5914703,159.196776 83.5527337,158.701175 83.6894531,158.058594 L83.5527344,158.058594 C83.3841137,158.45508 83.1847342,158.810545 82.9545898,159.125 C82.7244455,159.439455 82.4361996,159.687825 82.0898438,159.870117 C81.7434879,160.05241 81.3105495,160.143555 80.7910156,160.143555 Z M86.8408203,160 L88.1191406,152.753906 L88.8779297,152.753906 L88.6933594,154.722656 L88.8027344,154.722656 C88.985027,154.052731 89.3051735,153.534344 89.7631836,153.16748 C90.2211937,152.800617 90.7874315,152.617188 91.4619141,152.617188 C93.0341875,152.617188 93.6676448,153.4899 93.3623047,155.235352 L92.5214844,160 L91.5917969,160 L92.4394531,155.180664 C92.539714,154.611 92.4895843,154.183758 92.2890625,153.898926 C92.0885407,153.614094 91.7216824,153.47168 91.1884766,153.47168 C90.7555317,153.47168 90.3510761,153.592447 89.9750977,153.833984 C89.5991192,154.075522 89.2641616,154.477699 88.9702148,155.040527 C88.6762681,155.603356 88.4335947,156.360998 88.2421875,157.313477 L87.7705078,160 L86.8408203,160 Z M98.5097656,159.282227 C98.8834654,159.282227 99.2833638,159.221843 99.7094727,159.101074 C100.135582,158.980305 100.546873,158.812827 100.943359,158.598633 L101.257812,159.336914 C100.824868,159.587566 100.361168,159.783528 99.8666992,159.924805 C99.3722306,160.066081 98.8994163,160.136719 98.4482422,160.136719 C97.5276647,160.136719 96.8110377,159.878095 96.2983398,159.36084 C95.785642,158.843585 95.5292969,158.124679 95.5292969,157.204102 C95.5292969,156.25618 95.6922184,155.440433 96.0180664,154.756836 C96.3439144,154.073239 96.8087535,153.545738 97.4125977,153.174316 C98.0164418,152.802895 98.7353474,152.617188 99.5693359,152.617188 C100.271162,152.617188 100.818032,152.785806 101.209961,153.123047 C101.60189,153.460288 101.797852,153.929684 101.797852,154.53125 C101.797852,155.419926 101.323898,156.098956 100.375977,156.568359 C99.4280552,157.037763 98.1087324,157.29069 96.4179688,157.327148 C96.44987,157.942386 96.6492495,158.422036 97.0161133,158.766113 C97.3829771,159.110191 97.8808562,159.282227 98.5097656,159.282227 Z M96.4453125,156.547852 C97.8626373,156.511393 98.955237,156.327964 99.7231445,155.997559 C100.491052,155.667153 100.875,155.19206 100.875,154.572266 C100.875,154.230467 100.751954,153.96159 100.505859,153.765625 C100.259764,153.56966 99.9134137,153.47168 99.4667969,153.47168 C98.6145791,153.47168 97.923017,153.743975 97.3920898,154.288574 C96.8611627,154.833173 96.5455734,155.586258 96.4453125,156.547852 Z M106.391,158.026 L106.391,154.47 L105.453,154.47 L105.453,152.622 L106.391,152.622 L106.391,150.578 L108.603,150.578 L108.603,152.622 L110.045,152.622 L110.045,154.47 L108.603,154.47 L108.603,157.452 C108.603,158.068 108.925,158.18 109.485,158.18 C109.751,158.18 109.877,158.166 110.129,158.138 L110.129,159.972 C109.737,160.028 109.317,160.07 108.785,160.07 C107.189,160.07 106.391,159.538 106.391,158.026 Z M113.279,160.14 C111.795,160.14 110.731,159.244 110.731,157.942 C110.731,156.416 112.019,155.8 113.573,155.576 L115.225,155.296 L115.225,155.17 C115.225,154.624 114.931,154.274 114.203,154.274 C113.559,154.274 113.223,154.554 113.083,155.156 L110.941,154.834 C111.263,153.532 112.425,152.468 114.301,152.468 C116.233,152.468 117.423,153.35 117.423,155.072 L117.423,157.914 C117.423,158.292 117.563,158.404 117.997,158.348 L117.997,160 C116.709,160.21 115.841,159.972 115.463,159.342 C114.973,159.846 114.245,160.14 113.279,160.14 Z M115.225,157.354 L115.225,156.738 L113.937,156.976 C113.349,157.074 112.915,157.27 112.915,157.788 C112.915,158.25 113.265,158.502 113.797,158.502 C114.539,158.502 115.225,158.11 115.225,157.354 Z M118.347,158.922 L119.509,157.41 C120.111,158.068 121.063,158.46 121.861,158.46 C122.449,158.46 122.939,158.264 122.939,157.872 C122.939,157.382 122.449,157.326 121.273,157.116 C120.055,156.878 118.753,156.556 118.753,154.96 C118.753,153.462 120.083,152.468 121.903,152.468 C123.233,152.468 124.409,152.972 125.025,153.644 L123.905,155.086 C123.345,154.498 122.617,154.176 121.889,154.176 C121.343,154.176 120.993,154.386 120.993,154.722 C120.993,155.128 121.427,155.184 122.323,155.352 C123.653,155.618 125.137,155.94 125.137,157.606 C125.137,159.216 123.653,160.154 121.777,160.154 C120.489,160.154 119.033,159.72 118.347,158.922 Z" id="Combined-Shape" fill="url(#linearGradient-4)"></path>
        <path d="M37.96,23 L39.44,12.4 L43.88,12.4 L43.76,13.3 C44.4,12.58 45.56,12.16 46.66,12.16 C48.8,12.16 50.12,13.72 49.78,16.18 L48.82,23 L44.38,23 L45.2,17.16 C45.3,16.44 45,16.04 44.38,16.04 C43.74,16.04 43.32,16.48 43.18,17.42 L42.4,23 L37.96,23 Z M54.82,21.98 L54.2,26.4 L49.76,26.4 L51.72,12.4 L56.16,12.4 L56.04,13.34 C56.58,12.66 57.5,12.16 58.68,12.16 C61.04,12.16 62.46,14.08 62.46,16.92 C62.46,20.34 60.46,23.24 57.54,23.24 C56.34,23.24 55.28,22.74 54.82,21.98 Z M55.48,17.42 L55.42,17.86 C55.28,18.84 55.7,19.54 56.48,19.54 C57.4,19.54 58,18.54 58,17.34 C58,16.44 57.64,15.86 56.88,15.86 C56.14,15.86 55.62,16.38 55.48,17.42 Z M67.94,17.22 L67.12,23 L62.68,23 L64.16,12.4 L68.6,12.4 L68.48,13.28 C69.3,12.56 70.24,12.16 71.44,12.16 C72.82,12.16 73.7,12.72 74.14,13.6 C75.1,12.7 76.38,12.16 77.7,12.16 C79.9,12.16 81.22,13.66 80.86,16 L79.88,23 L75.44,23 L76.26,17.2 C76.36,16.52 76.1,16.04 75.44,16.04 C74.88,16.04 74.44,16.4 74.32,17.22 L73.5,23 L69.06,23 L69.88,17.2 C69.98,16.52 69.74,16.04 69.08,16.04 C68.52,16.04 68.06,16.4 67.94,17.22 Z M92.84,23.24 C91.7,23.24 90.72,22.74 90.24,22.04 L90.24,26.4 L85.8,26.4 L85.8,12.4 L90.24,12.4 L90.24,13.34 C90.72,12.64 91.7,12.16 92.84,12.16 C95.66,12.16 97.26,14.64 97.26,17.7 C97.26,20.76 95.66,23.24 92.84,23.24 Z M90.24,17.48 L90.24,17.92 C90.24,18.96 90.74,19.54 91.5,19.54 C92.36,19.54 92.8,18.72 92.8,17.7 C92.8,16.68 92.36,15.86 91.5,15.86 C90.74,15.86 90.24,16.44 90.24,17.48 Z M102.68,8.64 L102.68,23 L98.24,23 L98.24,8.64 L102.68,8.64 Z M114.96,12.4 L114.96,23 L110.52,23 L110.52,22.08 C109.98,22.68 109,23.24 107.72,23.24 C105.64,23.24 104.1,21.76 104.1,19.4 L104.1,12.4 L108.54,12.4 L108.54,18.3 C108.54,18.98 108.86,19.48 109.5,19.48 C110.06,19.48 110.52,19.14 110.52,18.3 L110.52,12.4 L114.96,12.4 Z M127.58,21.44 C127.58,24.92 125.04,26.64 121.42,26.64 C118.48,26.64 116.42,25.46 116.04,23.36 L120.3,22.74 C120.46,23.24 121,23.44 121.66,23.44 C122.46,23.44 123.14,23.02 123.14,22.02 L123.14,21.42 C122.7,22.06 121.62,22.54 120.46,22.54 C117.58,22.54 116.02,20.24 116.02,17.36 C116.02,14.5 117.58,12.16 120.46,12.16 C121.62,12.16 122.7,12.66 123.14,13.32 L123.14,12.4 L127.58,12.4 L127.58,21.44 Z M123.14,17.1 C123.14,16.12 122.58,15.64 121.86,15.64 C120.96,15.64 120.58,16.4 120.58,17.34 C120.58,18.3 120.96,19.06 121.86,19.06 C122.58,19.06 123.14,18.58 123.14,17.58 L123.14,17.1 Z M129.02,11.82 L129.02,8.64 L133.46,8.64 L133.46,11.82 L129.02,11.82 Z M133.46,12.4 L133.46,23 L129.02,23 L129.02,12.4 L133.46,12.4 Z M134.9,23 L134.9,12.4 L139.34,12.4 L139.34,13.34 C139.88,12.74 140.92,12.16 142.2,12.16 C144.32,12.16 145.76,13.64 145.76,16 L145.76,23 L141.32,23 L141.32,17.22 C141.32,16.54 141,16.04 140.36,16.04 C139.8,16.04 139.34,16.38 139.34,17.22 L139.34,23 L134.9,23 Z" id="Combined-Shape" fill="#FFFFFF"></path>
        <path d="M16,16.9827746 L16,24.9655492 L23.982219,24.9477637 L31.9644381,24.9299781 L31.9821841,16.9649891 L32,9 L23.9999651,9 L16,9 L16,16.9827746 M16.0407816,17.0175055 L16.0407816,25 L16.0674816,21.0316499 L16.0940816,17.0632998 L16.0674816,13.0491554 L16.0407816,9.03501094 L16.0407816,17.0175055 M18.7247837,16.9824945 L18.7247837,22.2341357 L21.3447681,22.2341357 L23.9647525,22.2341357 L23.9647525,18.3129103 L23.9647525,14.3916849 L25.2572781,14.3916849 L26.5498037,14.3916849 L26.5498037,18.3129103 L26.5498037,22.2341357 L27.8772625,22.2341357 L29.2047212,22.2341357 L29.2047212,16.9824945 L29.2047212,11.7308534 L23.9647525,11.7308534 L18.7247837,11.7308534 L18.7247837,16.9824945" id="Shape" fill="#FFFFFF"></path>
        <path d="M31.217743,153.904687 C31.294673,154.10625 31.2293991,154.333594 31.0708767,154.48125 L30.0614623,155.404687 C30.0871056,155.599219 30.1010929,155.798438 30.1010929,156 C30.1010929,156.201562 30.0871056,156.400781 30.0614623,156.595313 L31.0708767,157.51875 C31.2293991,157.666406 31.294673,157.89375 31.217743,158.095313 C31.1151697,158.374219 30.9916155,158.64375 30.8517429,158.899219 L30.7421759,159.089063 C30.588316,159.346875 30.4158064,159.590625 30.2269783,159.822656 C30.0871056,159.989062 29.8609781,160.047656 29.6558316,159.982031 L28.357347,159.564844 C28.0449647,159.80625 27.6789646,160.007812 27.3316141,160.1625 L27.0402127,161.500781 C26.9935885,161.711719 26.8304037,161.861719 26.6159323,161.917969 C26.2942252,161.971875 25.9631932,162 25.6041867,162 C25.287142,162 24.95611,161.971875 24.6344029,161.917969 C24.4199315,161.861719 24.2567467,161.711719 24.2101225,161.500781 L23.9187211,160.1625 C23.5503897,160.007812 23.2053705,159.80625 22.8929882,159.564844 L21.5954361,159.982031 C21.389357,160.047656 21.162064,159.989062 21.0240563,159.822656 C20.834995,159.590625 20.6624854,159.346875 20.5086255,159.089063 L20.3995248,158.899219 C20.2580203,158.64375 20.1349324,158.374219 20.0316597,158.095313 C19.9561285,157.89375 20.0197705,157.666406 20.1796916,157.51875 L21.1881735,156.595313 C21.1625302,156.400781 21.1492423,156.201562 21.1492423,156 C21.1492423,155.798438 21.1625302,155.599219 21.1881735,155.404687 L20.1796916,154.48125 C20.0197705,154.333594 19.9561285,154.108594 20.0316597,153.904687 C20.1349324,153.625781 20.2582534,153.35625 20.3995248,153.100781 L20.5083924,152.910937 C20.6624854,152.653125 20.834995,152.409375 21.0240563,152.178516 C21.162064,152.010938 21.389357,151.952812 21.5954361,152.018906 L22.8929882,152.435156 C23.2053705,152.192813 23.5503897,151.99125 23.9187211,151.838203 L24.2101225,150.499922 C24.2567467,150.287109 24.4199315,150.118125 24.6344029,150.082266 C24.95611,150.028148 25.287142,150 25.6251676,150 C25.9631932,150 26.2942252,150.028148 26.6159323,150.082266 C26.8304037,150.118125 26.9935885,150.287109 27.0402127,150.499922 L27.3316141,151.838203 C27.6789646,151.99125 28.0449647,152.192813 28.357347,152.435156 L29.6558316,152.018906 C29.8609781,151.952812 30.0871056,152.010938 30.2269783,152.178516 C30.4158064,152.409375 30.588316,152.653125 30.7421759,152.910937 L30.8517429,153.100781 C30.9916155,153.35625 31.1151697,153.625781 31.217743,153.904687 Z M25.6251676,157.875 C26.6555629,157.875 27.4901365,157.035937 27.4901365,155.978906 C27.4901365,154.964063 26.6555629,154.103906 25.6251676,154.103906 C24.5947723,154.103906 23.7601987,154.964063 23.7601987,155.978906 C23.7601987,157.035937 24.5947723,157.875 25.6251676,157.875 Z" id="Shape" fill="url(#linearGradient-4)" fill-rule="nonzero"></path>
        <path d="M21.3527668,106 L145.647233,106 C149.544836,106 151.254599,106.464128 152.884229,107.335664 C154.513858,108.207199 155.792801,109.486142 156.664336,111.115771 C157.535872,112.745401 158,114.455164 158,118.352767 L158,122.647233 C158,126.544836 157.535872,128.254599 156.664336,129.884229 C155.792801,131.513858 154.513858,132.792801 152.884229,133.664336 C151.254599,134.535872 149.544836,135 145.647233,135 L21.3527668,135 C17.4551641,135 15.7454011,134.535872 14.1157715,133.664336 C12.4861419,132.792801 11.207199,131.513858 10.3356635,129.884229 C9.46412806,128.254599 9,126.544836 9,122.647233 L9,118.352767 C9,114.455164 9.46412806,112.745401 10.3356635,111.115771 C11.207199,109.486142 12.4861419,108.207199 14.1157715,107.335664 C15.7454011,106.464128 17.4551641,106 21.3527668,106 Z" id="Rectangle" fill="url(#linearGradient-5)"></path>
        <path d="M31.217743,118.904687 C31.294673,119.10625 31.2293991,119.333594 31.0708767,119.48125 L30.0614623,120.404687 C30.0871056,120.599219 30.1010929,120.798438 30.1010929,121 C30.1010929,121.201562 30.0871056,121.400781 30.0614623,121.595313 L31.0708767,122.51875 C31.2293991,122.666406 31.294673,122.89375 31.217743,123.095313 C31.1151697,123.374219 30.9916155,123.64375 30.8517429,123.899219 L30.7421759,124.089062 C30.588316,124.346875 30.4158064,124.590625 30.2269783,124.822656 C30.0871056,124.989063 29.8609781,125.047656 29.6558316,124.982031 L28.357347,124.564844 C28.0449647,124.80625 27.6789646,125.007812 27.3316141,125.1625 L27.0402127,126.500781 C26.9935885,126.711719 26.8304037,126.861719 26.6159323,126.917969 C26.2942252,126.971875 25.9631932,127 25.6041867,127 C25.287142,127 24.95611,126.971875 24.6344029,126.917969 C24.4199315,126.861719 24.2567467,126.711719 24.2101225,126.500781 L23.9187211,125.1625 C23.5503897,125.007812 23.2053705,124.80625 22.8929882,124.564844 L21.5954361,124.982031 C21.389357,125.047656 21.162064,124.989063 21.0240563,124.822656 C20.834995,124.590625 20.6624854,124.346875 20.5086255,124.089062 L20.3995248,123.899219 C20.2580203,123.64375 20.1349324,123.374219 20.0316597,123.095313 C19.9561285,122.89375 20.0197705,122.666406 20.1796916,122.51875 L21.1881735,121.595313 C21.1625302,121.400781 21.1492423,121.201562 21.1492423,121 C21.1492423,120.798438 21.1625302,120.599219 21.1881735,120.404687 L20.1796916,119.48125 C20.0197705,119.333594 19.9561285,119.108594 20.0316597,118.904687 C20.1349324,118.625781 20.2582534,118.35625 20.3995248,118.100781 L20.5083924,117.910938 C20.6624854,117.653125 20.834995,117.409375 21.0240563,117.178516 C21.162064,117.010937 21.389357,116.952812 21.5954361,117.018906 L22.8929882,117.435156 C23.2053705,117.192813 23.5503897,116.99125 23.9187211,116.838203 L24.2101225,115.499922 C24.2567467,115.287109 24.4199315,115.118125 24.6344029,115.082266 C24.95611,115.028148 25.287142,115 25.6251676,115 C25.9631932,115 26.2942252,115.028148 26.6159323,115.082266 C26.8304037,115.118125 26.9935885,115.287109 27.0402127,115.499922 L27.3316141,116.838203 C27.6789646,116.99125 28.0449647,117.192813 28.357347,117.435156 L29.6558316,117.018906 C29.8609781,116.952812 30.0871056,117.010937 30.2269783,117.178516 C30.4158064,117.409375 30.588316,117.653125 30.7421759,117.910938 L30.8517429,118.100781 C30.9916155,118.35625 31.1151697,118.625781 31.217743,118.904687 Z M25.6251676,122.875 C26.6555629,122.875 27.4901365,122.035938 27.4901365,120.978906 C27.4901365,119.964062 26.6555629,119.103906 25.6251676,119.103906 C24.5947723,119.103906 23.7601987,119.964062 23.7601987,120.978906 C23.7601987,122.035938 24.5947723,122.875 25.6251676,122.875 Z" id="Shape" fill="#FFFFFF" fill-rule="nonzero"></path>
        <path d="M42.1748047,125 L39.9804688,116.46875 L39.8984375,116.46875 L38.3945312,125 L37.4853516,125 L39.1943359,115.292969 L40.4658203,115.292969 L42.6669922,123.824219 L42.7421875,123.824219 L44.2460938,115.292969 L45.1552734,115.292969 L43.4462891,125 L42.1748047,125 Z M46.2011719,128.144531 L45.2783203,128.144531 L45.8320312,124.993164 C45.8320312,124.993164 45.8297526,124.993164 45.8251953,124.993164 L45.8388672,124.972656 L47.1103516,117.753906 L47.8896484,117.753906 L47.7050781,119.654297 L47.6914062,119.722656 L47.7939453,119.722656 C48.0309257,119.080075 48.3955054,118.568524 48.8876953,118.187988 C49.3798853,117.807453 50.0019494,117.617188 50.7539062,117.617188 C51.3919303,117.617188 51.8886701,117.815428 52.2441406,118.211914 C52.5996112,118.6084 52.7773438,119.168942 52.7773438,119.893555 C52.7773438,120.640954 52.6497409,121.332516 52.3945312,121.968262 C52.1393216,122.604007 51.7827171,123.158852 51.324707,123.632812 C50.8666969,124.106773 50.3300812,124.47591 49.7148438,124.740234 C49.0996063,125.004559 48.4319697,125.136719 47.7119141,125.136719 C47.4020167,125.136719 47.0784522,125.123047 46.7412109,125.095703 L46.2011719,128.144531 Z M46.8984375,124.220703 C47.180991,124.261719 47.5022768,124.282227 47.8623047,124.282227 C48.6188189,124.282227 49.2978486,124.096519 49.8994141,123.725098 C50.5009796,123.353677 50.9760725,122.846683 51.324707,122.204102 C51.6733416,121.56152 51.8476562,120.836918 51.8476562,120.030273 C51.8476562,119.533526 51.7234713,119.149578 51.4750977,118.878418 C51.226724,118.607258 50.879234,118.47168 50.4326172,118.47168 C50.0270162,118.47168 49.6168641,118.597004 49.2021484,118.847656 C48.7874328,119.098309 48.4091814,119.489092 48.0673828,120.02002 C47.7255842,120.550947 47.461264,121.24023 47.2744141,122.087891 L46.8984375,124.220703 Z M55.6962891,117.753906 L55.5732422,119.080078 L55.6689453,119.080078 C55.9378269,118.104813 56.4482384,117.617188 57.2001953,117.617188 C57.9749388,117.617188 58.3509116,118.05924 58.328125,118.943359 L58.4238281,118.943359 C58.7109389,118.05924 59.2350222,117.617188 59.9960938,117.617188 C60.9303432,117.617188 61.2858084,118.255202 61.0625,119.53125 L60.0986328,125 L59.1757812,125 L60.1464844,119.476562 C60.2695319,118.774736 60.0963565,118.423828 59.6269531,118.423828 C59.2714826,118.423828 58.9558933,118.647133 58.6801758,119.09375 C58.4044583,119.540367 58.1777353,120.189774 58,121.041992 L57.2958984,125 L56.4482422,125 L57.4257812,119.476562 C57.5488287,118.774736 57.3733748,118.423828 56.8994141,118.423828 C56.5165996,118.423828 56.1805027,118.694984 55.8911133,119.237305 C55.6017238,119.779625 55.3636077,120.568029 55.1767578,121.602539 L55.1767578,121.582031 L54.5751953,125 L53.6455078,125 L54.9238281,117.753906 L55.6962891,117.753906 Z M62.1767578,125 L63.8857422,115.292969 C64.4235053,115.201822 65.1184853,115.15625 65.9707031,115.15625 C67.1875061,115.15625 68.1092091,115.403481 68.7358398,115.897949 C69.3624706,116.392418 69.6757812,117.122717 69.6757812,118.088867 C69.6757812,119.456062 69.1596731,120.496253 68.1274414,121.209473 C67.0952097,121.922692 65.5719502,122.29069 63.5576172,122.313477 L63.0859375,125 L62.1767578,125 Z M63.7080078,121.46582 C65.3668703,121.456706 66.6223916,121.169599 67.4746094,120.604492 C68.3268272,120.039385 68.7529297,119.214524 68.7529297,118.129883 C68.7529297,117.432614 68.5022812,116.902834 68.0009766,116.540527 C67.499672,116.178221 66.7636767,115.99707 65.7929688,115.99707 C65.3828104,115.99707 65.0068376,116.010742 64.6650391,116.038086 L63.7080078,121.46582 Z M72.5878906,125.143555 C71.9134081,125.143555 71.3984393,124.957847 71.0429688,124.586426 C70.6874982,124.215005 70.5097656,123.67611 70.5097656,122.969727 C70.5097656,122.226884 70.6339506,121.432784 70.8823242,120.587402 C71.1306979,119.742021 71.4850237,118.751959 71.9453125,117.617188 L72.8408203,117.794922 C72.3714169,119.00261 72.0193697,120.009762 71.784668,120.816406 C71.5499663,121.623051 71.4326172,122.313474 71.4326172,122.887695 C71.4326172,123.821945 71.8815059,124.289062 72.7792969,124.289062 C73.5403684,124.289062 74.1726863,123.956384 74.6762695,123.291016 C75.1798528,122.625648 75.5638008,121.602546 75.828125,120.22168 L76.2724609,117.753906 L77.1953125,117.753906 L76.2246094,123.229492 C76.1653643,123.584963 76.2029616,123.839029 76.3374023,123.991699 C76.4718431,124.144369 76.7395813,124.229818 77.140625,124.248047 L77.3251953,124.248047 L77.1748047,125.068359 L77.0175781,125.068359 C76.2884078,125.068359 75.8167328,124.894045 75.6025391,124.54541 C75.3883453,124.196776 75.3496087,123.701175 75.4863281,123.058594 L75.3496094,123.058594 C75.1809887,123.45508 74.9816092,123.810545 74.7514648,124.125 C74.5213205,124.439455 74.2330746,124.687825 73.8867188,124.870117 C73.5403629,125.05241 73.1074245,125.143555 72.5878906,125.143555 Z M80.2578125,125.136719 C79.9843736,125.136719 79.7109389,125.124186 79.4375,125.099121 C79.1640611,125.074056 78.8883477,125.038737 78.6103516,124.993164 L80.0800781,116.660156 C80.1575525,116.245441 80.1461594,115.940105 80.0458984,115.744141 C79.9456375,115.548176 79.7360042,115.450195 79.4169922,115.450195 C79.298502,115.450195 79.1788743,115.455892 79.0581055,115.467285 C78.9373366,115.478678 78.8177089,115.498047 78.6992188,115.525391 L78.5966797,114.711914 C78.7470711,114.670898 78.8974602,114.642415 79.0478516,114.626465 C79.1982429,114.610514 79.3486321,114.602539 79.4990234,114.602539 C80.159834,114.602539 80.6098621,114.768879 80.8491211,115.101562 C81.0883801,115.434246 81.1442064,115.953773 81.0166016,116.660156 L80.4765625,119.722656 L80.5927734,119.722656 C80.8388684,119.048174 81.2171198,118.528648 81.7275391,118.164062 C82.2379583,117.799477 82.8395148,117.617188 83.5322266,117.617188 C84.1839225,117.617188 84.6897768,117.815428 85.0498047,118.211914 C85.4098325,118.6084 85.5898438,119.168942 85.5898438,119.893555 C85.5898438,120.640954 85.4565443,121.332516 85.1899414,121.968262 C84.9233385,122.604007 84.548505,123.158852 84.0654297,123.632812 C83.5823544,124.106773 83.0172558,124.47591 82.3701172,124.740234 C81.7229785,125.004559 81.018884,125.136719 80.2578125,125.136719 Z M80.0117188,122.354492 L79.6767578,124.234375 C79.8955089,124.266276 80.1393216,124.282227 80.4082031,124.282227 C81.2194051,124.282227 81.9451465,124.096519 82.5854492,123.725098 C83.2257519,123.353677 83.7327455,122.846683 84.1064453,122.204102 C84.4801451,121.56152 84.6669922,120.836918 84.6669922,120.030273 C84.6669922,119.533526 84.5393893,119.149578 84.2841797,118.878418 C84.0289701,118.607258 83.6712263,118.47168 83.2109375,118.47168 C82.7916646,118.47168 82.3712586,118.606118 81.949707,118.875 C81.5281554,119.143882 81.1453468,119.564288 80.8012695,120.13623 C80.4571923,120.708173 80.1940113,121.447587 80.0117188,122.354492 Z M91.1816406,125.136719 C89.7460866,125.136719 89.0283203,124.446296 89.0283203,123.06543 C89.0283203,122.87858 89.04541,122.631349 89.0795898,122.32373 C89.1137697,122.016112 89.1969394,121.613935 89.3291016,121.117188 L90.3476562,117.227539 C90.5071623,116.621416 90.4855153,116.174806 90.2827148,115.887695 C90.0799144,115.600585 89.6640656,115.457031 89.0351562,115.457031 C88.8710929,115.457031 88.7047534,115.467285 88.5361328,115.487793 C88.3675122,115.508301 88.1988941,115.54362 88.0302734,115.59375 L87.8662109,114.787109 C88.0940767,114.723307 88.3242176,114.677735 88.5566406,114.650391 C88.7890637,114.623047 89.0214832,114.609375 89.2539062,114.609375 C90.1243533,114.609375 90.7350243,114.840655 91.0859375,115.303223 C91.4368507,115.76579 91.4915377,116.445959 91.25,117.34375 L90.2587891,121.117188 C90.1175123,121.641279 90.0309246,122.05257 89.9990234,122.351074 C89.9671222,122.649578 89.9511719,122.871744 89.9511719,123.017578 C89.9466146,123.860681 90.4000605,124.282227 91.3115234,124.282227 C91.7718122,124.282227 92.2708306,124.118166 92.8085938,123.790039 L93.1298828,124.541992 C92.8245427,124.728842 92.5135107,124.874674 92.1967773,124.979492 C91.880044,125.08431 91.5416685,125.136719 91.1816406,125.136719 Z M101.244141,123.865234 L101.544922,124.5625 C101.285155,124.722006 101.01172,124.857584 100.724609,124.969238 C100.437499,125.080892 100.107098,125.136719 99.7333984,125.136719 C98.944983,125.136719 98.3570983,124.943036 97.9697266,124.555664 C97.5823548,124.168292 97.4114581,123.600915 97.4570312,122.853516 C97.4798178,122.511717 97.5458979,122.179038 97.6552734,121.855469 C97.764649,121.531899 97.8842767,121.217449 98.0141602,120.912109 C98.1440436,120.606769 98.2431637,120.312827 98.3115234,120.030273 C98.4436856,119.515297 98.3958345,119.125652 98.1679688,118.861328 C97.940103,118.597004 97.5527371,118.464844 97.0058594,118.464844 C96.5729145,118.464844 96.1559265,118.517252 95.7548828,118.62207 L95.6113281,117.808594 C95.8802097,117.731119 96.1490872,117.67985 96.4179688,117.654785 C96.6868503,117.62972 96.9557278,117.617188 97.2246094,117.617188 C98.0540406,117.617188 98.6430647,117.834796 98.9916992,118.27002 C99.3403338,118.705243 99.4121104,119.337561 99.2070312,120.166992 C99.1295569,120.490562 99.0304368,120.792479 98.909668,121.072754 C98.7888991,121.353029 98.6772466,121.629881 98.574707,121.90332 C98.4721675,122.176759 98.4095053,122.47298 98.3867188,122.791992 C98.318359,123.785487 98.7945912,124.282227 99.8154297,124.282227 C100.084311,124.282227 100.320149,124.250326 100.522949,124.186523 C100.72575,124.122721 100.966144,124.015626 101.244141,123.865234 Z M99.6103516,116.174805 C99.3916005,116.174805 99.2047534,116.097332 99.0498047,115.942383 C98.894856,115.787434 98.8173828,115.600587 98.8173828,115.381836 C98.8173828,115.163085 98.894856,114.976238 99.0498047,114.821289 C99.2047534,114.66634 99.3916005,114.588867 99.6103516,114.588867 C99.8291027,114.588867 100.01595,114.66634 100.170898,114.821289 C100.325847,114.976238 100.40332,115.163085 100.40332,115.381836 C100.40332,115.600587 100.325847,115.787434 100.170898,115.942383 C100.01595,116.097332 99.8291027,116.174805 99.6103516,116.174805 Z M105.660156,125.136719 C104.598302,125.136719 103.775719,125.045574 103.192383,124.863281 L103.458984,123.995117 C104.388677,124.186524 105.172523,124.282227 105.810547,124.282227 C106.649093,124.282227 107.2985,124.162599 107.758789,123.92334 C108.219078,123.684081 108.449219,123.347984 108.449219,122.915039 C108.449219,122.691731 108.366049,122.495769 108.199707,122.327148 C108.033365,122.158528 107.799806,122.030925 107.499023,121.944336 L105.475586,121.356445 C105.065428,121.237955 104.74756,121.052247 104.521973,120.799316 C104.296386,120.546385 104.183594,120.251304 104.183594,119.914062 C104.183594,119.184892 104.526527,118.619794 105.212402,118.21875 C105.898278,117.817706 106.865554,117.617188 108.114258,117.617188 C108.424155,117.617188 108.751138,117.630859 109.095215,117.658203 C109.439292,117.685547 109.77311,117.724284 110.09668,117.774414 L109.857422,118.587891 C109.073564,118.510416 108.435549,118.47168 107.943359,118.47168 C107.045568,118.47168 106.349449,118.589029 105.85498,118.82373 C105.360512,119.058432 105.113281,119.39225 105.113281,119.825195 C105.113281,120.203452 105.375323,120.465494 105.899414,120.611328 L107.90918,121.171875 C108.378583,121.29948 108.739745,121.510252 108.992676,121.804199 C109.245607,122.098146 109.37207,122.450193 109.37207,122.860352 C109.37207,123.584965 109.048506,124.145506 108.401367,124.541992 C107.754229,124.938479 106.840501,125.136719 105.660156,125.136719 Z M116.201172,125 L117.048828,120.180664 C117.149089,119.611 117.098959,119.183758 116.898438,118.898926 C116.697916,118.614094 116.331057,118.47168 115.797852,118.47168 C115.351235,118.47168 114.933107,118.602701 114.543457,118.864746 C114.153807,119.126792 113.808595,119.563148 113.507812,120.173828 C113.20703,120.784508 112.963217,121.611648 112.776367,122.655273 L112.796875,122.504883 L112.352539,125 L111.422852,125 L112.892578,116.660156 C112.970052,116.245441 112.958659,115.940105 112.858398,115.744141 C112.758138,115.548176 112.548504,115.450195 112.229492,115.450195 C112.111002,115.450195 111.991374,115.455892 111.870605,115.467285 C111.749837,115.478678 111.630209,115.498047 111.511719,115.525391 L111.40918,114.711914 C111.559571,114.670898 111.70996,114.642415 111.860352,114.626465 C112.010743,114.610514 112.161132,114.602539 112.311523,114.602539 C112.972334,114.602539 113.421223,114.768879 113.658203,115.101562 C113.895183,115.434246 113.952149,115.953773 113.829102,116.660156 L113.289062,119.722656 L113.405273,119.722656 C113.587566,119.052731 113.907713,118.534344 114.365723,118.16748 C114.823733,117.800617 115.392249,117.617188 116.071289,117.617188 C117.643563,117.617188 118.27702,118.4899 117.97168,120.235352 L117.130859,125 L116.201172,125 Z M122.79725,123.026 L122.79725,119.47 L121.85925,119.47 L121.85925,117.622 L122.79725,117.622 L122.79725,115.578 L125.00925,115.578 L125.00925,117.622 L126.45125,117.622 L126.45125,119.47 L125.00925,119.47 L125.00925,122.452 C125.00925,123.068 125.33125,123.18 125.89125,123.18 C126.15725,123.18 126.28325,123.166 126.53525,123.138 L126.53525,124.972 C126.14325,125.028 125.72325,125.07 125.19125,125.07 C123.59525,125.07 122.79725,124.538 122.79725,123.026 Z M129.68525,125.14 C128.20125,125.14 127.13725,124.244 127.13725,122.942 C127.13725,121.416 128.42525,120.8 129.97925,120.576 L131.63125,120.296 L131.63125,120.17 C131.63125,119.624 131.33725,119.274 130.60925,119.274 C129.96525,119.274 129.62925,119.554 129.48925,120.156 L127.34725,119.834 C127.66925,118.532 128.83125,117.468 130.70725,117.468 C132.63925,117.468 133.82925,118.35 133.82925,120.072 L133.82925,122.914 C133.82925,123.292 133.96925,123.404 134.40325,123.348 L134.40325,125 C133.11525,125.21 132.24725,124.972 131.86925,124.342 C131.37925,124.846 130.65125,125.14 129.68525,125.14 Z M131.63125,122.354 L131.63125,121.738 L130.34325,121.976 C129.75525,122.074 129.32125,122.27 129.32125,122.788 C129.32125,123.25 129.67125,123.502 130.20325,123.502 C130.94525,123.502 131.63125,123.11 131.63125,122.354 Z M134.75325,123.922 L135.91525,122.41 C136.51725,123.068 137.46925,123.46 138.26725,123.46 C138.85525,123.46 139.34525,123.264 139.34525,122.872 C139.34525,122.382 138.85525,122.326 137.67925,122.116 C136.46125,121.878 135.15925,121.556 135.15925,119.96 C135.15925,118.462 136.48925,117.468 138.30925,117.468 C139.63925,117.468 140.81525,117.972 141.43125,118.644 L140.31125,120.086 C139.75125,119.498 139.02325,119.176 138.29525,119.176 C137.74925,119.176 137.39925,119.386 137.39925,119.722 C137.39925,120.128 137.83325,120.184 138.72925,120.352 C140.05925,120.618 141.54325,120.94 141.54325,122.606 C141.54325,124.216 140.05925,125.154 138.18325,125.154 C136.89525,125.154 135.43925,124.72 134.75325,123.922 Z M144.79125,114.948 L144.79125,120.268 L147.14325,117.622 L149.77525,117.622 L147.12925,120.394 L149.98525,125 L147.42325,125 L145.57525,122.032 L144.79125,122.858 L144.79125,125 L142.55125,125 L142.55125,114.948 L144.79125,114.948 Z" id="Combined-Shape" fill="#FFFFFF"></path>
    </g>
</svg>