<?xml version="1.0" encoding="UTF-8"?>
<svg width="180px" height="160px" viewBox="0 0 180 160" version="1.1" xmlns="http://www.w3.org/2000/svg" xmlns:xlink="http://www.w3.org/1999/xlink">
    <title>running-command</title>
    <defs>
        <linearGradient x1="98.0530683%" y1="47.2341347%" x2="3.42756503%" y2="52.8537978%" id="linearGradient-1">
            <stop stop-color="#262A33" offset="0%"></stop>
            <stop stop-color="#0A5E66" offset="100%"></stop>
        </linearGradient>
        <linearGradient x1="99.3131251%" y1="48.7911291%" x2="3.42756503%" y2="51.2800104%" id="linearGradient-2">
            <stop stop-color="#262A33" offset="0%"></stop>
            <stop stop-color="#593380" offset="100%"></stop>
        </linearGradient>
        <linearGradient x1="0%" y1="48.5449827%" x2="100%" y2="51.4550173%" id="linearGradient-3">
            <stop stop-color="#FFF1E5" offset="0%"></stop>
            <stop stop-color="#FCD0B1" offset="100%"></stop>
        </linearGradient>
    </defs>
    <g id="running-command" stroke="none" stroke-width="1" fill="none" fill-rule="evenodd">
        <path d="M12.3527668,126 L106.647233,126 C110.544836,126 112.254599,126.464128 113.884229,127.335664 C115.513858,128.207199 116.792801,129.486142 117.664336,131.115771 C118.535872,132.745401 119,134.455164 119,138.352767 L119,142.647233 C119,146.544836 118.535872,148.254599 117.664336,149.884229 C116.792801,151.513858 115.513858,152.792801 113.884229,153.664336 C112.254599,154.535872 110.544836,155 106.647233,155 L12.3527668,155 C8.45516415,155 6.74540111,154.535872 5.11577148,153.664336 C3.48614185,152.792801 2.20719898,151.513858 1.33566352,149.884229 C0.464128056,148.254599 9.4593914e-17,146.544836 -1.44065414e-16,142.647233 L2.88130828e-16,138.352767 C-1.89187828e-16,134.455164 0.464128056,132.745401 1.33566352,131.115771 C2.20719898,129.486142 3.48614185,128.207199 5.11577148,127.335664 C6.74540111,126.464128 8.45516415,126 12.3527668,126 Z" id="Rectangle" fill="url(#linearGradient-1)"></path>
        <path d="M21.217743,137.904687 C21.294673,138.10625 21.2293991,138.333594 21.0708767,138.48125 L20.0614623,139.404687 C20.0871056,139.599219 20.1010929,139.798438 20.1010929,140 C20.1010929,140.201562 20.0871056,140.400781 20.0614623,140.595313 L21.0708767,141.51875 C21.2293991,141.666406 21.294673,141.89375 21.217743,142.095313 C21.1151697,142.374219 20.9916155,142.64375 20.8517429,142.899219 L20.7421759,143.089063 C20.588316,143.346875 20.4158064,143.590625 20.2269783,143.822656 C20.0871056,143.989062 19.8609781,144.047656 19.6558316,143.982031 L18.357347,143.564844 C18.0449647,143.80625 17.6789646,144.007812 17.3316141,144.1625 L17.0402127,145.500781 C16.9935885,145.711719 16.8304037,145.861719 16.6159323,145.917969 C16.2942252,145.971875 15.9631932,146 15.6041867,146 C15.287142,146 14.95611,145.971875 14.6344029,145.917969 C14.4199315,145.861719 14.2567467,145.711719 14.2101225,145.500781 L13.9187211,144.1625 C13.5503897,144.007812 13.2053705,143.80625 12.8929882,143.564844 L11.5954361,143.982031 C11.389357,144.047656 11.162064,143.989062 11.0240563,143.822656 C10.834995,143.590625 10.6624854,143.346875 10.5086255,143.089063 L10.3995248,142.899219 C10.2580203,142.64375 10.1349324,142.374219 10.0316597,142.095313 C9.95612846,141.89375 10.0197705,141.666406 10.1796916,141.51875 L11.1881735,140.595313 C11.1625302,140.400781 11.1492423,140.201562 11.1492423,140 C11.1492423,139.798438 11.1625302,139.599219 11.1881735,139.404687 L10.1796916,138.48125 C10.0197705,138.333594 9.95612846,138.108594 10.0316597,137.904687 C10.1349324,137.625781 10.2582534,137.35625 10.3995248,137.100781 L10.5083924,136.910937 C10.6624854,136.653125 10.834995,136.409375 11.0240563,136.178516 C11.162064,136.010938 11.389357,135.952812 11.5954361,136.018906 L12.8929882,136.435156 C13.2053705,136.192813 13.5503897,135.99125 13.9187211,135.838203 L14.2101225,134.499922 C14.2567467,134.287109 14.4199315,134.118125 14.6344029,134.082266 C14.95611,134.028148 15.287142,134 15.6251676,134 C15.9631932,134 16.2942252,134.028148 16.6159323,134.082266 C16.8304037,134.118125 16.9935885,134.287109 17.0402127,134.499922 L17.3316141,135.838203 C17.6789646,135.99125 18.0449647,136.192813 18.357347,136.435156 L19.6558316,136.018906 C19.8609781,135.952812 20.0871056,136.010938 20.2269783,136.178516 C20.4158064,136.409375 20.588316,136.653125 20.7421759,136.910937 L20.8517429,137.100781 C20.9916155,137.35625 21.1151697,137.625781 21.217743,137.904687 L21.217743,137.904687 Z M15.6251676,141.875 C16.6555629,141.875 17.4901365,141.035938 17.4901365,139.978906 C17.4901365,138.964063 16.6555629,138.103906 15.6251676,138.103906 C14.5947723,138.103906 13.7601987,138.964063 13.7601987,139.978906 C13.7601987,141.035938 14.5947723,141.875 15.6251676,141.875 Z" id="Shape" fill="#FFFFFF" fill-rule="nonzero"></path>
        <path d="M94.31275,138.602 C95.11075,138.602 95.75475,138.798 96.31475,139.162 L96.31475,140.744 C95.75475,140.296 95.11075,139.974 94.39675,139.974 C93.92075,139.974 93.55675,140.156 93.55675,140.506 C93.55675,140.842 93.79475,140.954 94.22875,141.094 L94.92875,141.304 C96.11875,141.64 96.66475,142.2 96.66475,143.208 C96.66475,144.468 95.55875,145.14 94.08875,145.14 C93.26275,145.14 92.40875,144.916 91.87675,144.51 L91.87675,142.9 C92.47875,143.446 93.34675,143.768 94.03275,143.768 C94.55075,143.768 94.95675,143.614 94.95675,143.236 C94.95675,142.886 94.67675,142.76 94.24275,142.62 L93.64075,142.452 C92.54875,142.158 91.86275,141.64 91.86275,140.562 C91.86275,139.344 92.91275,138.602 94.31275,138.602 Z M41.6923723,137.617202 C42.3076055,137.617202 43.0253776,137.671889 43.6747904,137.774428 L43.4355331,138.587903 C42.6767455,138.512708 41.9794812,138.471692 41.5214742,138.471692 C39.7236261,138.471692 38.6914015,138.963879 38.6914015,139.825205 C38.6914015,140.194345 38.9785103,140.474618 39.4775328,140.611336 L41.4872946,141.171882 C42.4238163,141.424812 42.9501824,142.040045 42.9501824,142.860356 C42.9501824,144.309572 41.5966694,145.136718 39.2382755,145.136718 C38.2197227,145.136718 37.3173807,145.03418 36.7705067,144.863282 L37.0371078,143.995119 C37.9326139,144.179689 38.7871044,144.282228 39.3886658,144.282228 C41.0634673,144.282228 42.0273326,143.783205 42.0273326,142.915043 C42.0273326,142.470708 41.6787005,142.11524 41.0771391,141.944342 L39.0537055,141.356452 C38.2333946,141.117195 37.7617158,140.590829 37.7617158,139.914072 C37.7617158,138.45802 39.190424,137.617202 41.6923723,137.617202 Z M47.4414005,134.609395 C49.1777253,134.609395 49.9160051,135.545916 49.4374904,137.343765 L48.4462814,141.117195 C48.1660085,142.169927 48.1386648,142.730473 48.1386648,143.017582 C48.1318288,143.872072 48.5761639,144.282228 49.4990137,144.282228 C49.9912003,144.282228 50.4355354,144.131838 50.9960812,143.790041 L51.3173696,144.541993 C50.7089724,144.917969 50.0869032,145.136718 49.3691312,145.136718 C47.9130792,145.136718 47.215815,144.459962 47.215815,143.065433 C47.215815,142.689458 47.2499946,142.11524 47.5165956,141.117195 L48.5351484,137.227554 C48.8496009,136.017595 48.480461,135.457049 47.2226509,135.457049 C46.8945265,135.457049 46.5527303,135.498065 46.21777,135.593768 L46.0537078,134.787129 C46.5117147,134.657246 46.9765576,134.609395 47.4414005,134.609395 Z M55.412104,137.617202 C57.0732337,137.617202 57.8046776,138.505872 57.3945221,140.167001 C57.1621007,141.144539 56.6357345,141.841803 56.5742112,142.791996 C56.5058519,143.77637 57.0048744,144.282228 58.0029194,144.282228 C58.5361215,144.282228 58.8710818,144.166017 59.4316276,143.865237 L59.7324083,144.562501 C59.212878,144.883789 58.6660041,145.136718 57.9208883,145.136718 C56.3417898,145.136718 55.5488225,144.350587 55.6445255,142.85352 C55.7060488,141.834967 56.2871024,140.884773 56.499016,140.030283 C56.7656171,139.004894 56.2871024,138.464856 55.1933544,138.464856 C54.7763631,138.464856 54.3593717,138.512708 53.9423803,138.622082 L53.7988259,137.808607 C54.332028,137.658217 54.872066,137.617202 55.412104,137.617202 Z M73.5888585,135.559588 L73.2060467,137.75392 L76.5146341,137.75392 L76.3710797,138.587903 L73.0556564,138.587903 L72.638665,140.980476 C72.4677669,141.958014 72.3857358,142.368169 72.3857358,142.928715 C72.3857358,143.831057 72.8574145,144.282228 73.7802643,144.282228 C74.4912005,144.282228 74.9423715,144.172853 75.6806513,143.851565 L75.8583854,144.63086 C75.2294803,144.911133 74.5595597,145.136718 73.6503818,145.136718 C72.187494,145.136718 71.462886,144.432618 71.462886,143.017582 C71.462886,142.422856 71.5380811,141.978521 71.7158152,140.980476 L72.1328066,138.587903 L70.0957011,138.587903 L70.2392555,137.75392 L72.2831969,137.75392 L72.6660087,135.559588 L73.5888585,135.559588 Z M88.01275,138.602 C89.73475,138.602 90.70075,139.484 90.70075,141.01 L90.70075,145 L89.03475,145 L89.03475,144.664 C88.82475,144.874 88.20875,145.112 87.52275,145.112 C86.26275,145.112 85.21275,144.384 85.21275,143.082 C85.21275,141.892 86.26275,141.08 87.63475,141.08 C88.18075,141.08 88.78275,141.262 89.03475,141.444 L89.03475,141.094 C89.03475,140.492 88.51675,140.114 87.63475,140.114 C87.00475,140.114 86.41675,140.296 85.92675,140.618 L85.92675,139.12 C86.37475,138.84 87.18675,138.602 88.01275,138.602 Z M36.4765463,135.292987 L36.326156,136.133806 L31.0419864,136.133806 L30.4130813,139.71583 L34.4736205,139.71583 L34.3232301,140.563485 L30.262691,140.563485 L29.6337859,144.159181 L34.9111196,144.159181 L34.7675652,145 L28.5673817,145 L30.1259725,136.133806 L30.2763628,135.292987 L36.4765463,135.292987 Z M66.0556541,137.617202 C67.6279167,137.617202 68.2568217,138.512708 67.9560411,140.235361 L67.1152224,145 L66.1855366,145 L67.0331913,140.180673 C67.2314331,139.04591 66.8486213,138.471692 65.7822171,138.471692 C64.4833914,138.471692 63.4033154,139.449229 62.8359336,142.313482 L62.3642549,145 L61.4345691,145 L62.712887,137.75392 L63.4716746,137.75392 L63.2871047,139.722666 L63.3964794,139.722666 C63.7587834,138.382825 64.702141,137.617202 66.0556541,137.617202 Z M83.40675,137.048 L83.40675,138.742 L84.73675,138.742 L84.73675,140.142 L83.40675,140.142 L83.40675,145 L81.67075,145 L81.67075,140.142 L80.48075,140.142 L80.48075,138.742 L81.67075,138.742 L81.67075,137.048 L83.40675,137.048 Z M99.56275,135.9 L99.56275,141.22 L101.70475,138.742 L103.79075,138.742 L101.18675,141.612 L103.84675,145 L101.81675,145 L99.56275,142.116 L99.56275,145 L97.82675,145 L97.82675,135.9 L99.56275,135.9 Z M87.92875,142.298 C87.38275,142.298 86.82275,142.536 86.82275,143.068 C86.82275,143.614 87.38275,143.838 87.92875,143.838 C88.41875,143.838 88.88075,143.628 89.03475,143.292 L89.03475,142.844 C88.88075,142.508 88.41875,142.298 87.92875,142.298 Z M57.7978417,134.588887 C58.2353408,134.588887 58.5908089,134.944355 58.5908089,135.381854 C58.5908089,135.819353 58.2353408,136.174822 57.7978417,136.174822 C57.3603425,136.174822 57.0048744,135.819353 57.0048744,135.381854 C57.0048744,134.944355 57.3603425,134.588887 57.7978417,134.588887 Z" id="Combined-Shape" fill="#FFFFFF"></path>
        <path d="M12.3527668,85 L167.647233,85 C171.544836,85 173.254599,85.4641281 174.884229,86.3356635 C176.513858,87.207199 177.792801,88.4861419 178.664336,90.1157715 C179.535872,91.7454011 180,93.4551641 180,97.3527668 L180,101.647233 C180,105.544836 179.535872,107.254599 178.664336,108.884229 C177.792801,110.513858 176.513858,111.792801 174.884229,112.664336 C173.254599,113.535872 171.544836,114 167.647233,114 L12.3527668,114 C8.45516415,114 6.74540111,113.535872 5.11577148,112.664336 C3.48614185,111.792801 2.20719898,110.513858 1.33566352,108.884229 C0.464128056,107.254599 9.4593914e-17,105.544836 -1.44065414e-16,101.647233 L2.88130828e-16,97.3527668 C-1.89187828e-16,93.4551641 0.464128056,91.7454011 1.33566352,90.1157715 C2.20719898,88.4861419 3.48614185,87.207199 5.11577148,86.3356635 C6.74540111,85.4641281 8.45516415,85 12.3527668,85 Z" id="Rectangle" fill="url(#linearGradient-2)"></path>
        <path d="M100.912095,96.6855608 L99.9550661,102.099613 C99.8251835,102.851565 100.091785,103.248048 100.789049,103.248048 L101.199204,103.248048 L101.062486,104.068359 L100.68651,104.068359 C99.3945202,104.068359 98.9706929,103.494142 99.1757707,102.133793 L99.052724,102.133793 C98.4511627,103.425782 97.3984303,104.143554 96.1132765,104.143554 C94.8144509,104.143554 94.076171,103.398439 94.076171,102.106449 C94.076171,98.8183693 96.9472593,96.6855608 100.782213,96.6855608 L100.912095,96.6855608 Z M116.52725,97.602 C117.15725,97.602 117.77325,97.742 118.22125,98.092 L118.22125,99.674 C117.80125,99.296 117.29725,99.114 116.73725,99.114 C115.81325,99.114 115.08525,99.758 115.08525,100.878 C115.08525,101.984 115.81325,102.642 116.73725,102.642 C117.29725,102.642 117.80125,102.446 118.22125,102.082 L118.22125,103.65 C117.77325,104 117.15725,104.14 116.52725,104.14 C114.74925,104.14 113.36325,102.88 113.36325,100.878 C113.36325,98.862 114.74925,97.602 116.52725,97.602 Z M166.43725,94.9 L166.43725,104 L164.68725,104 L164.68725,103.482 C164.40725,103.818 163.79125,104.14 163.11925,104.14 C161.29925,104.14 160.27725,102.67 160.27725,100.878 C160.27725,99.086 161.29925,97.602 163.11925,97.602 C163.79125,97.602 164.40725,97.924 164.68725,98.26 L164.68725,94.9 L166.43725,94.9 Z M122.09925,97.602 C123.91925,97.602 125.16525,98.946 125.16525,100.878 C125.16525,102.796 123.91925,104.14 122.09925,104.14 C120.27925,104.14 119.03325,102.796 119.03325,100.878 C119.03325,98.946 120.27925,97.602 122.09925,97.602 Z M104.863275,93.6093948 C106.5996,93.6093948 107.33788,94.5459165 106.859365,96.3437646 L105.868156,100.117195 C105.587883,101.169927 105.56054,101.730473 105.56054,102.017582 C105.553704,102.872072 105.998039,103.282228 106.920889,103.282228 C107.413075,103.282228 107.85741,103.131838 108.417956,102.790041 L108.739245,103.541993 C108.130847,103.917969 107.508778,104.136718 106.791006,104.136718 C105.334954,104.136718 104.63769,103.459962 104.63769,102.065433 C104.63769,101.689458 104.67187,101.11524 104.938471,100.117195 L105.957023,96.2275539 C106.271476,95.0175953 105.902336,94.4570495 104.644526,94.4570495 C104.316402,94.4570495 103.974605,94.498065 103.639645,94.5937679 L103.475583,93.7871289 C103.93359,93.6572463 104.398433,93.6093948 104.863275,93.6093948 Z M90.3369047,96.6172016 C91.7177614,96.6172016 92.5927598,97.1093881 93.0165871,98.121105 L92.3124869,98.6679789 C91.9091673,97.8134884 91.2324108,97.4716921 90.2343658,97.4716921 C88.4023381,97.4716921 87.1923794,98.9824314 87.1855435,101.279302 C87.1992154,102.543948 87.9169874,103.282228 89.1474538,103.282228 C90.0976473,103.282228 91.1025282,102.92676 91.8954955,102.379886 L92.2372917,103.118166 C91.3486215,103.733399 90.1728425,104.136718 88.9902276,104.136718 C87.2675746,104.136718 86.2626937,103.118166 86.2626937,101.388677 C86.2626937,98.5107527 87.8759719,96.6172016 90.3369047,96.6172016 Z M81.9765534,96.6172016 C83.5419801,96.6172016 84.4716659,97.6494262 84.4716659,99.3994228 C84.4716659,102.379886 83.0497936,104.136718 80.6503841,104.136718 C79.0849574,104.136718 78.1552717,103.125002 78.1552717,101.422856 C78.1552717,98.4013779 79.5771439,96.6172016 81.9765534,96.6172016 Z M72.0507755,93.6093948 C73.7871003,93.6093948 74.5253801,94.5459165 74.0468654,96.3437646 L73.0556564,100.117195 C72.7753835,101.169927 72.7480398,101.730473 72.7480398,102.017582 C72.7412038,102.872072 73.1855389,103.282228 74.1083887,103.282228 C74.6005753,103.282228 75.0449104,103.131838 75.6054562,102.790041 L75.9267446,103.541993 C75.3183474,103.917969 74.6962782,104.136718 73.9785062,104.136718 C72.5224542,104.136718 71.82519,103.459962 71.82519,102.065433 C71.82519,101.689458 71.8593696,101.11524 72.1259706,100.117195 L73.1445234,96.2275539 C73.4589759,95.0175953 73.089836,94.4570495 71.8320259,94.4570495 C71.5039015,94.4570495 71.1621053,94.498065 70.827145,94.5937679 L70.6630828,93.7871289 C71.1210897,93.6572463 71.5859326,93.6093948 72.0507755,93.6093948 Z M32.5732335,94.5595883 L32.1904217,96.7539201 L35.4990091,96.7539201 L35.3554547,97.5879029 L32.0400314,97.5879029 L31.62304,99.9804764 C31.4521419,100.958014 31.3701108,101.368169 31.3701108,101.928715 C31.3701108,102.831057 31.8417895,103.282228 32.7646393,103.282228 C33.4755755,103.282228 33.9267465,103.172853 34.6650263,102.851565 L34.8427604,103.63086 C34.2138553,103.911133 33.5439347,104.136718 32.6347568,104.136718 C31.171869,104.136718 30.447261,103.432618 30.447261,102.017582 C30.447261,101.422856 30.5224561,100.978521 30.7001902,99.9804764 L31.1171816,97.5879029 L29.0800761,97.5879029 L29.2236305,96.7539201 L31.2675719,96.7539201 L31.6503837,94.5595883 L32.5732335,94.5595883 Z M64.3876885,102.55762 C64.8251877,102.55762 65.1806557,102.913088 65.1806557,103.350587 C65.1806557,103.788086 64.8251877,104.136718 64.3876885,104.136718 C63.9501893,104.136718 63.5947213,103.788086 63.5947213,103.350587 C63.5947213,102.913088 63.9501893,102.55762 64.3876885,102.55762 Z M41.3505761,96.6172016 C42.7519406,96.6172016 43.5790875,97.3281377 43.5790875,98.5312604 C43.5790875,100.308601 41.5829976,101.251958 38.1992149,101.327154 C38.2607383,102.55762 39.0400337,103.282228 40.2910078,103.282228 C41.0361236,103.282228 41.9316297,103.029299 42.7245969,102.598635 L43.0390495,103.336915 C42.1708871,103.842774 41.1318265,104.136718 40.2294845,104.136718 C38.3906208,104.136718 37.3105448,103.049806 37.3105448,101.204107 C37.3105448,98.3671982 38.8486278,96.6172016 41.3505761,96.6172016 Z M57.1826085,94.5595883 L56.7997967,96.7539201 L60.1083841,96.7539201 L59.9648297,97.5879029 L56.6494064,97.5879029 L56.232415,99.9804764 C56.0615169,100.958014 55.9794858,101.368169 55.9794858,101.928715 C55.9794858,102.831057 56.4511645,103.282228 57.3740143,103.282228 C58.0849505,103.282228 58.5361215,103.172853 59.2744013,102.851565 L59.4521354,103.63086 C58.8232303,103.911133 58.1533097,104.136718 57.2441318,104.136718 C55.781244,104.136718 55.056636,103.432618 55.056636,102.017582 C55.056636,101.422856 55.1318311,100.978521 55.3095652,99.9804764 L55.7265566,97.5879029 L53.6894511,97.5879029 L53.8330055,96.7539201 L55.8769469,96.7539201 L56.2597587,94.5595883 L57.1826085,94.5595883 Z M49.8954973,96.6172016 C50.5107305,96.6172016 51.2285026,96.671889 51.8779154,96.7744278 L51.6386581,97.5879029 C50.8798705,97.5127077 50.1826062,97.4716921 49.7245992,97.4716921 C47.9267511,97.4716921 46.8945265,97.9638787 46.8945265,98.8252052 C46.8945265,99.1943451 47.1816353,99.474618 47.6806578,99.6113365 L49.6904196,100.171882 C50.6269413,100.424812 51.1533074,101.040045 51.1533074,101.860356 C51.1533074,103.309572 49.7997944,104.136718 47.4414005,104.136718 C46.4228477,104.136718 45.5205057,104.03418 44.9736317,103.863282 L45.2402328,102.995119 C46.1357389,103.179689 46.9902294,103.282228 47.5917908,103.282228 C49.2665923,103.282228 50.2304576,102.783205 50.2304576,101.915043 C50.2304576,101.470708 49.8818255,101.11524 49.2802641,100.944342 L47.2568305,100.356452 C46.4365196,100.117195 45.9648408,99.5908287 45.9648408,98.9140722 C45.9648408,97.4580203 47.393549,96.6172016 49.8954973,96.6172016 Z M149.46925,97.602 C151.19125,97.602 152.15725,98.484 152.15725,100.01 L152.15725,104 L150.49125,104 L150.49125,103.664 C150.28125,103.874 149.66525,104.112 148.97925,104.112 C147.71925,104.112 146.66925,103.384 146.66925,102.082 C146.66925,100.892 147.71925,100.08 149.09125,100.08 C149.63725,100.08 150.23925,100.262 150.49125,100.444 L150.49125,100.094 C150.49125,99.492 149.97325,99.114 149.09125,99.114 C148.46125,99.114 147.87325,99.296 147.38325,99.618 L147.38325,98.12 C147.83125,97.84 148.64325,97.602 149.46925,97.602 Z M133.15925,97.602 C134.44725,97.602 135.21725,98.498 135.21725,99.912 L135.21725,104 L133.48125,104 L133.48125,100.276 C133.48125,99.604 133.18725,99.156 132.58525,99.156 C132.13725,99.156 131.73125,99.436 131.61925,99.968 L131.61925,104 L129.86925,104 L129.86925,100.276 C129.86925,99.604 129.58925,99.156 128.98725,99.156 C128.53925,99.156 128.11925,99.436 128.00725,99.968 L128.00725,104 L126.27125,104 L126.27125,97.742 L128.00725,97.742 L128.00725,98.26 C128.31525,97.868 128.88925,97.602 129.58925,97.602 C130.33125,97.602 130.91925,97.938 131.26925,98.4 C131.67525,97.952 132.27725,97.602 133.15925,97.602 Z M157.01525,97.602 C158.42925,97.602 159.22725,98.526 159.22725,99.912 L159.22725,104 L157.49125,104 L157.49125,100.276 C157.49125,99.618 157.15525,99.17 156.46925,99.17 C155.93725,99.17 155.47525,99.492 155.33525,100.038 L155.33525,104 L153.59925,104 L153.59925,97.742 L155.33525,97.742 L155.33525,98.316 C155.67125,97.924 156.28725,97.602 157.01525,97.602 Z M143.54725,97.602 C144.83525,97.602 145.60525,98.498 145.60525,99.912 L145.60525,104 L143.86925,104 L143.86925,100.276 C143.86925,99.604 143.57525,99.156 142.97325,99.156 C142.52525,99.156 142.11925,99.436 142.00725,99.968 L142.00725,104 L140.25725,104 L140.25725,100.276 C140.25725,99.604 139.97725,99.156 139.37525,99.156 C138.92725,99.156 138.50725,99.436 138.39525,99.968 L138.39525,104 L136.65925,104 L136.65925,97.742 L138.39525,97.742 L138.39525,98.26 C138.70325,97.868 139.27725,97.602 139.97725,97.602 C140.71925,97.602 141.30725,97.938 141.65725,98.4 C142.06325,97.952 142.66525,97.602 143.54725,97.602 Z M99.8251835,97.5879029 C96.9335874,97.9023554 95.0058567,99.6660239 95.0058567,102.024418 C95.0058567,102.831057 95.4980433,103.289064 96.3251902,103.289064 C97.8359295,103.289064 99.052724,101.962895 99.4628795,99.6250083 Z M81.8535068,97.4716921 C80.117182,97.4716921 79.0849574,98.8730567 79.0849574,101.238287 C79.0849574,102.52344 79.7275343,103.289064 80.8281181,103.289064 C82.5370992,103.289064 83.5488161,101.887699 83.5488161,99.5156336 C83.5488161,98.2304798 82.9267469,97.4716921 81.8535068,97.4716921 Z M149.38525,101.298 C148.83925,101.298 148.27925,101.536 148.27925,102.068 C148.27925,102.614 148.83925,102.838 149.38525,102.838 C149.87525,102.838 150.33725,102.628 150.49125,102.292 L150.49125,101.844 C150.33725,101.508 149.87525,101.298 149.38525,101.298 Z M122.09925,99.072 C121.23125,99.072 120.75525,99.828 120.75525,100.878 C120.75525,101.914 121.23125,102.67 122.09925,102.67 C122.96725,102.67 123.44325,101.914 123.44325,100.878 C123.44325,99.828 122.96725,99.072 122.09925,99.072 Z M163.51125,99.114 C162.57325,99.114 162.01325,99.87 162.01325,100.878 C162.01325,101.872 162.57325,102.628 163.51125,102.628 C164.02925,102.628 164.49125,102.334 164.68725,101.9 L164.68725,99.842 C164.49125,99.422 164.01525,99.114 163.51125,99.114 Z M41.2480373,97.4716921 C39.5458921,97.4716921 38.4248004,98.6269634 38.2265586,100.547858 C41.0634673,100.472663 42.6562377,99.8164142 42.6562377,98.572276 C42.6562377,97.8886835 42.1435434,97.4716921 41.2480373,97.4716921 Z M65.4404209,96.6172016 C65.87792,96.6172016 66.2333881,96.9726697 66.2333881,97.4101688 C66.2333881,97.847668 65.87792,98.1963001 65.4404209,98.1963001 C65.0029217,98.1963001 64.6474536,97.847668 64.6474536,97.4101688 C64.6474536,96.9726697 65.0029217,96.6172016 65.4404209,96.6172016 Z" id="Combined-Shape" fill="#FFFFFF"></path>
        <path d="M19.1513859,93.3126148 C20.5382275,93.3126148 21.6624643,94.4368994 21.6624643,95.8236994 C21.6624643,97.2105932 20.5382275,98.3348778 19.1513859,98.3348778 L17.9736195,98.3348778 L17.9736195,100.290408 L19.1513859,100.290408 C20.5382275,100.290408 21.6624643,101.414692 21.6624643,102.801544 C21.6624643,104.188386 20.5382275,105.312628 19.1513859,105.312628 C17.7644889,105.312628 16.6402521,104.188386 16.6402521,102.801544 L16.6402521,101.623776 L14.6847278,101.623776 L14.6847278,102.801544 C14.6847278,104.188386 13.5603971,105.312628 12.1735513,105.312628 C10.7867523,105.312628 9.66246432,104.188386 9.66246432,102.801544 C9.66246432,101.414692 10.7867523,100.290408 12.1735513,100.290408 L13.3513646,100.290408 L13.3513646,98.3348778 L12.1735513,98.3348778 C10.7867523,98.3348778 9.66246432,97.2105932 9.66246432,95.8236994 C9.66246432,94.4368994 10.7867523,93.3126148 12.1735513,93.3126148 C13.5603971,93.3126148 14.6847278,94.4368994 14.6847278,95.8236994 L14.6847278,97.0015136 L16.6402521,97.0015136 L16.6402521,95.8236994 C16.6402521,94.4368994 17.7644889,93.3126148 19.1513859,93.3126148 Z M19.1513859,101.623776 L17.9736195,101.623776 L17.9736195,102.801544 C17.9736195,103.451972 18.5009539,103.979307 19.1513859,103.979307 C19.8018649,103.979307 20.3291523,103.451972 20.3291523,102.801544 C20.3291523,102.151107 19.8018649,101.623776 19.1513859,101.623776 Z M13.3513646,101.623776 L12.1735513,101.623776 C11.6972035,101.623776 11.2677081,101.910654 11.0854361,102.350825 C10.9031214,102.790864 11.0039257,103.297553 11.3407534,103.634338 C11.6775897,103.971217 12.1841795,104.072017 12.6243075,103.889655 C13.0643417,103.707383 13.3513646,103.277887 13.3513646,102.801544 L13.3513646,101.623776 Z M16.6402521,98.3348778 L14.6847278,98.3348778 L14.6847278,100.290408 L16.6402521,100.290408 L16.6402521,98.3348778 Z M19.1513859,94.6459321 C18.5009539,94.6459321 17.9736195,95.17322 17.9736195,95.8236994 L17.9736195,97.0015136 L19.1513859,97.0015136 C19.8018649,97.0015136 20.3291523,96.4741788 20.3291523,95.8236994 C20.3291523,95.17322 19.8018649,94.6459321 19.1513859,94.6459321 Z M12.1735513,94.6459321 C11.5230723,94.6459321 10.9957849,95.17322 10.9957849,95.8236994 C10.9957849,96.4741788 11.5230723,97.0015136 12.1735513,97.0015136 L13.3513646,97.0015136 L13.3513646,95.8236994 C13.3513646,95.17322 12.8240302,94.6459321 12.1735513,94.6459321 Z" id="Combined-Shape" fill="#FFFFFF" fill-rule="nonzero"></path>
        <path d="M12.3527668,0.588235294 L123.647233,0.588235294 C127.544836,0.588235294 129.254599,1.05236335 130.884229,1.92389881 C132.513858,2.79543428 133.792801,4.07437715 134.664336,5.70400678 C135.535872,7.33363641 136,9.04339944 136,12.9410021 L136,17.2354685 C136,21.1330711 135.535872,22.8428342 134.664336,24.4724638 C133.792801,26.1020934 132.513858,27.3810363 130.884229,28.2525718 C129.254599,29.1241072 127.544836,29.5882353 123.647233,29.5882353 L12.3527668,29.5882353 C8.45516415,29.5882353 6.74540111,29.1241072 5.11577148,28.2525718 C3.48614185,27.3810363 2.20719898,26.1020934 1.33566352,24.4724638 C0.464128056,22.8428342 9.4593914e-17,21.1330711 -1.44065414e-16,17.2354685 L2.88130828e-16,12.9410021 C-1.89187828e-16,9.04339944 0.464128056,7.33363641 1.33566352,5.70400678 C2.20719898,4.07437715 3.48614185,2.79543428 5.11577148,1.92389881 C6.74540111,1.05236335 8.45516415,0.588235294 12.3527668,0.588235294 Z" id="Rectangle" fill="#262A33"></path>
        <path d="M40.7216711,12.2054369 C42.6425658,12.2054369 43.6406108,13.5179344 43.6406108,16.0335546 C43.6406108,18.4603078 42.6494018,19.7249538 40.7490148,19.7249538 C39.3955017,19.7249538 38.64355,19.075541 38.4589801,18.0091367 L38.3701131,18.0091367 L38.3701131,22.7327605 L37.4609351,22.7327605 L37.4609351,12.3421554 L38.2333946,12.3421554 L38.3564412,13.8665665 L38.4316364,13.8665665 C38.6230423,12.7864905 39.4296813,12.2054369 40.7216711,12.2054369 Z M121.823235,10.1546595 L121.823235,12.3421554 L125.166002,12.3421554 L125.166002,13.1761381 L121.823235,13.1761381 L121.823235,16.7855063 C121.823235,18.2005426 122.445304,18.8704632 123.785146,18.8704632 C124.311512,18.8704632 124.790027,18.8157758 125.336901,18.7337447 L125.439439,19.5608916 C124.831042,19.6702664 124.291004,19.7249538 123.648427,19.7249538 C121.78222,19.7249538 120.907221,18.7884321 120.907221,16.806014 L120.907221,13.1761381 L118.822265,13.1761381 L118.822265,12.3421554 L120.907221,12.3421554 L120.907221,10.1546595 L121.823235,10.1546595 Z M115.06249,12.2054369 C115.698231,12.2054369 116.197254,12.2464524 116.867174,12.3421554 L116.764636,13.1556304 C116.026356,13.0872711 115.506825,13.0599274 115.021475,13.0599274 C113.073236,13.0599274 112.252925,13.4153955 112.252925,14.2562142 C112.252925,14.7620726 112.669917,15.0970329 113.647454,15.3294544 L114.94628,15.6439069 C116.436511,16.0062109 117.05858,16.6146082 117.05858,17.6810124 C117.05858,19.1165565 116.01952,19.7249538 113.572259,19.7249538 C112.512691,19.7249538 111.801754,19.6634305 111.207029,19.519876 L111.316404,18.6517136 C112.252925,18.802104 112.922846,18.8704632 113.572259,18.8704632 C115.356435,18.8704632 116.122059,18.5149952 116.122059,17.6878483 C116.122059,17.1136306 115.766591,16.7649985 114.94628,16.5599208 L113.31933,16.1497653 C111.911129,15.7942972 111.316404,15.2337514 111.316404,14.276722 C111.316404,12.8138342 112.430659,12.2054369 115.06249,12.2054369 Z M105.963859,12.2054369 C107.836903,12.2054369 108.923815,13.4222314 108.923815,15.5687117 C108.923815,15.8353128 108.910143,16.088242 108.882799,16.2796479 L103.694332,16.2796479 C103.844723,17.9476134 104.924799,18.8841351 106.729483,18.8841351 C107.269521,18.8841351 107.884754,18.8157758 108.438464,18.6927292 L108.568347,19.5335479 C107.932606,19.6634305 107.214833,19.7249538 106.565421,19.7249538 C104.166011,19.7249538 102.798826,18.3372611 102.798826,15.8968361 C102.798826,13.552114 103.954098,12.2054369 105.963859,12.2054369 Z M97.2138603,10.1546595 L97.2138603,12.3421554 L100.556627,12.3421554 L100.556627,13.1761381 L97.2138603,13.1761381 L97.2138603,16.7855063 C97.2138603,18.2005426 97.8359295,18.8704632 99.1757707,18.8704632 C99.7021368,18.8704632 100.180652,18.8157758 100.727526,18.7337447 L100.830064,19.5608916 C100.221667,19.6702664 99.6816291,19.7249538 99.0390522,19.7249538 C97.1728448,19.7249538 96.2978465,18.7884321 96.2978465,16.806014 L96.2978465,13.1761381 L94.2128895,13.1761381 L94.2128895,12.3421554 L96.2978465,12.3421554 L96.2978465,10.1546595 L97.2138603,10.1546595 Z M71.0322227,12.3421554 L71.0322227,17.1273025 C71.0322227,18.2483941 71.6953074,18.8704632 72.816399,18.8704632 C74.1494043,18.8704632 74.8466686,18.1390193 74.8466686,16.2386323 L74.8466686,12.3421554 L75.7558465,12.3421554 L75.7558465,18.8157758 L76.7538915,18.9114788 L76.7538915,19.5882353 L74.9697152,19.6565945 L74.89452,18.1937067 L74.7783093,18.1937067 C74.5185442,19.1712439 73.7324129,19.7249538 72.631829,19.7249538 C71.0322227,19.7249538 70.1230448,18.7815962 70.1230448,17.1273025 L70.1230448,12.3421554 L71.0322227,12.3421554 Z M50.2714732,12.2054369 C51.2626822,12.2054369 51.734361,12.7523108 51.734361,13.914418 L51.734361,19.5882353 L50.8251831,19.5882353 L50.8251831,14.0511365 C50.8251831,13.3333644 50.5517461,12.9915682 49.9706925,12.9915682 C49.2665923,12.9915682 48.9247961,13.4222314 48.9247961,14.2835579 L48.9247961,19.5882353 L48.0908133,19.5882353 L48.0908133,13.914418 C48.0908133,13.2991848 47.8037045,12.9915682 47.2294868,12.9915682 C46.5390584,12.9915682 46.1904263,13.4222314 46.1904263,14.2835579 L46.1904263,19.5882353 L45.2812483,19.5882353 L45.2812483,12.3421554 L46.0742156,12.3421554 L46.1425748,13.2444974 L46.2109341,13.2444974 C46.3408166,12.5472331 46.7919876,12.2054369 47.5849549,12.2054369 C48.295891,12.2054369 48.7402261,12.5472331 48.8769446,13.2444974 L48.9384679,13.2444974 C49.0478427,12.5950846 49.4921778,12.2054369 50.2714732,12.2054369 Z M66.3701066,12.2054369 C67.9150255,12.2054369 68.5781102,13.012076 68.5781102,14.9261348 L67.6620963,14.9261348 C67.6620963,13.5931295 67.238269,13.0325837 66.2538959,13.0325837 C64.8388595,13.0325837 64.1552671,14.276722 64.1552671,16.4710537 L64.1552671,18.7542525 L66.1992085,18.7542525 L66.1992085,19.5882353 L61.4687487,19.5882353 L61.4687487,18.7542525 L63.2392532,18.7542525 L63.2392532,13.1761381 L61.7421857,13.1761381 L61.7421857,12.3421554 L63.9706971,12.3421554 L64.1347593,14.2015268 L64.2372982,14.2015268 C64.4013603,12.8685215 65.1122965,12.2054369 66.3701066,12.2054369 Z M81.6005776,12.2054369 C83.2275276,12.2054369 84.1640493,13.1761381 84.1640493,14.8714474 L84.1640493,19.5882353 L83.2548713,19.5882353 L83.2548713,14.8509396 C83.2548713,13.7025043 82.6122944,13.0599274 81.5253824,13.0599274 C80.110346,13.0599274 79.3857381,13.8597306 79.3857381,15.4935165 L79.3857381,19.5882353 L78.4765601,19.5882353 L78.4765601,12.3421554 L79.303707,12.3421554 L79.3720662,13.6546529 L79.4677691,13.6546529 C79.6728469,12.6839516 80.3701112,12.2054369 81.6005776,12.2054369 Z M32.3818276,12.2054369 C34.0087776,12.2054369 34.9452993,13.1761381 34.9452993,14.8714474 L34.9452993,19.5882353 L34.0361213,19.5882353 L34.0361213,14.8509396 C34.0361213,13.7025043 33.3935444,13.0599274 32.3066324,13.0599274 C30.891596,13.0599274 30.1669881,13.8597306 30.1669881,15.4935165 L30.1669881,19.5882353 L29.2578101,19.5882353 L29.2578101,12.3421554 L30.084957,12.3421554 L30.1533162,13.6546529 L30.2490191,13.6546529 C30.4540969,12.6839516 31.1513612,12.2054369 32.3818276,12.2054369 Z M40.5576089,13.0325837 C39.1220647,13.0325837 38.3701131,14.003285 38.3701131,15.8626565 L38.3701131,16.0745701 C38.3701131,17.9271056 39.1152288,18.8978069 40.550773,18.8978069 C41.9794812,18.8978069 42.7245969,17.9134338 42.7245969,16.0335546 C42.7245969,14.0579724 41.9863171,13.0325837 40.5576089,13.0325837 Z M105.977531,13.0462556 C104.630854,13.0462556 103.810543,13.9417617 103.694332,15.5003525 L108.048816,15.5003525 C108.048816,13.9349258 107.290029,13.0462556 105.977531,13.0462556 Z" id="Combined-Shape" fill="#FFFFFF"></path>
        <path d="M18.285298,9.58823529 C19.229259,9.58823529 19.5715621,9.68652124 19.9166602,9.87108169 C20.2617582,10.0556421 20.5325932,10.3264771 20.7171536,10.6715751 C20.9017141,11.0166732 21,11.3589763 21,12.3029373 L21,17.4617686 C21,18.4057296 20.9017141,18.7480327 20.7171536,19.0931307 C20.5325932,19.4382288 20.2617582,19.7090637 19.9166602,19.8936242 C19.5715621,20.0781846 19.229259,20.1764706 18.285298,20.1764706 L11.714702,20.1764706 C10.770741,20.1764706 10.4284379,20.0781846 10.0833398,19.8936242 C9.7382418,19.7090637 9.46740684,19.4382288 9.28284639,19.0931307 C9.09828594,18.7480327 9,18.4057296 9,17.4617686 L9,12.3029373 C9,11.3589763 9.09828594,11.0166732 9.28284639,10.6715751 C9.46740684,10.3264771 9.7382418,10.0556421 10.0833398,9.87108169 C10.4284379,9.68652124 10.770741,9.58823529 11.714702,9.58823529 L18.285298,9.58823529 Z M18.285298,10.6470588 L11.714702,10.6470588 C11.0139176,10.6470588 10.800509,10.6882699 10.5826798,10.8047662 C10.4221013,10.8906446 10.3024093,11.0103366 10.216531,11.1709151 C10.1000346,11.3887443 10.0588235,11.6021529 10.0588235,12.3029373 L10.0588235,17.4617686 C10.0588235,18.162553 10.1000346,18.3759616 10.216531,18.5937908 C10.3024093,18.7543693 10.4221013,18.8740613 10.5826798,18.9599396 C10.800509,19.076436 11.0139176,19.1176471 11.714702,19.1176471 L18.285298,19.1176471 C18.9860824,19.1176471 19.199491,19.076436 19.4173202,18.9599396 C19.5778987,18.8740613 19.6975907,18.7543693 19.783469,18.5937908 C19.8999654,18.3759616 19.9411765,18.162553 19.9411765,17.4617686 L19.9411765,12.3029373 C19.9411765,11.6021529 19.8999654,11.3887443 19.783469,11.1709151 C19.6975907,11.0103366 19.5778987,10.8906446 19.4173202,10.8047662 C19.199491,10.6882699 18.9860824,10.6470588 18.285298,10.6470588 Z M11.8708916,11.838728 L14.5177953,14.5620096 C14.6901467,14.7392789 14.6901467,15.0257461 14.5177953,15.2030154 L11.8708916,17.9258716 C11.6985402,18.1031409 11.4191931,18.1031409 11.2468692,17.9258716 C11.074573,17.7486023 11.074573,17.4621351 11.2468692,17.2848658 L13.5815825,14.8825125 L11.2468692,12.4805846 C11.074573,12.3033153 11.074573,12.0159972 11.2468692,11.838728 C11.4191931,11.6616005 11.6985402,11.6616005 11.8708916,11.838728 Z M18.7860963,17 C19.0345588,17 19.2352941,17.2365809 19.2352941,17.5294118 C19.2352941,17.8222426 19.0345588,18.0588235 18.7860963,18.0588235 L14.7433155,18.0588235 C14.4948529,18.0588235 14.2941176,17.8222426 14.2941176,17.5294118 C14.2941176,17.2365809 14.4948529,17 14.7433155,17 L18.7860963,17 Z" id="Combined-Shape" fill="#FFFFFF" fill-rule="nonzero"></path>
        <path d="M85.3992844,40.1517082 L86.9967826,37.2453529 L87.2054431,36.8657333 L87.9473471,37.2928053 L87.7386866,37.6724249 L85.3446256,42.0279805 C85.1819128,42.3240065 84.7654343,42.3240065 84.6027215,42.0279805 L82.2086605,37.6724249 L82,37.2928053 L82.741904,36.8657333 L82.9505645,37.2453529 L84.5480627,40.1517082 L84.5480627,37.4588889 L84.5480627,30.4355556 L84.5480627,30 L85.3992844,30 L85.3992844,30.4355556 L85.3992844,37.4588889 L85.3992844,40.1517082 L85.3992844,40.1517082 Z" id="Line" fill="#262A33" fill-rule="nonzero"></path>
        <path d="M85.3992844,82.1517082 L86.9967826,79.2453529 L87.2054431,78.8657333 L87.9473471,79.2928053 L87.7386866,79.6724249 L85.3446256,84.0279805 C85.1819128,84.3240065 84.7654343,84.3240065 84.6027215,84.0279805 L82.2086605,79.6724249 L82,79.2928053 L82.741904,78.8657333 L82.9505645,79.2453529 L84.5480627,82.1517082 L84.5480627,79.4588889 L84.5480627,72.4355556 L84.5480627,72 L85.3992844,72 L85.3992844,72.4355556 L85.3992844,79.4588889 L85.3992844,82.1517082 L85.3992844,82.1517082 Z" id="Line" fill="#262A33" fill-rule="nonzero"></path>
        <path d="M85.3992844,124.151708 L86.9967826,121.245353 L87.2054431,120.865733 L87.9473471,121.292805 L87.7386866,121.672425 L85.3446256,126.02798 C85.1819128,126.324007 84.7654343,126.324007 84.6027215,126.02798 L82.2086605,121.672425 L82,121.292805 L82.741904,120.865733 L82.9505645,121.245353 L84.5480627,124.151708 L84.5480627,121.458889 L84.5480627,114.435556 L84.5480627,114 L85.3992844,114 L85.3992844,114.435556 L85.3992844,121.458889 L85.3992844,124.151708 L85.3992844,124.151708 Z" id="Line" fill="#262A33" fill-rule="nonzero"></path>
        <path d="M10.3527668,43 L155.647233,43 C159.544836,43 161.254599,43.4641281 162.884229,44.3356635 C164.513858,45.207199 165.792801,46.4861419 166.664336,48.1157715 C167.535872,49.7454011 168,51.4551641 168,55.3527668 L168,59.6472332 C168,63.5448359 167.535872,65.2545989 166.664336,66.8842285 C165.792801,68.5138581 164.513858,69.792801 162.884229,70.6643365 C161.254599,71.5358719 159.544836,72 155.647233,72 L10.3527668,72 C6.45516415,72 4.74540111,71.5358719 3.11577148,70.6643365 C1.48614185,69.792801 0.207198982,68.5138581 -0.664336481,66.8842285 C-1.53587194,65.2545989 -2,63.5448359 -2,59.6472332 L-2,55.3527668 C-2,51.4551641 -1.53587194,49.7454011 -0.664336481,48.1157715 C0.207198982,46.4861419 1.48614185,45.207199 3.11577148,44.3356635 C4.74540111,43.4641281 6.45516415,43 10.3527668,43 Z" id="Rectangle" fill="url(#linearGradient-3)"></path>
        <path d="M29.1249979,62.2363372 C29.7607388,62.2363372 30.2441363,62.6171959 30.1269491,63.2675852 C30.0683554,63.6044987 29.8867152,63.8945372 29.8867152,64.2519584 C29.8867152,64.5390672 30.4843703,64.7001997 30.7949165,64.7001997 L30.7949165,65.1630894 C30.4726515,65.1630894 29.8867152,65.2509799 29.8867152,65.5585965 C29.8867152,65.9013693 30.0683554,66.2060562 30.1269491,66.5429696 C30.247066,67.2197261 29.7607388,67.6269519 29.1249979,67.6269519 C28.8964827,67.6269519 28.7558579,67.6035145 28.6269519,67.5683583 L28.6972643,67.0585936 C28.8349593,67.0761717 28.9638653,67.0878905 29.0722636,67.0878905 C29.3505834,67.0878905 29.5615205,66.8886721 29.4999971,66.5429696 C29.4414035,66.2119156 29.2480445,65.9248067 29.2480445,65.5703152 C29.2480445,65.212894 29.5761689,64.9902382 30.1328084,64.9814492 L30.1328084,64.88184 C29.5761689,64.8730509 29.2480445,64.6445357 29.2480445,64.2402396 C29.2480445,63.9003965 29.4414035,63.6132877 29.4999971,63.2675852 C29.5527314,62.957039 29.3505834,62.7753987 29.0722636,62.7753987 C28.9638653,62.7753987 28.8349593,62.7871174 28.6972643,62.8046955 L28.6269519,62.2949308 C28.7558579,62.2597747 28.8964827,62.2363372 29.1249979,62.2363372 Z M159.900387,55.6054771 L159.900387,58.7988304 C159.900387,59.291017 159.999996,59.5019541 160.533198,59.5019541 C160.708979,59.5019541 160.896479,59.4667979 161.154291,59.3906262 L161.224603,59.935547 C160.908198,60.0234375 160.632808,60.0585936 160.298824,60.0585936 C159.578122,60.0585936 159.279295,59.6894537 159.279295,58.8281272 L159.279295,56.150398 L158.365234,56.150398 L158.365234,55.6054771 L159.900387,55.6054771 Z M155.283202,56.8652404 L155.910154,56.8740294 C156.935542,56.8886778 157.427729,57.3222707 157.427729,58.1425817 L157.427729,59.4375011 L157.955072,59.5019541 L157.955072,60 L156.95898,60.0292968 L156.929683,59.3437513 L156.86816,59.3437513 C156.824214,59.8212894 156.440426,60.0585936 155.863279,60.0585936 C155.215819,60.0585936 154.843749,59.7333989 154.843749,59.162111 C154.843749,58.5058622 155.353514,58.1425817 156.249997,58.1425817 C156.472653,58.1425817 156.666012,58.1572301 156.835933,58.1923863 L156.835933,58.0488318 C156.835933,57.6357467 156.542965,57.4511767 155.968747,57.4365283 L155.224608,57.4160206 L155.283202,56.8652404 Z M43.6679657,55.957039 L43.6679657,56.8945372 L45.0800724,56.8945372 L45.0800724,57.439458 L43.6679657,57.439458 L43.6679657,58.7988304 C43.6679657,59.291017 43.8906215,59.5019541 44.4414017,59.5019541 C44.6347607,59.5019541 44.8456978,59.4785166 45.1269473,59.4433604 L45.1972596,59.9882813 C44.9218695,60.0351562 44.6757763,60.0585936 44.3828081,60.0585936 C43.4394505,60.0585936 43.0468731,59.6894537 43.0468731,58.8281272 L43.0468731,57.439458 L42.2675777,57.439458 L42.2675777,56.8945372 L43.0468731,56.8945372 L43.0468731,55.957039 L43.6679657,55.957039 Z M47.3476529,56.8359435 C48.1855419,56.8359435 48.6660097,57.3574269 48.6660097,58.3242219 C48.6660097,58.470706 48.6601504,58.599612 48.6484316,58.7226587 L46.5507794,58.7226587 C46.6591776,59.2412124 47.051755,59.5136728 47.6757772,59.5136728 C47.9335893,59.5136728 48.1796825,59.484376 48.4374945,59.4316417 L48.5136663,59.9765625 C48.1445264,60.0468749 47.8398394,60.0585936 47.6054649,60.0585936 C46.54492,60.0585936 45.9472649,59.484376 45.9472649,58.4414092 C45.9472649,57.4277393 46.4570296,56.8359435 47.3476529,56.8359435 Z M121.011716,55.957039 L121.011716,56.8945372 L122.423822,56.8945372 L122.423822,57.439458 L121.011716,57.439458 L121.011716,58.7988304 C121.011716,59.291017 121.234372,59.5019541 121.785152,59.5019541 C121.978511,59.5019541 122.189448,59.4785166 122.470697,59.4433604 L122.54101,59.9882813 C122.26562,60.0351562 122.019526,60.0585936 121.726558,60.0585936 C120.7832,60.0585936 120.390623,59.6894537 120.390623,58.8281272 L120.390623,57.439458 L119.611328,57.439458 L119.611328,56.8945372 L120.390623,56.8945372 L120.390623,55.957039 L121.011716,55.957039 Z M153.021481,56.8359435 C153.624995,56.8359435 154.076166,57.0703181 154.260736,57.4804736 L153.783198,57.8408244 C153.607417,57.5566453 153.323238,57.3925831 152.998043,57.3925831 C152.412107,57.3925831 152.072264,57.761723 152.072264,58.4121124 C152.072264,59.1210954 152.467771,59.5019541 153.173824,59.5019541 C153.463863,59.5019541 153.753901,59.4726573 154.029291,59.4257823 L154.099604,59.9707032 C153.777339,60.0410155 153.428706,60.0585936 153.103512,60.0585936 C152.045897,60.0585936 151.445312,59.484376 151.445312,58.4414092 C151.445312,57.4277393 152.01074,56.8359435 153.021481,56.8359435 Z M149.289059,56.8359435 C150.150386,56.8359435 150.648432,57.4218799 150.648432,58.4472686 C150.648432,59.4726573 150.150386,60.0585936 149.289059,60.0585936 C148.427733,60.0585936 147.929687,59.4726573 147.929687,58.4472686 C147.929687,57.4218799 148.427733,56.8359435 149.289059,56.8359435 Z M51.2499959,56.8359435 C51.5488234,56.8359435 51.7949167,56.8535216 52.0703068,56.8945372 L52.0058538,57.4335986 C51.6894482,57.4043018 51.460933,57.3925831 51.2324178,57.3925831 C50.5351535,57.3925831 50.2421853,57.503911 50.2421853,57.7734417 C50.2421853,57.955082 50.3681616,58.0136757 50.6347627,58.0781287 L51.2089803,58.2187534 C51.8593697,58.3769562 52.1523379,58.6054714 52.1523379,59.1035173 C52.1523379,59.7714848 51.6894482,60.0585936 50.6113252,60.0585936 C50.1425761,60.0585936 49.8261705,60.0351562 49.5507804,59.9707032 L49.6210927,59.4082043 C50.0312482,59.4726573 50.3300758,59.5019541 50.6113252,59.5019541 C51.2382772,59.5019541 51.5078079,59.3847668 51.5078079,59.1152361 C51.5078079,58.9277364 51.4081987,58.8515647 51.203121,58.7988304 L50.4882786,58.6171901 C49.8759751,58.461917 49.5976553,58.2714877 49.5976553,57.8027386 C49.5976553,57.1230524 50.0898419,56.8359435 51.2499959,56.8359435 Z M145.837887,55.6054771 L145.837887,58.7988304 C145.837887,59.291017 145.937496,59.5019541 146.470698,59.5019541 C146.646479,59.5019541 146.833979,59.4667979 147.091791,59.3906262 L147.162103,59.935547 C146.845698,60.0234375 146.570308,60.0585936 146.236324,60.0585936 C145.515622,60.0585936 145.216795,59.6894537 145.216795,58.8281272 L145.216795,56.150398 L144.302734,56.150398 L144.302734,55.6054771 L145.837887,55.6054771 Z M142.257809,59.1914078 C142.498043,59.1914078 142.691402,59.3847668 142.691402,59.6250007 C142.691402,59.8652346 142.498043,60.0585936 142.257809,60.0585936 C142.017575,60.0585936 141.824216,59.8652346 141.824216,59.6250007 C141.824216,59.3847668 142.017575,59.1914078 142.257809,59.1914078 Z M86.0078091,56.8359435 C86.8691356,56.8359435 87.3671816,57.4218799 87.3671816,58.4472686 C87.3671816,59.4726573 86.8691356,60.0585936 86.0078091,60.0585936 C85.1464827,60.0585936 84.6484367,59.4726573 84.6484367,58.4472686 C84.6484367,57.4218799 85.1464827,56.8359435 86.0078091,56.8359435 Z M128.042966,55.957039 L128.042966,56.8945372 L129.455072,56.8945372 L129.455072,57.439458 L128.042966,57.439458 L128.042966,58.7988304 C128.042966,59.291017 128.265622,59.5019541 128.816402,59.5019541 C129.009761,59.5019541 129.220698,59.4785166 129.501947,59.4433604 L129.57226,59.9882813 C129.29687,60.0351562 129.050776,60.0585936 128.757808,60.0585936 C127.81445,60.0585936 127.421873,59.6894537 127.421873,58.8281272 L127.421873,57.439458 L126.642578,57.439458 L126.642578,56.8945372 L127.421873,56.8945372 L127.421873,55.957039 L128.042966,55.957039 Z M54.2148407,55.957039 L54.2148407,56.8945372 L55.6269474,56.8945372 L55.6269474,57.439458 L54.2148407,57.439458 L54.2148407,58.7988304 C54.2148407,59.291017 54.4374965,59.5019541 54.9882767,59.5019541 C55.1816357,59.5019541 55.3925728,59.4785166 55.6738223,59.4433604 L55.7441346,59.9882813 C55.4687445,60.0351562 55.2226513,60.0585936 54.9296831,60.0585936 C53.9863255,60.0585936 53.5937481,59.6894537 53.5937481,58.8281272 L53.5937481,57.439458 L52.8144527,57.439458 L52.8144527,56.8945372 L53.5937481,56.8945372 L53.5937481,55.957039 L54.2148407,55.957039 Z M82.7089806,56.8359435 C83.3124951,56.8359435 83.7636661,57.0703181 83.9482361,57.4804736 L83.4706979,57.8408244 C83.294917,57.5566453 83.0107378,57.3925831 82.6855432,57.3925831 C82.0996068,57.3925831 81.7597637,57.761723 81.7597637,58.4121124 C81.7597637,59.1210954 82.1552707,59.5019541 82.8613241,59.5019541 C83.1513626,59.5019541 83.4414011,59.4726573 83.7167912,59.4257823 L83.7871036,59.9707032 C83.4648385,60.0410155 83.1162064,60.0585936 82.7910117,60.0585936 C81.7333965,60.0585936 81.1328117,59.484376 81.1328117,58.4414092 C81.1328117,57.4277393 81.6982403,56.8359435 82.7089806,56.8359435 Z M131.722653,56.8359435 C132.560542,56.8359435 133.04101,57.3574269 133.04101,58.3242219 C133.04101,58.470706 133.03515,58.599612 133.023432,58.7226587 L130.925779,58.7226587 C131.034178,59.2412124 131.426755,59.5136728 132.050777,59.5136728 C132.308589,59.5136728 132.554683,59.484376 132.812495,59.4316417 L132.888666,59.9765625 C132.519526,60.0468749 132.214839,60.0585936 131.980465,60.0585936 C130.91992,60.0585936 130.322265,59.484376 130.322265,58.4414092 C130.322265,57.4277393 130.83203,56.8359435 131.722653,56.8359435 Z M96.4023407,55.957039 L96.4023407,56.8945372 L97.8144474,56.8945372 L97.8144474,57.439458 L96.4023407,57.439458 L96.4023407,58.7988304 C96.4023407,59.291017 96.6249965,59.5019541 97.1757767,59.5019541 C97.3691357,59.5019541 97.5800728,59.4785166 97.8613223,59.4433604 L97.9316346,59.9882813 C97.6562445,60.0351562 97.4101513,60.0585936 97.1171831,60.0585936 C96.1738255,60.0585936 95.7812481,59.6894537 95.7812481,58.8281272 L95.7812481,57.439458 L95.0019527,57.439458 L95.0019527,56.8945372 L95.7812481,56.8945372 L95.7812481,55.957039 L96.4023407,55.957039 Z M107.166012,55.6054771 L107.166012,58.7988304 C107.166012,59.291017 107.265621,59.5019541 107.798823,59.5019541 C107.974604,59.5019541 108.162104,59.4667979 108.419916,59.3906262 L108.490228,59.935547 C108.173823,60.0234375 107.898433,60.0585936 107.564449,60.0585936 C106.843747,60.0585936 106.54492,59.6894537 106.54492,58.8281272 L106.54492,56.150398 L105.630859,56.150398 L105.630859,55.6054771 L107.166012,55.6054771 Z M78.8242157,55.957039 L78.8242157,56.8945372 L80.2363224,56.8945372 L80.2363224,57.439458 L78.8242157,57.439458 L78.8242157,58.7988304 C78.8242157,59.291017 79.0468715,59.5019541 79.5976517,59.5019541 C79.7910107,59.5019541 80.0019478,59.4785166 80.2831973,59.4433604 L80.3535096,59.9882813 C80.0781195,60.0351562 79.8320263,60.0585936 79.5390581,60.0585936 C78.5957005,60.0585936 78.2031231,59.6894537 78.2031231,58.8281272 L78.2031231,57.439458 L77.4238277,57.439458 L77.4238277,56.8945372 L78.2031231,56.8945372 L78.2031231,55.957039 L78.8242157,55.957039 Z M75.4609341,56.8359435 C76.3222606,56.8359435 76.8203066,57.4218799 76.8203066,58.4472686 C76.8203066,59.4726573 76.3222606,60.0585936 75.4609341,60.0585936 C74.5996077,60.0585936 74.1015617,59.4726573 74.1015617,58.4472686 C74.1015617,57.4218799 74.5996077,56.8359435 75.4609341,56.8359435 Z M73.2109317,55.6054771 L73.2109317,60 L72.6542922,60.0292968 L72.5927688,59.4375011 L72.5312455,59.4375011 C72.4931597,59.8271488 72.1855431,60.0585936 71.7080049,60.0585936 C70.8935533,60.0585936 70.4687495,59.5166025 70.4687495,58.4765654 C70.4687495,57.3984425 70.8935533,56.8359435 71.7080049,56.8359435 C72.1738243,56.8359435 72.4814409,57.0673884 72.5312455,57.4570361 L72.5898392,57.4570361 L72.5898392,55.6054771 L73.2109317,55.6054771 Z M61.3984341,59.1914078 C61.6386681,59.1914078 61.8320271,59.3847668 61.8320271,59.6250007 C61.8320271,59.8652346 61.6386681,60.0585936 61.3984341,60.0585936 C61.1582002,60.0585936 60.9648412,59.8652346 60.9648412,59.6250007 C60.9648412,59.3847668 61.1582002,59.1914078 61.3984341,59.1914078 Z M100.070309,56.8359435 C100.931636,56.8359435 101.429682,57.4218799 101.429682,58.4472686 C101.429682,59.4726573 100.931636,60.0585936 100.070309,60.0585936 C99.2089827,60.0585936 98.7109367,59.4726573 98.7109367,58.4472686 C98.7109367,57.4218799 99.2089827,56.8359435 100.070309,56.8359435 Z M135.624996,56.8359435 C135.923823,56.8359435 136.169917,56.8535216 136.445307,56.8945372 L136.380854,57.4335986 C136.064448,57.4043018 135.835933,57.3925831 135.607418,57.3925831 C134.910154,57.3925831 134.617185,57.503911 134.617185,57.7734417 C134.617185,57.955082 134.743162,58.0136757 135.009763,58.0781287 L135.58398,58.2187534 C136.23437,58.3769562 136.527338,58.6054714 136.527338,59.1035173 C136.527338,59.7714848 136.064448,60.0585936 134.986325,60.0585936 C134.517576,60.0585936 134.20117,60.0351562 133.92578,59.9707032 L133.996093,59.4082043 C134.406248,59.4726573 134.705076,59.5019541 134.986325,59.5019541 C135.613277,59.5019541 135.882808,59.3847668 135.882808,59.1152361 C135.882808,58.9277364 135.783199,58.8515647 135.578121,58.7988304 L134.863279,58.6171901 C134.250975,58.461917 133.972655,58.2714877 133.972655,57.8027386 C133.972655,57.1230524 134.464842,56.8359435 135.624996,56.8359435 Z M138.589841,55.957039 L138.589841,56.8945372 L140.001947,56.8945372 L140.001947,57.439458 L138.589841,57.439458 L138.589841,58.7988304 C138.589841,59.291017 138.812497,59.5019541 139.363277,59.5019541 C139.556636,59.5019541 139.767573,59.4785166 140.048822,59.4433604 L140.119135,59.9882813 C139.843745,60.0351562 139.597651,60.0585936 139.304683,60.0585936 C138.361325,60.0585936 137.968748,59.6894537 137.968748,58.8281272 L137.968748,57.439458 L137.189453,57.439458 L137.189453,56.8945372 L137.968748,56.8945372 L137.968748,55.957039 L138.589841,55.957039 Z M103.585934,56.8359435 C104.447261,56.8359435 104.945307,57.4218799 104.945307,58.4472686 C104.945307,59.4726573 104.447261,60.0585936 103.585934,60.0585936 C102.724608,60.0585936 102.226562,59.4726573 102.226562,58.4472686 C102.226562,57.4218799 102.724608,56.8359435 103.585934,56.8359435 Z M90.3378857,56.8359435 C90.7656193,56.8359435 90.9531189,57.05274 90.9531189,57.568364 L90.9531189,60 L90.3320264,60 L90.3320264,57.6269577 C90.3320264,57.4101612 90.2558546,57.3046926 90.0917924,57.3046926 C89.8867147,57.3046926 89.7871055,57.4453174 89.7871055,57.7265668 L89.7871055,60 L89.2597628,60 L89.2597628,57.568364 C89.2597628,57.3925831 89.1777317,57.3046926 89.0136695,57.3046926 C88.8144511,57.3046926 88.7148419,57.4453174 88.7148419,57.7265668 L88.7148419,60 L88.0937494,60 L88.0937494,56.8945372 L88.6445296,56.8945372 L88.6855451,57.2812552 L88.73242,57.2812552 C88.7558575,56.9824276 88.925779,56.8359435 89.2656221,56.8359435 C89.5263638,56.8359435 89.7080041,56.9824276 89.7665977,57.2812552 L89.8164023,57.2812552 C89.8339804,57.0410213 90.0097613,56.8359435 90.3378857,56.8359435 Z M118.164058,56.8945372 L118.164058,59.4550792 L119.119134,59.4550792 L119.119134,60 L116.359374,60 L116.359374,59.4550792 L117.542966,59.4550792 L117.542966,57.439458 L116.535155,57.439458 L116.535155,56.8945372 L118.164058,56.8945372 Z M113.464842,55.6054771 L113.464842,58.2656283 L113.634763,58.2656283 C114.408199,58.2656283 114.736324,57.8994181 114.871089,56.8945372 L115.515619,56.8945372 C115.41894,57.6562545 115.181635,58.1894566 114.800777,58.4970732 L115.714837,60 L114.947261,60 L114.229489,58.7724633 C114.091794,58.8046898 113.94238,58.8222679 113.781247,58.8222679 L113.464842,58.8222679 L113.464842,60 L112.843749,60 L112.843749,55.6054771 L113.464842,55.6054771 Z M156.238278,58.6406276 C155.708006,58.6406276 155.429686,58.8076195 155.429686,59.1328142 C155.429686,59.4052746 155.623045,59.5605477 155.962888,59.5605477 C156.542965,59.5605477 156.835933,59.2148452 156.835933,58.8867209 L156.835933,58.6699244 C156.636715,58.6406276 156.440426,58.6406276 156.238278,58.6406276 Z M71.8457,57.3632863 C71.3447244,57.3632863 71.0839827,57.7441449 71.0839827,58.4765654 C71.0839827,59.1709 71.3447244,59.5312509 71.8457,59.5312509 C72.3349568,59.5312509 72.5898392,59.1943375 72.5898392,58.5527371 L72.5898392,58.3418 C72.5898392,57.7001997 72.3349568,57.3632863 71.8457,57.3632863 Z M103.585934,57.3925831 C103.128904,57.3925831 102.871092,57.7734417 102.871092,58.4472686 C102.871092,59.1210954 103.128904,59.5019541 103.585934,59.5019541 C104.042965,59.5019541 104.300777,59.1210954 104.300777,58.4472686 C104.300777,57.7734417 104.042965,57.3925831 103.585934,57.3925831 Z M100.070309,57.3925831 C99.6132788,57.3925831 99.3554668,57.7734417 99.3554668,58.4472686 C99.3554668,59.1210954 99.6132788,59.5019541 100.070309,59.5019541 C100.52734,59.5019541 100.785152,59.1210954 100.785152,58.4472686 C100.785152,57.7734417 100.52734,57.3925831 100.070309,57.3925831 Z M149.289059,57.3925831 C148.832029,57.3925831 148.574217,57.7734417 148.574217,58.4472686 C148.574217,59.1210954 148.832029,59.5019541 149.289059,59.5019541 C149.74609,59.5019541 150.003902,59.1210954 150.003902,58.4472686 C150.003902,57.7734417 149.74609,57.3925831 149.289059,57.3925831 Z M75.4609341,57.3925831 C75.0039038,57.3925831 74.7460918,57.7734417 74.7460918,58.4472686 C74.7460918,59.1210954 75.0039038,59.5019541 75.4609341,59.5019541 C75.9179645,59.5019541 76.1757765,59.1210954 76.1757765,58.4472686 C76.1757765,57.7734417 75.9179645,57.3925831 75.4609341,57.3925831 Z M86.0078091,57.3925831 C85.5507788,57.3925831 85.2929668,57.7734417 85.2929668,58.4472686 C85.2929668,59.1210954 85.5507788,59.5019541 86.0078091,59.5019541 C86.4648395,59.5019541 86.7226515,59.1210954 86.7226515,58.4472686 C86.7226515,57.7734417 86.4648395,57.3925831 86.0078091,57.3925831 Z M47.3535122,57.3808644 C46.8730444,57.3808644 46.5771465,57.6943403 46.5273419,58.2480502 L48.1035108,58.2480502 C48.1035108,57.6914107 47.8222613,57.3808644 47.3535122,57.3808644 Z M131.728512,57.3808644 C131.248044,57.3808644 130.952147,57.6943403 130.902342,58.2480502 L132.478511,58.2480502 C132.478511,57.6914107 132.197261,57.3808644 131.728512,57.3808644 Z M94.5039001,57.6503951 L94.5039001,58.1953159 L91.5742182,58.1953159 L91.5742182,57.6503951 L94.5039001,57.6503951 Z M112.082025,57.6503951 L112.082025,58.1953159 L109.152343,58.1953159 L109.152343,57.6503951 L112.082025,57.6503951 Z M40.0585909,55.8398517 L39.9999972,57.7148481 L39.4374983,57.7148481 L39.3789047,55.8398517 L40.0585909,55.8398517 Z M69.3671824,55.8398517 L69.3085887,57.7148481 L68.7460898,57.7148481 L68.6874962,55.8398517 L69.3671824,55.8398517 Z M68.1835909,55.8398517 L68.1249972,57.7148481 L67.5624983,57.7148481 L67.5039047,55.8398517 L68.1835909,55.8398517 Z M58.8203074,55.8398517 L58.7617137,57.7148481 L58.1992148,57.7148481 L58.1406212,55.8398517 L58.8203074,55.8398517 Z M57.6367159,55.8398517 L57.5781222,57.7148481 L57.0156233,57.7148481 L56.9570297,55.8398517 L57.6367159,55.8398517 Z M41.2421824,55.8398517 L41.1835887,57.7148481 L40.6210898,57.7148481 L40.5624962,55.8398517 L41.2421824,55.8398517 Z M164.289057,55.8398517 L164.230464,57.7148481 L163.667965,57.7148481 L163.609371,55.8398517 L164.289057,55.8398517 Z M163.105466,55.8398517 L163.046872,57.7148481 L162.484373,57.7148481 L162.42578,55.8398517 L163.105466,55.8398517 Z M142.257809,56.8359435 C142.498043,56.8359435 142.691402,57.0293025 142.691402,57.2695365 C142.691402,57.5097704 142.498043,57.7031294 142.257809,57.7031294 C142.017575,57.7031294 141.824216,57.5097704 141.824216,57.2695365 C141.824216,57.0293025 142.017575,56.8359435 142.257809,56.8359435 Z M61.3984341,56.8359435 C61.6386681,56.8359435 61.8320271,57.0293025 61.8320271,57.2695365 C61.8320271,57.5097704 61.6386681,57.7031294 61.3984341,57.7031294 C61.1582002,57.7031294 60.9648412,57.5097704 60.9648412,57.2695365 C60.9648412,57.0293025 61.1582002,56.8359435 61.3984341,56.8359435 Z M117.833004,55.5351648 C118.073238,55.5351648 118.266597,55.7285238 118.266597,55.9687577 C118.266597,56.2089916 118.073238,56.4023506 117.833004,56.4023506 C117.59277,56.4023506 117.399411,56.2089916 117.399411,55.9687577 C117.399411,55.7285238 117.59277,55.5351648 117.833004,55.5351648 Z M47.5732384,49.8359435 C48.38769,49.8359435 48.8124938,50.3984425 48.8124938,51.4765654 C48.8124938,52.5166025 48.38769,53.0585936 47.5732384,53.0585936 C47.0957002,53.0585936 46.7880836,52.8271488 46.7499978,52.4375011 L46.6914041,52.4375011 L46.6914041,54.3476537 L46.0703116,54.3476537 L46.0703116,49.8945372 L46.6328105,49.8945372 L46.6826151,50.4570361 L46.7207009,50.4570361 C46.7734352,50.0673884 47.0898409,49.8359435 47.5732384,49.8359435 Z M69.0624954,48.2363372 C69.2910106,48.2363372 69.4316354,48.2597747 69.5605414,48.2949308 L69.490229,48.8046955 C69.3525339,48.7871174 69.2236279,48.7753987 69.1152297,48.7753987 C68.8369099,48.7753987 68.6347619,48.957039 68.6874962,49.2675852 C68.7460898,49.6132877 68.9394488,49.9003965 68.9394488,50.2402396 C68.9394488,50.6445357 68.6113244,50.8730509 68.0546849,50.88184 L68.0546849,50.9814492 C68.6113244,50.9902382 68.9394488,51.212894 68.9394488,51.5703152 C68.9394488,51.9248067 68.7460898,52.2119156 68.6874962,52.5429696 C68.6259728,52.8886721 68.8369099,53.0878905 69.1152297,53.0878905 C69.2236279,53.0878905 69.3525339,53.0761717 69.490229,53.0585936 L69.5605414,53.5683583 C69.4316354,53.6035145 69.2910106,53.6269519 69.0624954,53.6269519 C68.4267545,53.6269519 67.9404273,53.2197261 68.0605442,52.5429696 C68.1191379,52.2060562 68.3007781,51.9013693 68.3007781,51.5585965 C68.3007781,51.2509799 67.7148418,51.1630894 67.3925768,51.1630894 L67.3925768,50.7001997 C67.703123,50.7001997 68.3007781,50.5390672 68.3007781,50.2519584 C68.3007781,49.8945372 68.1191379,49.6044987 68.0605442,49.2675852 C67.9433569,48.6171959 68.4267545,48.2363372 69.0624954,48.2363372 Z M50.6992157,48.957039 L50.6992157,49.8945372 L52.1113224,49.8945372 L52.1113224,50.439458 L50.6992157,50.439458 L50.6992157,51.7988304 C50.6992157,52.291017 50.9218715,52.5019541 51.4726517,52.5019541 C51.6660107,52.5019541 51.8769478,52.4785166 52.1581973,52.4433604 L52.2285096,52.9882813 C51.9531195,53.0351562 51.7070263,53.0585936 51.4140581,53.0585936 C50.4707005,53.0585936 50.0781231,52.6894537 50.0781231,51.8281272 L50.0781231,50.439458 L49.2988277,50.439458 L49.2988277,49.8945372 L50.0781231,49.8945372 L50.0781231,48.957039 L50.6992157,48.957039 Z M54.7656209,49.8359435 C55.0644484,49.8359435 55.3105417,49.8535216 55.5859318,49.8945372 L55.5214788,50.4335986 C55.2050732,50.4043018 54.976558,50.3925831 54.7480428,50.3925831 C54.0507785,50.3925831 53.7578103,50.503911 53.7578103,50.7734417 C53.7578103,50.955082 53.8837866,51.0136757 54.1503877,51.0781287 L54.7246053,51.2187534 C55.3749947,51.3769562 55.6679629,51.6054714 55.6679629,52.1035173 C55.6679629,52.7714848 55.2050732,53.0585936 54.1269502,53.0585936 C53.6582011,53.0585936 53.3417955,53.0351562 53.0664054,52.9707032 L53.1367177,52.4082043 C53.5468732,52.4726573 53.8457008,52.5019541 54.1269502,52.5019541 C54.7539022,52.5019541 55.0234329,52.3847668 55.0234329,52.1152361 C55.0234329,51.9277364 54.9238237,51.8515647 54.718746,51.7988304 L54.0039036,51.6171901 C53.3916001,51.461917 53.1132803,51.2714877 53.1132803,50.8027386 C53.1132803,50.1230524 53.6054669,49.8359435 54.7656209,49.8359435 Z M37.0058556,49.8359435 C37.6093701,49.8359435 38.0605411,50.0703181 38.2451111,50.4804736 L37.7675729,50.8408244 C37.591792,50.5566453 37.3076128,50.3925831 36.9824182,50.3925831 C36.3964818,50.3925831 36.0566387,50.761723 36.0566387,51.4121124 C36.0566387,52.1210954 36.4521457,52.5019541 37.1581991,52.5019541 C37.4482376,52.5019541 37.7382761,52.4726573 38.0136662,52.4257823 L38.0839786,52.9707032 C37.7617135,53.0410155 37.4130814,53.0585936 37.0878867,53.0585936 C36.0302715,53.0585936 35.4296867,52.484376 35.4296867,51.4414092 C35.4296867,50.4277393 35.9951153,49.8359435 37.0058556,49.8359435 Z M33.6718709,49.8359435 C33.9706984,49.8359435 34.2167917,49.8535216 34.4921818,49.8945372 L34.4277288,50.4335986 C34.1113232,50.4043018 33.882808,50.3925831 33.6542928,50.3925831 C32.9570285,50.3925831 32.6640603,50.503911 32.6640603,50.7734417 C32.6640603,50.955082 32.7900366,51.0136757 33.0566377,51.0781287 L33.6308553,51.2187534 C34.2812447,51.3769562 34.5742129,51.6054714 34.5742129,52.1035173 C34.5742129,52.7714848 34.1113232,53.0585936 33.0332002,53.0585936 C32.5644511,53.0585936 32.2480455,53.0351562 31.9726554,52.9707032 L32.0429677,52.4082043 C32.4531232,52.4726573 32.7519508,52.5019541 33.0332002,52.5019541 C33.6601522,52.5019541 33.9296829,52.3847668 33.9296829,52.1152361 C33.9296829,51.9277364 33.8300737,51.8515647 33.624996,51.7988304 L32.9101536,51.6171901 C32.2978501,51.461917 32.0195303,51.2714877 32.0195303,50.8027386 C32.0195303,50.1230524 32.5117169,49.8359435 33.6718709,49.8359435 Z M61.3984341,52.1914078 C61.6386681,52.1914078 61.8320271,52.3847668 61.8320271,52.6250007 C61.8320271,52.8652346 61.6386681,53.0585936 61.3984341,53.0585936 C61.1582002,53.0585936 60.9648412,52.8652346 60.9648412,52.6250007 C60.9648412,52.3847668 61.1582002,52.1914078 61.3984341,52.1914078 Z M44.3359332,49.8945372 L44.3359332,52.4550792 L45.2910095,52.4550792 L45.2910095,53 L42.5312491,53 L42.5312491,52.4550792 L43.7148406,52.4550792 L43.7148406,50.439458 L42.70703,50.439458 L42.70703,49.8945372 L44.3359332,49.8945372 Z M41.0078078,49.8359435 C41.6464785,49.8359435 41.9218686,50.181646 41.9218686,51.0019569 L41.3066354,51.0019569 C41.3066354,50.5507859 41.1777294,50.3632863 40.8789018,50.3632863 C40.3515591,50.3632863 40.093747,50.8320354 40.093747,51.664065 L40.093747,52.4550792 L40.8554643,52.4550792 L40.8554643,53 L38.7812496,53 L38.7812496,52.4550792 L39.4726545,52.4550792 L39.4726545,50.439458 L38.8984368,50.439458 L38.8984368,49.8945372 L39.9765598,49.8945372 L40.0820283,50.6914107 L40.1523407,50.6914107 C40.1874969,50.117193 40.4687463,49.8359435 41.0078078,49.8359435 Z M47.4355433,50.3632863 C46.9462865,50.3632863 46.6914041,50.7001997 46.6914041,51.3418 L46.6914041,51.5527371 C46.6914041,52.1943375 46.9462865,52.5312509 47.4355433,52.5312509 C47.9365189,52.5312509 48.1972606,52.1709 48.1972606,51.4765654 C48.1972606,50.7441449 47.9365189,50.3632863 47.4355433,50.3632863 Z M29.5117159,48.8398517 L29.4531222,50.7148481 L28.8906233,50.7148481 L28.8320297,48.8398517 L29.5117159,48.8398517 Z M57.6367159,48.8398517 L57.5781222,50.7148481 L57.0156233,50.7148481 L56.9570297,48.8398517 L57.6367159,48.8398517 Z M58.8203074,48.8398517 L58.7617137,50.7148481 L58.1992148,50.7148481 L58.1406212,48.8398517 L58.8203074,48.8398517 Z M30.6953074,48.8398517 L30.6367137,50.7148481 L30.0742148,50.7148481 L30.0156212,48.8398517 L30.6953074,48.8398517 Z M61.3984341,49.8359435 C61.6386681,49.8359435 61.8320271,50.0293025 61.8320271,50.2695365 C61.8320271,50.5097704 61.6386681,50.7031294 61.3984341,50.7031294 C61.1582002,50.7031294 60.9648412,50.5097704 60.9648412,50.2695365 C60.9648412,50.0293025 61.1582002,49.8359435 61.3984341,49.8359435 Z M44.0048791,48.5351648 C44.245113,48.5351648 44.438472,48.7285238 44.438472,48.9687577 C44.438472,49.2089916 44.245113,49.4023506 44.0048791,49.4023506 C43.7646452,49.4023506 43.5712862,49.2089916 43.5712862,48.9687577 C43.5712862,48.7285238 43.7646452,48.5351648 44.0048791,48.5351648 Z" id="Combined-Shape" fill="#262A33"></path>
        <path d="M9,57.987081 L9,63.9741619 L14.9866643,63.9608228 L20.9733286,63.9474836 L20.9866381,57.9737418 L21,52 L14.9999738,52 L9,52 L9,57.987081 M9.03642372,58.0131291 L9.03642372,64 L9.06312372,61.0237374 L9.08972372,58.0474748 L9.06312372,55.0368665 L9.03642372,52.0262582 L9.03642372,58.0131291 M11.0435878,57.9868709 L11.0435878,61.9256018 L13.0085761,61.9256018 L14.9735644,61.9256018 L14.9735644,58.9846827 L14.9735644,56.0437637 L15.9429586,56.0437637 L16.9123528,56.0437637 L16.9123528,58.9846827 L16.9123528,61.9256018 L17.9079468,61.9256018 L18.9035409,61.9256018 L18.9035409,57.9868709 L18.9035409,54.04814 L14.9735644,54.04814 L11.0435878,54.04814 L11.0435878,57.9868709" id="Shape" fill="#262A33"></path>
    </g>
</svg>