<?xml version="1.0" encoding="UTF-8"?>
<svg width="170px" height="155px" viewBox="0 0 170 155" version="1.1" xmlns="http://www.w3.org/2000/svg" xmlns:xlink="http://www.w3.org/1999/xlink">
    <!-- Generator: Sketch 52.6 (67491) - http://www.bohemiancoding.com/sketch -->
    <title>running-hook</title>
    <desc>Created with Sketch.</desc>
    <defs>
        <linearGradient x1="98.0530683%" y1="3.42756503%" x2="3.42756503%" y2="98.0530683%" id="linearGradient-1">
            <stop stop-color="#262A33" offset="0%"></stop>
            <stop stop-color="#0A5E66" offset="100%"></stop>
        </linearGradient>
        <linearGradient x1="99.3131251%" y1="3.42756503%" x2="3.42756503%" y2="99.3131251%" id="linearGradient-2">
            <stop stop-color="#262A33" offset="0%"></stop>
            <stop stop-color="#0A3866" offset="100%"></stop>
        </linearGradient>
        <linearGradient x1="0%" y1="0%" x2="100%" y2="100%" id="linearGradient-3">
            <stop stop-color="#FFF1E5" offset="0%"></stop>
            <stop stop-color="#FCD0B1" offset="100%"></stop>
        </linearGradient>
    </defs>
    <g id="running-hook" stroke="none" stroke-width="1" fill="none" fill-rule="evenodd">
        <path d="M12.3527668,126 L131.647233,126 C135.544836,126 137.254599,126.464128 138.884229,127.335664 C140.513858,128.207199 141.792801,129.486142 142.664336,131.115771 C143.535872,132.745401 144,134.455164 144,138.352767 L144,142.647233 C144,146.544836 143.535872,148.254599 142.664336,149.884229 C141.792801,151.513858 140.513858,152.792801 138.884229,153.664336 C137.254599,154.535872 135.544836,155 131.647233,155 L12.3527668,155 C8.45516415,155 6.74540111,154.535872 5.11577148,153.664336 C3.48614185,152.792801 2.20719898,151.513858 1.33566352,149.884229 C0.464128056,148.254599 1.89187828e-16,146.544836 -2.88130828e-16,142.647233 L2.88130828e-16,138.352767 C-1.89187828e-16,134.455164 0.464128056,132.745401 1.33566352,131.115771 C2.20719898,129.486142 3.48614185,128.207199 5.11577148,127.335664 C6.74540111,126.464128 8.45516415,126 12.3527668,126 Z" id="Rectangle" fill="url(#linearGradient-1)"></path>
        <path d="M21.217743,137.904687 C21.294673,138.10625 21.2293991,138.333594 21.0708767,138.48125 L20.0614623,139.404687 C20.0871056,139.599219 20.1010929,139.798438 20.1010929,140 C20.1010929,140.201562 20.0871056,140.400781 20.0614623,140.595313 L21.0708767,141.51875 C21.2293991,141.666406 21.294673,141.89375 21.217743,142.095313 C21.1151697,142.374219 20.9916155,142.64375 20.8517429,142.899219 L20.7421759,143.089063 C20.588316,143.346875 20.4158064,143.590625 20.2269783,143.822656 C20.0871056,143.989062 19.8609781,144.047656 19.6558316,143.982031 L18.357347,143.564844 C18.0449647,143.80625 17.6789646,144.007812 17.3316141,144.1625 L17.0402127,145.500781 C16.9935885,145.711719 16.8304037,145.861719 16.6159323,145.917969 C16.2942252,145.971875 15.9631932,146 15.6041867,146 C15.287142,146 14.95611,145.971875 14.6344029,145.917969 C14.4199315,145.861719 14.2567467,145.711719 14.2101225,145.500781 L13.9187211,144.1625 C13.5503897,144.007812 13.2053705,143.80625 12.8929882,143.564844 L11.5954361,143.982031 C11.389357,144.047656 11.162064,143.989062 11.0240563,143.822656 C10.834995,143.590625 10.6624854,143.346875 10.5086255,143.089063 L10.3995248,142.899219 C10.2580203,142.64375 10.1349324,142.374219 10.0316597,142.095313 C9.95612846,141.89375 10.0197705,141.666406 10.1796916,141.51875 L11.1881735,140.595313 C11.1625302,140.400781 11.1492423,140.201562 11.1492423,140 C11.1492423,139.798438 11.1625302,139.599219 11.1881735,139.404687 L10.1796916,138.48125 C10.0197705,138.333594 9.95612846,138.108594 10.0316597,137.904687 C10.1349324,137.625781 10.2582534,137.35625 10.3995248,137.100781 L10.5083924,136.910937 C10.6624854,136.653125 10.834995,136.409375 11.0240563,136.178516 C11.162064,136.010938 11.389357,135.952812 11.5954361,136.018906 L12.8929882,136.435156 C13.2053705,136.192813 13.5503897,135.99125 13.9187211,135.838203 L14.2101225,134.499922 C14.2567467,134.287109 14.4199315,134.118125 14.6344029,134.082266 C14.95611,134.028148 15.287142,134 15.6251676,134 C15.9631932,134 16.2942252,134.028148 16.6159323,134.082266 C16.8304037,134.118125 16.9935885,134.287109 17.0402127,134.499922 L17.3316141,135.838203 C17.6789646,135.99125 18.0449647,136.192813 18.357347,136.435156 L19.6558316,136.018906 C19.8609781,135.952812 20.0871056,136.010938 20.2269783,136.178516 C20.4158064,136.409375 20.588316,136.653125 20.7421759,136.910937 L20.8517429,137.100781 C20.9916155,137.35625 21.1151697,137.625781 21.217743,137.904687 Z M15.6251676,141.875 C16.6555629,141.875 17.4901365,141.035937 17.4901365,139.978906 C17.4901365,138.964063 16.6555629,138.103906 15.6251676,138.103906 C14.5947723,138.103906 13.7601987,138.964063 13.7601987,139.978906 C13.7601987,141.035937 14.5947723,141.875 15.6251676,141.875 Z" id="Shape" fill="#FFFFFF" fill-rule="nonzero"></path>
        <path d="M31.3701172,145.136719 C30.2718044,145.136719 29.4902367,144.850752 29.0253906,144.278809 C28.5605446,143.706866 28.4283844,142.862636 28.6289063,141.746094 L29.5449219,141.746094 C29.2395818,143.455087 29.8844321,144.30957 31.4794922,144.30957 C32.9788486,144.30957 33.8766261,143.455087 34.1728516,141.746094 L35.1572266,136.133789 L32.2792969,136.133789 L32.4296875,135.292969 L36.2167969,135.292969 L35.0820312,141.746094 C34.8815094,142.88998 34.4770538,143.741045 33.8686523,144.299316 C33.2602509,144.857587 32.4274141,145.136719 31.3701172,145.136719 Z M40.2910156,144.282227 C40.6647154,144.282227 41.0646138,144.221843 41.4907227,144.101074 C41.9168316,143.980305 42.328123,143.812827 42.7246094,143.598633 L43.0390625,144.336914 C42.6061176,144.587566 42.1424178,144.783528 41.6479492,144.924805 C41.1534806,145.066081 40.6806663,145.136719 40.2294922,145.136719 C39.3089147,145.136719 38.5922877,144.878095 38.0795898,144.36084 C37.566892,143.843585 37.3105469,143.124679 37.3105469,142.204102 C37.3105469,141.25618 37.4734684,140.440433 37.7993164,139.756836 C38.1251644,139.073239 38.5900035,138.545738 39.1938477,138.174316 C39.7976918,137.802895 40.5165974,137.617188 41.3505859,137.617188 C42.0524124,137.617188 42.5992819,137.785806 42.9912109,138.123047 C43.38314,138.460288 43.5791016,138.929684 43.5791016,139.53125 C43.5791016,140.419926 43.105148,141.098956 42.1572266,141.568359 C41.2093052,142.037763 39.8899824,142.29069 38.1992188,142.327148 C38.23112,142.942386 38.4304995,143.422036 38.7973633,143.766113 C39.1642271,144.110191 39.6621062,144.282227 40.2910156,144.282227 Z M38.2265625,141.547852 C39.6438873,141.511393 40.736487,141.327964 41.5043945,140.997559 C42.272302,140.667153 42.65625,140.19206 42.65625,139.572266 C42.65625,139.230467 42.5332044,138.96159 42.2871094,138.765625 C42.0410144,138.56966 41.6946637,138.47168 41.2480469,138.47168 C40.3958291,138.47168 39.704267,138.743975 39.1733398,139.288574 C38.6424127,139.833173 38.3268234,140.586258 38.2265625,141.547852 Z M47.4414062,145.136719 C46.379552,145.136719 45.5569691,145.045574 44.9736328,144.863281 L45.2402344,143.995117 C46.1699265,144.186524 46.9537729,144.282227 47.5917969,144.282227 C48.4303427,144.282227 49.0797503,144.162599 49.5400391,143.92334 C50.0003278,143.684081 50.2304688,143.347984 50.2304688,142.915039 C50.2304688,142.691731 50.147299,142.495769 49.980957,142.327148 C49.8146151,142.158528 49.5810562,142.030925 49.2802734,141.944336 L47.2568359,141.356445 C46.8466776,141.237955 46.5288097,141.052247 46.3032227,140.799316 C46.0776356,140.546385 45.9648438,140.251304 45.9648438,139.914062 C45.9648438,139.184892 46.3077765,138.619794 46.9936523,138.21875 C47.6795282,137.817706 48.6468037,137.617188 49.8955078,137.617188 C50.2054052,137.617188 50.5323876,137.630859 50.8764648,137.658203 C51.2205421,137.685547 51.5543604,137.724284 51.8779297,137.774414 L51.6386719,138.587891 C50.8548138,138.510416 50.2167993,138.47168 49.7246094,138.47168 C48.8268184,138.47168 48.1306991,138.589029 47.6362305,138.82373 C47.1417619,139.058432 46.8945312,139.39225 46.8945312,139.825195 C46.8945312,140.203452 47.1565729,140.465494 47.6806641,140.611328 L49.6904297,141.171875 C50.1598331,141.29948 50.5209948,141.510252 50.7739258,141.804199 C51.0268567,142.098146 51.1533203,142.450193 51.1533203,142.860352 C51.1533203,143.584965 50.8297558,144.145506 50.1826172,144.541992 C49.5354785,144.938479 48.6217507,145.136719 47.4414062,145.136719 Z M57.2441406,145.136719 C55.7858,145.136719 55.0566406,144.430346 55.0566406,143.017578 C55.0566406,142.721353 55.0771482,142.431968 55.1181641,142.149414 C55.1591799,141.866861 55.2229813,141.477216 55.3095703,140.980469 L55.7265625,138.587891 L53.6894531,138.587891 L53.8330078,137.753906 L55.8769531,137.753906 L56.2597656,135.55957 L57.1826172,135.55957 L56.7998047,137.753906 L60.1083984,137.753906 L59.9648438,138.587891 L56.6494141,138.587891 L56.2324219,140.980469 C56.1458329,141.468101 56.0820315,141.844074 56.0410156,142.108398 C55.9999998,142.372723 55.9794922,142.646157 55.9794922,142.928711 C55.9794922,143.831059 56.4443313,144.282227 57.3740234,144.282227 C57.729494,144.282227 58.0428046,144.250326 58.3139648,144.186523 C58.5851251,144.122721 58.9052716,144.011069 59.2744141,143.851562 L59.4521484,144.630859 C59.1376937,144.772136 58.8050148,144.891764 58.4541016,144.989746 C58.1031883,145.087728 57.6998721,145.136719 57.2441406,145.136719 Z M61.3798828,145 L63.0888672,135.292969 L64.0048828,135.292969 L62.4462891,144.15918 L67.7373047,144.15918 L67.59375,145 L61.3798828,145 Z M72.4472656,145.136719 C71.6634075,145.136719 71.0515973,144.897463 70.6118164,144.418945 C70.1720356,143.940427 69.9521484,143.275069 69.9521484,142.422852 C69.9521484,140.909823 70.2893846,139.730636 70.9638672,138.885254 C71.6383497,138.039872 72.5748638,137.617188 73.7734375,137.617188 C74.5572956,137.617188 75.1691059,137.862139 75.6088867,138.352051 C76.0486676,138.841962 76.2685547,139.52441 76.2685547,140.399414 C76.2685547,141.889656 75.9313185,143.051754 75.2568359,143.885742 C74.5823534,144.719731 73.6458393,145.136719 72.4472656,145.136719 Z M72.625,144.289062 C73.4817751,144.289062 74.1494117,143.956384 74.6279297,143.291016 C75.1064477,142.625648 75.3457031,141.700527 75.3457031,140.515625 C75.3457031,139.873044 75.1975926,139.371747 74.9013672,139.011719 C74.6051417,138.651691 74.1881537,138.47168 73.6503906,138.47168 C72.7845009,138.47168 72.1066105,138.803219 71.6166992,139.466309 C71.1267879,140.129398 70.8818359,141.053379 70.8818359,142.238281 C70.8818359,142.880863 71.0345037,143.383299 71.3398438,143.745605 C71.6451838,144.107912 72.073565,144.289062 72.625,144.289062 Z M80.9443359,144.282227 C81.4182966,144.282227 81.8956682,144.200196 82.3764648,144.036133 C82.8572615,143.872069 83.2958965,143.653322 83.6923828,143.379883 L84.0341797,144.118164 C83.5921202,144.423504 83.0885445,144.669595 82.5234375,144.856445 C81.9583305,145.043295 81.3795603,145.136719 80.7871094,145.136719 C79.9257769,145.136719 79.2558618,144.895185 78.7773438,144.412109 C78.2988257,143.929034 78.0595703,143.254562 78.0595703,142.388672 C78.0595703,141.427079 78.2281884,140.589685 78.5654297,139.876465 C78.902671,139.163245 79.3766246,138.6084 79.9873047,138.211914 C80.5979848,137.815428 81.3134725,137.617188 82.1337891,137.617188 C83.5009834,137.617188 84.3942036,138.118485 84.8134766,139.121094 L84.109375,139.667969 C83.9088532,139.239581 83.637697,138.933106 83.2958984,138.748535 C82.9540999,138.563964 82.5325546,138.47168 82.03125,138.47168 C81.4205699,138.47168 80.8873721,138.630044 80.4316406,138.946777 C79.9759092,139.263511 79.6215833,139.706703 79.3686523,140.276367 C79.1157214,140.846031 78.9869792,141.513668 78.9824219,142.279297 C78.9915365,142.912764 79.1669905,143.404946 79.5087891,143.755859 C79.8505876,144.106773 80.3290985,144.282227 80.9443359,144.282227 Z M87.9101562,145.143555 C87.2630176,145.143555 86.7617205,144.965822 86.40625,144.610352 C86.0507795,144.254881 85.8730469,143.753584 85.8730469,143.106445 C85.8730469,142.286129 86.0405257,141.542158 86.3754883,140.874512 C86.7104509,140.206865 87.1809866,139.63607 87.7871094,139.162109 C88.3932322,138.688149 89.1041626,138.323569 89.9199219,138.068359 C90.7356812,137.81315 91.6220655,137.685547 92.5791016,137.685547 L92.7089844,137.685547 L91.7519531,143.099609 C91.619791,143.865238 91.897783,144.248047 92.5859375,144.248047 L92.9960938,144.248047 L92.859375,145.068359 L92.4833984,145.068359 C91.8362598,145.068359 91.3976248,144.916831 91.1674805,144.61377 C90.9373361,144.310708 90.8723953,143.817386 90.9726562,143.133789 L90.8496094,143.133789 C90.5488266,143.780928 90.144371,144.277668 89.6362305,144.624023 C89.1280899,144.970379 88.5527376,145.143555 87.9101562,145.143555 Z M88.1220703,144.289062 C88.8785845,144.289062 89.5393852,143.970055 90.1044922,143.332031 C90.6695992,142.694007 91.0546865,141.791673 91.2597656,140.625 L91.6220703,138.587891 C90.660477,138.692709 89.8173864,138.946775 89.0927734,139.350098 C88.3681604,139.75342 87.8053405,140.269528 87.4042969,140.898438 C87.0032532,141.527347 86.8027344,142.235999 86.8027344,143.024414 C86.8027344,143.425458 86.9189442,143.73649 87.1513672,143.95752 C87.3837902,144.178549 87.7073547,144.289062 88.1220703,144.289062 Z M98.5878906,145.136719 C97.1523366,145.136719 96.4345703,144.446296 96.4345703,143.06543 C96.4345703,142.87858 96.45166,142.631349 96.4858398,142.32373 C96.5200197,142.016112 96.6031894,141.613935 96.7353516,141.117188 L97.7539062,137.227539 C97.9134123,136.621416 97.8917653,136.174806 97.6889648,135.887695 C97.4861644,135.600585 97.0703156,135.457031 96.4414062,135.457031 C96.2773429,135.457031 96.1110034,135.467285 95.9423828,135.487793 C95.7737622,135.508301 95.6051441,135.54362 95.4365234,135.59375 L95.2724609,134.787109 C95.5003267,134.723307 95.7304676,134.677735 95.9628906,134.650391 C96.1953137,134.623047 96.4277332,134.609375 96.6601562,134.609375 C97.5306033,134.609375 98.1412743,134.840655 98.4921875,135.303223 C98.8431007,135.76579 98.8977877,136.445959 98.65625,137.34375 L97.6650391,141.117188 C97.5237623,141.641279 97.4371746,142.05257 97.4052734,142.351074 C97.3733722,142.649578 97.3574219,142.871744 97.3574219,143.017578 C97.3528646,143.860681 97.8063105,144.282227 98.7177734,144.282227 C99.1780622,144.282227 99.6770806,144.118166 100.214844,143.790039 L100.536133,144.541992 C100.230793,144.728842 99.9197607,144.874674 99.6030273,144.979492 C99.286294,145.08431 98.9479185,145.136719 98.5878906,145.136719 Z M105.594125,143.026 L105.594125,139.47 L104.656125,139.47 L104.656125,137.622 L105.594125,137.622 L105.594125,135.578 L107.806125,135.578 L107.806125,137.622 L109.248125,137.622 L109.248125,139.47 L107.806125,139.47 L107.806125,142.452 C107.806125,143.068 108.128125,143.18 108.688125,143.18 C108.954125,143.18 109.080125,143.166 109.332125,143.138 L109.332125,144.972 C108.940125,145.028 108.520125,145.07 107.988125,145.07 C106.392125,145.07 105.594125,144.538 105.594125,143.026 Z M112.482125,145.14 C110.998125,145.14 109.934125,144.244 109.934125,142.942 C109.934125,141.416 111.222125,140.8 112.776125,140.576 L114.428125,140.296 L114.428125,140.17 C114.428125,139.624 114.134125,139.274 113.406125,139.274 C112.762125,139.274 112.426125,139.554 112.286125,140.156 L110.144125,139.834 C110.466125,138.532 111.628125,137.468 113.504125,137.468 C115.436125,137.468 116.626125,138.35 116.626125,140.072 L116.626125,142.914 C116.626125,143.292 116.766125,143.404 117.200125,143.348 L117.200125,145 C115.912125,145.21 115.044125,144.972 114.666125,144.342 C114.176125,144.846 113.448125,145.14 112.482125,145.14 Z M114.428125,142.354 L114.428125,141.738 L113.140125,141.976 C112.552125,142.074 112.118125,142.27 112.118125,142.788 C112.118125,143.25 112.468125,143.502 113.000125,143.502 C113.742125,143.502 114.428125,143.11 114.428125,142.354 Z M117.550125,143.922 L118.712125,142.41 C119.314125,143.068 120.266125,143.46 121.064125,143.46 C121.652125,143.46 122.142125,143.264 122.142125,142.872 C122.142125,142.382 121.652125,142.326 120.476125,142.116 C119.258125,141.878 117.956125,141.556 117.956125,139.96 C117.956125,138.462 119.286125,137.468 121.106125,137.468 C122.436125,137.468 123.612125,137.972 124.228125,138.644 L123.108125,140.086 C122.548125,139.498 121.820125,139.176 121.092125,139.176 C120.546125,139.176 120.196125,139.386 120.196125,139.722 C120.196125,140.128 120.630125,140.184 121.526125,140.352 C122.856125,140.618 124.340125,140.94 124.340125,142.606 C124.340125,144.216 122.856125,145.154 120.980125,145.154 C119.692125,145.154 118.236125,144.72 117.550125,143.922 Z M127.588125,134.948 L127.588125,140.268 L129.940125,137.622 L132.572125,137.622 L129.926125,140.394 L132.782125,145 L130.220125,145 L128.372125,142.032 L127.588125,142.858 L127.588125,145 L125.348125,145 L125.348125,134.948 L127.588125,134.948 Z" id="Combined-Shape" fill="#FFFFFF"></path>
        <path d="M12.3527668,85 L142.647233,85 C146.544836,85 148.254599,85.4641281 149.884229,86.3356635 C151.513858,87.207199 152.792801,88.4861419 153.664336,90.1157715 C154.535872,91.7454011 155,93.4551641 155,97.3527668 L155,101.647233 C155,105.544836 154.535872,107.254599 153.664336,108.884229 C152.792801,110.513858 151.513858,111.792801 149.884229,112.664336 C148.254599,113.535872 146.544836,114 142.647233,114 L12.3527668,114 C8.45516415,114 6.74540111,113.535872 5.11577148,112.664336 C3.48614185,111.792801 2.20719898,110.513858 1.33566352,108.884229 C0.464128056,107.254599 1.89187828e-16,105.544836 -2.88130828e-16,101.647233 L2.88130828e-16,97.3527668 C-1.89187828e-16,93.4551641 0.464128056,91.7454011 1.33566352,90.1157715 C2.20719898,88.4861419 3.48614185,87.207199 5.11577148,86.3356635 C6.74540111,85.4641281 8.45516415,85 12.3527668,85 Z" id="Rectangle" fill="url(#linearGradient-2)"></path>
        <path d="M32.6347656,104.136719 C31.176425,104.136719 30.4472656,103.430346 30.4472656,102.017578 C30.4472656,101.721353 30.4677732,101.431968 30.5087891,101.149414 C30.5498049,100.866861 30.6136063,100.477216 30.7001953,99.9804688 L31.1171875,97.5878906 L29.0800781,97.5878906 L29.2236328,96.7539062 L31.2675781,96.7539062 L31.6503906,94.5595703 L32.5732422,94.5595703 L32.1904297,96.7539062 L35.4990234,96.7539062 L35.3554688,97.5878906 L32.0400391,97.5878906 L31.6230469,99.9804688 C31.5364579,100.468101 31.4726565,100.844074 31.4316406,101.108398 C31.3906248,101.372723 31.3701172,101.646157 31.3701172,101.928711 C31.3701172,102.831059 31.8349563,103.282227 32.7646484,103.282227 C33.120119,103.282227 33.4334296,103.250326 33.7045898,103.186523 C33.9757501,103.122721 34.2958966,103.011069 34.6650391,102.851562 L34.8427734,103.630859 C34.5283187,103.772136 34.1956398,103.891764 33.8447266,103.989746 C33.4938133,104.087728 33.0904971,104.136719 32.6347656,104.136719 Z M40.2910156,103.282227 C40.6647154,103.282227 41.0646138,103.221843 41.4907227,103.101074 C41.9168316,102.980305 42.328123,102.812827 42.7246094,102.598633 L43.0390625,103.336914 C42.6061176,103.587566 42.1424178,103.783528 41.6479492,103.924805 C41.1534806,104.066081 40.6806663,104.136719 40.2294922,104.136719 C39.3089147,104.136719 38.5922877,103.878095 38.0795898,103.36084 C37.566892,102.843585 37.3105469,102.124679 37.3105469,101.204102 C37.3105469,100.25618 37.4734684,99.4404331 37.7993164,98.7568359 C38.1251644,98.0732388 38.5900035,97.5457375 39.1938477,97.1743164 C39.7976918,96.8028953 40.5165974,96.6171875 41.3505859,96.6171875 C42.0524124,96.6171875 42.5992819,96.7858056 42.9912109,97.1230469 C43.38314,97.4602881 43.5791016,97.9296845 43.5791016,98.53125 C43.5791016,99.4199263 43.105148,100.098956 42.1572266,100.568359 C41.2093052,101.037763 39.8899824,101.29069 38.1992188,101.327148 C38.23112,101.942386 38.4304995,102.422036 38.7973633,102.766113 C39.1642271,103.110191 39.6621062,103.282227 40.2910156,103.282227 Z M38.2265625,100.547852 C39.6438873,100.511393 40.736487,100.327964 41.5043945,99.9975586 C42.272302,99.6671533 42.65625,99.1920604 42.65625,98.5722656 C42.65625,98.230467 42.5332044,97.9615895 42.2871094,97.765625 C42.0410144,97.5696605 41.6946637,97.4716797 41.2480469,97.4716797 C40.3958291,97.4716797 39.704267,97.7439751 39.1733398,98.2885742 C38.6424127,98.8331733 38.3268234,99.5862582 38.2265625,100.547852 Z M47.4414062,104.136719 C46.379552,104.136719 45.5569691,104.045574 44.9736328,103.863281 L45.2402344,102.995117 C46.1699265,103.186524 46.9537729,103.282227 47.5917969,103.282227 C48.4303427,103.282227 49.0797503,103.162599 49.5400391,102.92334 C50.0003278,102.684081 50.2304688,102.347984 50.2304688,101.915039 C50.2304688,101.691731 50.147299,101.495769 49.980957,101.327148 C49.8146151,101.158528 49.5810562,101.030925 49.2802734,100.944336 L47.2568359,100.356445 C46.8466776,100.237955 46.5288097,100.052247 46.3032227,99.7993164 C46.0776356,99.5463855 45.9648438,99.2513038 45.9648438,98.9140625 C45.9648438,98.1848922 46.3077765,97.6197937 46.9936523,97.21875 C47.6795282,96.8177063 48.6468037,96.6171875 49.8955078,96.6171875 C50.2054052,96.6171875 50.5323876,96.6308592 50.8764648,96.6582031 C51.2205421,96.685547 51.5543604,96.7242836 51.8779297,96.7744141 L51.6386719,97.5878906 C50.8548138,97.5104163 50.2167993,97.4716797 49.7246094,97.4716797 C48.8268184,97.4716797 48.1306991,97.5890288 47.6362305,97.8237305 C47.1417619,98.0584322 46.8945312,98.3922504 46.8945312,98.8251953 C46.8945312,99.2034524 47.1565729,99.4654941 47.6806641,99.6113281 L49.6904297,100.171875 C50.1598331,100.29948 50.5209948,100.510252 50.7739258,100.804199 C51.0268567,101.098146 51.1533203,101.450193 51.1533203,101.860352 C51.1533203,102.584965 50.8297558,103.145506 50.1826172,103.541992 C49.5354785,103.938479 48.6217507,104.136719 47.4414062,104.136719 Z M57.2441406,104.136719 C55.7858,104.136719 55.0566406,103.430346 55.0566406,102.017578 C55.0566406,101.721353 55.0771482,101.431968 55.1181641,101.149414 C55.1591799,100.866861 55.2229813,100.477216 55.3095703,99.9804688 L55.7265625,97.5878906 L53.6894531,97.5878906 L53.8330078,96.7539062 L55.8769531,96.7539062 L56.2597656,94.5595703 L57.1826172,94.5595703 L56.7998047,96.7539062 L60.1083984,96.7539062 L59.9648438,97.5878906 L56.6494141,97.5878906 L56.2324219,99.9804688 C56.1458329,100.468101 56.0820315,100.844074 56.0410156,101.108398 C55.9999998,101.372723 55.9794922,101.646157 55.9794922,101.928711 C55.9794922,102.831059 56.4443313,103.282227 57.3740234,103.282227 C57.729494,103.282227 58.0428046,103.250326 58.3139648,103.186523 C58.5851251,103.122721 58.9052716,103.011069 59.2744141,102.851562 L59.4521484,103.630859 C59.1376937,103.772136 58.8050148,103.891764 58.4541016,103.989746 C58.1031883,104.087728 57.6998721,104.136719 57.2441406,104.136719 Z M65.4404297,98.1962891 C65.2216786,98.1962891 65.0348315,98.1199552 64.8798828,97.9672852 C64.7249341,97.8146151 64.6474609,97.6289073 64.6474609,97.4101562 C64.6474609,97.1914052 64.7249341,97.0045581 64.8798828,96.8496094 C65.0348315,96.6946607 65.2216786,96.6171875 65.4404297,96.6171875 C65.6591808,96.6171875 65.8460279,96.6946607 66.0009766,96.8496094 C66.1559253,97.0045581 66.2333984,97.1914052 66.2333984,97.4101562 C66.2333984,97.6289073 66.1559253,97.8146151 66.0009766,97.9672852 C65.8460279,98.1199552 65.6591808,98.1962891 65.4404297,98.1962891 Z M64.3876953,104.136719 C64.1689442,104.136719 63.9820971,104.060385 63.8271484,103.907715 C63.6721997,103.755045 63.5947266,103.569337 63.5947266,103.350586 C63.5947266,103.131835 63.6721997,102.944988 63.8271484,102.790039 C63.9820971,102.63509 64.1689442,102.557617 64.3876953,102.557617 C64.6064464,102.557617 64.7932935,102.63509 64.9482422,102.790039 C65.1031909,102.944988 65.1806641,103.131835 65.1806641,103.350586 C65.1806641,103.569337 65.1031909,103.755045 64.9482422,103.907715 C64.7932935,104.060385 64.6064464,104.136719 64.3876953,104.136719 Z M73.9785156,104.136719 C72.5429616,104.136719 71.8251953,103.446296 71.8251953,102.06543 C71.8251953,101.87858 71.842285,101.631349 71.8764648,101.32373 C71.9106447,101.016112 71.9938144,100.613935 72.1259766,100.117188 L73.1445312,96.2275391 C73.3040373,95.6214162 73.2823903,95.1748061 73.0795898,94.8876953 C72.8767894,94.6005845 72.4609406,94.4570312 71.8320312,94.4570312 C71.6679679,94.4570312 71.5016284,94.4672851 71.3330078,94.487793 C71.1643872,94.5083009 70.9957691,94.5436195 70.8271484,94.59375 L70.6630859,93.7871094 C70.8909517,93.723307 71.1210926,93.6777345 71.3535156,93.6503906 C71.5859387,93.6230467 71.8183582,93.609375 72.0507812,93.609375 C72.9212283,93.609375 73.5318993,93.8406552 73.8828125,94.3032227 C74.2337257,94.7657901 74.2884127,95.4459591 74.046875,96.34375 L73.0556641,100.117188 C72.9143873,100.641279 72.8277996,101.05257 72.7958984,101.351074 C72.7639972,101.649578 72.7480469,101.871744 72.7480469,102.017578 C72.7434896,102.860681 73.1969355,103.282227 74.1083984,103.282227 C74.5686872,103.282227 75.0677056,103.118166 75.6054688,102.790039 L75.9267578,103.541992 C75.6214177,103.728842 75.3103857,103.874674 74.9936523,103.979492 C74.676919,104.08431 74.3385435,104.136719 73.9785156,104.136719 Z M80.6503906,104.136719 C79.8665325,104.136719 79.2547223,103.897463 78.8149414,103.418945 C78.3751606,102.940427 78.1552734,102.275069 78.1552734,101.422852 C78.1552734,99.9098232 78.4925096,98.7306357 79.1669922,97.8852539 C79.8414747,97.0398721 80.7779888,96.6171875 81.9765625,96.6171875 C82.7604206,96.6171875 83.3722309,96.8621395 83.8120117,97.3520508 C84.2517926,97.8419621 84.4716797,98.5244097 84.4716797,99.3994141 C84.4716797,100.889656 84.1344435,102.051754 83.4599609,102.885742 C82.7854784,103.719731 81.8489643,104.136719 80.6503906,104.136719 Z M80.828125,103.289062 C81.6849001,103.289062 82.3525367,102.956384 82.8310547,102.291016 C83.3095727,101.625648 83.5488281,100.700527 83.5488281,99.515625 C83.5488281,98.8730437 83.4007176,98.3717466 83.1044922,98.0117188 C82.8082667,97.6516909 82.3912787,97.4716797 81.8535156,97.4716797 C80.9876259,97.4716797 80.3097355,97.8032193 79.8198242,98.4663086 C79.3299129,99.1293978 79.0849609,100.053379 79.0849609,101.238281 C79.0849609,101.880863 79.2376287,102.383299 79.5429688,102.745605 C79.8483088,103.107912 80.27669,103.289062 80.828125,103.289062 Z M89.1474609,103.282227 C89.6214216,103.282227 90.0987932,103.200196 90.5795898,103.036133 C91.0603865,102.872069 91.4990215,102.653322 91.8955078,102.379883 L92.2373047,103.118164 C91.7952452,103.423504 91.2916695,103.669595 90.7265625,103.856445 C90.1614555,104.043295 89.5826853,104.136719 88.9902344,104.136719 C88.1289019,104.136719 87.4589868,103.895185 86.9804688,103.412109 C86.5019507,102.929034 86.2626953,102.254562 86.2626953,101.388672 C86.2626953,100.427079 86.4313134,99.5896846 86.7685547,98.8764648 C87.105796,98.1632451 87.5797496,97.6084004 88.1904297,97.2119141 C88.8011098,96.8154277 89.5165975,96.6171875 90.3369141,96.6171875 C91.7041084,96.6171875 92.5973286,97.1184846 93.0166016,98.1210938 L92.3125,98.6679688 C92.1119782,98.2395812 91.840822,97.9331064 91.4990234,97.7485352 C91.1572249,97.5639639 90.7356796,97.4716797 90.234375,97.4716797 C89.6236949,97.4716797 89.0904971,97.630044 88.6347656,97.9467773 C88.1790342,98.2635107 87.8247083,98.7067029 87.5717773,99.2763672 C87.3188464,99.8460315 87.1901042,100.513668 87.1855469,101.279297 C87.1946615,101.912764 87.3701155,102.404946 87.7119141,102.755859 C88.0537126,103.106773 88.5322235,103.282227 89.1474609,103.282227 Z M96.1132812,104.143555 C95.4661426,104.143555 94.9648455,103.965822 94.609375,103.610352 C94.2539045,103.254881 94.0761719,102.753584 94.0761719,102.106445 C94.0761719,101.286129 94.2436507,100.542158 94.5786133,99.8745117 C94.9135759,99.2068652 95.3841116,98.6360701 95.9902344,98.1621094 C96.5963572,97.6881487 97.3072876,97.323569 98.1230469,97.0683594 C98.9388062,96.8131498 99.8251905,96.6855469 100.782227,96.6855469 L100.912109,96.6855469 L99.9550781,102.099609 C99.822916,102.865238 100.100908,103.248047 100.789062,103.248047 L101.199219,103.248047 L101.0625,104.068359 L100.686523,104.068359 C100.039385,104.068359 99.6007498,103.916831 99.3706055,103.61377 C99.1404611,103.310708 99.0755203,102.817386 99.1757812,102.133789 L99.0527344,102.133789 C98.7519516,102.780928 98.347496,103.277668 97.8393555,103.624023 C97.3312149,103.970379 96.7558626,104.143555 96.1132812,104.143555 Z M96.3251953,103.289062 C97.0817095,103.289062 97.7425102,102.970055 98.3076172,102.332031 C98.8727242,101.694007 99.2578115,100.791673 99.4628906,99.625 L99.8251953,97.5878906 C98.863602,97.6927089 98.0205114,97.9467753 97.2958984,98.3500977 C96.5712854,98.75342 96.0084655,99.2695281 95.6074219,99.8984375 C95.2063782,100.527347 95.0058594,101.235999 95.0058594,102.024414 C95.0058594,102.425458 95.1220692,102.73649 95.3544922,102.95752 C95.5869152,103.178549 95.9104797,103.289062 96.3251953,103.289062 Z M106.791016,104.136719 C105.355462,104.136719 104.637695,103.446296 104.637695,102.06543 C104.637695,101.87858 104.654785,101.631349 104.688965,101.32373 C104.723145,101.016112 104.806314,100.613935 104.938477,100.117188 L105.957031,96.2275391 C106.116537,95.6214162 106.09489,95.1748061 105.89209,94.8876953 C105.689289,94.6005845 105.273441,94.4570312 104.644531,94.4570312 C104.480468,94.4570312 104.314128,94.4672851 104.145508,94.487793 C103.976887,94.5083009 103.808269,94.5436195 103.639648,94.59375 L103.475586,93.7871094 C103.703452,93.723307 103.933593,93.6777345 104.166016,93.6503906 C104.398439,93.6230467 104.630858,93.609375 104.863281,93.609375 C105.733728,93.609375 106.344399,93.8406552 106.695312,94.3032227 C107.046226,94.7657901 107.100913,95.4459591 106.859375,96.34375 L105.868164,100.117188 C105.726887,100.641279 105.6403,101.05257 105.608398,101.351074 C105.576497,101.649578 105.560547,101.871744 105.560547,102.017578 C105.55599,102.860681 106.009436,103.282227 106.920898,103.282227 C107.381187,103.282227 107.880206,103.118166 108.417969,102.790039 L108.739258,103.541992 C108.433918,103.728842 108.122886,103.874674 107.806152,103.979492 C107.489419,104.08431 107.151043,104.136719 106.791016,104.136719 Z M113.54525,104 L113.54525,93.948 L115.78525,93.948 L115.78525,97.364 C116.19125,96.888 116.87725,96.468 117.81525,96.468 C119.32725,96.468 120.27925,97.518 120.27925,99.128 L120.27925,104 L118.03925,104 L118.03925,99.772 C118.03925,99.03 117.73125,98.484 117.00325,98.484 C116.38725,98.484 115.78525,98.918 115.78525,99.786 L115.78525,104 L113.54525,104 Z M128.69325,100.318 C128.69325,102.614 127.16725,104.154 124.99725,104.154 C122.81325,104.154 121.30125,102.614 121.30125,100.318 C121.30125,98.022 122.81325,96.468 124.99725,96.468 C127.16725,96.468 128.69325,98.022 128.69325,100.318 Z M123.52725,100.318 C123.52725,101.606 124.10125,102.334 124.99725,102.334 C125.89325,102.334 126.46725,101.606 126.46725,100.318 C126.46725,99.03 125.89325,98.302 124.99725,98.302 C124.10125,98.302 123.52725,99.03 123.52725,100.318 Z M136.75725,100.318 C136.75725,102.614 135.23125,104.154 133.06125,104.154 C130.87725,104.154 129.36525,102.614 129.36525,100.318 C129.36525,98.022 130.87725,96.468 133.06125,96.468 C135.23125,96.468 136.75725,98.022 136.75725,100.318 Z M131.59125,100.318 C131.59125,101.606 132.16525,102.334 133.06125,102.334 C133.95725,102.334 134.53125,101.606 134.53125,100.318 C134.53125,99.03 133.95725,98.302 133.06125,98.302 C132.16525,98.302 131.59125,99.03 131.59125,100.318 Z M140.04725,93.948 L140.04725,99.268 L142.39925,96.622 L145.03125,96.622 L142.38525,99.394 L145.24125,104 L142.67925,104 L140.83125,101.032 L140.04725,101.858 L140.04725,104 L137.80725,104 L137.80725,93.948 L140.04725,93.948 Z" id="Combined-Shape" fill="#FFFFFF"></path>
        <path d="M16.3651267,93.2139704 L15.5305514,93.4279408 L15.3070045,93.4996393 L15.0834575,93.5713065 L14.7909091,93.704327 L14.4983607,93.8373162 L14.2842027,93.9700553 L14.0700447,94.1027632 L13.8464978,94.2736332 L13.6229508,94.4445344 L13.3085246,94.7762104 L12.9940686,95.1078551 L12.7943666,95.4018065 L12.5946647,95.6957579 L12.4163636,96.0624705 L12.2380626,96.4292144 L12.1471535,96.7137268 L12.0562444,96.9982393 L11.9988077,97.2875963 L11.9413413,97.5769845 L11.910313,97.9800152 L11.8792846,98.3830458 L11.8792846,99.0464603 L11.8792846,99.7098747 L11.6942772,99.7318156 L11.5092697,99.7537564 L11.4185693,99.7936376 L11.3278689,99.8334874 L11.229687,99.920282 L11.1315052,100.007108 L11.0657526,100.136003 L11,100.264897 L11,102.327714 L11,104.390531 L11.0661997,104.520333 L11.1323994,104.650165 L11.2407452,104.743804 L11.3491207,104.837475 L11.472608,104.873668 L11.5961252,104.909892 L12.4754098,104.900235 L13.3546945,104.890608 L13.4739195,104.82316 L13.5931446,104.755681 L13.673532,104.666886 L13.7539195,104.57806 L13.8002086,104.461855 L13.8464978,104.345649 L13.8464978,102.302367 L13.8464978,100.259115 L13.7771684,100.121344 L13.707839,99.9836043 L13.5847094,99.8849016 L13.4615797,99.7861989 L13.3098063,99.7520687 L13.1580328,99.7179384 L13.051386,99.7179384 L12.9447392,99.7179384 L12.9601192,98.8193629 L12.9755291,97.9207873 L13.0249478,97.6396191 L13.0743964,97.3584822 L13.1613413,97.0863153 L13.2482861,96.8141798 L13.3652757,96.5704861 L13.4822653,96.3267924 L13.6528763,96.076754 L13.8234873,95.8267156 L13.9914754,95.6394993 L14.1594635,95.452283 L14.3233979,95.3089798 L14.4873323,95.1656452 L14.6319225,95.0627544 L14.7765425,94.9598324 L15.034307,94.8268432 L15.2921013,94.6938227 L15.485842,94.6243433 L15.6795827,94.5548326 L16.4992548,94.3361115 L17.318927,94.1174217 L17.4852161,94.132549 L17.6514754,94.1476763 L17.8173174,94.2299702 L17.9831893,94.3122329 L18.1036066,94.4492227 L18.2240238,94.5862125 L18.2707303,94.7511441 L18.3174367,94.9160444 L18.3174367,95.8324039 L18.3174367,96.7487322 L18.8560954,96.7487322 L19.3947541,96.7487322 L19.3825931,95.7095101 L19.3704322,94.6702879 L19.3185991,94.4827591 L19.266766,94.2952303 L19.1607154,94.0624445 L19.0546647,93.8296587 L18.9021461,93.6698217 L18.7496274,93.5099846 L18.5707899,93.3898099 L18.3919523,93.2696039 L18.2280179,93.1929359 L18.0640835,93.1162366 L17.9299553,93.0711984 L17.7958271,93.0261603 L17.4977645,93.0130958 L17.1997019,93 L16.3651267,93.2139704 M18.6394039,97.6919396 L18.4515648,97.8538083 L18.1707601,98.1216932 L17.8899553,98.3896093 L17.6393443,98.7021574 L17.3887332,99.0147054 L17.2243517,99.27262 L17.06,99.5305034 L16.9635768,99.7726968 L16.8671833,100.014859 L16.8185693,100.202388 L16.7699553,100.389917 L16.7410432,100.639955 L16.7121311,100.889994 L16.7378838,101.127718 L16.7636662,101.365442 L16.8129061,101.565285 L16.8621759,101.765128 L16.9486736,101.978661 L17.0351714,102.192162 L17.1944262,102.447483 L17.3536513,102.702772 L17.5369598,102.943809 L17.7202385,103.184846 L17.918152,103.404849 L18.1160656,103.62482 L18.0752906,103.679516 L18.0345455,103.734181 L17.758003,104.085703 L17.4814605,104.437195 L17.4511177,104.520864 L17.420775,104.604533 L17.4402385,104.700704 L17.4597019,104.796844 L17.5085246,104.855853 L17.557377,104.914862 L17.6532936,104.957431 L17.7492101,105 L18.8842921,105 L20.0193443,105 L20.1032787,104.954493 L20.1871833,104.908986 L20.2359165,104.801313 L20.2846498,104.69364 L20.2846498,104.60372 L20.2846498,104.513832 L20.2334426,104.43657 L20.1822355,104.359277 L19.8906706,103.985969 L19.5991058,103.612662 L19.8206557,103.376501 L20.0421759,103.140339 L20.1777049,102.963531 L20.3132042,102.786722 L20.501848,102.494709 L20.690462,102.202695 L20.7893592,101.953219 L20.8882563,101.703712 L20.9437258,101.421888 L20.999225,101.140032 L20.9996125,100.896495 L21,100.652957 L20.952608,100.412045 L20.9052161,100.171133 L20.8447988,99.9836043 L20.7843815,99.7960754 L20.6653651,99.5587265 L20.5463785,99.3214088 L20.3046498,98.9805126 L20.062921,98.6396478 L19.7937705,98.346634 L19.5245902,98.053589 L19.2135618,97.7918612 L18.9025633,97.5301023 L18.8648882,97.5301023 L18.8272429,97.5301023 L18.6394039,97.6919396 M18.5669449,99.8896523 L18.4439046,99.967008 L18.3928465,100.079838 L18.3417586,100.192668 L18.339851,100.326844 L18.3379136,100.46099 L18.3962742,100.581727 L18.4546349,100.702465 L18.6149329,100.788415 L18.775231,100.874366 L18.8667362,100.873679 L18.9582712,100.872991 L19.0774963,100.815295 L19.1967213,100.757598 L19.2617884,100.683149 L19.3268852,100.6087 L19.3586587,100.520718 L19.390462,100.432736 L19.3899851,100.317562 L19.3894784,100.202388 L19.3222951,100.077994 L19.2551118,99.9536309 L19.1365127,99.8831826 L19.0178838,99.8127342 L18.8539493,99.8125155 L18.6900149,99.8122967 L18.5669449,99.8896523" id="Shape" fill="#FFFFFF"></path>
        <path d="M12.3527668,0.588235294 L123.647233,0.588235294 C127.544836,0.588235294 129.254599,1.05236335 130.884229,1.92389881 C132.513858,2.79543428 133.792801,4.07437715 134.664336,5.70400678 C135.535872,7.33363641 136,9.04339944 136,12.9410021 L136,17.2354685 C136,21.1330711 135.535872,22.8428342 134.664336,24.4724638 C133.792801,26.1020934 132.513858,27.3810363 130.884229,28.2525718 C129.254599,29.1241072 127.544836,29.5882353 123.647233,29.5882353 L12.3527668,29.5882353 C8.45516415,29.5882353 6.74540111,29.1241072 5.11577148,28.2525718 C3.48614185,27.3810363 2.20719898,26.1020934 1.33566352,24.4724638 C0.464128056,22.8428342 1.89187828e-16,21.1330711 -2.88130828e-16,17.2354685 L2.88130828e-16,12.9410021 C-1.89187828e-16,9.04339944 0.464128056,7.33363641 1.33566352,5.70400678 C2.20719898,4.07437715 3.48614185,2.79543428 5.11577148,1.92389881 C6.74540111,1.05236335 8.45516415,0.588235294 12.3527668,0.588235294 Z" id="Rectangle" fill="#262A33"></path>
        <path d="M34.0361328,19.5882353 L34.0361328,14.8509306 C34.0361328,14.276709 33.8834651,13.8346561 33.578125,13.5247587 C33.2727849,13.2148613 32.848961,13.059915 32.3066406,13.059915 C30.8802012,13.059915 30.1669922,13.8711048 30.1669922,15.4935087 L30.1669922,19.5882353 L29.2578125,19.5882353 L29.2578125,12.3421415 L30.0849609,12.3421415 L30.1533203,13.6546415 L30.2490234,13.6546415 C30.4541026,12.6884909 31.165033,12.2054228 32.3818359,12.2054228 C33.1975952,12.2054228 33.8287738,12.4378423 34.2753906,12.9026884 C34.7220074,13.3675345 34.9453125,14.0237779 34.9453125,14.8714384 L34.9453125,19.5882353 L34.0361328,19.5882353 Z M37.4609375,22.7327665 L37.4609375,12.3421415 L38.2333984,12.3421415 L38.3564453,13.8665556 L38.4316406,13.8665556 C38.5273442,13.3242352 38.7711569,12.9118044 39.1630859,12.6292509 C39.555015,12.3466974 40.074541,12.2054228 40.7216797,12.2054228 C41.683273,12.2054228 42.4101538,12.5289873 42.9023438,13.1761259 C43.3945337,13.8232646 43.640625,14.775729 43.640625,16.0335478 C43.640625,17.2457934 43.3968123,18.1640785 42.9091797,18.7884306 C42.421547,19.4127827 41.7015022,19.724954 40.7490234,19.724954 C40.0745409,19.724954 39.5470397,19.5722863 39.1665039,19.2669462 C38.7859681,18.9616062 38.5501307,18.5423395 38.4589844,18.0091337 L38.3701172,18.0091337 L38.3701172,22.7327665 L37.4609375,22.7327665 Z M38.3701172,16.0745634 C38.3701172,17.9567343 39.0969979,18.8978056 40.5507812,18.8978056 C41.2662796,18.8978056 41.8074526,18.6551323 42.1743164,18.1697783 C42.5411802,17.6844243 42.7246094,16.9723546 42.7246094,16.0335478 C42.7246094,14.0328867 42.0022859,13.0325712 40.5576172,13.0325712 C39.0992766,13.0325712 38.3701172,13.9759212 38.3701172,15.8626494 L38.3701172,16.0745634 Z M50.8251953,19.5882353 L50.8251953,14.0511259 C50.8251953,13.3447422 50.5403674,12.9915556 49.9707031,12.9915556 C49.273434,12.9915556 48.9248047,13.4222154 48.9248047,14.2835478 L48.9248047,19.5882353 L48.0908203,19.5882353 L48.0908203,13.9144072 C48.0908203,13.2991697 47.8037138,12.9915556 47.2294922,12.9915556 C46.5367804,12.9915556 46.1904297,13.4222154 46.1904297,14.2835478 L46.1904297,19.5882353 L45.28125,19.5882353 L45.28125,12.3421415 L46.0742188,12.3421415 L46.1425781,13.2444853 L46.2109375,13.2444853 C46.3385423,12.5517735 46.7965455,12.2054228 47.5849609,12.2054228 C48.3050166,12.2054228 48.7356764,12.5517735 48.8769531,13.2444853 L48.9384766,13.2444853 C48.9931643,12.920916 49.1321603,12.6668495 49.3554688,12.4822783 C49.5787772,12.297707 49.8841126,12.2054228 50.2714844,12.2054228 C51.2467497,12.2054228 51.734375,12.7750786 51.734375,13.9144072 L51.734375,19.5882353 L50.8251953,19.5882353 Z M64.1552734,16.4710478 L64.1552734,18.7542509 L66.1992188,18.7542509 L66.1992188,19.5882353 L61.46875,19.5882353 L61.46875,18.7542509 L63.2392578,18.7542509 L63.2392578,13.1761259 L61.7421875,13.1761259 L61.7421875,12.3421415 L63.9707031,12.3421415 L64.1347656,14.2015165 L64.2373047,14.2015165 C64.401368,12.8707807 65.1122984,12.2054228 66.3701172,12.2054228 C67.1448606,12.2054228 67.7065412,12.4196134 68.0551758,12.8480009 C68.4038103,13.2763885 68.578125,13.9690899 68.578125,14.9261259 L67.6621094,14.9261259 C67.6621094,14.260758 67.5504568,13.7788292 67.3271484,13.4803251 C67.10384,13.181821 66.7460962,13.0325712 66.2539062,13.0325712 C65.5475225,13.0325712 65.0211606,13.3310709 64.6748047,13.928079 C64.3284488,14.5250872 64.1552734,15.372735 64.1552734,16.4710478 Z M72.6318359,19.724954 C71.8343059,19.724954 71.2167991,19.4982311 70.7792969,19.0447783 C70.3417947,18.5913255 70.1230469,17.9521717 70.1230469,17.1272978 L70.1230469,12.3421415 L71.0322266,12.3421415 L71.0322266,17.1272978 C71.0322266,17.6878475 71.1894516,18.1185072 71.5039062,18.41929 C71.8183609,18.7200727 72.2558566,18.8704619 72.8164062,18.8704619 C73.4817742,18.8704619 73.9864892,18.6688037 74.3305664,18.2654814 C74.6746436,17.8621591 74.8466797,17.1865473 74.8466797,16.2386259 L74.8466797,12.3421415 L75.7558594,12.3421415 L75.7558594,18.8157744 L76.7539062,18.9114775 L76.7539062,19.5882353 L74.9697266,19.6565947 L74.8945312,18.193704 L74.7783203,18.193704 C74.6507155,18.6813367 74.3989277,19.0584488 74.0229492,19.3250517 C73.6469708,19.5916546 73.183271,19.724954 72.6318359,19.724954 Z M83.2548828,19.5882353 L83.2548828,14.8509306 C83.2548828,14.276709 83.1022151,13.8346561 82.796875,13.5247587 C82.4915349,13.2148613 82.067711,13.059915 81.5253906,13.059915 C80.0989512,13.059915 79.3857422,13.8711048 79.3857422,15.4935087 L79.3857422,19.5882353 L78.4765625,19.5882353 L78.4765625,12.3421415 L79.3037109,12.3421415 L79.3720703,13.6546415 L79.4677734,13.6546415 C79.6728526,12.6884909 80.383783,12.2054228 81.6005859,12.2054228 C82.4163452,12.2054228 83.0475238,12.4378423 83.4941406,12.9026884 C83.9407574,13.3675345 84.1640625,14.0237779 84.1640625,14.8714384 L84.1640625,19.5882353 L83.2548828,19.5882353 Z M99.0390625,19.724954 C98.104813,19.724954 97.4143903,19.4856986 96.9677734,19.0071806 C96.5211566,18.5286626 96.2978516,17.794946 96.2978516,16.8060087 L96.2978516,13.1761259 L94.2128906,13.1761259 L94.2128906,12.3421415 L96.2978516,12.3421415 L96.2978516,10.1546415 L97.2138672,10.1546415 L97.2138672,12.3421415 L100.556641,12.3421415 L100.556641,13.1761259 L97.2138672,13.1761259 L97.2138672,16.7855009 C97.2138672,17.4918847 97.3733708,18.015968 97.6923828,18.3577665 C98.0113948,18.6995651 98.505856,18.8704619 99.1757812,18.8704619 C99.4401055,18.8704619 99.6964506,18.8579294 99.9448242,18.8328642 C100.193198,18.807799 100.4541,18.7747589 100.727539,18.7337431 L100.830078,19.5608915 C100.524738,19.6155793 100.230796,19.6565945 99.9482422,19.6839384 C99.6656887,19.7112823 99.3626318,19.724954 99.0390625,19.724954 Z M106.56543,19.724954 C105.366856,19.724954 104.439456,19.3922751 103.783203,18.7269072 C103.12695,18.0615393 102.798828,17.1181893 102.798828,15.896829 C102.798828,14.7255992 103.075681,13.8175679 103.629395,13.172708 C104.183108,12.527848 104.961258,12.2054228 105.963867,12.2054228 C106.902674,12.2054228 107.630694,12.4970865 108.147949,13.0804228 C108.665204,13.663759 108.923828,14.4931778 108.923828,15.568704 C108.923828,15.8512575 108.910156,16.0882343 108.882812,16.2796415 L103.694336,16.2796415 C103.767253,17.1136301 104.065753,17.7562018 104.589844,18.2073759 C105.113935,18.65855 105.827144,18.8841337 106.729492,18.8841337 C107.294599,18.8841337 107.864255,18.8203323 108.438477,18.6927275 L108.568359,19.5335478 C108.249347,19.5973502 107.916668,19.6452013 107.570312,19.6771025 C107.223957,19.7090037 106.888999,19.724954 106.56543,19.724954 Z M103.694336,15.5003447 L108.048828,15.5003447 C108.048828,14.7164866 107.867678,14.1115122 107.505371,13.6854033 C107.143065,13.2592944 106.633792,13.0462431 105.977539,13.0462431 C105.303057,13.0462431 104.76758,13.2604337 104.371094,13.6888212 C103.974607,14.1172088 103.749024,14.7210439 103.694336,15.5003447 Z M113.572266,19.724954 C113.043617,19.724954 112.59131,19.7090037 112.215332,19.6771025 C111.839354,19.6452013 111.503257,19.592793 111.207031,19.5198759 L111.316406,18.6517119 C111.78581,18.7246289 112.19824,18.7793158 112.553711,18.8157744 C112.909181,18.8522329 113.248696,18.8704619 113.572266,18.8704619 C114.465499,18.8704619 115.113768,18.7770383 115.51709,18.5901884 C115.920412,18.4033385 116.12207,18.1025603 116.12207,17.6878447 C116.12207,17.4007339 116.028647,17.1660357 115.841797,16.9837431 C115.654947,16.8014505 115.356447,16.6601759 114.946289,16.559915 L113.319336,16.1497587 C112.61751,15.9720235 112.108237,15.7350467 111.791504,15.4388212 C111.474771,15.1425958 111.316406,14.7552299 111.316406,14.2767119 C111.316406,13.5429842 111.611488,13.0143437 112.20166,12.6907744 C112.791832,12.367205 113.745436,12.2054228 115.0625,12.2054228 C115.381512,12.2054228 115.678872,12.2156766 115.95459,12.2361845 C116.230307,12.2566924 116.534504,12.2920111 116.867188,12.3421415 L116.764648,13.1556181 C116.395506,13.1191596 116.073081,13.0940947 115.797363,13.0804228 C115.521646,13.0667509 115.263022,13.059915 115.021484,13.059915 C114.046219,13.059915 113.340985,13.1544778 112.905762,13.3436064 C112.470538,13.5327349 112.25293,13.8369311 112.25293,14.256204 C112.25293,14.5068563 112.363443,14.7187683 112.584473,14.8919462 C112.805502,15.0651242 113.159828,15.2109561 113.647461,15.3294462 L114.946289,15.6438994 C115.693689,15.8261919 116.232583,16.0779798 116.562988,16.3992705 C116.893394,16.7205611 117.058594,17.1478029 117.058594,17.6810087 C117.058594,18.3965071 116.78402,18.9160332 116.234863,19.2396025 C115.685707,19.5631718 114.798183,19.724954 113.572266,19.724954 Z M123.648438,19.724954 C122.714188,19.724954 122.023765,19.4856986 121.577148,19.0071806 C121.130532,18.5286626 120.907227,17.794946 120.907227,16.8060087 L120.907227,13.1761259 L118.822266,13.1761259 L118.822266,12.3421415 L120.907227,12.3421415 L120.907227,10.1546415 L121.823242,10.1546415 L121.823242,12.3421415 L125.166016,12.3421415 L125.166016,13.1761259 L121.823242,13.1761259 L121.823242,16.7855009 C121.823242,17.4918847 121.982746,18.015968 122.301758,18.3577665 C122.62077,18.6995651 123.115231,18.8704619 123.785156,18.8704619 C124.04948,18.8704619 124.305826,18.8579294 124.554199,18.8328642 C124.802573,18.807799 125.063475,18.7747589 125.336914,18.7337431 L125.439453,19.5608915 C125.134113,19.6155793 124.840171,19.6565945 124.557617,19.6839384 C124.275064,19.7112823 123.972007,19.724954 123.648438,19.724954 Z" id="Combined-Shape" fill="#FFFFFF"></path>
        <path d="M11.2468692,12.4805846 C11.074573,12.3033153 11.074573,12.0159972 11.2468692,11.838728 C11.4191931,11.6616005 11.6985402,11.6616005 11.8708916,11.838728 L14.5177953,14.5620096 C14.6901467,14.7392789 14.6901467,15.0257461 14.5177953,15.2030154 L11.8708916,17.9258716 C11.6985402,18.1031409 11.4191931,18.1031409 11.2468692,17.9258716 C11.074573,17.7486023 11.074573,17.4621351 11.2468692,17.2848658 L13.5815825,14.8825125 L11.2468692,12.4805846 Z M18.7860963,17 C19.0345588,17 19.2352941,17.2365809 19.2352941,17.5294118 C19.2352941,17.8222426 19.0345588,18.0588235 18.7860963,18.0588235 L14.7433155,18.0588235 C14.4948529,18.0588235 14.2941176,17.8222426 14.2941176,17.5294118 C14.2941176,17.2365809 14.4948529,17 14.7433155,17 L18.7860963,17 Z M11.714702,10.6470588 C11.0139176,10.6470588 10.800509,10.6882699 10.5826798,10.8047662 C10.4221013,10.8906446 10.3024093,11.0103366 10.216531,11.1709151 C10.1000346,11.3887443 10.0588235,11.6021529 10.0588235,12.3029373 L10.0588235,17.4617686 C10.0588235,18.162553 10.1000346,18.3759616 10.216531,18.5937908 C10.3024093,18.7543693 10.4221013,18.8740613 10.5826798,18.9599396 C10.800509,19.076436 11.0139176,19.1176471 11.714702,19.1176471 L18.285298,19.1176471 C18.9860824,19.1176471 19.199491,19.076436 19.4173202,18.9599396 C19.5778987,18.8740613 19.6975907,18.7543693 19.783469,18.5937908 C19.8999654,18.3759616 19.9411765,18.162553 19.9411765,17.4617686 L19.9411765,12.3029373 C19.9411765,11.6021529 19.8999654,11.3887443 19.783469,11.1709151 C19.6975907,11.0103366 19.5778987,10.8906446 19.4173202,10.8047662 C19.199491,10.6882699 18.9860824,10.6470588 18.285298,10.6470588 L11.714702,10.6470588 Z M11.714702,9.58823529 L18.285298,9.58823529 C19.229259,9.58823529 19.5715621,9.68652124 19.9166602,9.87108169 C20.2617582,10.0556421 20.5325932,10.3264771 20.7171536,10.6715751 C20.9017141,11.0166732 21,11.3589763 21,12.3029373 L21,17.4617686 C21,18.4057296 20.9017141,18.7480327 20.7171536,19.0931307 C20.5325932,19.4382288 20.2617582,19.7090637 19.9166602,19.8936242 C19.5715621,20.0781846 19.229259,20.1764706 18.285298,20.1764706 L11.714702,20.1764706 C10.770741,20.1764706 10.4284379,20.0781846 10.0833398,19.8936242 C9.7382418,19.7090637 9.46740684,19.4382288 9.28284639,19.0931307 C9.09828594,18.7480327 9,18.4057296 9,17.4617686 L9,12.3029373 C9,11.3589763 9.09828594,11.0166732 9.28284639,10.6715751 C9.46740684,10.3264771 9.7382418,10.0556421 10.0833398,9.87108169 C10.4284379,9.68652124 10.770741,9.58823529 11.714702,9.58823529 Z" id="Combined-Shape" fill="#FFFFFF" fill-rule="nonzero"></path>
        <path d="M85.3992844,40.1517082 L86.9967826,37.2453529 L87.2054431,36.8657333 L87.9473471,37.2928053 L87.7386866,37.6724249 L85.3446256,42.0279805 C85.1819128,42.3240065 84.7654343,42.3240065 84.6027215,42.0279805 L82.2086605,37.6724249 L82,37.2928053 L82.741904,36.8657333 L82.9505645,37.2453529 L84.5480627,40.1517082 L84.5480627,37.4588889 L84.5480627,30.4355556 L84.5480627,30 L85.3992844,30 L85.3992844,30.4355556 L85.3992844,37.4588889 L85.3992844,40.1517082 Z" id="Line" fill="#262A33" fill-rule="nonzero"></path>
        <path d="M85.3992844,82.1517082 L86.9967826,79.2453529 L87.2054431,78.8657333 L87.9473471,79.2928053 L87.7386866,79.6724249 L85.3446256,84.0279805 C85.1819128,84.3240065 84.7654343,84.3240065 84.6027215,84.0279805 L82.2086605,79.6724249 L82,79.2928053 L82.741904,78.8657333 L82.9505645,79.2453529 L84.5480627,82.1517082 L84.5480627,79.4588889 L84.5480627,72.4355556 L84.5480627,72 L85.3992844,72 L85.3992844,72.4355556 L85.3992844,79.4588889 L85.3992844,82.1517082 Z" id="Line" fill="#262A33" fill-rule="nonzero"></path>
        <path d="M85.3992844,124.151708 L86.9967826,121.245353 L87.2054431,120.865733 L87.9473471,121.292805 L87.7386866,121.672425 L85.3446256,126.02798 C85.1819128,126.324007 84.7654343,126.324007 84.6027215,126.02798 L82.2086605,121.672425 L82,121.292805 L82.741904,120.865733 L82.9505645,121.245353 L84.5480627,124.151708 L84.5480627,121.458889 L84.5480627,114.435556 L84.5480627,114 L85.3992844,114 L85.3992844,114.435556 L85.3992844,121.458889 L85.3992844,124.151708 Z" id="Line" fill="#262A33" fill-rule="nonzero"></path>
        <path d="M12.3527668,43 L157.647233,43 C161.544836,43 163.254599,43.4641281 164.884229,44.3356635 C166.513858,45.207199 167.792801,46.4861419 168.664336,48.1157715 C169.535872,49.7454011 170,51.4551641 170,55.3527668 L170,59.6472332 C170,63.5448359 169.535872,65.2545989 168.664336,66.8842285 C167.792801,68.5138581 166.513858,69.792801 164.884229,70.6643365 C163.254599,71.5358719 161.544836,72 157.647233,72 L12.3527668,72 C8.45516415,72 6.74540111,71.5358719 5.11577148,70.6643365 C3.48614185,69.792801 2.20719898,68.5138581 1.33566352,66.8842285 C0.464128056,65.2545989 1.89187828e-16,63.5448359 -2.88130828e-16,59.6472332 L2.88130828e-16,55.3527668 C-1.89187828e-16,51.4551641 0.464128056,49.7454011 1.33566352,48.1157715 C2.20719898,46.4861419 3.48614185,45.207199 5.11577148,44.3356635 C6.74540111,43.4641281 8.45516415,43 12.3527668,43 Z" id="Rectangle" fill="url(#linearGradient-3)"></path>
        <path d="M28.890625,50.7148438 L28.8320312,48.8398438 L29.5117188,48.8398438 L29.453125,50.7148438 L28.890625,50.7148438 Z M30.0742188,50.7148438 L30.015625,48.8398438 L30.6953125,48.8398438 L30.6367188,50.7148438 L30.0742188,50.7148438 Z M33.0332031,53.0585938 C32.798827,53.0585938 32.5981454,53.0517579 32.4311523,53.0380859 C32.2641593,53.024414 32.1113288,53.0019533 31.9726562,52.9707031 L32.0429688,52.4082031 C32.2480479,52.4394533 32.4291984,52.4628905 32.5864258,52.4785156 C32.7436531,52.4941407 32.8925774,52.5019531 33.0332031,52.5019531 C33.3476578,52.5019531 33.5756829,52.4711917 33.7172852,52.409668 C33.8588874,52.3481442 33.9296875,52.2500007 33.9296875,52.1152344 C33.9296875,52.0214839 33.9047854,51.9516604 33.8549805,51.9057617 C33.8051755,51.8598631 33.7285161,51.8242189 33.625,51.7988281 L32.9101562,51.6171875 C32.6035141,51.5390621 32.3784187,51.4423834 32.2348633,51.3271484 C32.0913079,51.2119135 32.0195312,51.0371105 32.0195312,50.8027344 C32.0195312,50.4628889 32.149901,50.2167976 32.4106445,50.0644531 C32.671388,49.9121086 33.091794,49.8359375 33.671875,49.8359375 C33.9570327,49.8359375 34.2304674,49.8554686 34.4921875,49.8945312 L34.4277344,50.4335938 C34.2695305,50.4179687 34.1298834,50.4072266 34.0087891,50.4013672 C33.8876947,50.3955078 33.7695318,50.3925781 33.6542969,50.3925781 C33.3066389,50.3925781 33.0546883,50.422363 32.8984375,50.4819336 C32.7421867,50.5415042 32.6640625,50.6386712 32.6640625,50.7734375 C32.6640625,50.8632817 32.6962887,50.9282225 32.7607422,50.9682617 C32.8251956,51.008301 32.9238275,51.0449217 33.0566406,51.078125 L33.6308594,51.21875 C33.9570329,51.2968754 34.1958,51.4013665 34.347168,51.5322266 C34.4985359,51.6630866 34.5742188,51.8535144 34.5742188,52.1035156 C34.5742188,52.4375017 34.4521497,52.680175 34.2080078,52.831543 C33.963866,52.9829109 33.5722683,53.0585938 33.0332031,53.0585938 Z M37.0878906,53.0585938 C36.5585911,53.0585938 36.1499038,52.919435 35.8618164,52.6411133 C35.573729,52.3627916 35.4296875,51.9628932 35.4296875,51.4414062 C35.4296875,50.9335912 35.5659166,50.5390639 35.8383789,50.2578125 C36.1108412,49.9765611 36.4999975,49.8359375 37.0058594,49.8359375 C37.3085953,49.8359375 37.56787,49.8920893 37.7836914,50.0043945 C37.9995128,50.1166998 38.1533199,50.2753896 38.2451172,50.4804688 L37.7675781,50.8408203 C37.6796871,50.6982415 37.5673835,50.587891 37.4306641,50.5097656 C37.2939446,50.4316402 37.1445321,50.3925781 36.9824219,50.3925781 C36.6894517,50.3925781 36.4619149,50.4809561 36.2998047,50.6577148 C36.1376945,50.8344735 36.0566406,51.0859359 36.0566406,51.4121094 C36.0566406,51.7656268 36.1518545,52.0356436 36.3422852,52.222168 C36.5327158,52.4086923 36.8046857,52.5019531 37.1582031,52.5019531 C37.3027351,52.5019531 37.4472649,52.4951173 37.5917969,52.4814453 C37.7363288,52.4677734 37.8769524,52.4492189 38.0136719,52.4257812 L38.0839844,52.9707031 C37.9238273,53.0058596 37.7583016,53.0292968 37.5874023,53.0410156 C37.4165031,53.0527344 37.2500008,53.0585938 37.0878906,53.0585938 Z M40.09375,51.6640625 L40.09375,52.4550781 L40.8554688,52.4550781 L40.8554688,53 L38.78125,53 L38.78125,52.4550781 L39.4726562,52.4550781 L39.4726562,50.4394531 L38.8984375,50.4394531 L38.8984375,49.8945312 L39.9765625,49.8945312 L40.0820312,50.6914062 L40.1523438,50.6914062 C40.1875002,50.1210909 40.4726536,49.8359375 41.0078125,49.8359375 C41.3281266,49.8359375 41.5605462,49.9277335 41.7050781,50.1113281 C41.8496101,50.2949228 41.921875,50.5917948 41.921875,51.0019531 L41.3066406,51.0019531 C41.3066406,50.7753895 41.2729496,50.6123052 41.2055664,50.5126953 C41.1381833,50.4130854 41.0292976,50.3632812 40.8789062,50.3632812 C40.6152331,50.3632812 40.4184577,50.4760731 40.2885742,50.7016602 C40.1586908,50.9272472 40.09375,51.2480448 40.09375,51.6640625 Z M42.53125,53 L42.53125,52.4550781 L43.7148438,52.4550781 L43.7148438,50.4394531 L42.7070312,50.4394531 L42.7070312,49.8945312 L44.3359375,49.8945312 L44.3359375,52.4550781 L45.2910156,52.4550781 L45.2910156,53 L42.53125,53 Z M44.0048828,49.4023438 C43.8857416,49.4023438 43.7836918,49.3598637 43.6987305,49.2749023 C43.6137691,49.189941 43.5712891,49.0878912 43.5712891,48.96875 C43.5712891,48.8476556 43.6137691,48.7451176 43.6987305,48.6611328 C43.7836918,48.577148 43.8857416,48.5351562 44.0048828,48.5351562 C44.1259772,48.5351562 44.2285152,48.577148 44.3125,48.6611328 C44.3964848,48.7451176 44.4384766,48.8476556 44.4384766,48.96875 C44.4384766,49.0878912 44.3964848,49.189941 44.3125,49.2749023 C44.2285152,49.3598637 44.1259772,49.4023438 44.0048828,49.4023438 Z M46.0703125,54.3476562 L46.0703125,49.8945312 L46.6328125,49.8945312 L46.6826172,50.4570312 L46.7207031,50.4570312 C46.748047,50.2617178 46.836425,50.1093755 46.9858398,50 C47.1352547,49.8906245 47.3310535,49.8359375 47.5732422,49.8359375 C47.9814474,49.8359375 48.290038,49.974608 48.4990234,50.2519531 C48.7080089,50.5292983 48.8125,50.9374973 48.8125,51.4765625 C48.8125,51.9960963 48.7080089,52.3896471 48.4990234,52.6572266 C48.290038,52.924806 47.9814474,53.0585938 47.5732422,53.0585938 C47.3349597,53.0585938 47.1430671,53.0039068 46.9975586,52.8945312 C46.8520501,52.7851557 46.7695313,52.6328135 46.75,52.4375 L46.6914062,52.4375 L46.6914062,54.3476562 L46.0703125,54.3476562 Z M46.6914062,51.5527344 C46.6914062,52.2050814 46.9394506,52.53125 47.4355469,52.53125 C47.9433619,52.53125 48.1972656,52.179691 48.1972656,51.4765625 C48.1972656,50.7343713 47.9433619,50.3632812 47.4355469,50.3632812 C46.9394506,50.3632812 46.6914062,50.6894499 46.6914062,51.3417969 L46.6914062,51.5527344 Z M51.4140625,53.0585938 C50.943357,53.0585938 50.6030284,52.9609385 50.3930664,52.765625 C50.1831044,52.5703115 50.078125,52.2578146 50.078125,51.828125 L50.078125,50.4394531 L49.2988281,50.4394531 L49.2988281,49.8945312 L50.078125,49.8945312 L50.078125,48.9570312 L50.6992188,48.9570312 L50.6992188,49.8945312 L52.1113281,49.8945312 L52.1113281,50.4394531 L50.6992188,50.4394531 L50.6992188,51.7988281 C50.6992188,52.0449231 50.7592767,52.2236323 50.8793945,52.3349609 C50.9995123,52.4462896 51.1972642,52.5019531 51.4726562,52.5019531 C51.570313,52.5019531 51.6738276,52.4965821 51.7832031,52.4858398 C51.8925787,52.4750976 52.0175774,52.4609376 52.1582031,52.4433594 L52.2285156,52.9882812 C52.0917962,53.0117189 51.9584967,53.0292968 51.8286133,53.0410156 C51.6987298,53.0527344 51.5605476,53.0585938 51.4140625,53.0585938 Z M54.1269531,53.0585938 C53.892577,53.0585938 53.6918954,53.0517579 53.5249023,53.0380859 C53.3579093,53.024414 53.2050788,53.0019533 53.0664062,52.9707031 L53.1367188,52.4082031 C53.3417979,52.4394533 53.5229484,52.4628905 53.6801758,52.4785156 C53.8374031,52.4941407 53.9863274,52.5019531 54.1269531,52.5019531 C54.4414078,52.5019531 54.6694329,52.4711917 54.8110352,52.409668 C54.9526374,52.3481442 55.0234375,52.2500007 55.0234375,52.1152344 C55.0234375,52.0214839 54.9985354,51.9516604 54.9487305,51.9057617 C54.8989255,51.8598631 54.8222661,51.8242189 54.71875,51.7988281 L54.0039062,51.6171875 C53.6972641,51.5390621 53.4721687,51.4423834 53.3286133,51.3271484 C53.1850579,51.2119135 53.1132812,51.0371105 53.1132812,50.8027344 C53.1132812,50.4628889 53.243651,50.2167976 53.5043945,50.0644531 C53.765138,49.9121086 54.185544,49.8359375 54.765625,49.8359375 C55.0507827,49.8359375 55.3242174,49.8554686 55.5859375,49.8945312 L55.5214844,50.4335938 C55.3632805,50.4179687 55.2236334,50.4072266 55.1025391,50.4013672 C54.9814447,50.3955078 54.8632818,50.3925781 54.7480469,50.3925781 C54.4003889,50.3925781 54.1484383,50.422363 53.9921875,50.4819336 C53.8359367,50.5415042 53.7578125,50.6386712 53.7578125,50.7734375 C53.7578125,50.8632817 53.7900387,50.9282225 53.8544922,50.9682617 C53.9189456,51.008301 54.0175775,51.0449217 54.1503906,51.078125 L54.7246094,51.21875 C55.0507829,51.2968754 55.28955,51.4013665 55.440918,51.5322266 C55.5922859,51.6630866 55.6679688,51.8535144 55.6679688,52.1035156 C55.6679688,52.4375017 55.5458997,52.680175 55.3017578,52.831543 C55.057616,52.9829109 54.6660183,53.0585938 54.1269531,53.0585938 Z M57.015625,50.7148438 L56.9570312,48.8398438 L57.6367188,48.8398438 L57.578125,50.7148438 L57.015625,50.7148438 Z M58.1992188,50.7148438 L58.140625,48.8398438 L58.8203125,48.8398438 L58.7617188,50.7148438 L58.1992188,50.7148438 Z M61.3984375,53.0585938 C61.2792963,53.0585938 61.1772465,53.0161137 61.0922852,52.9311523 C61.0073238,52.846191 60.9648438,52.7441412 60.9648438,52.625 C60.9648438,52.5039056 61.0073238,52.4013676 61.0922852,52.3173828 C61.1772465,52.233398 61.2792963,52.1914062 61.3984375,52.1914062 C61.5195319,52.1914062 61.6220699,52.233398 61.7060547,52.3173828 C61.7900395,52.4013676 61.8320312,52.5039056 61.8320312,52.625 C61.8320312,52.7441412 61.7900395,52.846191 61.7060547,52.9311523 C61.6220699,53.0161137 61.5195319,53.0585938 61.3984375,53.0585938 Z M61.3984375,50.703125 C61.2792963,50.703125 61.1772465,50.660645 61.0922852,50.5756836 C61.0073238,50.4907222 60.9648438,50.3886725 60.9648438,50.2695312 C60.9648438,50.1484369 61.0073238,50.0458989 61.0922852,49.9619141 C61.1772465,49.8779293 61.2792963,49.8359375 61.3984375,49.8359375 C61.5195319,49.8359375 61.6220699,49.8779293 61.7060547,49.9619141 C61.7900395,50.0458989 61.8320312,50.1484369 61.8320312,50.2695312 C61.8320312,50.3886725 61.7900395,50.4907222 61.7060547,50.5756836 C61.6220699,50.660645 61.5195319,50.703125 61.3984375,50.703125 Z M69.0625,53.6269531 C68.8515614,53.6269531 68.6630868,53.5834965 68.4970703,53.496582 C68.3310539,53.4096675 68.2070317,53.2851571 68.125,53.1230469 C68.0429683,52.9609367 68.0214842,52.7675792 68.0605469,52.5429688 C68.0898439,52.3749992 68.1372067,52.2119149 68.2026367,52.0537109 C68.2680667,51.895507 68.3007812,51.7304696 68.3007812,51.5585938 C68.3007812,51.4824215 68.2695316,51.4184573 68.2070312,51.3666992 C68.1445309,51.3149411 68.0649419,51.2744142 67.9682617,51.2451172 C67.8715815,51.2158202 67.7714849,51.1948243 67.6679688,51.1821289 C67.5644526,51.1694335 67.4726567,51.1630859 67.3925781,51.1630859 L67.3925781,50.7001953 C67.4707035,50.7001953 67.5610346,50.6904298 67.6635742,50.6708984 C67.7661138,50.6513671 67.8662104,50.6225588 67.9638672,50.5844727 C68.0615239,50.5463865 68.1420895,50.499512 68.2055664,50.4438477 C68.2690433,50.3881833 68.3007812,50.3242191 68.3007812,50.2519531 C68.3007812,50.1328119 68.2846681,50.0195318 68.2524414,49.9121094 C68.2202147,49.804687 68.1850588,49.6982427 68.1469727,49.5927734 C68.1088865,49.4873042 68.0800782,49.3789068 68.0605469,49.2675781 C68.0214842,49.0507802 68.0429683,48.8657234 68.125,48.7124023 C68.2070317,48.5590813 68.3310539,48.4414067 68.4970703,48.359375 C68.6630868,48.2773433 68.8515614,48.2363281 69.0625,48.2363281 C69.177735,48.2363281 69.2734371,48.2416992 69.3496094,48.2524414 C69.4257816,48.2631836 69.4960934,48.2773437 69.5605469,48.2949219 L69.4902344,48.8046875 C69.4218747,48.7949218 69.3559573,48.7875977 69.2924805,48.7827148 C69.2290036,48.777832 69.1699221,48.7753906 69.1152344,48.7753906 C68.9765618,48.7753906 68.8642582,48.8183589 68.7783203,48.9042969 C68.6923824,48.9902348 68.6621092,49.1113273 68.6875,49.2675781 C68.7070313,49.3828131 68.7368162,49.4931635 68.7768555,49.5986328 C68.8168947,49.7041021 68.8540037,49.8090815 68.8881836,49.9135742 C68.9223635,50.0180669 68.9394531,50.1269526 68.9394531,50.2402344 C68.9394531,50.4414073 68.8618172,50.5976557 68.706543,50.7089844 C68.5512688,50.8203131 68.3339858,50.8779297 68.0546875,50.8818359 L68.0546875,50.9814453 C68.3339858,50.9853516 68.5512688,51.0395503 68.706543,51.144043 C68.8618172,51.2485357 68.9394531,51.3906241 68.9394531,51.5703125 C68.9394531,51.6875006 68.9223635,51.7993159 68.8881836,51.9057617 C68.8540037,52.0122076 68.8168947,52.117187 68.7768555,52.2207031 C68.7368162,52.3242193 68.7070313,52.4316401 68.6875,52.5429688 C68.6562498,52.7148446 68.6850581,52.8486323 68.7739258,52.9443359 C68.8627934,53.0400395 68.9765618,53.0878906 69.1152344,53.0878906 C69.1699221,53.0878906 69.2290036,53.084961 69.2924805,53.0791016 C69.3559573,53.0732422 69.4218747,53.0664063 69.4902344,53.0585938 L69.5605469,53.5683594 C69.4960934,53.5859376 69.4257816,53.6000976 69.3496094,53.6108398 C69.2734371,53.6215821 69.177735,53.6269531 69.0625,53.6269531 Z M39.4375,57.7148438 L39.3789062,55.8398438 L40.0585938,55.8398438 L40,57.7148438 L39.4375,57.7148438 Z M40.6210938,57.7148438 L40.5625,55.8398438 L41.2421875,55.8398438 L41.1835938,57.7148438 L40.6210938,57.7148438 Z M44.3828125,60.0585938 C43.912107,60.0585938 43.5717784,59.9609385 43.3618164,59.765625 C43.1518544,59.5703115 43.046875,59.2578146 43.046875,58.828125 L43.046875,57.4394531 L42.2675781,57.4394531 L42.2675781,56.8945312 L43.046875,56.8945312 L43.046875,55.9570312 L43.6679688,55.9570312 L43.6679688,56.8945312 L45.0800781,56.8945312 L45.0800781,57.4394531 L43.6679688,57.4394531 L43.6679688,58.7988281 C43.6679688,59.0449231 43.7280267,59.2236323 43.8481445,59.3349609 C43.9682623,59.4462896 44.1660142,59.5019531 44.4414062,59.5019531 C44.539063,59.5019531 44.6425776,59.4965821 44.7519531,59.4858398 C44.8613287,59.4750976 44.9863274,59.4609376 45.1269531,59.4433594 L45.1972656,59.9882812 C45.0605462,60.0117189 44.9272467,60.0292968 44.7973633,60.0410156 C44.6674798,60.0527344 44.5292976,60.0585938 44.3828125,60.0585938 Z M47.6054688,60.0585938 C47.0761692,60.0585938 46.6674819,59.919435 46.3793945,59.6411133 C46.0913072,59.3627916 45.9472656,58.9628932 45.9472656,58.4414062 C45.9472656,57.9335912 46.0693347,57.5390639 46.3134766,57.2578125 C46.5576184,56.9765611 46.9023415,56.8359375 47.3476562,56.8359375 C47.7675802,56.8359375 48.092284,56.9628894 48.3217773,57.2167969 C48.5512707,57.4707044 48.6660156,57.8398413 48.6660156,58.3242188 C48.6660156,58.4667976 48.6601563,58.5996088 48.6484375,58.7226562 L46.5507812,58.7226562 C46.605469,58.9824232 46.7285147,59.1791985 46.9199219,59.3129883 C47.1113291,59.446778 47.3632797,59.5136719 47.6757812,59.5136719 C47.8046881,59.5136719 47.93164,59.5063477 48.0566406,59.4916992 C48.1816412,59.4770507 48.3085931,59.4570314 48.4375,59.4316406 L48.5136719,59.9765625 C48.3300772,60.0117189 48.1621101,60.0341796 48.0097656,60.0439453 C47.8574211,60.053711 47.7226568,60.0585938 47.6054688,60.0585938 Z M46.5273438,58.2480469 L48.1035156,58.2480469 C48.1035156,57.9687486 48.03711,57.7543953 47.9042969,57.6049805 C47.7714837,57.4555657 47.5878918,57.3808594 47.3535156,57.3808594 C47.11328,57.3808594 46.9218757,57.4560539 46.7792969,57.6064453 C46.636718,57.7568367 46.5527345,57.9707017 46.5273438,58.2480469 Z M50.6113281,60.0585938 C50.376952,60.0585938 50.1762704,60.0517579 50.0092773,60.0380859 C49.8422843,60.024414 49.6894538,60.0019533 49.5507812,59.9707031 L49.6210938,59.4082031 C49.8261729,59.4394533 50.0073234,59.4628905 50.1645508,59.4785156 C50.3217781,59.4941407 50.4707024,59.5019531 50.6113281,59.5019531 C50.9257828,59.5019531 51.1538079,59.4711917 51.2954102,59.409668 C51.4370124,59.3481442 51.5078125,59.2500007 51.5078125,59.1152344 C51.5078125,59.0214839 51.4829104,58.9516604 51.4331055,58.9057617 C51.3833005,58.8598631 51.3066411,58.8242189 51.203125,58.7988281 L50.4882812,58.6171875 C50.1816391,58.5390621 49.9565437,58.4423834 49.8129883,58.3271484 C49.6694329,58.2119135 49.5976562,58.0371105 49.5976562,57.8027344 C49.5976562,57.4628889 49.728026,57.2167976 49.9887695,57.0644531 C50.249513,56.9121086 50.669919,56.8359375 51.25,56.8359375 C51.5351577,56.8359375 51.8085924,56.8554686 52.0703125,56.8945312 L52.0058594,57.4335938 C51.8476555,57.4179687 51.7080084,57.4072266 51.5869141,57.4013672 C51.4658197,57.3955078 51.3476568,57.3925781 51.2324219,57.3925781 C50.8847639,57.3925781 50.6328133,57.422363 50.4765625,57.4819336 C50.3203117,57.5415042 50.2421875,57.6386712 50.2421875,57.7734375 C50.2421875,57.8632817 50.2744137,57.9282225 50.3388672,57.9682617 C50.4033206,58.008301 50.5019525,58.0449217 50.6347656,58.078125 L51.2089844,58.21875 C51.5351579,58.2968754 51.773925,58.4013665 51.925293,58.5322266 C52.0766609,58.6630866 52.1523438,58.8535144 52.1523438,59.1035156 C52.1523438,59.4375017 52.0302747,59.680175 51.7861328,59.831543 C51.541991,59.9829109 51.1503933,60.0585938 50.6113281,60.0585938 Z M54.9296875,60.0585938 C54.458982,60.0585938 54.1186534,59.9609385 53.9086914,59.765625 C53.6987294,59.5703115 53.59375,59.2578146 53.59375,58.828125 L53.59375,57.4394531 L52.8144531,57.4394531 L52.8144531,56.8945312 L53.59375,56.8945312 L53.59375,55.9570312 L54.2148438,55.9570312 L54.2148438,56.8945312 L55.6269531,56.8945312 L55.6269531,57.4394531 L54.2148438,57.4394531 L54.2148438,58.7988281 C54.2148438,59.0449231 54.2749017,59.2236323 54.3950195,59.3349609 C54.5151373,59.4462896 54.7128892,59.5019531 54.9882812,59.5019531 C55.085938,59.5019531 55.1894526,59.4965821 55.2988281,59.4858398 C55.4082037,59.4750976 55.5332024,59.4609376 55.6738281,59.4433594 L55.7441406,59.9882812 C55.6074212,60.0117189 55.4741217,60.0292968 55.3442383,60.0410156 C55.2143548,60.0527344 55.0761726,60.0585938 54.9296875,60.0585938 Z M57.015625,57.7148438 L56.9570312,55.8398438 L57.6367188,55.8398438 L57.578125,57.7148438 L57.015625,57.7148438 Z M58.1992188,57.7148438 L58.140625,55.8398438 L58.8203125,55.8398438 L58.7617188,57.7148438 L58.1992188,57.7148438 Z M61.3984375,60.0585938 C61.2792963,60.0585938 61.1772465,60.0161137 61.0922852,59.9311523 C61.0073238,59.846191 60.9648438,59.7441412 60.9648438,59.625 C60.9648438,59.5039056 61.0073238,59.4013676 61.0922852,59.3173828 C61.1772465,59.233398 61.2792963,59.1914062 61.3984375,59.1914062 C61.5195319,59.1914062 61.6220699,59.233398 61.7060547,59.3173828 C61.7900395,59.4013676 61.8320312,59.5039056 61.8320312,59.625 C61.8320312,59.7441412 61.7900395,59.846191 61.7060547,59.9311523 C61.6220699,60.0161137 61.5195319,60.0585938 61.3984375,60.0585938 Z M61.3984375,57.703125 C61.2792963,57.703125 61.1772465,57.660645 61.0922852,57.5756836 C61.0073238,57.4907222 60.9648438,57.3886725 60.9648438,57.2695312 C60.9648438,57.1484369 61.0073238,57.0458989 61.0922852,56.9619141 C61.1772465,56.8779293 61.2792963,56.8359375 61.3984375,56.8359375 C61.5195319,56.8359375 61.6220699,56.8779293 61.7060547,56.9619141 C61.7900395,57.0458989 61.8320312,57.1484369 61.8320312,57.2695312 C61.8320312,57.3886725 61.7900395,57.4907222 61.7060547,57.5756836 C61.6220699,57.660645 61.5195319,57.703125 61.3984375,57.703125 Z M67.5625,57.7148438 L67.5039062,55.8398438 L68.1835938,55.8398438 L68.125,57.7148438 L67.5625,57.7148438 Z M68.7460938,57.7148438 L68.6875,55.8398438 L69.3671875,55.8398438 L69.3085938,57.7148438 L68.7460938,57.7148438 Z M71.7080078,60.0585938 C71.3017558,60.0585938 70.9936534,59.924806 70.7836914,59.6572266 C70.5737294,59.3896471 70.46875,58.9960963 70.46875,58.4765625 C70.46875,57.9374973 70.5737294,57.5292983 70.7836914,57.2519531 C70.9936534,56.974608 71.3017558,56.8359375 71.7080078,56.8359375 C71.9404308,56.8359375 72.1293938,56.8906245 72.2749023,57 C72.4204109,57.1093755 72.5058592,57.2617178 72.53125,57.4570312 L72.5898438,57.4570312 L72.5898438,55.6054688 L73.2109375,55.6054688 L73.2109375,60 L72.6542969,60.0292969 L72.5927734,59.4375 L72.53125,59.4375 C72.5117187,59.6328135 72.4291999,59.7851557 72.2836914,59.8945312 C72.1381829,60.0039068 71.9462903,60.0585938 71.7080078,60.0585938 Z M72.5898438,58.5527344 L72.5898438,58.3417969 C72.5898438,57.6894499 72.3417994,57.3632812 71.8457031,57.3632812 C71.3378881,57.3632812 71.0839844,57.7343713 71.0839844,58.4765625 C71.0839844,59.179691 71.3378881,59.53125 71.8457031,59.53125 C72.3417994,59.53125 72.5898438,59.2050814 72.5898438,58.5527344 Z M75.4609375,60.0585938 C75.0312479,60.0585938 74.6972668,59.9179702 74.4589844,59.6367188 C74.2207019,59.3554673 74.1015625,58.9589869 74.1015625,58.4472656 C74.1015625,57.9335912 74.2207019,57.5366225 74.4589844,57.2563477 C74.6972668,56.9760728 75.0312479,56.8359375 75.4609375,56.8359375 C75.8925803,56.8359375 76.2270496,56.9760728 76.4643555,57.2563477 C76.7016613,57.5366225 76.8203125,57.9335912 76.8203125,58.4472656 C76.8203125,58.9589869 76.7016613,59.3554673 76.4643555,59.6367188 C76.2270496,59.9179702 75.8925803,60.0585938 75.4609375,60.0585938 Z M75.4609375,59.5019531 C75.6894543,59.5019531 75.865722,59.4101572 75.9897461,59.2265625 C76.1137702,59.0429678 76.1757812,58.7832048 76.1757812,58.4472656 C76.1757812,58.1093733 76.1137702,57.849122 75.9897461,57.6665039 C75.865722,57.4838858 75.6894543,57.3925781 75.4609375,57.3925781 C75.2324207,57.3925781 75.056153,57.4838858 74.9321289,57.6665039 C74.8081048,57.849122 74.7460938,58.1093733 74.7460938,58.4472656 C74.7460938,58.7832048 74.8081048,59.0429678 74.9321289,59.2265625 C75.056153,59.4101572 75.2324207,59.5019531 75.4609375,59.5019531 Z M79.5390625,60.0585938 C79.068357,60.0585938 78.7280284,59.9609385 78.5180664,59.765625 C78.3081044,59.5703115 78.203125,59.2578146 78.203125,58.828125 L78.203125,57.4394531 L77.4238281,57.4394531 L77.4238281,56.8945312 L78.203125,56.8945312 L78.203125,55.9570312 L78.8242188,55.9570312 L78.8242188,56.8945312 L80.2363281,56.8945312 L80.2363281,57.4394531 L78.8242188,57.4394531 L78.8242188,58.7988281 C78.8242188,59.0449231 78.8842767,59.2236323 79.0043945,59.3349609 C79.1245123,59.4462896 79.3222642,59.5019531 79.5976562,59.5019531 C79.695313,59.5019531 79.7988276,59.4965821 79.9082031,59.4858398 C80.0175787,59.4750976 80.1425774,59.4609376 80.2832031,59.4433594 L80.3535156,59.9882812 C80.2167962,60.0117189 80.0834967,60.0292968 79.9536133,60.0410156 C79.8237298,60.0527344 79.6855476,60.0585938 79.5390625,60.0585938 Z M82.7910156,60.0585938 C82.2617161,60.0585938 81.8530288,59.919435 81.5649414,59.6411133 C81.276854,59.3627916 81.1328125,58.9628932 81.1328125,58.4414062 C81.1328125,57.9335912 81.2690416,57.5390639 81.5415039,57.2578125 C81.8139662,56.9765611 82.2031225,56.8359375 82.7089844,56.8359375 C83.0117203,56.8359375 83.270995,56.8920893 83.4868164,57.0043945 C83.7026378,57.1166998 83.8564449,57.2753896 83.9482422,57.4804688 L83.4707031,57.8408203 C83.3828121,57.6982415 83.2705085,57.587891 83.1337891,57.5097656 C82.9970696,57.4316402 82.8476571,57.3925781 82.6855469,57.3925781 C82.3925767,57.3925781 82.1650399,57.4809561 82.0029297,57.6577148 C81.8408195,57.8344735 81.7597656,58.0859359 81.7597656,58.4121094 C81.7597656,58.7656268 81.8549795,59.0356436 82.0454102,59.222168 C82.2358408,59.4086923 82.5078107,59.5019531 82.8613281,59.5019531 C83.0058601,59.5019531 83.1503899,59.4951173 83.2949219,59.4814453 C83.4394538,59.4677734 83.5800774,59.4492189 83.7167969,59.4257812 L83.7871094,59.9707031 C83.6269523,60.0058596 83.4614266,60.0292968 83.2905273,60.0410156 C83.1196281,60.0527344 82.9531258,60.0585938 82.7910156,60.0585938 Z M86.0078125,60.0585938 C85.5781229,60.0585938 85.2441418,59.9179702 85.0058594,59.6367188 C84.7675769,59.3554673 84.6484375,58.9589869 84.6484375,58.4472656 C84.6484375,57.9335912 84.7675769,57.5366225 85.0058594,57.2563477 C85.2441418,56.9760728 85.5781229,56.8359375 86.0078125,56.8359375 C86.4394553,56.8359375 86.7739246,56.9760728 87.0112305,57.2563477 C87.2485363,57.5366225 87.3671875,57.9335912 87.3671875,58.4472656 C87.3671875,58.9589869 87.2485363,59.3554673 87.0112305,59.6367188 C86.7739246,59.9179702 86.4394553,60.0585938 86.0078125,60.0585938 Z M86.0078125,59.5019531 C86.2363293,59.5019531 86.412597,59.4101572 86.5366211,59.2265625 C86.6606452,59.0429678 86.7226562,58.7832048 86.7226562,58.4472656 C86.7226562,58.1093733 86.6606452,57.849122 86.5366211,57.6665039 C86.412597,57.4838858 86.2363293,57.3925781 86.0078125,57.3925781 C85.7792957,57.3925781 85.603028,57.4838858 85.4790039,57.6665039 C85.3549798,57.849122 85.2929688,58.1093733 85.2929688,58.4472656 C85.2929688,58.7832048 85.3549798,59.0429678 85.4790039,59.2265625 C85.603028,59.4101572 85.7792957,59.5019531 86.0078125,59.5019531 Z M90.3320312,60 L90.3320312,57.6269531 C90.3320312,57.4121083 90.2519539,57.3046875 90.0917969,57.3046875 C89.8886709,57.3046875 89.7871094,57.4453111 89.7871094,57.7265625 L89.7871094,60 L89.2597656,60 L89.2597656,57.5683594 C89.2597656,57.3925772 89.1777352,57.3046875 89.0136719,57.3046875 C88.8144521,57.3046875 88.7148438,57.4453111 88.7148438,57.7265625 L88.7148438,60 L88.09375,60 L88.09375,56.8945312 L88.6445312,56.8945312 L88.6855469,57.28125 L88.7324219,57.28125 C88.7558595,56.9843735 88.9335921,56.8359375 89.265625,56.8359375 C89.396485,56.8359375 89.5053707,56.8730465 89.5922852,56.9472656 C89.6791997,57.0214847 89.7373045,57.1328118 89.7666016,57.28125 L89.8164062,57.28125 C89.8261719,57.1601556 89.8745113,57.0556645 89.9614258,56.9677734 C90.0483403,56.8798824 90.1738273,56.8359375 90.3378906,56.8359375 C90.5527354,56.8359375 90.7089839,56.8935541 90.8066406,57.0087891 C90.9042974,57.124024 90.953125,57.3105456 90.953125,57.5683594 L90.953125,60 L90.3320312,60 Z M91.5742188,58.1953125 L91.5742188,57.6503906 L94.5039062,57.6503906 L94.5039062,58.1953125 L91.5742188,58.1953125 Z M97.1171875,60.0585938 C96.646482,60.0585938 96.3061534,59.9609385 96.0961914,59.765625 C95.8862294,59.5703115 95.78125,59.2578146 95.78125,58.828125 L95.78125,57.4394531 L95.0019531,57.4394531 L95.0019531,56.8945312 L95.78125,56.8945312 L95.78125,55.9570312 L96.4023438,55.9570312 L96.4023438,56.8945312 L97.8144531,56.8945312 L97.8144531,57.4394531 L96.4023438,57.4394531 L96.4023438,58.7988281 C96.4023438,59.0449231 96.4624017,59.2236323 96.5825195,59.3349609 C96.7026373,59.4462896 96.9003892,59.5019531 97.1757812,59.5019531 C97.273438,59.5019531 97.3769526,59.4965821 97.4863281,59.4858398 C97.5957037,59.4750976 97.7207024,59.4609376 97.8613281,59.4433594 L97.9316406,59.9882812 C97.7949212,60.0117189 97.6616217,60.0292968 97.5317383,60.0410156 C97.4018548,60.0527344 97.2636726,60.0585938 97.1171875,60.0585938 Z M100.070312,60.0585938 C99.6406229,60.0585938 99.3066418,59.9179702 99.0683594,59.6367188 C98.8300769,59.3554673 98.7109375,58.9589869 98.7109375,58.4472656 C98.7109375,57.9335912 98.8300769,57.5366225 99.0683594,57.2563477 C99.3066418,56.9760728 99.6406229,56.8359375 100.070312,56.8359375 C100.501955,56.8359375 100.836425,56.9760728 101.07373,57.2563477 C101.311036,57.5366225 101.429688,57.9335912 101.429688,58.4472656 C101.429688,58.9589869 101.311036,59.3554673 101.07373,59.6367188 C100.836425,59.9179702 100.501955,60.0585938 100.070312,60.0585938 Z M100.070312,59.5019531 C100.298829,59.5019531 100.475097,59.4101572 100.599121,59.2265625 C100.723145,59.0429678 100.785156,58.7832048 100.785156,58.4472656 C100.785156,58.1093733 100.723145,57.849122 100.599121,57.6665039 C100.475097,57.4838858 100.298829,57.3925781 100.070312,57.3925781 C99.8417957,57.3925781 99.665528,57.4838858 99.5415039,57.6665039 C99.4174798,57.849122 99.3554688,58.1093733 99.3554688,58.4472656 C99.3554688,58.7832048 99.4174798,59.0429678 99.5415039,59.2265625 C99.665528,59.4101572 99.8417957,59.5019531 100.070312,59.5019531 Z M103.585938,60.0585938 C103.156248,60.0585938 102.822267,59.9179702 102.583984,59.6367188 C102.345702,59.3554673 102.226562,58.9589869 102.226562,58.4472656 C102.226562,57.9335912 102.345702,57.5366225 102.583984,57.2563477 C102.822267,56.9760728 103.156248,56.8359375 103.585938,56.8359375 C104.01758,56.8359375 104.35205,56.9760728 104.589355,57.2563477 C104.826661,57.5366225 104.945312,57.9335912 104.945312,58.4472656 C104.945312,58.9589869 104.826661,59.3554673 104.589355,59.6367188 C104.35205,59.9179702 104.01758,60.0585938 103.585938,60.0585938 Z M103.585938,59.5019531 C103.814454,59.5019531 103.990722,59.4101572 104.114746,59.2265625 C104.23877,59.0429678 104.300781,58.7832048 104.300781,58.4472656 C104.300781,58.1093733 104.23877,57.849122 104.114746,57.6665039 C103.990722,57.4838858 103.814454,57.3925781 103.585938,57.3925781 C103.357421,57.3925781 103.181153,57.4838858 103.057129,57.6665039 C102.933105,57.849122 102.871094,58.1093733 102.871094,58.4472656 C102.871094,58.7832048 102.933105,59.0429678 103.057129,59.2265625 C103.181153,59.4101572 103.357421,59.5019531 103.585938,59.5019531 Z M107.564453,60.0585938 C107.205076,60.0585938 106.945313,59.9609385 106.785156,59.765625 C106.624999,59.5703115 106.544922,59.2578146 106.544922,58.828125 L106.544922,56.1503906 L105.630859,56.1503906 L105.630859,55.6054688 L107.166016,55.6054688 L107.166016,58.7988281 C107.166016,58.9628914 107.18164,59.0966792 107.212891,59.2001953 C107.244141,59.3037115 107.305175,59.3798826 107.395996,59.4287109 C107.486817,59.4775393 107.621093,59.5019531 107.798828,59.5019531 C107.960938,59.5019531 108.167967,59.4648441 108.419922,59.390625 L108.490234,59.9355469 C108.33203,59.9785158 108.180177,60.0097655 108.034668,60.0292969 C107.889159,60.0488282 107.732423,60.0585938 107.564453,60.0585938 Z M109.152344,58.1953125 L109.152344,57.6503906 L112.082031,57.6503906 L112.082031,58.1953125 L109.152344,58.1953125 Z M112.84375,60 L112.84375,55.6054688 L113.464844,55.6054688 L113.464844,58.265625 L113.634766,58.265625 C113.892579,58.265625 114.104491,58.2211919 114.270508,58.1323242 C114.436524,58.0434566 114.566894,57.8984385 114.661621,57.6972656 C114.756348,57.4960927 114.826172,57.2285173 114.871094,56.8945312 L115.515625,56.8945312 C115.419921,57.6562538 115.181643,58.1904282 114.800781,58.4970703 L115.714844,60 L114.947266,60 L114.229492,58.7724609 C114.09082,58.8056642 113.941407,58.8222656 113.78125,58.8222656 L113.464844,58.8222656 L113.464844,60 L112.84375,60 Z M116.359375,60 L116.359375,59.4550781 L117.542969,59.4550781 L117.542969,57.4394531 L116.535156,57.4394531 L116.535156,56.8945312 L118.164062,56.8945312 L118.164062,59.4550781 L119.119141,59.4550781 L119.119141,60 L116.359375,60 Z M117.833008,56.4023438 C117.713867,56.4023438 117.611817,56.3598637 117.526855,56.2749023 C117.441894,56.189941 117.399414,56.0878912 117.399414,55.96875 C117.399414,55.8476556 117.441894,55.7451176 117.526855,55.6611328 C117.611817,55.577148 117.713867,55.5351562 117.833008,55.5351562 C117.954102,55.5351562 118.05664,55.577148 118.140625,55.6611328 C118.22461,55.7451176 118.266602,55.8476556 118.266602,55.96875 C118.266602,56.0878912 118.22461,56.189941 118.140625,56.2749023 C118.05664,56.3598637 117.954102,56.4023438 117.833008,56.4023438 Z M121.726562,60.0585938 C121.255857,60.0585938 120.915528,59.9609385 120.705566,59.765625 C120.495604,59.5703115 120.390625,59.2578146 120.390625,58.828125 L120.390625,57.4394531 L119.611328,57.4394531 L119.611328,56.8945312 L120.390625,56.8945312 L120.390625,55.9570312 L121.011719,55.9570312 L121.011719,56.8945312 L122.423828,56.8945312 L122.423828,57.4394531 L121.011719,57.4394531 L121.011719,58.7988281 C121.011719,59.0449231 121.071777,59.2236323 121.191895,59.3349609 C121.312012,59.4462896 121.509764,59.5019531 121.785156,59.5019531 C121.882813,59.5019531 121.986328,59.4965821 122.095703,59.4858398 C122.205079,59.4750976 122.330077,59.4609376 122.470703,59.4433594 L122.541016,59.9882812 C122.404296,60.0117189 122.270997,60.0292968 122.141113,60.0410156 C122.01123,60.0527344 121.873048,60.0585938 121.726562,60.0585938 Z M128.757812,60.0585938 C128.287107,60.0585938 127.946778,59.9609385 127.736816,59.765625 C127.526854,59.5703115 127.421875,59.2578146 127.421875,58.828125 L127.421875,57.4394531 L126.642578,57.4394531 L126.642578,56.8945312 L127.421875,56.8945312 L127.421875,55.9570312 L128.042969,55.9570312 L128.042969,56.8945312 L129.455078,56.8945312 L129.455078,57.4394531 L128.042969,57.4394531 L128.042969,58.7988281 C128.042969,59.0449231 128.103027,59.2236323 128.223145,59.3349609 C128.343262,59.4462896 128.541014,59.5019531 128.816406,59.5019531 C128.914063,59.5019531 129.017578,59.4965821 129.126953,59.4858398 C129.236329,59.4750976 129.361327,59.4609376 129.501953,59.4433594 L129.572266,59.9882812 C129.435546,60.0117189 129.302247,60.0292968 129.172363,60.0410156 C129.04248,60.0527344 128.904298,60.0585938 128.757812,60.0585938 Z M131.980469,60.0585938 C131.451169,60.0585938 131.042482,59.919435 130.754395,59.6411133 C130.466307,59.3627916 130.322266,58.9628932 130.322266,58.4414062 C130.322266,57.9335912 130.444335,57.5390639 130.688477,57.2578125 C130.932618,56.9765611 131.277342,56.8359375 131.722656,56.8359375 C132.14258,56.8359375 132.467284,56.9628894 132.696777,57.2167969 C132.926271,57.4707044 133.041016,57.8398413 133.041016,58.3242188 C133.041016,58.4667976 133.035156,58.5996088 133.023438,58.7226562 L130.925781,58.7226562 C130.980469,58.9824232 131.103515,59.1791985 131.294922,59.3129883 C131.486329,59.446778 131.73828,59.5136719 132.050781,59.5136719 C132.179688,59.5136719 132.30664,59.5063477 132.431641,59.4916992 C132.556641,59.4770507 132.683593,59.4570314 132.8125,59.4316406 L132.888672,59.9765625 C132.705077,60.0117189 132.53711,60.0341796 132.384766,60.0439453 C132.232421,60.053711 132.097657,60.0585938 131.980469,60.0585938 Z M130.902344,58.2480469 L132.478516,58.2480469 C132.478516,57.9687486 132.41211,57.7543953 132.279297,57.6049805 C132.146484,57.4555657 131.962892,57.3808594 131.728516,57.3808594 C131.48828,57.3808594 131.296876,57.4560539 131.154297,57.6064453 C131.011718,57.7568367 130.927735,57.9707017 130.902344,58.2480469 Z M134.986328,60.0585938 C134.751952,60.0585938 134.55127,60.0517579 134.384277,60.0380859 C134.217284,60.024414 134.064454,60.0019533 133.925781,59.9707031 L133.996094,59.4082031 C134.201173,59.4394533 134.382323,59.4628905 134.539551,59.4785156 C134.696778,59.4941407 134.845702,59.5019531 134.986328,59.5019531 C135.300783,59.5019531 135.528808,59.4711917 135.67041,59.409668 C135.812012,59.3481442 135.882812,59.2500007 135.882812,59.1152344 C135.882812,59.0214839 135.85791,58.9516604 135.808105,58.9057617 C135.758301,58.8598631 135.681641,58.8242189 135.578125,58.7988281 L134.863281,58.6171875 C134.556639,58.5390621 134.331544,58.4423834 134.187988,58.3271484 C134.044433,58.2119135 133.972656,58.0371105 133.972656,57.8027344 C133.972656,57.4628889 134.103026,57.2167976 134.36377,57.0644531 C134.624513,56.9121086 135.044919,56.8359375 135.625,56.8359375 C135.910158,56.8359375 136.183592,56.8554686 136.445312,56.8945312 L136.380859,57.4335938 C136.222655,57.4179687 136.083008,57.4072266 135.961914,57.4013672 C135.84082,57.3955078 135.722657,57.3925781 135.607422,57.3925781 C135.259764,57.3925781 135.007813,57.422363 134.851562,57.4819336 C134.695312,57.5415042 134.617188,57.6386712 134.617188,57.7734375 C134.617188,57.8632817 134.649414,57.9282225 134.713867,57.9682617 C134.778321,58.008301 134.876952,58.0449217 135.009766,58.078125 L135.583984,58.21875 C135.910158,58.2968754 136.148925,58.4013665 136.300293,58.5322266 C136.451661,58.6630866 136.527344,58.8535144 136.527344,59.1035156 C136.527344,59.4375017 136.405275,59.680175 136.161133,59.831543 C135.916991,59.9829109 135.525393,60.0585938 134.986328,60.0585938 Z M139.304688,60.0585938 C138.833982,60.0585938 138.493653,59.9609385 138.283691,59.765625 C138.073729,59.5703115 137.96875,59.2578146 137.96875,58.828125 L137.96875,57.4394531 L137.189453,57.4394531 L137.189453,56.8945312 L137.96875,56.8945312 L137.96875,55.9570312 L138.589844,55.9570312 L138.589844,56.8945312 L140.001953,56.8945312 L140.001953,57.4394531 L138.589844,57.4394531 L138.589844,58.7988281 C138.589844,59.0449231 138.649902,59.2236323 138.77002,59.3349609 C138.890137,59.4462896 139.087889,59.5019531 139.363281,59.5019531 C139.460938,59.5019531 139.564453,59.4965821 139.673828,59.4858398 C139.783204,59.4750976 139.908202,59.4609376 140.048828,59.4433594 L140.119141,59.9882812 C139.982421,60.0117189 139.849122,60.0292968 139.719238,60.0410156 C139.589355,60.0527344 139.451173,60.0585938 139.304688,60.0585938 Z M142.257812,60.0585938 C142.138671,60.0585938 142.036622,60.0161137 141.95166,59.9311523 C141.866699,59.846191 141.824219,59.7441412 141.824219,59.625 C141.824219,59.5039056 141.866699,59.4013676 141.95166,59.3173828 C142.036622,59.233398 142.138671,59.1914062 142.257812,59.1914062 C142.378907,59.1914062 142.481445,59.233398 142.56543,59.3173828 C142.649414,59.4013676 142.691406,59.5039056 142.691406,59.625 C142.691406,59.7441412 142.649414,59.846191 142.56543,59.9311523 C142.481445,60.0161137 142.378907,60.0585938 142.257812,60.0585938 Z M142.257812,57.703125 C142.138671,57.703125 142.036622,57.660645 141.95166,57.5756836 C141.866699,57.4907222 141.824219,57.3886725 141.824219,57.2695312 C141.824219,57.1484369 141.866699,57.0458989 141.95166,56.9619141 C142.036622,56.8779293 142.138671,56.8359375 142.257812,56.8359375 C142.378907,56.8359375 142.481445,56.8779293 142.56543,56.9619141 C142.649414,57.0458989 142.691406,57.1484369 142.691406,57.2695312 C142.691406,57.3886725 142.649414,57.4907222 142.56543,57.5756836 C142.481445,57.660645 142.378907,57.703125 142.257812,57.703125 Z M146.236328,60.0585938 C145.876951,60.0585938 145.617188,59.9609385 145.457031,59.765625 C145.296874,59.5703115 145.216797,59.2578146 145.216797,58.828125 L145.216797,56.1503906 L144.302734,56.1503906 L144.302734,55.6054688 L145.837891,55.6054688 L145.837891,58.7988281 C145.837891,58.9628914 145.853515,59.0966792 145.884766,59.2001953 C145.916016,59.3037115 145.97705,59.3798826 146.067871,59.4287109 C146.158692,59.4775393 146.292968,59.5019531 146.470703,59.5019531 C146.632813,59.5019531 146.839842,59.4648441 147.091797,59.390625 L147.162109,59.9355469 C147.003905,59.9785158 146.852052,60.0097655 146.706543,60.0292969 C146.561034,60.0488282 146.404298,60.0585938 146.236328,60.0585938 Z M149.289062,60.0585938 C148.859373,60.0585938 148.525392,59.9179702 148.287109,59.6367188 C148.048827,59.3554673 147.929688,58.9589869 147.929688,58.4472656 C147.929688,57.9335912 148.048827,57.5366225 148.287109,57.2563477 C148.525392,56.9760728 148.859373,56.8359375 149.289062,56.8359375 C149.720705,56.8359375 150.055175,56.9760728 150.29248,57.2563477 C150.529786,57.5366225 150.648438,57.9335912 150.648438,58.4472656 C150.648438,58.9589869 150.529786,59.3554673 150.29248,59.6367188 C150.055175,59.9179702 149.720705,60.0585938 149.289062,60.0585938 Z M149.289062,59.5019531 C149.517579,59.5019531 149.693847,59.4101572 149.817871,59.2265625 C149.941895,59.0429678 150.003906,58.7832048 150.003906,58.4472656 C150.003906,58.1093733 149.941895,57.849122 149.817871,57.6665039 C149.693847,57.4838858 149.517579,57.3925781 149.289062,57.3925781 C149.060546,57.3925781 148.884278,57.4838858 148.760254,57.6665039 C148.63623,57.849122 148.574219,58.1093733 148.574219,58.4472656 C148.574219,58.7832048 148.63623,59.0429678 148.760254,59.2265625 C148.884278,59.4101572 149.060546,59.5019531 149.289062,59.5019531 Z M153.103516,60.0585938 C152.574216,60.0585938 152.165529,59.919435 151.877441,59.6411133 C151.589354,59.3627916 151.445312,58.9628932 151.445312,58.4414062 C151.445312,57.9335912 151.581542,57.5390639 151.854004,57.2578125 C152.126466,56.9765611 152.515622,56.8359375 153.021484,56.8359375 C153.32422,56.8359375 153.583495,56.8920893 153.799316,57.0043945 C154.015138,57.1166998 154.168945,57.2753896 154.260742,57.4804688 L153.783203,57.8408203 C153.695312,57.6982415 153.583008,57.587891 153.446289,57.5097656 C153.30957,57.4316402 153.160157,57.3925781 152.998047,57.3925781 C152.705077,57.3925781 152.47754,57.4809561 152.31543,57.6577148 C152.15332,57.8344735 152.072266,58.0859359 152.072266,58.4121094 C152.072266,58.7656268 152.16748,59.0356436 152.35791,59.222168 C152.548341,59.4086923 152.820311,59.5019531 153.173828,59.5019531 C153.31836,59.5019531 153.46289,59.4951173 153.607422,59.4814453 C153.751954,59.4677734 153.892577,59.4492189 154.029297,59.4257812 L154.099609,59.9707031 C153.939452,60.0058596 153.773927,60.0292968 153.603027,60.0410156 C153.432128,60.0527344 153.265626,60.0585938 153.103516,60.0585938 Z M156.958984,60.0292969 L156.929688,59.34375 L156.868164,59.34375 C156.844726,59.5820324 156.743653,59.7607416 156.564941,59.8798828 C156.38623,59.999024 156.152345,60.0585938 155.863281,60.0585938 C155.539061,60.0585938 155.288087,59.9804695 155.110352,59.8242188 C154.932616,59.667968 154.84375,59.4472671 154.84375,59.1621094 C154.84375,58.8339827 154.966307,58.5820321 155.211426,58.40625 C155.456544,58.2304679 155.802732,58.1425781 156.25,58.1425781 C156.472657,58.1425781 156.667968,58.1591795 156.835938,58.1923828 L156.835938,58.0488281 C156.835938,57.8417958 156.763184,57.6899419 156.617676,57.5932617 C156.472167,57.4965815 156.255861,57.444336 155.96875,57.4365234 L155.224609,57.4160156 L155.283203,56.8652344 L155.910156,56.8740234 C156.423831,56.881836 156.805175,56.9926747 157.054199,57.206543 C157.303224,57.4204112 157.427734,57.7324198 157.427734,58.1425781 L157.427734,59.4375 L157.955078,59.5019531 L157.955078,60 L156.958984,60.0292969 Z M156.835938,58.6699219 C156.736328,58.6542968 156.637208,58.6455078 156.538574,58.6435547 C156.439941,58.6416016 156.339844,58.640625 156.238281,58.640625 C155.699216,58.640625 155.429688,58.8046859 155.429688,59.1328125 C155.429688,59.2695319 155.476074,59.3749996 155.568848,59.4492188 C155.661622,59.5234379 155.792968,59.5605469 155.962891,59.5605469 C156.156251,59.5605469 156.31787,59.5273441 156.447754,59.4609375 C156.577637,59.3945309 156.674804,59.3095708 156.739258,59.2060547 C156.803711,59.1025385 156.835938,58.9960943 156.835938,58.8867188 L156.835938,58.6699219 Z M160.298828,60.0585938 C159.939451,60.0585938 159.679688,59.9609385 159.519531,59.765625 C159.359374,59.5703115 159.279297,59.2578146 159.279297,58.828125 L159.279297,56.1503906 L158.365234,56.1503906 L158.365234,55.6054688 L159.900391,55.6054688 L159.900391,58.7988281 C159.900391,58.9628914 159.916015,59.0966792 159.947266,59.2001953 C159.978516,59.3037115 160.03955,59.3798826 160.130371,59.4287109 C160.221192,59.4775393 160.355468,59.5019531 160.533203,59.5019531 C160.695313,59.5019531 160.902342,59.4648441 161.154297,59.390625 L161.224609,59.9355469 C161.066405,59.9785158 160.914552,60.0097655 160.769043,60.0292969 C160.623534,60.0488282 160.466798,60.0585938 160.298828,60.0585938 Z M162.484375,57.7148438 L162.425781,55.8398438 L163.105469,55.8398438 L163.046875,57.7148438 L162.484375,57.7148438 Z M163.667969,57.7148438 L163.609375,55.8398438 L164.289062,55.8398438 L164.230469,57.7148438 L163.667969,57.7148438 Z M29.125,67.6269531 C29.0117182,67.6269531 28.9165043,67.6215821 28.8393555,67.6108398 C28.7622066,67.6000976 28.6914066,67.5859376 28.6269531,67.5683594 L28.6972656,67.0585938 C28.7656253,67.0664063 28.8315427,67.0732422 28.8950195,67.0791016 C28.9584964,67.084961 29.0175779,67.0878906 29.0722656,67.0878906 C29.2109382,67.0878906 29.3247066,67.0400395 29.4135742,66.9443359 C29.5024419,66.8486323 29.5312502,66.7148446 29.5,66.5429688 C29.4804687,66.4316401 29.4506838,66.3242193 29.4106445,66.2207031 C29.3706053,66.117187 29.3334963,66.0122076 29.2993164,65.9057617 C29.2651365,65.7993159 29.2480469,65.6875006 29.2480469,65.5703125 C29.2480469,65.3906241 29.3261711,65.2485357 29.4824219,65.144043 C29.6386727,65.0395503 29.8554674,64.9853516 30.1328125,64.9814453 L30.1328125,64.8818359 C29.8554674,64.8779297 29.6386727,64.8203131 29.4824219,64.7089844 C29.3261711,64.5976557 29.2480469,64.4414073 29.2480469,64.2402344 C29.2480469,64.1269526 29.2651365,64.0180669 29.2993164,63.9135742 C29.3334963,63.8090815 29.3706053,63.7041021 29.4106445,63.5986328 C29.4506838,63.4931635 29.4804687,63.3828131 29.5,63.2675781 C29.5273439,63.1113273 29.497559,62.9902348 29.4106445,62.9042969 C29.32373,62.8183589 29.2109382,62.7753906 29.0722656,62.7753906 C29.0175779,62.7753906 28.9584964,62.777832 28.8950195,62.7827148 C28.8315427,62.7875977 28.7656253,62.7949218 28.6972656,62.8046875 L28.6269531,62.2949219 C28.6914066,62.2773437 28.7622066,62.2631836 28.8393555,62.2524414 C28.9165043,62.2416992 29.0117182,62.2363281 29.125,62.2363281 C29.3378917,62.2363281 29.5268546,62.2773433 29.6918945,62.359375 C29.8569344,62.4414067 29.9804683,62.5590813 30.0625,62.7124023 C30.1445317,62.8657234 30.1660158,63.0507802 30.1269531,63.2675781 C30.1074218,63.3789068 30.0786135,63.4873042 30.0405273,63.5927734 C30.0024412,63.6982427 29.9672853,63.804687 29.9350586,63.9121094 C29.9028319,64.0195318 29.8867188,64.1328119 29.8867188,64.2519531 C29.8867188,64.3242191 29.9184567,64.3881833 29.9819336,64.4438477 C30.0454105,64.499512 30.1259761,64.5463865 30.2236328,64.5844727 C30.3212896,64.6225588 30.4213862,64.6513671 30.5239258,64.6708984 C30.6264654,64.6904298 30.7167965,64.7001953 30.7949219,64.7001953 L30.7949219,65.1630859 C30.7148433,65.1630859 30.6230474,65.1694335 30.5195312,65.1821289 C30.4160151,65.1948243 30.3159185,65.2158202 30.2192383,65.2451172 C30.1225581,65.2744142 30.0429691,65.3149411 29.9804688,65.3666992 C29.9179684,65.4184573 29.8867188,65.4824215 29.8867188,65.5585938 C29.8867188,65.7304696 29.9194333,65.895507 29.9848633,66.0537109 C30.0502933,66.2119149 30.0976561,66.3749992 30.1269531,66.5429688 C30.167969,66.7675792 30.1469731,66.9609367 30.0639648,67.1230469 C29.9809566,67.2851571 29.8569344,67.4096675 29.6918945,67.496582 C29.5268546,67.5834965 29.3378917,67.6269531 29.125,67.6269531 Z" id="Combined-Shape" fill="#262A33"></path>
        <path d="M9,57.987081 L9,63.9741619 L14.9866643,63.9608228 L20.9733286,63.9474836 L20.9866381,57.9737418 L21,52 L14.9999738,52 L9,52 L9,57.987081 M9.03642372,58.0131291 L9.03642372,64 L9.06312372,61.0237374 L9.08972372,58.0474748 L9.06312372,55.0368665 L9.03642372,52.0262582 L9.03642372,58.0131291 M11.0435878,57.9868709 L11.0435878,61.9256018 L13.0085761,61.9256018 L14.9735644,61.9256018 L14.9735644,58.9846827 L14.9735644,56.0437637 L15.9429586,56.0437637 L16.9123528,56.0437637 L16.9123528,58.9846827 L16.9123528,61.9256018 L17.9079468,61.9256018 L18.9035409,61.9256018 L18.9035409,57.9868709 L18.9035409,54.04814 L14.9735644,54.04814 L11.0435878,54.04814 L11.0435878,57.9868709" id="Shape" fill="#262A33"></path>
    </g>
</svg>